<svg width="286" height="208" viewBox="0 0 286 208" fill="none" xmlns="http://www.w3.org/2000/svg">
<g opacity="0.5">
<path d="M147.832 115.372C148.394 115.372 148.873 115.166 149.269 114.755C149.665 114.344 149.862 113.857 149.862 113.295C149.862 112.758 149.663 112.286 149.264 111.877C148.865 111.469 148.385 111.265 147.823 111.265C147.261 111.265 146.776 111.47 146.368 111.882C145.959 112.293 145.755 112.767 145.755 113.304C145.755 113.866 145.961 114.351 146.372 114.759C146.784 115.168 147.27 115.372 147.832 115.372ZM147.628 126.625C143.947 126.625 140.504 125.93 137.298 124.539C134.092 123.148 131.288 121.253 128.885 118.852C126.482 116.452 124.585 113.649 123.193 110.444C121.801 107.238 121.105 103.794 121.105 100.11C121.105 96.4518 121.8 93.0121 123.191 89.7913C124.582 86.5705 126.477 83.767 128.878 81.3806C131.278 78.9943 134.081 77.1051 137.286 75.7131C140.491 74.321 143.936 73.625 147.62 73.625C151.278 73.625 154.718 74.3204 157.939 75.7111C161.159 77.1018 163.963 78.9893 166.349 81.3734C168.736 83.7575 170.625 86.561 172.017 89.784C173.409 93.007 174.105 96.4463 174.105 100.102C174.105 103.783 173.41 107.226 172.019 110.432C170.628 113.638 168.741 116.439 166.357 118.836C163.972 121.232 161.169 123.13 157.946 124.528C154.723 125.926 151.284 126.625 147.628 126.625ZM147.629 124.134C154.3 124.134 159.965 121.802 164.624 117.139C169.284 112.475 171.614 106.796 171.614 100.1C171.614 93.4302 169.287 87.7653 164.633 83.1057C159.98 78.4462 154.304 76.1164 147.605 76.1164C140.926 76.1164 135.255 78.4431 130.591 83.0965C125.928 87.7499 123.596 93.4261 123.596 100.125C123.596 106.804 125.928 112.475 130.591 117.139C135.255 121.802 140.934 124.134 147.629 124.134ZM147.765 87.411C149.325 87.411 150.681 87.8895 151.83 88.8463C152.98 89.8032 153.554 91.0147 153.554 92.4809C153.554 93.6259 153.235 94.6489 152.597 95.5501C151.958 96.4512 151.222 97.2923 150.387 98.0733C149.378 98.9806 148.492 99.9732 147.728 101.051C146.964 102.129 146.525 103.328 146.412 104.649C146.374 104.986 146.479 105.26 146.725 105.471C146.972 105.682 147.259 105.787 147.588 105.787C147.937 105.787 148.228 105.675 148.462 105.451C148.697 105.227 148.838 104.947 148.885 104.612C149.073 103.644 149.454 102.766 150.027 101.978C150.599 101.189 151.259 100.457 152.007 99.7817C153.058 98.7774 153.97 97.6745 154.744 96.4728C155.519 95.2711 155.906 93.9417 155.906 92.4846C155.906 90.3416 155.12 88.557 153.548 87.1307C151.975 85.7044 150.105 84.9913 147.938 84.9913C146.354 84.9913 144.863 85.3644 143.465 86.1105C142.066 86.8567 140.92 87.8797 140.027 89.1796C139.834 89.464 139.765 89.7658 139.819 90.0852C139.873 90.4045 140.019 90.6541 140.257 90.8341C140.636 91.0397 141.003 91.0941 141.359 90.9972C141.715 90.9004 142.014 90.6896 142.256 90.3649C142.941 89.5087 143.75 88.8023 144.684 88.2458C145.617 87.6893 146.644 87.411 147.765 87.411Z" fill="#F89D87"/>
</g>
<path d="M133.408 157.696V166H132.316V159.808L129.556 166H128.788L126.016 159.796V166H124.924V157.696H126.1L129.172 164.56L132.244 157.696H133.408ZM138.127 166.108C137.511 166.108 136.951 165.968 136.447 165.688C135.951 165.408 135.559 165.012 135.271 164.5C134.991 163.98 134.851 163.38 134.851 162.7C134.851 162.028 134.995 161.436 135.283 160.924C135.579 160.404 135.979 160.008 136.483 159.736C136.987 159.456 137.551 159.316 138.175 159.316C138.799 159.316 139.363 159.456 139.867 159.736C140.371 160.008 140.767 160.4 141.055 160.912C141.351 161.424 141.499 162.02 141.499 162.7C141.499 163.38 141.347 163.98 141.043 164.5C140.747 165.012 140.343 165.408 139.831 165.688C139.319 165.968 138.751 166.108 138.127 166.108ZM138.127 165.148C138.519 165.148 138.887 165.056 139.231 164.872C139.575 164.688 139.851 164.412 140.059 164.044C140.275 163.676 140.383 163.228 140.383 162.7C140.383 162.172 140.279 161.724 140.071 161.356C139.863 160.988 139.591 160.716 139.255 160.54C138.919 160.356 138.555 160.264 138.163 160.264C137.763 160.264 137.395 160.356 137.059 160.54C136.731 160.716 136.467 160.988 136.267 161.356C136.067 161.724 135.967 162.172 135.967 162.7C135.967 163.236 136.063 163.688 136.255 164.056C136.455 164.424 136.719 164.7 137.047 164.884C137.375 165.06 137.735 165.148 138.127 165.148ZM144.027 160.492C144.219 160.116 144.491 159.824 144.843 159.616C145.203 159.408 145.639 159.304 146.151 159.304V160.432H145.863C144.639 160.432 144.027 161.096 144.027 162.424V166H142.935V159.424H144.027V160.492ZM153.412 162.46C153.412 162.668 153.4 162.888 153.376 163.12H148.12C148.16 163.768 148.38 164.276 148.78 164.644C149.188 165.004 149.68 165.184 150.256 165.184C150.728 165.184 151.12 165.076 151.432 164.86C151.752 164.636 151.976 164.34 152.104 163.972H153.28C153.104 164.604 152.752 165.12 152.224 165.52C151.696 165.912 151.04 166.108 150.256 166.108C149.632 166.108 149.072 165.968 148.576 165.688C148.088 165.408 147.704 165.012 147.424 164.5C147.144 163.98 147.004 163.38 147.004 162.7C147.004 162.02 147.14 161.424 147.412 160.912C147.684 160.4 148.064 160.008 148.552 159.736C149.048 159.456 149.616 159.316 150.256 159.316C150.88 159.316 151.432 159.452 151.912 159.724C152.392 159.996 152.76 160.372 153.016 160.852C153.28 161.324 153.412 161.86 153.412 162.46ZM152.284 162.232C152.284 161.816 152.192 161.46 152.008 161.164C151.824 160.86 151.572 160.632 151.252 160.48C150.94 160.32 150.592 160.24 150.208 160.24C149.656 160.24 149.184 160.416 148.792 160.768C148.408 161.12 148.188 161.608 148.132 162.232H152.284ZM158.616 158.356C158.408 158.356 158.232 158.284 158.088 158.14C157.944 157.996 157.872 157.82 157.872 157.612C157.872 157.404 157.944 157.228 158.088 157.084C158.232 156.94 158.408 156.868 158.616 156.868C158.816 156.868 158.984 156.94 159.12 157.084C159.264 157.228 159.336 157.404 159.336 157.612C159.336 157.82 159.264 157.996 159.12 158.14C158.984 158.284 158.816 158.356 158.616 158.356ZM159.144 159.424V166H158.052V159.424H159.144ZM164.21 159.304C165.01 159.304 165.658 159.548 166.154 160.036C166.65 160.516 166.898 161.212 166.898 162.124V166H165.818V162.28C165.818 161.624 165.654 161.124 165.326 160.78C164.998 160.428 164.55 160.252 163.982 160.252C163.406 160.252 162.946 160.432 162.602 160.792C162.266 161.152 162.098 161.676 162.098 162.364V166H161.006V159.424H162.098V160.36C162.314 160.024 162.606 159.764 162.974 159.58C163.35 159.396 163.762 159.304 164.21 159.304ZM171.357 160.324H169.977V166H168.885V160.324H168.033V159.424H168.885V158.956C168.885 158.22 169.073 157.684 169.449 157.348C169.833 157.004 170.445 156.832 171.285 156.832V157.744C170.805 157.744 170.465 157.84 170.265 158.032C170.073 158.216 169.977 158.524 169.977 158.956V159.424H171.357V160.324ZM175.499 166.108C174.883 166.108 174.323 165.968 173.819 165.688C173.323 165.408 172.931 165.012 172.643 164.5C172.363 163.98 172.223 163.38 172.223 162.7C172.223 162.028 172.367 161.436 172.655 160.924C172.951 160.404 173.351 160.008 173.855 159.736C174.359 159.456 174.923 159.316 175.547 159.316C176.171 159.316 176.735 159.456 177.239 159.736C177.743 160.008 178.139 160.4 178.427 160.912C178.723 161.424 178.871 162.02 178.871 162.7C178.871 163.38 178.719 163.98 178.415 164.5C178.119 165.012 177.715 165.408 177.203 165.688C176.691 165.968 176.123 166.108 175.499 166.108ZM175.499 165.148C175.891 165.148 176.259 165.056 176.603 164.872C176.947 164.688 177.223 164.412 177.431 164.044C177.647 163.676 177.755 163.228 177.755 162.7C177.755 162.172 177.651 161.724 177.443 161.356C177.235 160.988 176.963 160.716 176.627 160.54C176.291 160.356 175.927 160.264 175.535 160.264C175.135 160.264 174.767 160.356 174.431 160.54C174.103 160.716 173.839 160.988 173.639 161.356C173.439 161.724 173.339 162.172 173.339 162.7C173.339 163.236 173.435 163.688 173.627 164.056C173.827 164.424 174.091 164.7 174.419 164.884C174.747 165.06 175.107 165.148 175.499 165.148ZM184.07 158.356C183.862 158.356 183.686 158.284 183.542 158.14C183.398 157.996 183.326 157.82 183.326 157.612C183.326 157.404 183.398 157.228 183.542 157.084C183.686 156.94 183.862 156.868 184.07 156.868C184.27 156.868 184.438 156.94 184.574 157.084C184.718 157.228 184.79 157.404 184.79 157.612C184.79 157.82 184.718 157.996 184.574 158.14C184.438 158.284 184.27 158.356 184.07 158.356ZM184.598 159.424V166H183.506V159.424H184.598ZM189.663 159.304C190.463 159.304 191.111 159.548 191.607 160.036C192.103 160.516 192.351 161.212 192.351 162.124V166H191.271V162.28C191.271 161.624 191.107 161.124 190.779 160.78C190.451 160.428 190.003 160.252 189.435 160.252C188.859 160.252 188.399 160.432 188.055 160.792C187.719 161.152 187.551 161.676 187.551 162.364V166H186.459V159.424H187.551V160.36C187.767 160.024 188.059 159.764 188.427 159.58C188.803 159.396 189.215 159.304 189.663 159.304ZM198.666 160.324V164.2C198.666 164.52 198.734 164.748 198.87 164.884C199.006 165.012 199.242 165.076 199.578 165.076H200.382V166H199.398C198.79 166 198.334 165.86 198.03 165.58C197.726 165.3 197.574 164.84 197.574 164.2V160.324H196.722V159.424H197.574V157.768H198.666V159.424H200.382V160.324H198.666ZM204.969 159.304C205.465 159.304 205.913 159.412 206.313 159.628C206.713 159.836 207.025 160.152 207.249 160.576C207.481 161 207.597 161.516 207.597 162.124V166H206.517V162.28C206.517 161.624 206.353 161.124 206.025 160.78C205.697 160.428 205.249 160.252 204.681 160.252C204.105 160.252 203.645 160.432 203.301 160.792C202.965 161.152 202.797 161.676 202.797 162.364V166H201.705V157.12H202.797V160.36C203.013 160.024 203.309 159.764 203.685 159.58C204.069 159.396 204.497 159.304 204.969 159.304ZM215.381 162.46C215.381 162.668 215.369 162.888 215.345 163.12H210.089C210.129 163.768 210.349 164.276 210.749 164.644C211.157 165.004 211.649 165.184 212.225 165.184C212.697 165.184 213.089 165.076 213.401 164.86C213.721 164.636 213.945 164.34 214.073 163.972H215.249C215.073 164.604 214.721 165.12 214.193 165.52C213.665 165.912 213.009 166.108 212.225 166.108C211.601 166.108 211.041 165.968 210.545 165.688C210.057 165.408 209.673 165.012 209.393 164.5C209.113 163.98 208.973 163.38 208.973 162.7C208.973 162.02 209.109 161.424 209.381 160.912C209.653 160.4 210.033 160.008 210.521 159.736C211.017 159.456 211.585 159.316 212.225 159.316C212.849 159.316 213.401 159.452 213.881 159.724C214.361 159.996 214.729 160.372 214.985 160.852C215.249 161.324 215.381 161.86 215.381 162.46ZM214.253 162.232C214.253 161.816 214.161 161.46 213.977 161.164C213.793 160.86 213.541 160.632 213.221 160.48C212.909 160.32 212.561 160.24 212.177 160.24C211.625 160.24 211.153 160.416 210.761 160.768C210.377 161.12 210.157 161.608 210.101 162.232H214.253ZM126.256 178.324V182.2C126.256 182.52 126.324 182.748 126.46 182.884C126.596 183.012 126.832 183.076 127.168 183.076H127.972V184H126.988C126.38 184 125.924 183.86 125.62 183.58C125.316 183.3 125.164 182.84 125.164 182.2V178.324H124.312V177.424H125.164V175.768H126.256V177.424H127.972V178.324H126.256ZM132.163 184.108C131.547 184.108 130.987 183.968 130.483 183.688C129.987 183.408 129.595 183.012 129.307 182.5C129.027 181.98 128.887 181.38 128.887 180.7C128.887 180.028 129.031 179.436 129.319 178.924C129.615 178.404 130.015 178.008 130.519 177.736C131.023 177.456 131.587 177.316 132.211 177.316C132.835 177.316 133.399 177.456 133.903 177.736C134.407 178.008 134.803 178.4 135.091 178.912C135.387 179.424 135.535 180.02 135.535 180.7C135.535 181.38 135.383 181.98 135.079 182.5C134.783 183.012 134.379 183.408 133.867 183.688C133.355 183.968 132.787 184.108 132.163 184.108ZM132.163 183.148C132.555 183.148 132.923 183.056 133.267 182.872C133.611 182.688 133.887 182.412 134.095 182.044C134.311 181.676 134.419 181.228 134.419 180.7C134.419 180.172 134.315 179.724 134.107 179.356C133.899 178.988 133.627 178.716 133.291 178.54C132.955 178.356 132.591 178.264 132.199 178.264C131.799 178.264 131.431 178.356 131.095 178.54C130.767 178.716 130.503 178.988 130.303 179.356C130.103 179.724 130.003 180.172 130.003 180.7C130.003 181.236 130.099 181.688 130.291 182.056C130.491 182.424 130.755 182.7 131.083 182.884C131.411 183.06 131.771 183.148 132.163 183.148ZM138.062 178.636C138.278 178.26 138.598 177.948 139.022 177.7C139.454 177.444 139.954 177.316 140.522 177.316C141.106 177.316 141.634 177.456 142.106 177.736C142.586 178.016 142.962 178.412 143.234 178.924C143.506 179.428 143.642 180.016 143.642 180.688C143.642 181.352 143.506 181.944 143.234 182.464C142.962 182.984 142.586 183.388 142.106 183.676C141.634 183.964 141.106 184.108 140.522 184.108C139.962 184.108 139.466 183.984 139.034 183.736C138.61 183.48 138.286 183.164 138.062 182.788V187.12H136.97V177.424H138.062V178.636ZM142.526 180.688C142.526 180.192 142.426 179.76 142.226 179.392C142.026 179.024 141.754 178.744 141.41 178.552C141.074 178.36 140.702 178.264 140.294 178.264C139.894 178.264 139.522 178.364 139.178 178.564C138.842 178.756 138.57 179.04 138.362 179.416C138.162 179.784 138.062 180.212 138.062 180.7C138.062 181.196 138.162 181.632 138.362 182.008C138.57 182.376 138.842 182.66 139.178 182.86C139.522 183.052 139.894 183.148 140.294 183.148C140.702 183.148 141.074 183.052 141.41 182.86C141.754 182.66 142.026 182.376 142.226 182.008C142.426 181.632 142.526 181.192 142.526 180.688ZM149.371 178.492C149.563 178.116 149.835 177.824 150.187 177.616C150.547 177.408 150.983 177.304 151.495 177.304V178.432H151.207C149.983 178.432 149.371 179.096 149.371 180.424V184H148.279V177.424H149.371V178.492ZM153.32 176.356C153.112 176.356 152.936 176.284 152.792 176.14C152.648 175.996 152.576 175.82 152.576 175.612C152.576 175.404 152.648 175.228 152.792 175.084C152.936 174.94 153.112 174.868 153.32 174.868C153.52 174.868 153.688 174.94 153.824 175.084C153.968 175.228 154.04 175.404 154.04 175.612C154.04 175.82 153.968 175.996 153.824 176.14C153.688 176.284 153.52 176.356 153.32 176.356ZM153.848 177.424V184H152.756V177.424H153.848ZM158.421 177.316C158.989 177.316 159.485 177.44 159.909 177.688C160.341 177.936 160.661 178.248 160.869 178.624V177.424H161.973V184.144C161.973 184.744 161.845 185.276 161.589 185.74C161.333 186.212 160.965 186.58 160.485 186.844C160.013 187.108 159.461 187.24 158.829 187.24C157.965 187.24 157.245 187.036 156.669 186.628C156.093 186.22 155.753 185.664 155.649 184.96H156.729C156.849 185.36 157.097 185.68 157.473 185.92C157.849 186.168 158.301 186.292 158.829 186.292C159.429 186.292 159.917 186.104 160.293 185.728C160.677 185.352 160.869 184.824 160.869 184.144V182.764C160.653 183.148 160.333 183.468 159.909 183.724C159.485 183.98 158.989 184.108 158.421 184.108C157.837 184.108 157.305 183.964 156.825 183.676C156.353 183.388 155.981 182.984 155.709 182.464C155.437 181.944 155.301 181.352 155.301 180.688C155.301 180.016 155.437 179.428 155.709 178.924C155.981 178.412 156.353 178.016 156.825 177.736C157.305 177.456 157.837 177.316 158.421 177.316ZM160.869 180.7C160.869 180.204 160.769 179.772 160.569 179.404C160.369 179.036 160.097 178.756 159.753 178.564C159.417 178.364 159.045 178.264 158.637 178.264C158.229 178.264 157.857 178.36 157.521 178.552C157.185 178.744 156.917 179.024 156.717 179.392C156.517 179.76 156.417 180.192 156.417 180.688C156.417 181.192 156.517 181.632 156.717 182.008C156.917 182.376 157.185 182.66 157.521 182.86C157.857 183.052 158.229 183.148 158.637 183.148C159.045 183.148 159.417 183.052 159.753 182.86C160.097 182.66 160.369 182.376 160.569 182.008C160.769 181.632 160.869 181.196 160.869 180.7ZM167.082 177.304C167.578 177.304 168.026 177.412 168.426 177.628C168.826 177.836 169.138 178.152 169.362 178.576C169.594 179 169.71 179.516 169.71 180.124V184H168.63V180.28C168.63 179.624 168.466 179.124 168.138 178.78C167.81 178.428 167.362 178.252 166.794 178.252C166.218 178.252 165.758 178.432 165.414 178.792C165.078 179.152 164.91 179.676 164.91 180.364V184H163.818V175.12H164.91V178.36C165.126 178.024 165.422 177.764 165.798 177.58C166.182 177.396 166.61 177.304 167.082 177.304ZM172.826 178.324V182.2C172.826 182.52 172.894 182.748 173.03 182.884C173.166 183.012 173.402 183.076 173.738 183.076H174.542V184H173.558C172.95 184 172.494 183.86 172.19 183.58C171.886 183.3 171.734 182.84 171.734 182.2V178.324H170.882V177.424H171.734V175.768H172.826V177.424H174.542V178.324H172.826ZM178.656 180.7C178.656 180.02 178.792 179.428 179.064 178.924C179.336 178.412 179.712 178.016 180.192 177.736C180.68 177.456 181.236 177.316 181.86 177.316C182.668 177.316 183.332 177.512 183.852 177.904C184.38 178.296 184.728 178.84 184.896 179.536H183.72C183.608 179.136 183.388 178.82 183.06 178.588C182.74 178.356 182.34 178.24 181.86 178.24C181.236 178.24 180.732 178.456 180.348 178.888C179.964 179.312 179.772 179.916 179.772 180.7C179.772 181.492 179.964 182.104 180.348 182.536C180.732 182.968 181.236 183.184 181.86 183.184C182.34 183.184 182.74 183.072 183.06 182.848C183.38 182.624 183.6 182.304 183.72 181.888H184.896C184.72 182.56 184.368 183.1 183.84 183.508C183.312 183.908 182.652 184.108 181.86 184.108C181.236 184.108 180.68 183.968 180.192 183.688C179.712 183.408 179.336 183.012 179.064 182.5C178.792 181.988 178.656 181.388 178.656 180.7ZM189.221 184.108C188.605 184.108 188.045 183.968 187.541 183.688C187.045 183.408 186.653 183.012 186.365 182.5C186.085 181.98 185.945 181.38 185.945 180.7C185.945 180.028 186.089 179.436 186.377 178.924C186.673 178.404 187.073 178.008 187.577 177.736C188.081 177.456 188.645 177.316 189.269 177.316C189.893 177.316 190.457 177.456 190.961 177.736C191.465 178.008 191.861 178.4 192.149 178.912C192.445 179.424 192.593 180.02 192.593 180.7C192.593 181.38 192.441 181.98 192.137 182.5C191.841 183.012 191.437 183.408 190.925 183.688C190.413 183.968 189.845 184.108 189.221 184.108ZM189.221 183.148C189.613 183.148 189.981 183.056 190.325 182.872C190.669 182.688 190.945 182.412 191.153 182.044C191.369 181.676 191.477 181.228 191.477 180.7C191.477 180.172 191.373 179.724 191.165 179.356C190.957 178.988 190.685 178.716 190.349 178.54C190.013 178.356 189.649 178.264 189.257 178.264C188.857 178.264 188.489 178.356 188.153 178.54C187.825 178.716 187.561 178.988 187.361 179.356C187.161 179.724 187.061 180.172 187.061 180.7C187.061 181.236 187.157 181.688 187.349 182.056C187.549 182.424 187.813 182.7 188.141 182.884C188.469 183.06 188.829 183.148 189.221 183.148ZM195.121 178.492C195.313 178.116 195.585 177.824 195.937 177.616C196.297 177.408 196.733 177.304 197.245 177.304V178.432H196.957C195.733 178.432 195.121 179.096 195.121 180.424V184H194.029V177.424H195.121V178.492ZM201.71 177.304C202.51 177.304 203.158 177.548 203.654 178.036C204.15 178.516 204.398 179.212 204.398 180.124V184H203.318V180.28C203.318 179.624 203.154 179.124 202.826 178.78C202.498 178.428 202.05 178.252 201.482 178.252C200.906 178.252 200.446 178.432 200.102 178.792C199.766 179.152 199.598 179.676 199.598 180.364V184H198.506V177.424H199.598V178.36C199.814 178.024 200.106 177.764 200.474 177.58C200.85 177.396 201.262 177.304 201.71 177.304ZM212.181 180.46C212.181 180.668 212.169 180.888 212.145 181.12H206.889C206.929 181.768 207.149 182.276 207.549 182.644C207.957 183.004 208.449 183.184 209.025 183.184C209.497 183.184 209.889 183.076 210.201 182.86C210.521 182.636 210.745 182.34 210.873 181.972H212.049C211.873 182.604 211.521 183.12 210.993 183.52C210.465 183.912 209.809 184.108 209.025 184.108C208.401 184.108 207.841 183.968 207.345 183.688C206.857 183.408 206.473 183.012 206.193 182.5C205.913 181.98 205.773 181.38 205.773 180.7C205.773 180.02 205.909 179.424 206.181 178.912C206.453 178.4 206.833 178.008 207.321 177.736C207.817 177.456 208.385 177.316 209.025 177.316C209.649 177.316 210.201 177.452 210.681 177.724C211.161 177.996 211.529 178.372 211.785 178.852C212.049 179.324 212.181 179.86 212.181 180.46ZM211.053 180.232C211.053 179.816 210.961 179.46 210.777 179.164C210.593 178.86 210.341 178.632 210.021 178.48C209.709 178.32 209.361 178.24 208.977 178.24C208.425 178.24 207.953 178.416 207.561 178.768C207.177 179.12 206.957 179.608 206.901 180.232H211.053ZM214.715 178.492C214.907 178.116 215.179 177.824 215.531 177.616C215.891 177.408 216.327 177.304 216.839 177.304V178.432H216.551C215.327 178.432 214.715 179.096 214.715 180.424V184H213.623V177.424H214.715V178.492Z" fill="#1B1B1B"/>
<path d="M123.832 122.321C124.349 122.284 124.823 122.634 124.89 123.104L125.985 130.757C126.053 131.226 125.688 131.637 125.17 131.675C124.653 131.712 124.179 131.362 124.112 130.892L123.139 124.09L115.644 124.631C115.127 124.668 114.653 124.318 114.586 123.848C114.518 123.378 114.883 122.967 115.401 122.93L123.832 122.321ZM108.834 165.205C105.518 159.678 104.344 143.858 123.205 122.618L124.702 123.725C106.051 144.728 107.7 159.809 110.485 164.451L108.834 165.205Z" fill="#1B1B1B"/>
</svg>
