<svg width="286" height="208" viewBox="0 0 286 208" fill="none" xmlns="http://www.w3.org/2000/svg">
<g opacity="0.5">
<rect x="91.4175" y="48.5625" width="101.875" height="103.125" rx="50.9375" fill="white"/>
<rect x="91.4175" y="48.5625" width="101.875" height="103.125" rx="50.9375" stroke="#DC2626" stroke-width="3.125"/>
<path d="M142.355 73.5625C128.197 85.6484 121.105 96.0875 121.105 104.906C121.105 118.134 131.199 126.688 142.355 126.688C153.511 126.688 163.605 118.134 163.605 104.906C163.605 96.0875 156.513 85.6484 142.355 73.5625ZM131.278 105.438C132.261 105.438 133.058 106.128 133.244 107.084C134.333 112.981 139.3 115 142.913 114.708C144.055 114.655 145.011 115.558 145.011 116.7C145.011 117.763 144.161 118.639 143.099 118.692C137.441 119.038 130.827 115.797 129.313 107.748C129.1 106.553 130.057 105.438 131.278 105.438Z" fill="#DC2626"/>
</g>
<path d="M215.927 65.636V66.524H213.647V74H212.555V66.524H210.263V65.636H215.927ZM218.363 68.492C218.555 68.116 218.827 67.824 219.179 67.616C219.539 67.408 219.975 67.304 220.487 67.304V68.432H220.199C218.975 68.432 218.363 69.096 218.363 70.424V74H217.271V67.424H218.363V68.492ZM221.34 70.688C221.34 70.016 221.476 69.428 221.748 68.924C222.02 68.412 222.392 68.016 222.864 67.736C223.344 67.456 223.876 67.316 224.46 67.316C225.036 67.316 225.536 67.44 225.96 67.688C226.384 67.936 226.7 68.248 226.908 68.624V67.424H228.012V74H226.908V72.776C226.692 73.16 226.368 73.48 225.936 73.736C225.512 73.984 225.016 74.108 224.448 74.108C223.864 74.108 223.336 73.964 222.864 73.676C222.392 73.388 222.02 72.984 221.748 72.464C221.476 71.944 221.34 71.352 221.34 70.688ZM226.908 70.7C226.908 70.204 226.808 69.772 226.608 69.404C226.408 69.036 226.136 68.756 225.792 68.564C225.456 68.364 225.084 68.264 224.676 68.264C224.268 68.264 223.896 68.36 223.56 68.552C223.224 68.744 222.956 69.024 222.756 69.392C222.556 69.76 222.456 70.192 222.456 70.688C222.456 71.192 222.556 71.632 222.756 72.008C222.956 72.376 223.224 72.66 223.56 72.86C223.896 73.052 224.268 73.148 224.676 73.148C225.084 73.148 225.456 73.052 225.792 72.86C226.136 72.66 226.408 72.376 226.608 72.008C226.808 71.632 226.908 71.196 226.908 70.7ZM229.449 70.7C229.449 70.02 229.585 69.428 229.857 68.924C230.129 68.412 230.505 68.016 230.985 67.736C231.473 67.456 232.029 67.316 232.653 67.316C233.461 67.316 234.125 67.512 234.645 67.904C235.173 68.296 235.521 68.84 235.689 69.536H234.513C234.401 69.136 234.181 68.82 233.853 68.588C233.533 68.356 233.133 68.24 232.653 68.24C232.029 68.24 231.525 68.456 231.141 68.888C230.757 69.312 230.565 69.916 230.565 70.7C230.565 71.492 230.757 72.104 231.141 72.536C231.525 72.968 232.029 73.184 232.653 73.184C233.133 73.184 233.533 73.072 233.853 72.848C234.173 72.624 234.393 72.304 234.513 71.888H235.689C235.513 72.56 235.161 73.1 234.633 73.508C234.105 73.908 233.445 74.108 232.653 74.108C232.029 74.108 231.473 73.968 230.985 73.688C230.505 73.408 230.129 73.012 229.857 72.5C229.585 71.988 229.449 71.388 229.449 70.7ZM240.818 74L238.238 71.096V74H237.146V65.12H238.238V70.34L240.77 67.424H242.294L239.198 70.7L242.306 74H240.818ZM249.322 70.46C249.322 70.668 249.31 70.888 249.286 71.12H244.03C244.07 71.768 244.29 72.276 244.69 72.644C245.098 73.004 245.59 73.184 246.166 73.184C246.638 73.184 247.03 73.076 247.342 72.86C247.662 72.636 247.886 72.34 248.014 71.972H249.19C249.014 72.604 248.662 73.12 248.134 73.52C247.606 73.912 246.95 74.108 246.166 74.108C245.542 74.108 244.982 73.968 244.486 73.688C243.998 73.408 243.614 73.012 243.334 72.5C243.054 71.98 242.914 71.38 242.914 70.7C242.914 70.02 243.05 69.424 243.322 68.912C243.594 68.4 243.974 68.008 244.462 67.736C244.958 67.456 245.526 67.316 246.166 67.316C246.79 67.316 247.342 67.452 247.822 67.724C248.302 67.996 248.67 68.372 248.926 68.852C249.19 69.324 249.322 69.86 249.322 70.46ZM248.194 70.232C248.194 69.816 248.102 69.46 247.918 69.164C247.734 68.86 247.482 68.632 247.162 68.48C246.85 68.32 246.502 68.24 246.118 68.24C245.566 68.24 245.094 68.416 244.702 68.768C244.318 69.12 244.098 69.608 244.042 70.232H248.194ZM250.355 70.688C250.355 70.016 250.491 69.428 250.763 68.924C251.035 68.412 251.407 68.016 251.879 67.736C252.359 67.456 252.895 67.316 253.487 67.316C253.999 67.316 254.475 67.436 254.915 67.676C255.355 67.908 255.691 68.216 255.923 68.6V65.12H257.027V74H255.923V72.764C255.707 73.156 255.387 73.48 254.963 73.736C254.539 73.984 254.043 74.108 253.475 74.108C252.891 74.108 252.359 73.964 251.879 73.676C251.407 73.388 251.035 72.984 250.763 72.464C250.491 71.944 250.355 71.352 250.355 70.688ZM255.923 70.7C255.923 70.204 255.823 69.772 255.623 69.404C255.423 69.036 255.151 68.756 254.807 68.564C254.471 68.364 254.099 68.264 253.691 68.264C253.283 68.264 252.911 68.36 252.575 68.552C252.239 68.744 251.971 69.024 251.771 69.392C251.571 69.76 251.471 70.192 251.471 70.688C251.471 71.192 251.571 71.632 251.771 72.008C251.971 72.376 252.239 72.66 252.575 72.86C252.911 73.052 253.283 73.148 253.691 73.148C254.099 73.148 254.471 73.052 254.807 72.86C255.151 72.66 255.423 72.376 255.623 72.008C255.823 71.632 255.923 71.196 255.923 70.7ZM214.967 87.692C215.271 87.74 215.547 87.864 215.795 88.064C216.051 88.264 216.251 88.512 216.395 88.808C216.547 89.104 216.623 89.42 216.623 89.756C216.623 90.18 216.515 90.564 216.299 90.908C216.083 91.244 215.767 91.512 215.351 91.712C214.943 91.904 214.459 92 213.899 92H210.779V83.636H213.779C214.347 83.636 214.831 83.732 215.231 83.924C215.631 84.108 215.931 84.36 216.131 84.68C216.331 85 216.431 85.36 216.431 85.76C216.431 86.256 216.295 86.668 216.023 86.996C215.759 87.316 215.407 87.548 214.967 87.692ZM211.871 87.248H213.707C214.219 87.248 214.615 87.128 214.895 86.888C215.175 86.648 215.315 86.316 215.315 85.892C215.315 85.468 215.175 85.136 214.895 84.896C214.615 84.656 214.211 84.536 213.683 84.536H211.871V87.248ZM213.803 91.1C214.347 91.1 214.771 90.972 215.075 90.716C215.379 90.46 215.531 90.104 215.531 89.648C215.531 89.184 215.371 88.82 215.051 88.556C214.731 88.284 214.303 88.148 213.767 88.148H211.871V91.1H213.803ZM219.23 83.12V92H218.138V83.12H219.23ZM227.091 88.46C227.091 88.668 227.079 88.888 227.055 89.12H221.799C221.839 89.768 222.059 90.276 222.459 90.644C222.867 91.004 223.359 91.184 223.935 91.184C224.407 91.184 224.799 91.076 225.111 90.86C225.431 90.636 225.655 90.34 225.783 89.972H226.959C226.783 90.604 226.431 91.12 225.903 91.52C225.375 91.912 224.719 92.108 223.935 92.108C223.311 92.108 222.751 91.968 222.255 91.688C221.767 91.408 221.383 91.012 221.103 90.5C220.823 89.98 220.683 89.38 220.683 88.7C220.683 88.02 220.819 87.424 221.091 86.912C221.363 86.4 221.743 86.008 222.231 85.736C222.727 85.456 223.295 85.316 223.935 85.316C224.559 85.316 225.111 85.452 225.591 85.724C226.071 85.996 226.439 86.372 226.695 86.852C226.959 87.324 227.091 87.86 227.091 88.46ZM225.963 88.232C225.963 87.816 225.871 87.46 225.687 87.164C225.503 86.86 225.251 86.632 224.931 86.48C224.619 86.32 224.271 86.24 223.887 86.24C223.335 86.24 222.863 86.416 222.471 86.768C222.087 87.12 221.867 87.608 221.811 88.232H225.963ZM234.533 88.46C234.533 88.668 234.521 88.888 234.497 89.12H229.241C229.281 89.768 229.501 90.276 229.901 90.644C230.309 91.004 230.801 91.184 231.377 91.184C231.849 91.184 232.241 91.076 232.553 90.86C232.873 90.636 233.097 90.34 233.225 89.972H234.401C234.225 90.604 233.873 91.12 233.345 91.52C232.817 91.912 232.161 92.108 231.377 92.108C230.753 92.108 230.193 91.968 229.697 91.688C229.209 91.408 228.825 91.012 228.545 90.5C228.265 89.98 228.125 89.38 228.125 88.7C228.125 88.02 228.261 87.424 228.533 86.912C228.805 86.4 229.185 86.008 229.673 85.736C230.169 85.456 230.737 85.316 231.377 85.316C232.001 85.316 232.553 85.452 233.033 85.724C233.513 85.996 233.881 86.372 234.137 86.852C234.401 87.324 234.533 87.86 234.533 88.46ZM233.405 88.232C233.405 87.816 233.313 87.46 233.129 87.164C232.945 86.86 232.693 86.632 232.373 86.48C232.061 86.32 231.713 86.24 231.329 86.24C230.777 86.24 230.305 86.416 229.913 86.768C229.529 87.12 229.309 87.608 229.253 88.232H233.405ZM235.566 88.688C235.566 88.016 235.702 87.428 235.974 86.924C236.246 86.412 236.618 86.016 237.09 85.736C237.57 85.456 238.106 85.316 238.698 85.316C239.21 85.316 239.686 85.436 240.126 85.676C240.566 85.908 240.902 86.216 241.134 86.6V83.12H242.238V92H241.134V90.764C240.918 91.156 240.598 91.48 240.174 91.736C239.75 91.984 239.254 92.108 238.686 92.108C238.102 92.108 237.57 91.964 237.09 91.676C236.618 91.388 236.246 90.984 235.974 90.464C235.702 89.944 235.566 89.352 235.566 88.688ZM241.134 88.7C241.134 88.204 241.034 87.772 240.834 87.404C240.634 87.036 240.362 86.756 240.018 86.564C239.682 86.364 239.31 86.264 238.902 86.264C238.494 86.264 238.122 86.36 237.786 86.552C237.45 86.744 237.182 87.024 236.982 87.392C236.782 87.76 236.682 88.192 236.682 88.688C236.682 89.192 236.782 89.632 236.982 90.008C237.182 90.376 237.45 90.66 237.786 90.86C238.122 91.052 238.494 91.148 238.902 91.148C239.31 91.148 239.682 91.052 240.018 90.86C240.362 90.66 240.634 90.376 240.834 90.008C241.034 89.632 241.134 89.196 241.134 88.7ZM244.648 84.356C244.44 84.356 244.264 84.284 244.12 84.14C243.976 83.996 243.904 83.82 243.904 83.612C243.904 83.404 243.976 83.228 244.12 83.084C244.264 82.94 244.44 82.868 244.648 82.868C244.848 82.868 245.016 82.94 245.152 83.084C245.296 83.228 245.368 83.404 245.368 83.612C245.368 83.82 245.296 83.996 245.152 84.14C245.016 84.284 244.848 84.356 244.648 84.356ZM245.176 85.424V92H244.084V85.424H245.176ZM250.241 85.304C251.041 85.304 251.689 85.548 252.185 86.036C252.681 86.516 252.929 87.212 252.929 88.124V92H251.849V88.28C251.849 87.624 251.685 87.124 251.357 86.78C251.029 86.428 250.581 86.252 250.013 86.252C249.437 86.252 248.977 86.432 248.633 86.792C248.297 87.152 248.129 87.676 248.129 88.364V92H247.037V85.424H248.129V86.36C248.345 86.024 248.637 85.764 249.005 85.58C249.381 85.396 249.793 85.304 250.241 85.304ZM257.425 85.316C257.993 85.316 258.489 85.44 258.913 85.688C259.345 85.936 259.665 86.248 259.873 86.624V85.424H260.977V92.144C260.977 92.744 260.849 93.276 260.593 93.74C260.337 94.212 259.969 94.58 259.489 94.844C259.017 95.108 258.465 95.24 257.833 95.24C256.969 95.24 256.249 95.036 255.673 94.628C255.097 94.22 254.757 93.664 254.653 92.96H255.733C255.853 93.36 256.101 93.68 256.477 93.92C256.853 94.168 257.305 94.292 257.833 94.292C258.433 94.292 258.921 94.104 259.297 93.728C259.681 93.352 259.873 92.824 259.873 92.144V90.764C259.657 91.148 259.337 91.468 258.913 91.724C258.489 91.98 257.993 92.108 257.425 92.108C256.841 92.108 256.309 91.964 255.829 91.676C255.357 91.388 254.985 90.984 254.713 90.464C254.441 89.944 254.305 89.352 254.305 88.688C254.305 88.016 254.441 87.428 254.713 86.924C254.985 86.412 255.357 86.016 255.829 85.736C256.309 85.456 256.841 85.316 257.425 85.316ZM259.873 88.7C259.873 88.204 259.773 87.772 259.573 87.404C259.373 87.036 259.101 86.756 258.757 86.564C258.421 86.364 258.049 86.264 257.641 86.264C257.233 86.264 256.861 86.36 256.525 86.552C256.189 86.744 255.921 87.024 255.721 87.392C255.521 87.76 255.421 88.192 255.421 88.688C255.421 89.192 255.521 89.632 255.721 90.008C255.921 90.376 256.189 90.66 256.525 90.86C256.861 91.052 257.233 91.148 257.641 91.148C258.049 91.148 258.421 91.052 258.757 90.86C259.101 90.66 259.373 90.376 259.573 90.008C259.773 89.632 259.873 89.196 259.873 88.7Z" fill="#1B1B1B"/>
<path d="M22.927 36.636V37.524H20.647V45H19.555V37.524H17.263V36.636H22.927ZM25.3632 39.492C25.5552 39.116 25.8272 38.824 26.1792 38.616C26.5392 38.408 26.9752 38.304 27.4872 38.304V39.432H27.1992C25.9752 39.432 25.3632 40.096 25.3632 41.424V45H24.2712V38.424H25.3632V39.492ZM28.3397 41.688C28.3397 41.016 28.4757 40.428 28.7477 39.924C29.0197 39.412 29.3917 39.016 29.8637 38.736C30.3437 38.456 30.8757 38.316 31.4597 38.316C32.0357 38.316 32.5357 38.44 32.9597 38.688C33.3837 38.936 33.6997 39.248 33.9077 39.624V38.424H35.0117V45H33.9077V43.776C33.6917 44.16 33.3677 44.48 32.9357 44.736C32.5117 44.984 32.0157 45.108 31.4477 45.108C30.8637 45.108 30.3357 44.964 29.8637 44.676C29.3917 44.388 29.0197 43.984 28.7477 43.464C28.4757 42.944 28.3397 42.352 28.3397 41.688ZM33.9077 41.7C33.9077 41.204 33.8077 40.772 33.6077 40.404C33.4077 40.036 33.1357 39.756 32.7917 39.564C32.4557 39.364 32.0837 39.264 31.6757 39.264C31.2677 39.264 30.8957 39.36 30.5597 39.552C30.2237 39.744 29.9557 40.024 29.7557 40.392C29.5557 40.76 29.4557 41.192 29.4557 41.688C29.4557 42.192 29.5557 42.632 29.7557 43.008C29.9557 43.376 30.2237 43.66 30.5597 43.86C30.8957 44.052 31.2677 44.148 31.6757 44.148C32.0837 44.148 32.4557 44.052 32.7917 43.86C33.1357 43.66 33.4077 43.376 33.6077 43.008C33.8077 42.632 33.9077 42.196 33.9077 41.7ZM36.4491 41.7C36.4491 41.02 36.5851 40.428 36.8571 39.924C37.1291 39.412 37.5051 39.016 37.9851 38.736C38.4731 38.456 39.0291 38.316 39.6531 38.316C40.4611 38.316 41.1251 38.512 41.6451 38.904C42.1731 39.296 42.5211 39.84 42.6891 40.536H41.5131C41.4011 40.136 41.1811 39.82 40.8531 39.588C40.5331 39.356 40.1331 39.24 39.6531 39.24C39.0291 39.24 38.5251 39.456 38.1411 39.888C37.7571 40.312 37.5651 40.916 37.5651 41.7C37.5651 42.492 37.7571 43.104 38.1411 43.536C38.5251 43.968 39.0291 44.184 39.6531 44.184C40.1331 44.184 40.5331 44.072 40.8531 43.848C41.1731 43.624 41.3931 43.304 41.5131 42.888H42.6891C42.5131 43.56 42.1611 44.1 41.6331 44.508C41.1051 44.908 40.4451 45.108 39.6531 45.108C39.0291 45.108 38.4731 44.968 37.9851 44.688C37.5051 44.408 37.1291 44.012 36.8571 43.5C36.5851 42.988 36.4491 42.388 36.4491 41.7ZM47.8182 45L45.2382 42.096V45H44.1462V36.12H45.2382V41.34L47.7702 38.424H49.2942L46.1982 41.7L49.3062 45H47.8182ZM56.3219 41.46C56.3219 41.668 56.3099 41.888 56.2859 42.12H51.0299C51.0699 42.768 51.2899 43.276 51.6899 43.644C52.0979 44.004 52.5899 44.184 53.1659 44.184C53.6379 44.184 54.0299 44.076 54.3419 43.86C54.6619 43.636 54.8859 43.34 55.0139 42.972H56.1899C56.0139 43.604 55.6619 44.12 55.1339 44.52C54.6059 44.912 53.9499 45.108 53.1659 45.108C52.5419 45.108 51.9819 44.968 51.4859 44.688C50.9979 44.408 50.6139 44.012 50.3339 43.5C50.0539 42.98 49.9139 42.38 49.9139 41.7C49.9139 41.02 50.0499 40.424 50.3219 39.912C50.5939 39.4 50.9739 39.008 51.4619 38.736C51.9579 38.456 52.5259 38.316 53.1659 38.316C53.7899 38.316 54.3419 38.452 54.8219 38.724C55.3019 38.996 55.6699 39.372 55.9259 39.852C56.1899 40.324 56.3219 40.86 56.3219 41.46ZM55.1939 41.232C55.1939 40.816 55.1019 40.46 54.9179 40.164C54.7339 39.86 54.4819 39.632 54.1619 39.48C53.8499 39.32 53.5019 39.24 53.1179 39.24C52.5659 39.24 52.0939 39.416 51.7019 39.768C51.3179 40.12 51.0979 40.608 51.0419 41.232H55.1939ZM57.3554 41.688C57.3554 41.016 57.4914 40.428 57.7634 39.924C58.0354 39.412 58.4074 39.016 58.8794 38.736C59.3594 38.456 59.8954 38.316 60.4874 38.316C60.9994 38.316 61.4754 38.436 61.9154 38.676C62.3554 38.908 62.6914 39.216 62.9234 39.6V36.12H64.0274V45H62.9234V43.764C62.7074 44.156 62.3874 44.48 61.9634 44.736C61.5394 44.984 61.0434 45.108 60.4754 45.108C59.8914 45.108 59.3594 44.964 58.8794 44.676C58.4074 44.388 58.0354 43.984 57.7634 43.464C57.4914 42.944 57.3554 42.352 57.3554 41.688ZM62.9234 41.7C62.9234 41.204 62.8234 40.772 62.6234 40.404C62.4234 40.036 62.1514 39.756 61.8074 39.564C61.4714 39.364 61.0994 39.264 60.6914 39.264C60.2834 39.264 59.9114 39.36 59.5754 39.552C59.2394 39.744 58.9714 40.024 58.7714 40.392C58.5714 40.76 58.4714 41.192 58.4714 41.688C58.4714 42.192 58.5714 42.632 58.7714 43.008C58.9714 43.376 59.2394 43.66 59.5754 43.86C59.9114 44.052 60.2834 44.148 60.6914 44.148C61.0994 44.148 61.4714 44.052 61.8074 43.86C62.1514 43.66 62.4234 43.376 62.6234 43.008C62.8234 42.632 62.9234 42.196 62.9234 41.7ZM23.371 57.084C23.371 57.78 23.131 58.36 22.651 58.824C22.179 59.28 21.455 59.508 20.479 59.508H18.871V63H17.779V54.636H20.479C21.423 54.636 22.139 54.864 22.627 55.32C23.123 55.776 23.371 56.364 23.371 57.084ZM20.479 58.608C21.087 58.608 21.535 58.476 21.823 58.212C22.111 57.948 22.255 57.572 22.255 57.084C22.255 56.052 21.663 55.536 20.479 55.536H18.871V58.608H20.479ZM24.3202 59.688C24.3202 59.016 24.4562 58.428 24.7282 57.924C25.0002 57.412 25.3722 57.016 25.8442 56.736C26.3242 56.456 26.8562 56.316 27.4402 56.316C28.0162 56.316 28.5162 56.44 28.9402 56.688C29.3642 56.936 29.6802 57.248 29.8882 57.624V56.424H30.9922V63H29.8882V61.776C29.6722 62.16 29.3482 62.48 28.9162 62.736C28.4922 62.984 27.9962 63.108 27.4282 63.108C26.8442 63.108 26.3162 62.964 25.8442 62.676C25.3722 62.388 25.0002 61.984 24.7282 61.464C24.4562 60.944 24.3202 60.352 24.3202 59.688ZM29.8882 59.7C29.8882 59.204 29.7882 58.772 29.5882 58.404C29.3882 58.036 29.1162 57.756 28.7722 57.564C28.4362 57.364 28.0642 57.264 27.6562 57.264C27.2482 57.264 26.8762 57.36 26.5402 57.552C26.2042 57.744 25.9362 58.024 25.7362 58.392C25.5362 58.76 25.4362 59.192 25.4362 59.688C25.4362 60.192 25.5362 60.632 25.7362 61.008C25.9362 61.376 26.2042 61.66 26.5402 61.86C26.8762 62.052 27.2482 62.148 27.6562 62.148C28.0642 62.148 28.4362 62.052 28.7722 61.86C29.1162 61.66 29.3882 61.376 29.5882 61.008C29.7882 60.632 29.8882 60.196 29.8882 59.7ZM33.4016 55.356C33.1936 55.356 33.0176 55.284 32.8736 55.14C32.7296 54.996 32.6576 54.82 32.6576 54.612C32.6576 54.404 32.7296 54.228 32.8736 54.084C33.0176 53.94 33.1936 53.868 33.4016 53.868C33.6016 53.868 33.7696 53.94 33.9056 54.084C34.0496 54.228 34.1216 54.404 34.1216 54.612C34.1216 54.82 34.0496 54.996 33.9056 55.14C33.7696 55.284 33.6016 55.356 33.4016 55.356ZM33.9296 56.424V63H32.8376V56.424H33.9296ZM38.9947 56.304C39.7947 56.304 40.4427 56.548 40.9387 57.036C41.4347 57.516 41.6827 58.212 41.6827 59.124V63H40.6027V59.28C40.6027 58.624 40.4387 58.124 40.1107 57.78C39.7827 57.428 39.3347 57.252 38.7667 57.252C38.1907 57.252 37.7307 57.432 37.3867 57.792C37.0507 58.152 36.8827 58.676 36.8827 59.364V63H35.7907V56.424H36.8827V57.36C37.0987 57.024 37.3907 56.764 37.7587 56.58C38.1347 56.396 38.5467 56.304 38.9947 56.304Z" fill="#1B1B1B"/>
<path d="M84.7154 104.54C85.1908 104.338 85.454 103.807 85.3034 103.355L82.8494 95.9827C82.6988 95.5303 82.1914 95.3273 81.716 95.5293C81.2406 95.7314 80.9774 96.2619 81.1279 96.7143L83.3093 103.267L76.4236 106.194C75.9482 106.396 75.6849 106.926 75.8355 107.379C75.9861 107.831 76.4936 108.034 76.9689 107.832L84.7154 104.54ZM46.9523 65.0814C46.7632 73.4702 54.1116 92.5929 84.0269 104.559L84.8585 102.883C55.3722 91.0887 48.5879 72.4437 48.7576 64.9186L46.9523 65.0814Z" fill="#1B1B1B"/>
<path d="M154.1 103.355C153.887 102.883 154.053 102.316 154.47 102.088L161.273 98.3711C161.69 98.143 162.201 98.3405 162.414 98.8122C162.627 99.2839 162.461 99.8512 162.044 100.079L155.998 103.383L159.083 110.216C159.296 110.687 159.131 111.254 158.713 111.483C158.296 111.711 157.785 111.513 157.572 111.041L154.1 103.355ZM224.321 100.235C217.656 108.125 194.587 119.292 154.594 103.838L155.118 102.046C194.734 117.355 217.016 106.09 223.076 98.917L224.321 100.235Z" fill="#1B1B1B"/>
</svg>
