<svg width="80" height="66" viewBox="0 0 80 66" fill="none" xmlns="http://www.w3.org/2000/svg">
<path d="M32.8832 65.2756C23.4763 65.2756 15.6236 62.2081 9.32509 56.0732C3.10836 49.9383 0 42.2083 0 32.8832C0 23.6399 3.19016 15.869 9.57049 9.57048C15.9508 3.19016 23.8444 0 33.2513 0C40.4496 0 46.7891 1.96318 52.2696 5.88953C57.8319 9.73408 60.6131 14.1921 60.6131 19.2637C60.6131 23.1082 59.6315 26.0939 57.6683 28.2206C55.7051 30.2656 53.0467 31.6562 49.6929 32.3924C46.3392 33.1286 42.8218 33.7421 39.1408 34.2329C35.5417 34.6419 31.6971 35.5417 27.6072 36.9322C23.5172 38.3228 20.1226 40.3269 17.4232 42.9445C19.4682 46.9526 22.2493 50.1019 25.7667 52.3922C29.2841 54.6826 33.1695 55.8278 37.4231 55.8278C42.0856 55.8278 46.6254 54.0282 51.0426 50.4291C55.4597 46.8299 58.6908 42.4128 60.7358 37.1776C60.5722 46.0119 58.0364 52.9239 53.1285 57.9137C48.2205 62.8216 41.4721 65.2756 32.8832 65.2756ZM14.1103 28.466C14.1103 33.1286 15.0101 37.5048 16.8097 41.5948C19.2637 38.8954 22.372 36.605 26.1348 34.7237C29.8975 32.8423 33.1286 31.4926 35.828 30.6746C38.6091 29.8566 41.0222 28.3842 43.0672 26.2575C45.194 24.1307 46.2574 21.3086 46.2574 17.7913C46.2574 13.1287 44.9895 9.28418 42.4537 6.25762C39.9997 3.14926 36.9323 1.59508 33.2513 1.59508C27.689 1.59508 23.1082 4.13085 19.5091 9.20239C15.9099 14.2739 14.1103 20.6951 14.1103 28.466Z" fill="#F89D87"/>
<path d="M60.8591 54.4181C64.8673 52.046 68.0574 48.8558 70.4296 44.8477C72.8018 48.8558 75.9919 52.046 80.0001 54.4181C75.9919 56.7903 72.8018 59.9805 70.4296 63.9886C68.0574 59.9805 64.8673 56.7903 60.8591 54.4181Z" fill="#F89D87"/>
</svg>
