<svg width="167" height="81" viewBox="0 0 167 81" fill="none" xmlns="http://www.w3.org/2000/svg">
<g clip-path="url(#clip0_3227_10890)">
<path d="M144.588 43.9584L128.984 80.8321H114.906L100.517 45.4139C100.517 45.4139 100.065 44.1208 99.8306 43.671L96.9006 36.2112C96.4408 35.2357 95.8818 34.6581 95.4263 34.3018L95.2294 34.0862C93.3082 31.7155 88.5001 32.7515 87.5689 32.9339C85.458 33.3477 83.9779 34.1308 82.6588 34.8434C80.4329 36.0446 78.8063 37.3923 77.7487 38.3894C76.8204 39.3822 75.8864 40.4598 74.9653 41.6279C71.4246 46.1093 69.0837 50.6136 67.5074 54.5173V54.7357C71.4361 49.4972 76.6005 46.8794 83.0022 46.8794C95.662 46.8794 101.99 56.4398 101.99 74.697C101.99 75.5002 102.081 78.7344 102.263 78.9528C102.444 79.1712 103.082 79.6453 104.173 80.3709V80.9169H86.7125V80.3709C87.8046 79.6453 88.4397 79.1712 88.6222 78.9528C88.8033 78.7344 88.8953 75.5002 88.8953 74.697C88.8953 57.7501 85.9495 48.8435 80.0564 48.8435C75.6909 48.8435 71.5065 51.4613 67.5074 56.6998V74.697C67.5074 75.5002 67.5965 78.7344 67.779 78.9528C67.96 79.1712 68.598 79.6453 69.6887 80.3709V80.9169H52.2295V80.3709C53.3202 79.6453 53.9553 79.1712 54.1392 78.9528C54.3189 78.7344 54.4123 75.5002 54.4123 74.697V10.3261C54.4123 9.60052 54.3189 9.10914 54.1392 8.85339C53.9553 8.59908 53.3202 8.10913 52.2295 7.38068V6.8347L67.5074 0.0703125V51.3535C69.6226 46.5087 71.9419 42.8952 73.7252 40.4483C75.9338 37.4196 77.6337 35.7457 78.2933 35.1164C79.3509 34.1049 81.0192 32.5288 83.4779 31.0244C83.4779 31.0244 90.6053 26.6595 98.9354 27.0201C100.109 27.0718 101.296 27.2198 101.296 27.2198C101.956 27.2902 102.551 27.3994 103.075 27.5216C103.598 27.6437 104.052 27.7816 104.426 27.9081C105.4 28.2385 106.194 28.5158 107.044 29.1854C107.817 29.7902 108.304 30.4583 108.593 30.9253C111.924 38.6092 115.241 46.4455 118.534 54.4326C121.888 62.5662 125.116 71.0375 128.219 78.9772L143.06 43.9584C143.279 43.1581 143.405 42.3205 143.443 41.4483C143.479 40.5748 143.151 39.7213 142.461 38.8837C141.767 38.0489 140.84 37.286 139.678 36.592C138.512 35.9023 136.857 35.3564 134.713 34.9555C132.566 34.5575 130.075 34.3563 127.238 34.3563L129.638 26.1724C136.548 26.1724 141.441 27.5201 144.316 30.2098C147.189 32.9023 147.278 37.4842 144.588 43.9584Z" fill="#1B1B1B"/>
<path d="M148.899 80.9468V80.4008C149.99 79.6753 150.626 79.2011 150.809 78.9827C150.99 78.7643 151.082 78.2571 151.082 77.4554L151.355 34.5199C151.355 33.7944 151.263 33.303 151.082 33.0472C150.899 32.7929 150.263 32.3015 149.172 31.5745V31.0285L164.45 24.2641L164.177 77.4569C164.177 78.2586 164.267 78.7658 164.45 78.9842C164.631 79.2026 165.269 79.6767 166.36 80.4023V80.9482H148.899V80.9468ZM146.983 9.72099C151.04 7.32012 154.269 4.09166 156.671 0.0341797C159.073 4.09166 162.302 7.32012 166.36 9.72099C162.302 12.1233 159.073 15.3518 156.671 19.4078C154.269 15.3518 151.04 12.1233 146.983 9.72099Z" fill="#1B1B1B"/>
<path d="M59.636 57.5202C55.0506 65.2401 50.2411 71.026 45.2102 74.878C40.1779 78.7315 34.5781 80.7646 28.4135 80.9801C20.5159 81.2559 13.8785 78.8723 8.4999 73.8234C3.12131 68.7746 0.294791 62.3378 0.020329 54.5102C-0.254133 46.684 2.25051 39.99 7.53569 34.4296C12.8194 28.8707 19.4367 25.8879 27.4033 25.6092C33.4989 25.3951 38.9163 26.9167 43.6396 30.0445C48.3615 33.1739 50.7986 36.8851 50.948 41.1796C51.0616 44.4368 50.2827 46.9771 48.6144 48.8032C46.9432 50.6308 44.6814 51.9053 41.829 52.6294C38.9752 53.3535 35.9791 53.9441 32.8393 54.401C29.6981 54.8593 26.383 55.7372 22.8926 57.0375C19.4008 58.3392 16.5513 60.138 14.3426 62.434C16.2222 66.5993 18.8849 69.8694 22.3336 72.2444C25.7795 74.6209 29.6507 75.7329 33.9472 75.5835C38.6576 75.4183 43.0706 73.7028 47.1875 70.4384C51.303 67.174 55.4228 62.0016 59.5454 54.9225M11.7388 50.4584C11.8725 54.2688 12.5866 57.8507 13.8842 61.2013C15.5497 59.2702 17.6074 57.6036 20.056 56.1998C22.5032 54.7975 24.7707 53.6941 26.8587 52.8923C28.9451 52.0906 30.944 51.207 32.8523 50.2386C34.7591 49.2716 36.2406 47.9871 37.2954 46.3894C38.3487 44.7917 38.8344 42.7831 38.7482 40.3578C38.6102 36.4095 37.4563 33.1724 35.2865 30.648C33.1167 28.1236 30.5962 27.3693 27.5484 27.4756C22.8366 27.6408 18.895 29.5058 15.896 33.9799C12.8956 38.4541 11.5118 43.9483 11.7388 50.457V50.4584ZM59.5454 54.9225L59.636 57.5202L59.5454 54.9225Z" fill="#1B1B1B"/>
</g>
<defs>
<clipPath id="clip0_3227_10890">
<rect width="166.36" height="80.9658" fill="white" transform="translate(0 0.0341797)"/>
</clipPath>
</defs>
</svg>
