<svg width="312" height="140" viewBox="0 0 312 140" fill="none" xmlns="http://www.w3.org/2000/svg">
<g filter="url(#filter0_d_15540_46981)">
<rect x="183.015" y="25" width="80" height="80" rx="11.7073" transform="rotate(9 183.015 25)" fill="white" shape-rendering="crispEdges"/>
<circle cx="216.265" cy="70.7648" r="24.3902" transform="rotate(9 216.265 70.7648)" fill="#FEF5FF"/>
<path d="M209.211 78.7347L215.399 76.2149L220.5 80.5654L220.046 73.8709L225.703 70.3504L219.239 68.729L217.612 62.2479L214.068 67.8673L207.419 67.4118L211.706 72.5434L209.211 78.7347ZM215.137 77.875L208.216 80.6955C208.056 80.7365 207.91 80.7427 207.779 80.7139C207.649 80.6852 207.529 80.6217 207.421 80.5235C207.313 80.4252 207.24 80.3019 207.2 80.1535C207.161 80.0051 207.183 79.8538 207.267 79.6997L210.064 72.8086L205.284 67.0966C205.173 66.9774 205.106 66.8428 205.085 66.6929C205.064 66.543 205.095 66.4011 205.177 66.2673C205.243 66.1454 205.335 66.0503 205.453 65.9819C205.57 65.9136 205.713 65.8847 205.881 65.8952L213.315 66.4092L217.255 60.0774C217.348 59.946 217.459 59.8521 217.588 59.7958C217.717 59.7395 217.857 59.7233 218.008 59.7471C218.158 59.7709 218.286 59.8296 218.392 59.923C218.497 60.0165 218.574 60.1401 218.622 60.2939L220.413 67.5334L227.641 69.3417C227.804 69.3836 227.931 69.4552 228.022 69.5565C228.112 69.6579 228.177 69.7778 228.217 69.9164C228.24 70.0669 228.218 70.2102 228.151 70.3462C228.085 70.4823 227.98 70.5898 227.838 70.6688L221.526 74.624L222.079 82.0457C222.096 82.2159 222.064 82.3655 221.98 82.4944C221.897 82.6234 221.789 82.7179 221.656 82.778C221.523 82.8381 221.39 82.8616 221.256 82.8485C221.123 82.8355 220.987 82.7846 220.846 82.6959L215.137 77.875Z" fill="#792A85"/>
</g>
<g filter="url(#filter1_d_15540_46981)">
<rect x="50.5" y="37.5146" width="80" height="80" rx="11.7073" transform="rotate(-9 50.5 37.5146)" fill="white" shape-rendering="crispEdges"/>
<circle cx="96.2648" cy="70.7647" r="24.3902" transform="rotate(-9 96.2648 70.7647)" fill="#FEF5FF"/>
<path d="M92.0189 80.5246L97.1258 76.2159L103.321 78.7773L100.82 72.5508L105.113 67.4544L98.4636 67.91L94.9136 62.2488L93.2801 68.6882L86.8157 70.3096L92.4784 73.8654L92.0189 80.5246ZM97.3887 77.8759L91.6788 82.6968C91.5386 82.7855 91.4019 82.8364 91.2688 82.8494C91.1356 82.8625 91.0025 82.839 90.8695 82.7789C90.7364 82.7189 90.6283 82.6243 90.545 82.4954C90.4617 82.3664 90.436 82.2157 90.4679 82.0432L90.999 74.625L84.6875 70.6698C84.5448 70.5907 84.4403 70.4832 84.3738 70.3472C84.3073 70.2111 84.2926 70.0667 84.3298 69.9139C84.355 69.7776 84.413 69.6588 84.5036 69.5574C84.5943 69.4561 84.7211 69.3845 84.8841 69.3426L92.1127 67.5343L93.9035 60.2948C93.9515 60.141 94.0282 60.0174 94.1337 59.924C94.2391 59.8305 94.3671 59.7719 94.5175 59.748C94.668 59.7242 94.8078 59.7404 94.9369 59.7968C95.0661 59.853 95.1773 59.9469 95.2705 60.0783L99.2107 66.4101L106.644 65.8961C106.812 65.8856 106.955 65.9145 107.073 65.9829C107.19 66.0513 107.289 66.1452 107.369 66.2648C107.438 66.4009 107.461 66.5439 107.44 66.6938C107.419 66.8438 107.353 66.9783 107.241 67.0976L102.461 72.8096L105.28 79.6972C105.349 79.8536 105.364 80.0061 105.325 80.1545C105.286 80.3029 105.212 80.4262 105.104 80.5244C104.996 80.6226 104.877 80.6861 104.746 80.7149C104.615 80.7436 104.47 80.7375 104.309 80.6964L97.3887 77.8759Z" fill="#792A85"/>
</g>
<g filter="url(#filter2_d_15540_46981)">
<rect x="101.5" y="16" width="110" height="110" rx="16.0976" fill="white" shape-rendering="crispEdges"/>
<circle cx="156.5" cy="71.0005" r="33.5366" fill="#FEF5FF"/>
<path d="M142.464 84.1148L155.303 79.5619L147.017 71.2757L142.464 84.1148ZM172.363 63.7635C172.206 63.9432 172.022 64.033 171.809 64.033C171.597 64.033 171.413 63.9549 171.256 63.7986L171.155 63.697C170.59 63.1319 169.918 62.8493 169.141 62.8493C168.363 62.8493 167.692 63.1319 167.127 63.697L157.92 72.9043C157.763 73.0606 157.579 73.1447 157.366 73.1565C157.154 73.168 156.958 73.084 156.778 72.9043C156.598 72.7246 156.508 72.5343 156.508 72.3333C156.508 72.1327 156.598 71.9424 156.778 71.7624L165.985 62.5552C166.84 61.7007 167.88 61.2735 169.106 61.2735C170.332 61.2735 171.372 61.7007 172.226 62.5552L172.363 62.6918C172.519 62.8484 172.597 63.027 172.597 63.2276C172.597 63.4286 172.519 63.6072 172.363 63.7635ZM150.733 58.7554C150.913 58.5757 151.103 58.4858 151.304 58.4858C151.505 58.4858 151.695 58.5757 151.875 58.7554L152.418 59.2981C153.389 60.2693 153.875 61.4461 153.875 62.8283C153.875 64.2106 153.389 65.3874 152.418 66.3586L151.896 66.8804C151.739 67.037 151.555 67.1211 151.342 67.1326C151.13 67.1441 150.934 67.0601 150.754 66.8804C150.575 66.7007 150.485 66.5104 150.485 66.3095C150.485 66.1088 150.575 65.9185 150.754 65.7385L151.276 65.2168C151.934 64.5584 152.263 63.7623 152.263 62.8283C152.263 61.8944 151.934 61.0983 151.276 60.4399L150.733 59.8972C150.577 59.7406 150.493 59.556 150.481 59.3436C150.469 59.1311 150.553 58.935 150.733 58.7554ZM157.408 56.0937C157.588 55.9141 157.779 55.8242 157.979 55.8242C158.18 55.8242 158.37 55.9141 158.55 56.0937L160.473 58.0164C161.351 58.8942 161.789 59.9461 161.789 61.172C161.789 62.3976 161.351 63.4494 160.473 64.3271L154.908 69.8926C154.751 70.0489 154.567 70.1328 154.355 70.1443C154.142 70.1562 153.946 70.0722 153.766 69.8926C153.586 69.7126 153.496 69.5223 153.496 69.3216C153.496 69.1207 153.586 68.9304 153.766 68.7507L159.331 63.1857C159.896 62.6206 160.179 61.9493 160.179 61.172C160.179 60.3944 159.896 59.7231 159.331 59.1583L157.408 57.2356C157.252 57.079 157.168 56.8944 157.156 56.682C157.144 56.4695 157.229 56.2734 157.408 56.0937ZM168.755 75.916C168.576 76.096 168.385 76.186 168.185 76.186C167.984 76.186 167.794 76.096 167.614 75.916L166.742 75.0441C166.06 74.3624 165.237 74.0216 164.273 74.0216C163.308 74.0216 162.485 74.3624 161.804 75.0441L160.932 75.916C160.775 76.0726 160.591 76.1567 160.378 76.1682C160.166 76.1801 159.969 76.096 159.79 75.916C159.61 75.7363 159.52 75.546 159.52 75.3451C159.52 75.1444 159.61 74.9543 159.79 74.7746L160.662 73.9023C161.656 72.9076 162.86 72.4103 164.273 72.4103C165.685 72.4103 166.889 72.9076 167.883 73.9023L168.755 74.7746C168.912 74.9309 168.996 75.1153 169.008 75.3278C169.019 75.5402 168.935 75.7363 168.755 75.916ZM140.496 84.1708L145.55 70.127C145.678 69.8026 145.867 69.5573 146.115 69.3913C146.364 69.2256 146.636 69.1427 146.93 69.1427C147.126 69.1427 147.307 69.1708 147.473 69.2269C147.638 69.2831 147.8 69.3905 147.959 69.5493L157.03 78.6199C157.189 78.7787 157.296 78.9409 157.352 79.1066C157.408 79.2724 157.436 79.4533 157.436 79.6493C157.436 79.9438 157.354 80.2153 157.188 80.4638C157.022 80.7124 156.777 80.9009 156.452 81.0293L142.408 86.083C142.114 86.188 141.829 86.205 141.554 86.134C141.278 86.0627 141.043 85.929 140.846 85.7329C140.65 85.5368 140.517 85.301 140.446 85.0254C140.374 84.7498 140.391 84.4649 140.496 84.1708Z" fill="#792A85"/>
</g>
<defs>
<filter id="filter0_d_15540_46981" x="166.5" y="21" width="103.53" height="103.53" filterUnits="userSpaceOnUse" color-interpolation-filters="sRGB">
<feFlood flood-opacity="0" result="BackgroundImageFix"/>
<feColorMatrix in="SourceAlpha" type="matrix" values="0 0 0 0 0 0 0 0 0 0 0 0 0 0 0 0 0 0 127 0" result="hardAlpha"/>
<feOffset dx="2" dy="2"/>
<feGaussianBlur stdDeviation="3"/>
<feComposite in2="hardAlpha" operator="out"/>
<feColorMatrix type="matrix" values="0 0 0 0 0.972549 0 0 0 0 0.615686 0 0 0 0 0.529412 0 0 0 0.1 0"/>
<feBlend mode="normal" in2="BackgroundImageFix" result="effect1_dropShadow_15540_46981"/>
<feBlend mode="normal" in="SourceGraphic" in2="effect1_dropShadow_15540_46981" result="shape"/>
</filter>
<filter id="filter1_d_15540_46981" x="46.5" y="21" width="103.53" height="103.529" filterUnits="userSpaceOnUse" color-interpolation-filters="sRGB">
<feFlood flood-opacity="0" result="BackgroundImageFix"/>
<feColorMatrix in="SourceAlpha" type="matrix" values="0 0 0 0 0 0 0 0 0 0 0 0 0 0 0 0 0 0 127 0" result="hardAlpha"/>
<feOffset dx="2" dy="2"/>
<feGaussianBlur stdDeviation="3"/>
<feComposite in2="hardAlpha" operator="out"/>
<feColorMatrix type="matrix" values="0 0 0 0 0.972549 0 0 0 0 0.615686 0 0 0 0 0.529412 0 0 0 0.1 0"/>
<feBlend mode="normal" in2="BackgroundImageFix" result="effect1_dropShadow_15540_46981"/>
<feBlend mode="normal" in="SourceGraphic" in2="effect1_dropShadow_15540_46981" result="shape"/>
</filter>
<filter id="filter2_d_15540_46981" x="97.5" y="12" width="122" height="122" filterUnits="userSpaceOnUse" color-interpolation-filters="sRGB">
<feFlood flood-opacity="0" result="BackgroundImageFix"/>
<feColorMatrix in="SourceAlpha" type="matrix" values="0 0 0 0 0 0 0 0 0 0 0 0 0 0 0 0 0 0 127 0" result="hardAlpha"/>
<feOffset dx="2" dy="2"/>
<feGaussianBlur stdDeviation="3"/>
<feComposite in2="hardAlpha" operator="out"/>
<feColorMatrix type="matrix" values="0 0 0 0 0.972549 0 0 0 0 0.615686 0 0 0 0 0.529412 0 0 0 0.1 0"/>
<feBlend mode="normal" in2="BackgroundImageFix" result="effect1_dropShadow_15540_46981"/>
<feBlend mode="normal" in="SourceGraphic" in2="effect1_dropShadow_15540_46981" result="shape"/>
</filter>
</defs>
</svg>
