<svg width="311" height="140" viewBox="0 0 311 140" fill="none" xmlns="http://www.w3.org/2000/svg">
<g filter="url(#filter0_d_286_40370)">
<rect x="182.515" y="25" width="80" height="80" rx="11.7073" transform="rotate(9 182.515 25)" fill="white" shape-rendering="crispEdges"/>
<circle cx="215.765" cy="70.7648" r="24.3902" transform="rotate(9 215.765 70.7648)" fill="#FEF5FF"/>
<path d="M212.068 79.9849L222.007 71.302L215.955 70.3435L218.503 61.5881L209.293 71.2414L214.515 72.0684L212.068 79.9849ZM212.909 73.0778L208.342 72.3545C208.008 72.3016 207.785 72.1128 207.672 71.7883C207.559 71.4638 207.628 71.1745 207.877 70.9204L218.507 59.7487C218.664 59.5961 218.844 59.5038 219.047 59.4718C219.25 59.4398 219.445 59.4827 219.632 59.6005C219.822 59.7058 219.955 59.8604 220.032 60.0644C220.109 60.2683 220.116 60.4675 220.055 60.6621L217.552 69.3328L223.007 70.1967C223.381 70.2561 223.616 70.4595 223.711 70.807C223.806 71.1546 223.714 71.4531 223.437 71.7028L212.03 81.6831C211.867 81.8209 211.682 81.8979 211.477 81.914C211.272 81.9302 211.089 81.8785 210.929 81.759C210.754 81.6499 210.633 81.5052 210.567 81.3246C210.5 81.1441 210.492 80.9486 210.543 80.7381L212.909 73.0778Z" fill="#792A85"/>
</g>
<g filter="url(#filter1_d_286_40370)">
<rect x="50" y="37.5146" width="80" height="80" rx="11.7073" transform="rotate(-9 50 37.5146)" fill="white" shape-rendering="crispEdges"/>
<circle cx="95.7648" cy="70.7647" r="24.3902" transform="rotate(-9 95.7648 70.7647)" fill="#FEF5FF"/>
<path d="M90.3481 83.7722C89.8233 83.8554 89.3413 83.7374 88.902 83.4183C88.4628 83.0991 88.2016 82.6772 88.1185 82.1524L86.2354 70.2629C86.1509 69.7294 86.2686 69.2452 86.5884 68.8103C86.9082 68.3755 87.3305 68.1165 87.8553 68.0334L99.2011 66.2364L98.7577 63.4371C98.5794 62.3115 98.0339 61.4172 97.1213 60.754C96.2086 60.091 95.1894 59.8485 94.0639 60.0268C93.0376 60.1894 92.1969 60.6662 91.5418 61.4573C90.8867 62.2485 90.5725 63.1594 90.599 64.1902C90.6053 64.3415 90.5621 64.4763 90.4694 64.5946C90.3766 64.7128 90.2524 64.7842 90.0968 64.8088C89.9339 64.8346 89.7914 64.7943 89.6692 64.6879C89.5471 64.5815 89.4869 64.4407 89.4886 64.2657C89.4289 62.9488 89.8143 61.7801 90.6449 60.7595C91.4756 59.739 92.5564 59.1233 93.8874 58.9125C95.3265 58.6846 96.6268 58.9925 97.7881 59.8362C98.9494 60.68 99.6441 61.8214 99.872 63.2606L100.315 66.0599L102.443 65.723C102.968 65.6398 103.449 65.7557 103.888 66.0704C104.326 66.3852 104.588 66.8093 104.672 67.3428L106.555 79.2323C106.638 79.7571 106.521 80.2391 106.201 80.6783C105.882 81.1175 105.46 81.3787 104.936 81.4618L90.3481 83.7722ZM90.1716 82.6579L104.759 80.3475C104.995 80.3101 105.178 80.2033 105.305 80.0273C105.433 79.8513 105.479 79.6451 105.441 79.4088L103.558 67.5193C103.521 67.283 103.414 67.1008 103.238 66.9729C103.062 66.8451 102.856 66.7998 102.619 66.8373L88.0318 69.1477C87.7954 69.1851 87.6133 69.2919 87.4854 69.4679C87.3575 69.6439 87.3123 69.8501 87.3497 70.0865L89.2328 81.9759C89.2703 82.2122 89.377 82.3944 89.553 82.5223C89.729 82.6501 89.9352 82.6954 90.1716 82.6579ZM96.7069 76.6903C97.2453 76.605 97.6733 76.3445 97.9911 75.9086C98.3089 75.4727 98.4253 74.9865 98.3403 74.4499C98.2575 73.9271 97.9953 73.5009 97.5538 73.1713C97.1123 72.8418 96.6223 72.7196 96.0839 72.8049C95.5456 72.8902 95.1186 73.1575 94.8029 73.607C94.4873 74.0565 94.3715 74.5464 94.4554 75.0765C94.5394 75.6066 94.801 76.0295 95.2404 76.345C95.6797 76.6605 96.1685 76.7756 96.7069 76.6903Z" fill="#792A85"/>
</g>
<g filter="url(#filter2_d_286_40370)">
<rect x="101" y="16" width="110" height="110" rx="16.0976" fill="white" shape-rendering="crispEdges"/>
<circle cx="156" cy="71" r="33.5366" fill="#FEF5FF"/>
<path d="M152.962 84.3168L164.592 70.387H156.167L157.744 57.9484L147.313 73.0393H154.582L152.962 84.3168ZM152.619 74.7555H146.261C145.796 74.7555 145.452 74.5472 145.229 74.1308C145.006 73.7143 145.037 73.3067 145.321 72.908L157.354 55.4495C157.534 55.2085 157.759 55.0445 158.027 54.9574C158.296 54.8703 158.571 54.8865 158.85 55.0062C159.13 55.1084 159.345 55.2898 159.493 55.5502C159.641 55.8106 159.694 56.0795 159.653 56.357L158.118 68.6708H165.713C166.234 68.6708 166.596 68.8966 166.8 69.3482C167.003 69.7997 166.943 70.2249 166.62 70.6236L153.277 86.6311C153.084 86.8534 152.85 86.9976 152.575 87.0637C152.3 87.1298 152.041 87.0989 151.797 86.971C151.536 86.8605 151.341 86.6899 151.211 86.4591C151.082 86.2283 151.029 85.9645 151.053 85.6677L152.619 74.7555Z" fill="#792A85"/>
</g>
<defs>
<filter id="filter0_d_286_40370" x="166" y="21" width="103.53" height="103.53" filterUnits="userSpaceOnUse" color-interpolation-filters="sRGB">
<feFlood flood-opacity="0" result="BackgroundImageFix"/>
<feColorMatrix in="SourceAlpha" type="matrix" values="0 0 0 0 0 0 0 0 0 0 0 0 0 0 0 0 0 0 127 0" result="hardAlpha"/>
<feOffset dx="2" dy="2"/>
<feGaussianBlur stdDeviation="3"/>
<feComposite in2="hardAlpha" operator="out"/>
<feColorMatrix type="matrix" values="0 0 0 0 0.972549 0 0 0 0 0.615686 0 0 0 0 0.529412 0 0 0 0.1 0"/>
<feBlend mode="normal" in2="BackgroundImageFix" result="effect1_dropShadow_286_40370"/>
<feBlend mode="normal" in="SourceGraphic" in2="effect1_dropShadow_286_40370" result="shape"/>
</filter>
<filter id="filter1_d_286_40370" x="46" y="21" width="103.53" height="103.53" filterUnits="userSpaceOnUse" color-interpolation-filters="sRGB">
<feFlood flood-opacity="0" result="BackgroundImageFix"/>
<feColorMatrix in="SourceAlpha" type="matrix" values="0 0 0 0 0 0 0 0 0 0 0 0 0 0 0 0 0 0 127 0" result="hardAlpha"/>
<feOffset dx="2" dy="2"/>
<feGaussianBlur stdDeviation="3"/>
<feComposite in2="hardAlpha" operator="out"/>
<feColorMatrix type="matrix" values="0 0 0 0 0.972549 0 0 0 0 0.615686 0 0 0 0 0.529412 0 0 0 0.1 0"/>
<feBlend mode="normal" in2="BackgroundImageFix" result="effect1_dropShadow_286_40370"/>
<feBlend mode="normal" in="SourceGraphic" in2="effect1_dropShadow_286_40370" result="shape"/>
</filter>
<filter id="filter2_d_286_40370" x="97" y="12" width="122" height="122" filterUnits="userSpaceOnUse" color-interpolation-filters="sRGB">
<feFlood flood-opacity="0" result="BackgroundImageFix"/>
<feColorMatrix in="SourceAlpha" type="matrix" values="0 0 0 0 0 0 0 0 0 0 0 0 0 0 0 0 0 0 127 0" result="hardAlpha"/>
<feOffset dx="2" dy="2"/>
<feGaussianBlur stdDeviation="3"/>
<feComposite in2="hardAlpha" operator="out"/>
<feColorMatrix type="matrix" values="0 0 0 0 0.972549 0 0 0 0 0.615686 0 0 0 0 0.529412 0 0 0 0.1 0"/>
<feBlend mode="normal" in2="BackgroundImageFix" result="effect1_dropShadow_286_40370"/>
<feBlend mode="normal" in="SourceGraphic" in2="effect1_dropShadow_286_40370" result="shape"/>
</filter>
</defs>
</svg>
