<svg width="16" height="16" viewBox="0 0 16 16" fill="none" xmlns="http://www.w3.org/2000/svg">
<path d="M7.9692 14.5504C7.87387 14.5504 7.77667 14.5381 7.6776 14.5136C7.57867 14.4889 7.48973 14.4535 7.4108 14.4074C6.82307 14.0638 6.21127 13.8079 5.5754 13.6398C4.93953 13.4715 4.28107 13.3874 3.6 13.3874C3.1836 13.3874 2.7746 13.4223 2.373 13.492C1.97153 13.5617 1.58053 13.6735 1.2 13.8274C0.909733 13.9433 0.6372 13.9109 0.3824 13.7304C0.127467 13.55 0 13.3013 0 12.9844V5.28281C0 5.08481 0.0546 4.90634 0.1638 4.74741C0.273 4.58847 0.416333 4.47567 0.5938 4.40901C1.06353 4.20181 1.55227 4.04641 2.06 3.94281C2.56773 3.83921 3.08107 3.78741 3.6 3.78741C4.3836 3.78741 5.1428 3.90794 5.8776 4.14901C6.61253 4.38994 7.32 4.71041 8 5.11041V13.8058C8.66973 13.3791 9.38053 13.0694 10.1324 12.8766C10.8841 12.6838 11.64 12.5874 12.4 12.5874C12.8389 12.5874 13.2371 12.612 13.5946 12.6612C13.9521 12.7104 14.3333 12.7945 14.7384 12.9136C14.8512 12.9444 14.9563 12.9469 15.0538 12.9212C15.1513 12.8956 15.2 12.811 15.2 12.6674V4.29821C15.2769 4.31354 15.3505 4.33481 15.4208 4.36201C15.4911 4.38921 15.558 4.42534 15.6216 4.47041C15.7477 4.53707 15.8423 4.63194 15.9054 4.75501C15.9685 4.87821 16 5.01314 16 5.15981V12.9536C16 13.2705 15.8649 13.5167 15.5946 13.692C15.3243 13.8675 15.0287 13.9023 14.7076 13.7966C14.3375 13.653 13.9593 13.5489 13.573 13.4844C13.1869 13.4197 12.7959 13.3874 12.4 13.3874C11.7087 13.3874 11.0348 13.4715 10.3784 13.6398C9.722 13.8079 9.1 14.0638 8.5124 14.4074C8.43333 14.4535 8.34687 14.4889 8.253 14.5136C8.15927 14.5381 8.06467 14.5504 7.9692 14.5504ZM10.1676 11.2798C10.0548 11.3793 9.932 11.4 9.7992 11.342C9.6664 11.284 9.6 11.1786 9.6 11.0258V5.13201C9.6 5.08894 9.61 5.04407 9.63 4.99741C9.65 4.95074 9.67487 4.91254 9.7046 4.88281L13.0276 1.55981C13.1405 1.44687 13.2641 1.42121 13.3984 1.48281C13.5328 1.54427 13.6 1.65301 13.6 1.80901V8.03821C13.6 8.09461 13.5892 8.14354 13.5676 8.18501C13.5461 8.22661 13.5205 8.26227 13.4908 8.29201L10.1676 11.2798ZM7.2 13.4258V5.58281C6.63693 5.27307 6.0546 5.02974 5.453 4.85281C4.85153 4.67587 4.23387 4.58741 3.6 4.58741C3.10667 4.58741 2.64973 4.63154 2.2292 4.71981C1.80867 4.80794 1.42973 4.91967 1.0924 5.05501C1.01027 5.08581 0.941 5.12941 0.8846 5.18581C0.8282 5.24221 0.8 5.31147 0.8 5.39361V12.7028C0.8 12.8464 0.848733 12.931 0.9462 12.9566C1.04367 12.9822 1.1488 12.9745 1.2616 12.9336C1.58467 12.8217 1.93513 12.7361 2.313 12.6766C2.691 12.6171 3.12 12.5874 3.6 12.5874C4.31587 12.5874 4.9884 12.671 5.6176 12.8382C6.24693 13.0054 6.7744 13.2013 7.2 13.4258Z" fill="#1B1B1B"/>
</svg>
