<svg width="16" height="16" viewBox="0 0 16 16" fill="none" xmlns="http://www.w3.org/2000/svg">
<path d="M8 15.1399C7.85735 15.1399 7.71215 15.1141 7.5644 15.0625C7.41664 15.0109 7.28672 14.9284 7.17464 14.8149L6.12 13.8399C4.46667 12.3065 3.03333 10.8432 1.82 9.44986C0.606667 8.05653 0 6.59986 0 5.07986C0 3.8778 0.403333 2.87395 1.21 2.06832C2.01667 1.26268 3.01333 0.859863 4.2 0.859863C4.88 0.859863 5.55333 1.0232 6.22 1.34986C6.88667 1.67653 7.48 2.2132 8 2.95986C8.58667 2.2132 9.19333 1.67653 9.82 1.34986C10.4467 1.0232 11.1067 0.859863 11.8 0.859863C12.9867 0.859863 13.9833 1.26268 14.79 2.06832C15.5967 2.87395 16 3.8778 16 5.07986C16 6.59986 15.3933 8.05653 14.18 9.44986C12.9667 10.8432 11.5333 12.3065 9.88 13.8399L8.82 14.8199C8.71 14.9316 8.5825 15.0129 8.4375 15.0637C8.2925 15.1145 8.14667 15.1399 8 15.1399Z" fill="#1B1B1B"/>
</svg>
