<svg width="16" height="16" viewBox="0 0 16 16" fill="none" xmlns="http://www.w3.org/2000/svg">
<path d="M5.74373 9.02564H6.9745V6.5641H9.02578V9.02564H10.2565V5.23077L8.00014 3.73333L5.74373 5.23077V9.02564ZM8.00014 16C7.84971 16 7.7027 15.9761 7.55911 15.9282C7.41552 15.8803 7.28903 15.8017 7.17963 15.6923C6.60527 15.1727 5.98304 14.5744 5.31296 13.8974C4.64287 13.2205 4.02065 12.4923 3.44629 11.7128C2.87193 10.9333 2.3933 10.1197 2.01039 9.2718C1.62749 8.42393 1.43604 7.57607 1.43604 6.72821C1.43604 4.67692 2.09586 3.04274 3.41552 1.82564C4.73518 0.608547 6.26339 0 8.00014 0C9.73689 0 11.2651 0.608547 12.5848 1.82564C13.9044 3.04274 14.5642 4.67692 14.5642 6.72821C14.5642 7.57607 14.3728 8.42393 13.9899 9.2718C13.607 10.1197 13.1283 10.9333 12.554 11.7128C11.9796 12.4923 11.3574 13.2205 10.6873 13.8974C10.0172 14.5744 9.39501 15.1727 8.82065 15.6923C8.71125 15.8017 8.58475 15.8803 8.44116 15.9282C8.29757 15.9761 8.15057 16 8.00014 16Z" fill="#1B1B1B"/>
</svg>
