<svg width="16" height="16" viewBox="0 0 16 16" fill="none" xmlns="http://www.w3.org/2000/svg">
<path d="M7.99996 14.0882L3.92439 15.8409C3.33733 16.0938 2.77972 16.0452 2.25153 15.6951C1.72317 15.3451 1.45898 14.8564 1.45898 14.2288V1.76116C1.45898 1.25932 1.62705 0.840334 1.96318 0.5042C2.29932 0.168067 2.7183 0 3.22014 0H12.7798C13.2816 0 13.7006 0.168067 14.0367 0.5042C14.3729 0.840334 14.5409 1.25932 14.5409 1.76116V14.2288C14.5409 14.8564 14.2768 15.3451 13.7484 15.6951C13.2202 16.0452 12.6626 16.0938 12.0755 15.8409L7.99996 14.0882ZM7.99996 12.8639L12.5072 14.8093C12.7309 14.9073 12.9441 14.8864 13.1469 14.7466C13.3495 14.6067 13.4508 14.418 13.4508 14.1806V1.76116C13.4508 1.59327 13.3809 1.43947 13.2412 1.29975C13.1015 1.16002 12.9477 1.09016 12.7798 1.09016H3.22014C3.05226 1.09016 2.89845 1.16002 2.75873 1.29975C2.61901 1.43947 2.54915 1.59327 2.54915 1.76116V14.1806C2.54915 14.418 2.65044 14.6067 2.85303 14.7466C3.0558 14.8864 3.26902 14.9073 3.49268 14.8093L7.99996 12.8639ZM7.99996 1.09016H2.54915H13.4508H7.99996Z" fill="#1B1B1B"/>
</svg>
