<svg width="16" height="16" viewBox="0 0 16 16" fill="none" xmlns="http://www.w3.org/2000/svg">
<path d="M14.6397 5.84169C14.9916 5.84169 15.3064 5.98041 15.5838 6.25787C15.8613 6.53533 16 6.85004 16 7.202V8.23844C16 8.31698 15.9914 8.40112 15.9741 8.49086C15.9568 8.58062 15.9342 8.66382 15.9061 8.74046L13.6057 14.1934C13.4907 14.4512 13.2966 14.6676 13.0235 14.8425C12.7503 15.0174 12.4666 15.1048 12.1722 15.1048H3.72469V5.84169L8.46964 1.13884C8.5938 1.01469 8.73226 0.937763 8.88503 0.908064C9.03779 0.87838 9.18273 0.901327 9.31985 0.976906C9.45696 1.05247 9.55628 1.16259 9.61781 1.30726C9.67935 1.45194 9.69124 1.60363 9.65345 1.76234L8.78705 5.84169H14.6397ZM4.5668 6.2012V14.2627H12.1781C12.2969 14.2627 12.4184 14.2304 12.5425 14.1656C12.6667 14.1008 12.7611 13.9928 12.8259 13.8417L15.1579 8.368V7.202C15.1579 7.05086 15.1093 6.9267 15.0121 6.82954C14.915 6.73237 14.7908 6.68379 14.6397 6.68379H7.74088L8.71579 2.08459L4.5668 6.2012ZM1.36032 15.1048C0.986225 15.1048 0.665986 14.9716 0.3996 14.7052C0.1332 14.4389 0 14.1186 0 13.7445V7.202C0 6.82791 0.1332 6.50767 0.3996 6.24129C0.665986 5.97489 0.986225 5.84169 1.36032 5.84169H3.72469V6.68379H1.36032C1.20917 6.68379 1.08502 6.73237 0.987853 6.82954C0.890688 6.9267 0.842105 7.05086 0.842105 7.202V13.7445C0.842105 13.8957 0.890688 14.0198 0.987853 14.117C1.08502 14.2142 1.20917 14.2627 1.36032 14.2627H3.72469V15.1048H1.36032Z" fill="#1B1B1B"/>
</svg>
