<svg width="16" height="16" viewBox="0 0 16 16" fill="none" xmlns="http://www.w3.org/2000/svg">
<path d="M1.36034 10.1587C1.00838 10.1587 0.693669 10.0199 0.41621 9.74247C0.138737 9.465 0 9.1503 0 8.79834V7.7619C0 7.68336 0.00864565 7.59922 0.0259369 7.50948C0.0432 7.41972 0.0658665 7.33652 0.0939367 7.25988L2.39429 1.80694C2.50931 1.54911 2.70339 1.33275 2.97652 1.15784C3.24967 0.982953 3.53344 0.895508 3.82783 0.895508H12.2753V10.1587L7.53037 14.8615C7.40621 14.9856 7.26775 15.0626 7.11498 15.0923C6.96222 15.122 6.81728 15.099 6.68016 15.0234C6.54305 14.9479 6.44373 14.8377 6.3822 14.6931C6.32066 14.5484 6.30878 14.3967 6.34656 14.238L7.21296 10.1587H1.36034ZM11.4332 9.79914V1.73761H3.82187C3.70312 1.73761 3.58167 1.77 3.45751 1.83477C3.33336 1.89956 3.23889 2.00752 3.1741 2.15866L0.842125 7.63234V8.79834C0.842125 8.94948 0.890708 9.07364 0.987872 9.1708C1.08504 9.26797 1.20919 9.31655 1.36034 9.31655H8.25913L7.28422 13.9157L11.4332 9.79914ZM14.6397 0.895508C15.0138 0.895508 15.334 1.02871 15.6004 1.29511C15.8668 1.56149 16 1.88173 16 2.25582V8.79834C16 9.17243 15.8668 9.49267 15.6004 9.75905C15.334 10.0255 15.0138 10.1587 14.6397 10.1587H12.2753V9.31655H14.6397C14.7908 9.31655 14.915 9.26797 15.0121 9.1708C15.1093 9.07364 15.1579 8.94948 15.1579 8.79834V2.25582C15.1579 2.10468 15.1093 1.98052 15.0121 1.88336C14.915 1.78619 14.7908 1.73761 14.6397 1.73761H12.2753V0.895508H14.6397Z" fill="#1B1B1B"/>
</svg>
