<svg width="26" height="24" viewBox="0 0 26 24" fill="none" xmlns="http://www.w3.org/2000/svg">
<path d="M1.46969 5.60283C1.32081 5.75134 1.20268 5.92777 1.12208 6.122C1.04149 6.31623 1 6.52446 1 6.73475C1 6.94504 1.04149 7.15326 1.12208 7.34749C1.20268 7.54172 1.32081 7.71815 1.46969 7.86666L12.0981 18.4951C12.2165 18.6137 12.357 18.7077 12.5117 18.7719C12.6665 18.8361 12.8323 18.8691 12.9998 18.8691C13.1673 18.8691 13.3332 18.8361 13.4879 18.7719C13.6426 18.7077 13.7832 18.6137 13.9015 18.4951L24.53 7.86666C25.1567 7.23995 25.1567 6.22954 24.53 5.60283C23.9033 4.97613 22.8929 4.97613 22.2661 5.60283L12.9934 14.8628L3.72072 5.59005C3.1068 4.97613 2.08361 4.97613 1.46969 5.60283Z" fill="#1B1B1B" stroke="#1B1B1B" stroke-width="0.2"/>
</svg>
