<svg width="24" height="26" viewBox="0 0 24 26" fill="none" xmlns="http://www.w3.org/2000/svg">
<path d="M18.3972 1.46969C18.2487 1.32081 18.0722 1.20268 17.878 1.12208C17.6838 1.04149 17.4755 1 17.2653 1C17.055 1 16.8467 1.04149 16.6525 1.12208C16.4583 1.20268 16.2819 1.32081 16.1333 1.46969L5.50489 12.0981C5.38633 12.2165 5.29226 12.357 5.22808 12.5117C5.1639 12.6665 5.13086 12.8323 5.13086 12.9998C5.13086 13.1673 5.1639 13.3332 5.22808 13.4879C5.29226 13.6426 5.38633 13.7832 5.50489 13.9015L16.1333 24.53C16.7601 25.1567 17.7705 25.1567 18.3972 24.53C19.0239 23.9033 19.0239 22.8929 18.3972 22.2661L9.13724 12.9934L18.41 3.72072C19.0239 3.1068 19.0239 2.08361 18.3972 1.46969Z" fill="#1B1B1B" stroke="#1B1B1B" stroke-width="0.2"/>
</svg>
