<svg width="24" height="24" viewBox="0 0 24 24" fill="none" xmlns="http://www.w3.org/2000/svg">
<path d="M2.19229 24C1.57786 24 1.05888 23.7882 0.635325 23.3647C0.211775 22.9411 0 22.4221 0 21.8077V2.19229C0 1.57786 0.211775 1.05888 0.635325 0.635326C1.05888 0.211776 1.57786 0 2.19229 0H21.8077C22.4221 0 22.9411 0.211776 23.3647 0.635326C23.7882 1.05888 24 1.57786 24 2.19229V21.8077C24 22.4221 23.7882 22.9411 23.3647 23.3647C22.9411 23.7882 22.4221 24 21.8077 24H2.19229ZM1.26922 18.2442V21.8077C1.26922 22.0385 1.36537 22.25 1.55767 22.4423C1.74997 22.6346 1.96151 22.7308 2.19229 22.7308H21.8077C22.0385 22.7308 22.25 22.6346 22.4423 22.4423C22.6346 22.25 22.7308 22.0385 22.7308 21.8077V8.55195L14.7173 17.1077C14.5013 17.3468 14.2428 17.4668 13.9418 17.4678C13.6409 17.4688 13.3814 17.3603 13.1635 17.1423L7.7673 11.7462L1.26922 18.2442ZM1.26922 16.425L6.99806 10.6962C7.21834 10.4782 7.47534 10.3692 7.76906 10.3692C8.06276 10.3692 8.31859 10.4782 8.53654 10.6962L13.975 16.1346L22.7308 6.71539V2.19229C22.7308 1.96151 22.6346 1.74998 22.4423 1.55768C22.25 1.36538 22.0385 1.26923 21.8077 1.26923H2.19229C1.96151 1.26923 1.74997 1.36538 1.55767 1.55768C1.36537 1.74998 1.26922 1.96151 1.26922 2.19229V16.425ZM1.26922 8.55195V6.71539V16.1346V9.92693V18.2442V11.7462V17.9269V8.55195ZM1.26922 16.425V1.26923V16.1346V9.92693V16.425ZM1.26922 18.2442V11.7462V17.9269V8.55195V22.7308V18.2442Z" fill="#1B1B1B"/>
</svg>
