<svg width="24" height="24" viewBox="0 0 24 24" fill="none" xmlns="http://www.w3.org/2000/svg">
<path d="M7.49133 24C7.20815 24 6.97425 23.9066 6.78963 23.7199C6.60501 23.5331 6.5127 23.3017 6.5127 23.0257V2.7812C6.5127 2.51624 6.60607 2.28761 6.79283 2.0953C6.97958 1.90299 7.21099 1.80683 7.48706 1.80683H9.7435V0.974333C9.7435 0.698266 9.83686 0.466866 10.0236 0.280133C10.2104 0.0933775 10.4418 0 10.7178 0H13.282C13.558 0 13.7894 0.0933775 13.9762 0.280133C14.1629 0.466866 14.2563 0.698266 14.2563 0.974333V1.80683H16.518C16.7948 1.80683 17.0255 1.90299 17.2102 2.0953C17.3948 2.28761 17.4871 2.51624 17.4871 2.7812V23.0257C17.4871 23.3017 17.3937 23.5331 17.207 23.7199C17.0202 23.9066 16.7888 24 16.5127 24H7.49133ZM7.64093 11.8701H16.3589V2.9094H7.64093V11.8701Z" fill="#1B1B1B"/>
</svg>
