<svg width="24" height="24" viewBox="0 0 24 24" fill="none" xmlns="http://www.w3.org/2000/svg">
<path d="M1.9487 18.6663C1.40254 18.6663 0.941222 18.4781 0.564733 18.1016C0.188245 17.7251 0 17.261 0 16.7091V7.29021C0 6.73925 0.188245 6.27531 0.564733 5.89837C0.941222 5.52146 1.40254 5.33301 1.9487 5.33301H22.0513C22.5975 5.33301 23.0588 5.52146 23.4353 5.89837C23.8118 6.27531 24 6.73925 24 7.29021V16.7091C24 17.261 23.8118 17.7251 23.4353 18.1016C23.0588 18.4781 22.5975 18.6663 22.0513 18.6663H1.9487ZM1.9487 17.5381H22.0513C22.2564 17.5381 22.4445 17.4527 22.6154 17.2817C22.7863 17.1108 22.8718 16.9228 22.8718 16.7176V7.28171C22.8718 7.07657 22.7863 6.88854 22.6154 6.71761C22.4445 6.54668 22.2564 6.46121 22.0513 6.46121H18.1026V10.974H16.9744V6.46121H12.5641V10.974H11.4359V6.46121H7.02563V10.974H5.89743V6.46121H1.9487C1.74357 6.46121 1.55553 6.54668 1.3846 6.71761C1.21367 6.88854 1.1282 7.07657 1.1282 7.28171V16.7176C1.1282 16.9228 1.21367 17.1108 1.3846 17.2817C1.55553 17.4527 1.74357 17.5381 1.9487 17.5381Z" fill="#1B1B1B"/>
</svg>
