<svg width="24" height="24" viewBox="0 0 24 24" fill="none" xmlns="http://www.w3.org/2000/svg">
<path d="M12 12.8034L16.4633 17.2667C16.5698 17.3732 16.6994 17.4308 16.8521 17.4393C17.0048 17.4479 17.143 17.3903 17.2667 17.2667C17.3903 17.143 17.4521 17.0091 17.4521 16.865C17.4521 16.7208 17.3903 16.5869 17.2667 16.4632L12.8034 12L17.2667 7.53673C17.3732 7.4302 17.4308 7.30058 17.4393 7.14787C17.4479 6.99515 17.3903 6.85698 17.2667 6.73333C17.143 6.60969 17.0091 6.54787 16.865 6.54787C16.7208 6.54787 16.5869 6.60969 16.4633 6.73333L12 11.1966L7.53677 6.73333C7.43021 6.62678 7.30058 6.56922 7.14787 6.56067C6.99516 6.55213 6.85698 6.60969 6.73333 6.73333C6.60969 6.85698 6.54787 6.99088 6.54787 7.13503C6.54787 7.27919 6.60969 7.41309 6.73333 7.53673L11.1966 12L6.73333 16.4632C6.62678 16.5698 6.56922 16.6994 6.56067 16.8521C6.55213 17.0048 6.60969 17.143 6.73333 17.2667C6.85698 17.3903 6.99088 17.4521 7.13503 17.4521C7.27919 17.4521 7.4131 17.3903 7.53677 17.2667L12 12.8034ZM12.0045 24C10.3485 24 8.79294 23.6851 7.33783 23.0554C5.8827 22.4256 4.61112 21.5672 3.5231 20.4802C2.43508 19.3932 1.57589 18.1228 0.945533 16.669C0.315178 15.2153 0 13.6604 0 12.0045C0 10.3451 0.314878 8.78496 0.944634 7.32413C1.57441 5.86331 2.4328 4.59259 3.5198 3.51197C4.6068 2.43137 5.87719 1.57589 7.33097 0.945534C8.78472 0.315179 10.3396 0 11.9955 0C13.6549 0 15.215 0.314877 16.6759 0.944633C18.1367 1.57441 19.4074 2.4291 20.488 3.5087C21.5686 4.5883 22.4241 5.85782 23.0545 7.31727C23.6848 8.77673 24 10.3362 24 11.9955C24 13.6515 23.6851 15.2071 23.0554 16.6622C22.4256 18.1173 21.5709 19.3889 20.4913 20.4769C19.4117 21.5649 18.1422 22.4241 16.6827 23.0545C15.2233 23.6848 13.6638 24 12.0045 24ZM12 22.8718C15.0279 22.8718 17.5969 21.816 19.7068 19.7043C21.8168 17.5926 22.8718 15.0245 22.8718 12C22.8718 8.97209 21.8168 6.40314 19.7068 4.29317C17.5969 2.18319 15.0279 1.1282 12 1.1282C8.97549 1.1282 6.4074 2.18319 4.29573 4.29317C2.18404 6.40314 1.1282 8.97209 1.1282 12C1.1282 15.0245 2.18404 17.5926 4.29573 19.7043C6.4074 21.816 8.97549 22.8718 12 22.8718Z" fill="#1B1B1B"/>
</svg>
