<svg width="24" height="24" viewBox="0 0 24 24" fill="none" xmlns="http://www.w3.org/2000/svg">
<path d="M3.39229 24C2.85305 24 2.39757 23.8141 2.02585 23.4424C1.65412 23.0707 1.46826 22.6152 1.46826 22.076V4.65821C1.46826 4.11897 1.65412 3.66349 2.02585 3.29176C2.39757 2.92004 2.85305 2.73418 3.39229 2.73418H5.98301V0.634599C5.98301 0.457601 6.04123 0.307591 6.15767 0.184568C6.27409 0.0615234 6.42128 0 6.59925 0C6.78344 0 6.93635 0.0615234 7.05796 0.184568C7.17958 0.307591 7.24039 0.457601 7.24039 0.634599V2.73418H16.8607V0.588719C16.8607 0.414179 16.9158 0.272431 17.0261 0.163472C17.1363 0.0544916 17.2737 0 17.4381 0C17.6088 0 17.7507 0.0557529 17.8639 0.167257C17.9771 0.27876 18.0337 0.417668 18.0337 0.58398V2.73418H20.6075C21.1468 2.73418 21.6022 2.92004 21.974 3.29176C22.3457 3.66349 22.5315 4.11897 22.5315 4.65821V22.076C22.5315 22.6152 22.3457 23.0707 21.974 23.4424C21.6022 23.8141 21.1468 24 20.6075 24H3.39229ZM3.39229 22.8861H20.6075C20.8101 22.8861 20.9957 22.8017 21.1645 22.6329C21.3332 22.4642 21.4176 22.2785 21.4176 22.076V10.2278H2.58218V22.076C2.58218 22.2785 2.66656 22.4642 2.83533 22.6329C3.0041 22.8017 3.18976 22.8861 3.39229 22.8861ZM2.58218 9.11392H21.4176V4.65821C21.4176 4.45568 21.3332 4.27002 21.1645 4.10125C20.9957 3.93248 20.8101 3.8481 20.6075 3.8481H3.39229C3.18976 3.8481 3.0041 3.93248 2.83533 4.10125C2.66656 4.27002 2.58218 4.45568 2.58218 4.65821V9.11392Z" fill="#1B1B1B"/>
</svg>
