<svg width="24" height="24" viewBox="0 0 24 24" fill="none" xmlns="http://www.w3.org/2000/svg">
<path d="M0.75 18C0.5375 18 0.359375 17.9281 0.215625 17.7844C0.071875 17.6406 0 17.4625 0 17.25V16.675C0 16.0173 0.34375 15.4903 1.03125 15.0942C1.71875 14.6981 2.625 14.5 3.75 14.5C3.95 14.5 4.14583 14.5063 4.3375 14.5188C4.52917 14.5312 4.71667 14.55 4.9 14.575C4.76667 14.8583 4.66667 15.1491 4.6 15.4472C4.53333 15.7454 4.5 16.063 4.5 16.4V18H0.75ZM6.75 18C6.5375 18 6.35938 17.9281 6.21563 17.7844C6.07188 17.6406 6 17.4625 6 17.25V16.4C6 15.3167 6.55417 14.4375 7.6625 13.7625C8.77083 13.0875 10.2167 12.75 12 12.75C13.8 12.75 15.25 13.0875 16.35 13.7625C17.45 14.4375 18 15.3167 18 16.4V17.25C18 17.4625 17.9281 17.6406 17.7844 17.7844C17.6406 17.9281 17.4625 18 17.25 18H6.75ZM19.5 18V16.4C19.5 16.063 19.4667 15.7454 19.4 15.4472C19.3333 15.1491 19.2333 14.8561 19.1 14.5682C19.2833 14.5394 19.4708 14.5208 19.6625 14.5125C19.8542 14.5042 20.0507 14.5 20.2521 14.5C21.3673 14.5 22.2708 14.6981 22.9625 15.0942C23.6542 15.4903 24 16.0173 24 16.675V17.25C24 17.4625 23.9281 17.6406 23.7844 17.7844C23.6406 17.9281 23.4625 18 23.25 18H19.5ZM12 14.25C10.65 14.25 9.5625 14.4542 8.7375 14.8625C7.9125 15.2708 7.5 15.7833 7.5 16.4V16.5H16.5V16.375C16.5 15.775 16.0875 15.2708 15.2625 14.8625C14.4375 14.4542 13.35 14.25 12 14.25ZM3.74777 13.75C3.26592 13.75 2.85417 13.5784 2.5125 13.2353C2.17083 12.8921 2 12.4796 2 11.9978C2 11.5159 2.17158 11.1042 2.51472 10.7625C2.85786 10.4208 3.27036 10.25 3.75223 10.25C4.23408 10.25 4.64583 10.4216 4.9875 10.7647C5.32917 11.1079 5.5 11.5204 5.5 12.0022C5.5 12.4841 5.32842 12.8958 4.98527 13.2375C4.64214 13.5792 4.22964 13.75 3.74777 13.75ZM20.2478 13.75C19.7659 13.75 19.3542 13.5784 19.0125 13.2353C18.6708 12.8921 18.5 12.4796 18.5 11.9978C18.5 11.5159 18.6716 11.1042 19.0147 10.7625C19.3579 10.4208 19.7704 10.25 20.2522 10.25C20.7341 10.25 21.1458 10.4216 21.4875 10.7647C21.8292 11.1079 22 11.5204 22 12.0022C22 12.4841 21.8284 12.8958 21.4853 13.2375C21.1421 13.5792 20.7296 13.75 20.2478 13.75ZM12 12C11.1667 12 10.4583 11.7083 9.875 11.125C9.29167 10.5417 9 9.83333 9 9C9 8.16667 9.29167 7.45833 9.875 6.875C10.4583 6.29167 11.1667 6 12 6C12.8333 6 13.5417 6.29167 14.125 6.875C14.7083 7.45833 15 8.16667 15 9C15 9.83333 14.7083 10.5417 14.125 11.125C13.5417 11.7083 12.8333 12 12 12ZM12 7.5C11.575 7.5 11.2188 7.64375 10.9313 7.93125C10.6438 8.21875 10.5 8.575 10.5 9C10.5 9.425 10.6438 9.78125 10.9313 10.0687C11.2188 10.3563 11.575 10.5 12 10.5C12.425 10.5 12.7812 10.3563 13.0688 10.0687C13.3562 9.78125 13.5 9.425 13.5 9C13.5 8.575 13.3562 8.21875 13.0688 7.93125C12.7812 7.64375 12.425 7.5 12 7.5Z" fill="#1B1B1B"/>
</svg>
