<svg width="24" height="24" viewBox="0 0 24 24" fill="none" xmlns="http://www.w3.org/2000/svg">
<path d="M13.9952 24C11.8719 24 10.0787 23.2573 8.61553 21.7718C7.1524 20.2864 6.42083 18.492 6.42083 16.3886V15.5454C4.68683 15.4059 3.22453 14.6907 2.03394 13.3999C0.843343 12.1091 0.248047 10.5793 0.248047 8.81073V2.37412C0.248047 2.0901 0.344113 1.85203 0.536247 1.6599C0.728381 1.46779 0.966456 1.37173 1.25047 1.37173H4.36324V0.580344C4.36324 0.415896 4.41935 0.278061 4.53158 0.166836C4.64384 0.0556119 4.78292 0 4.94883 0C5.11474 0 5.25207 0.0556119 5.36083 0.166836C5.46956 0.278061 5.52393 0.415896 5.52393 0.580344V3.3238C5.52393 3.48882 5.46781 3.6268 5.35558 3.73772C5.24333 3.84867 5.10425 3.90415 4.93834 3.90415C4.77243 3.90415 4.63509 3.84853 4.52634 3.73728C4.4176 3.62605 4.36324 3.48823 4.36324 3.3238V2.53242H1.40874V8.80932C1.40874 10.3602 1.95286 11.6802 3.0411 12.7694C4.12936 13.8586 5.44892 14.4032 6.99977 14.4032C8.55065 14.4032 9.87068 13.8589 10.9599 12.7704C12.049 11.6819 12.5936 10.362 12.5936 8.81073V2.53242H9.63912V3.3238C9.63912 3.48882 9.583 3.6268 9.47077 3.73772C9.35854 3.84867 9.21946 3.90415 9.05353 3.90415C8.88762 3.90415 8.75029 3.84853 8.64156 3.73728C8.53281 3.62605 8.47843 3.48823 8.47843 3.3238V0.580344C8.47843 0.415896 8.53455 0.278061 8.64681 0.166836C8.75904 0.0556119 8.89811 0 9.06402 0C9.22995 0 9.36729 0.0556119 9.47602 0.166836C9.58475 0.278061 9.63912 0.415896 9.63912 0.580344V1.37173H12.7519C13.0359 1.37173 13.274 1.46779 13.4661 1.6599C13.6583 1.85203 13.7543 2.0901 13.7543 2.37412V8.81073C13.7543 10.5793 13.159 12.1091 11.9684 13.3999C10.7778 14.6907 9.31553 15.4059 7.58152 15.5454V16.3886C7.58152 18.1678 8.19712 19.6877 9.42832 20.9483C10.6595 22.209 12.1806 22.8393 13.9918 22.8393C15.751 22.8393 17.2547 22.2116 18.5031 20.9563C19.7514 19.701 20.3756 18.1766 20.3756 16.3833V14.1438C19.7454 14.0095 19.2185 13.6856 18.795 13.1721C18.3715 12.6586 18.1597 12.0665 18.1597 11.3959C18.1597 10.6192 18.4322 9.95896 18.9772 9.41525C19.5223 8.87154 20.1841 8.59968 20.9627 8.59968C21.7414 8.59968 22.4009 8.87154 22.9414 9.41525C23.4819 9.95896 23.7521 10.6192 23.7521 11.3959C23.7521 12.0665 23.5404 12.6586 23.1168 13.1721C22.6933 13.6856 22.1664 14.0095 21.5363 14.1438V16.3886C21.5363 18.5147 20.8029 20.3148 19.3362 21.7889C17.8695 23.263 16.0892 24 13.9952 24ZM20.9516 13.0314C21.4041 13.0314 21.7905 12.8727 22.1109 12.5552C22.4313 12.2377 22.5914 11.8527 22.5914 11.4002C22.5914 10.9477 22.4327 10.5613 22.1152 10.2409C21.7977 9.92056 21.4127 9.76038 20.9602 9.76038C20.5077 9.76038 20.1213 9.91912 19.8009 10.2366C19.4806 10.5541 19.3204 10.9391 19.3204 11.3916C19.3204 11.8441 19.4791 12.2305 19.7966 12.5509C20.1141 12.8713 20.4991 13.0314 20.9516 13.0314Z" fill="#1B1B1B"/>
</svg>
