<svg width="24" height="24" viewBox="0 0 24 24" fill="none" xmlns="http://www.w3.org/2000/svg">
<path d="M19.6714 24C19.5186 24 19.3921 23.9488 19.292 23.8464C19.1918 23.7439 19.1418 23.617 19.1418 23.4656V13.8947H17.9353C17.4276 13.8947 16.993 13.7119 16.6314 13.3461C16.2699 12.9804 16.0891 12.5479 16.0891 12.0486V5.43319C16.0891 4.06045 16.4504 2.86437 17.173 1.84494C17.8955 0.825504 18.908 0.226717 20.2106 0.0485692V23.4656C20.2106 23.617 20.1589 23.7439 20.0556 23.8464C19.9522 23.9488 19.8241 24 19.6714 24ZM7.86598 24C7.7184 24 7.59454 23.9488 7.49439 23.8464C7.39427 23.7439 7.3442 23.617 7.3442 23.4656V12.5619C6.35364 12.4443 5.51355 12.0103 4.82395 11.2599C4.13435 10.5096 3.78955 9.58678 3.78955 8.49152V0.53441C3.78955 0.382999 3.84122 0.256073 3.94457 0.153631C4.04792 0.0512102 4.17599 0 4.32879 0C4.48157 0 4.60802 0.0512102 4.70815 0.153631C4.8083 0.256073 4.85837 0.382999 4.85837 0.53441V8.50203H7.3442V0.53441C7.3442 0.382999 7.39586 0.256073 7.49916 0.153631C7.60245 0.0512102 7.73045 0 7.88316 0C8.02533 0 8.14918 0.0512102 8.25472 0.153631C8.36026 0.256073 8.41302 0.382999 8.41302 0.53441V8.50203H10.8827V0.53441C10.8827 0.382999 10.9343 0.256073 11.0377 0.153631C11.1411 0.0512102 11.2691 0 11.4219 0C11.5747 0 11.7012 0.0512102 11.8013 0.153631C11.9014 0.256073 11.9515 0.382999 11.9515 0.53441V8.49152C11.9515 9.58678 11.6067 10.5096 10.9171 11.2599C10.2275 12.0103 9.39277 12.4443 8.41302 12.5619V23.4656C8.41302 23.617 8.35874 23.7439 8.25017 23.8464C8.1416 23.9488 8.01354 24 7.86598 24Z" fill="#1B1B1B"/>
</svg>
