<svg width="24" height="24" viewBox="0 0 24 24" fill="none" xmlns="http://www.w3.org/2000/svg">
<path d="M5.28306 17.3344C6.37728 17.3344 7.43776 17.463 8.4645 17.7202C9.49124 17.9773 10.5087 18.3836 11.5169 18.939V6.85898C10.6282 6.20154 9.64127 5.70615 8.55609 5.37281C7.47091 5.03947 6.3799 4.8728 5.28306 4.8728C4.54666 4.8728 3.90654 4.92229 3.3627 5.02127C2.81884 5.12025 2.20563 5.28666 1.52307 5.5205C1.33845 5.58204 1.20768 5.6705 1.13076 5.78588C1.05384 5.90128 1.01538 6.02821 1.01538 6.16667V17.3452C1.01538 17.5503 1.0923 17.7028 1.24614 17.8028C1.39998 17.9028 1.56921 17.9195 1.75383 17.8528C2.16973 17.6887 2.67781 17.5613 3.27807 17.4705C3.87833 17.3798 4.54666 17.3344 5.28306 17.3344ZM12.5323 18.939C13.5333 18.3836 14.5394 17.9773 15.5504 17.7202C16.5614 17.463 17.6169 17.3344 18.7169 17.3344C19.4533 17.3344 20.1258 17.379 20.7342 17.4682C21.3427 17.5575 21.8467 17.6677 22.2462 17.799C22.4308 17.8759 22.6 17.8644 22.7539 17.7644C22.9077 17.6644 22.9846 17.5067 22.9846 17.2913V6.16667C22.9846 6.02821 22.9462 5.90513 22.8692 5.79743C22.7923 5.68973 22.6616 5.59742 22.4769 5.5205C21.8139 5.27742 21.2067 5.1087 20.6555 5.01434C20.1043 4.91998 19.4581 4.8728 18.7169 4.8728C17.6169 4.8728 16.5308 5.03947 15.4585 5.37281C14.3862 5.70615 13.4108 6.20154 12.5323 6.85898V18.939ZM12.0246 20.1428C11.8821 20.1428 11.7473 20.125 11.6204 20.0894C11.4935 20.0537 11.3779 20.0072 11.2739 19.9498C10.3564 19.4354 9.39307 19.0409 8.38383 18.7663C7.37457 18.4917 6.34098 18.3544 5.28306 18.3544C4.70052 18.3544 4.12527 18.401 3.55731 18.4944C2.98935 18.5877 2.42307 18.7287 1.85847 18.9175C1.40533 19.1016 0.9823 19.0462 0.58938 18.7513C0.19646 18.4564 0 18.0539 0 17.5436V6.12512C0 5.80564 0.0829499 5.51 0.24885 5.2382C0.41473 4.9664 0.64819 4.7723 0.94923 4.6559C1.63127 4.37794 2.33775 4.17537 3.06867 4.04819C3.79957 3.92101 4.5377 3.85742 5.28306 3.85742C6.49436 3.85742 7.67013 4.03229 8.81037 4.38203C9.95063 4.73179 11.022 5.24769 12.0246 5.92973C13.0139 5.24769 14.077 4.73179 15.2142 4.38203C16.3514 4.03229 17.519 3.85742 18.7169 3.85742C19.4577 3.85742 20.194 3.92101 20.9256 4.04819C21.6573 4.17537 22.3641 4.37794 23.0462 4.6559C23.3472 4.7723 23.5814 4.9664 23.7488 5.2382C23.9163 5.51 24 5.80564 24 6.12512V17.5436C24 18.0586 23.7837 18.457 23.3512 18.7387C22.9186 19.0204 22.4677 19.0646 21.9985 18.8713C21.4626 18.6949 20.9196 18.5646 20.3696 18.4805C19.8196 18.3964 19.2687 18.3544 18.7169 18.3544C17.6625 18.3544 16.6347 18.4917 15.6334 18.7663C14.6322 19.0409 13.6743 19.4354 12.76 19.9498C12.6559 20.0072 12.5404 20.0537 12.4135 20.0894C12.2865 20.125 12.1569 20.1428 12.0246 20.1428ZM14.2615 8.6459C14.2615 8.58414 14.2831 8.51739 14.3263 8.44565C14.3694 8.37393 14.4276 8.3235 14.5008 8.29436C15.1146 8.0041 15.7668 7.78436 16.4575 7.63514C17.1481 7.4859 17.8639 7.41128 18.605 7.41128C19.0008 7.41128 19.3734 7.43243 19.7228 7.47473C20.0722 7.51705 20.4359 7.57975 20.8138 7.66283C20.8974 7.68745 20.9724 7.73419 21.0388 7.80305C21.1052 7.87191 21.1384 7.95643 21.1384 8.05661C21.1384 8.22537 21.089 8.34693 20.99 8.42129C20.891 8.49565 20.7603 8.51488 20.5977 8.47898C20.2855 8.41282 19.964 8.36448 19.6332 8.33396C19.3023 8.30346 18.9579 8.28821 18.6 8.28821C17.9374 8.28821 17.2903 8.35052 16.6585 8.47514C16.0267 8.59974 15.43 8.78256 14.8684 9.0236C14.6951 9.0959 14.5506 9.09692 14.435 9.02666C14.3194 8.9564 14.2615 8.82948 14.2615 8.6459ZM14.2615 15.1536C14.2615 15.088 14.2831 15.016 14.3263 14.9376C14.3694 14.8592 14.4276 14.8048 14.5008 14.7744C15.0838 14.4841 15.7361 14.269 16.4575 14.129C17.1789 13.989 17.8947 13.919 18.605 13.919C19.0008 13.919 19.3734 13.9401 19.7228 13.9825C20.0722 14.0248 20.4359 14.0874 20.8138 14.1705C20.8974 14.1951 20.9724 14.2419 21.0388 14.3107C21.1052 14.3796 21.1384 14.4641 21.1384 14.5643C21.1384 14.7331 21.089 14.8546 20.99 14.929C20.891 15.0033 20.7603 15.0226 20.5977 14.9867C20.2855 14.9205 19.964 14.8722 19.6332 14.8417C19.3023 14.8112 18.9579 14.7959 18.6 14.7959C17.9528 14.7959 17.3172 14.8635 16.6931 14.9986C16.069 15.1337 15.4762 15.3244 14.9146 15.5705C14.731 15.6582 14.5763 15.6604 14.4504 15.577C14.3245 15.4937 14.2615 15.3526 14.2615 15.1536ZM14.2615 11.9228C14.2615 11.8611 14.2831 11.7943 14.3263 11.7226C14.3694 11.6508 14.4276 11.6004 14.5008 11.5713C15.1146 11.281 15.7668 11.0613 16.4575 10.912C17.1481 10.7628 17.8639 10.6882 18.605 10.6882C19.0008 10.6882 19.3734 10.7094 19.7228 10.7517C20.0722 10.794 20.4359 10.8567 20.8138 10.9398C20.8974 10.9644 20.9724 11.0111 21.0388 11.08C21.1052 11.1488 21.1384 11.2333 21.1384 11.3335C21.1384 11.5023 21.089 11.6239 20.99 11.6982C20.891 11.7726 20.7603 11.7918 20.5977 11.7559C20.2855 11.6898 19.964 11.6414 19.6332 11.6109C19.3023 11.5804 18.9579 11.5651 18.6 11.5651C17.9374 11.5651 17.2903 11.6274 16.6585 11.752C16.0267 11.8767 15.43 12.0595 14.8684 12.3005C14.6951 12.3728 14.5506 12.3739 14.435 12.3036C14.3194 12.2333 14.2615 12.1064 14.2615 11.9228Z" fill="#1B1B1B"/>
</svg>
