<svg width="24" height="24" viewBox="0 0 24 24" fill="none" xmlns="http://www.w3.org/2000/svg">
<path d="M12 6.19967C11.3333 6.19967 10.7611 5.96079 10.2833 5.48301C9.80556 5.00523 9.56667 4.43301 9.56667 3.76634C9.56667 3.09967 9.80556 2.52745 10.2833 2.04967C10.7611 1.5719 11.3333 1.33301 12 1.33301C12.6667 1.33301 13.2389 1.5719 13.7167 2.04967C14.1944 2.52745 14.4333 3.09967 14.4333 3.76634C14.4333 4.43301 14.1944 5.00523 13.7167 5.48301C13.2389 5.96079 12.6667 6.19967 12 6.19967ZM4.7 22.6663C4.12222 22.6663 3.64444 22.4775 3.26667 22.0997C2.88889 21.7219 2.7 21.2441 2.7 20.6663C2.7 20.2663 2.8 19.883 3 19.5163C3.2 19.1497 3.48889 18.8886 3.86667 18.733L9.6 16.4663V11.8663C8.26667 13.5108 6.91667 14.783 5.55 15.683C4.18333 16.583 2.66667 17.1108 1 17.2663C0.733333 17.2886 0.5 17.2052 0.3 17.0163C0.1 16.8275 0 16.5886 0 16.2997C0 16.033 0.0944445 15.7997 0.283333 15.5997C0.472222 15.3997 0.711111 15.2775 1 15.233C2.28889 15.0775 3.47778 14.6663 4.56667 13.9997C5.65556 13.333 6.63333 12.433 7.5 11.2997L9.43333 9.13301C9.65556 8.86634 9.91667 8.64412 10.2167 8.46634C10.5167 8.28856 10.8444 8.19967 11.2 8.19967H12.8C13.1556 8.19967 13.4889 8.28856 13.8 8.46634C14.1111 8.64412 14.3778 8.86634 14.6 9.13301L16.5333 11.2997C17.4667 12.3886 18.4611 13.2775 19.5167 13.9663C20.5722 14.6552 21.7333 15.0775 23 15.233C23.2889 15.2775 23.5278 15.3997 23.7167 15.5997C23.9056 15.7997 24 16.033 24 16.2997C24 16.5886 23.9 16.8275 23.7 17.0163C23.5 17.2052 23.2667 17.2886 23 17.2663C21.3333 17.1108 19.8167 16.5775 18.45 15.6663C17.0833 14.7552 15.7333 13.4886 14.4 11.8663V16.4663L20.1333 18.733C20.5111 18.8886 20.8 19.1497 21 19.5163C21.2 19.883 21.3 20.2663 21.3 20.6663C21.3 21.2441 21.1111 21.7219 20.7333 22.0997C20.3556 22.4775 19.8778 22.6663 19.3 22.6663H9.2V22.2997C9.2 21.7219 9.37778 21.2552 9.73333 20.8997C10.0889 20.5441 10.5556 20.3663 11.1333 20.3663H15.5667C15.7444 20.3663 15.9 20.2997 16.0333 20.1663C16.1667 20.033 16.2333 19.8775 16.2333 19.6997C16.2333 19.5219 16.1667 19.3663 16.0333 19.233C15.9 19.0997 15.7444 19.033 15.5667 19.033H11.1333C10.1556 19.033 9.37778 19.333 8.8 19.933C8.22222 20.533 7.93333 21.3219 7.93333 22.2997V22.6663H4.7Z" fill="#1B1B1B"/>
</svg>
