<svg width="24" height="24" viewBox="0 0 24 24" fill="none" xmlns="http://www.w3.org/2000/svg">
<path d="M11.3904 23.268C10.0325 23.0166 8.67271 22.5642 7.31115 21.9109C5.94959 21.2576 4.72704 20.3628 3.64349 19.2263C2.55992 18.0899 1.68177 16.6973 1.00905 15.0485C0.336349 13.3997 0 11.4455 0 9.18583V8.94932C0 8.71764 0.0770302 8.52475 0.231091 8.37067C0.385175 8.21661 0.578061 8.13958 0.809746 8.13958H0.992488C1.98439 8.13958 3.17217 8.39695 4.5558 8.9117C5.93944 9.42647 7.09019 10.0451 8.00806 10.7677C8.09824 9.17568 8.43623 7.50598 9.02203 5.75865C9.60786 4.01132 10.3648 2.45361 11.2928 1.0855C11.4815 0.807799 11.7123 0.668945 11.9852 0.668945C12.2581 0.668945 12.4889 0.807799 12.6776 1.0855C13.6056 2.45361 14.3626 4.02028 14.9484 5.78552C15.5342 7.55076 15.8722 9.2294 15.9624 10.8215C16.8265 10.1717 17.9324 9.57578 19.2803 9.03355C20.6281 8.49132 21.8427 8.19333 22.9242 8.13958L23.2216 8.11271C23.4372 8.09478 23.6248 8.16568 23.7846 8.32543C23.9443 8.48517 24.0152 8.67284 23.9973 8.88843L23.9704 9.23956C23.845 11.0335 23.54 12.6697 23.0554 14.1483C22.5708 15.6269 21.8942 16.9434 21.0256 18.0977C20.157 19.252 19.0957 20.2499 17.8417 21.0913C16.5876 21.9327 15.1383 22.6135 13.4936 23.1337C13.1981 23.234 12.8475 23.2961 12.442 23.32C12.0366 23.3438 11.686 23.3265 11.3904 23.268ZM12.5603 22.2442C12.3041 18.27 11.1144 15.2476 8.99115 13.1768C6.86791 11.1062 4.26857 9.82479 1.19315 9.33273C1.45649 13.4192 2.68382 16.4889 4.87514 18.542C7.06646 20.5951 9.62818 21.8291 12.5603 22.2442C12.5913 22.2674 12.5875 22.2733 12.5486 22.2616C12.5098 22.25 12.5137 22.2442 12.5603 22.2442ZM9.18686 11.6509C9.71716 12.1054 10.2307 12.6746 10.7276 13.3587C11.2244 14.0427 11.6418 14.6899 11.9798 15.3002C12.2778 14.678 12.687 14.0278 13.2075 13.3497C13.7279 12.6717 14.2533 12.1054 14.7836 11.6509C14.8218 10.1622 14.5843 8.60209 14.071 6.9706C13.5577 5.33914 12.8625 3.75275 11.9852 2.21144C11.9816 2.20785 11.9816 2.21278 11.9852 2.22622C11.9888 2.23966 11.9888 2.23473 11.9852 2.21144C11.1044 3.75634 10.4082 5.33825 9.89676 6.95719C9.38527 8.57612 9.14864 10.1407 9.18686 11.6509ZM12.6033 16.7299C12.8827 17.5205 13.1134 18.2965 13.2953 19.058C13.4771 19.8193 13.6262 20.7333 13.7427 21.7999C14.8893 21.389 15.9869 20.8557 17.0355 20.2C18.0841 19.5443 19.0121 18.7176 19.8195 17.7197C20.6269 16.7218 21.2957 15.536 21.826 14.1622C22.3563 12.7884 22.6734 11.1786 22.7773 9.33273C22.7773 9.2981 22.7773 9.2981 22.7773 9.33273C20.4256 9.66952 18.3334 10.5087 16.5007 11.8502C14.668 13.1918 13.3688 14.8183 12.6033 16.7299Z" fill="#1B1B1B"/>
</svg>
