<svg width="24" height="24" viewBox="0 0 24 24" fill="none" xmlns="http://www.w3.org/2000/svg">
<path d="M11.743 24C11.5722 24 11.4309 23.9428 11.319 23.8283C11.2071 23.7138 11.1511 23.5719 11.1511 23.4027V17.6923C11.1511 17.5348 11.2089 17.3959 11.3244 17.2756C11.4399 17.1552 11.583 17.095 11.7538 17.095C11.9246 17.095 12.0659 17.1552 12.1778 17.2756C12.2897 17.3959 12.3457 17.5348 12.3457 17.6923V19.9529H23.4027C23.5719 19.9529 23.7138 20.0107 23.8283 20.1262C23.9428 20.2417 24 20.3849 24 20.5556C24 20.7264 23.9428 20.8677 23.8283 20.9796C23.7138 21.0916 23.5719 21.1475 23.4027 21.1475H12.3457V23.4027C12.3457 23.5719 12.2879 23.7138 12.1724 23.8283C12.0569 23.9428 11.9138 24 11.743 24ZM0.597283 21.1475C0.428059 21.1475 0.2862 21.0898 0.171706 20.9742C0.0572355 20.8587 0 20.7156 0 20.5448C0 20.3741 0.0572355 20.2327 0.171706 20.1208C0.2862 20.0089 0.428059 19.9529 0.597283 19.9529H6.53576C6.70499 19.9529 6.84684 20.0107 6.96131 20.1262C7.0758 20.2417 7.13305 20.3849 7.13305 20.5556C7.13305 20.7264 7.0758 20.8677 6.96131 20.9796C6.84684 21.0916 6.70499 21.1475 6.53576 21.1475H0.597283ZM6.53037 15.4498C6.35959 15.4498 6.21825 15.3925 6.10634 15.278C5.99444 15.1636 5.93848 15.0217 5.93848 14.8525V12.5973H0.597283C0.428059 12.5973 0.2862 12.5395 0.171706 12.424C0.0572355 12.3085 0 12.1654 0 11.9946C0 11.8238 0.0572355 11.6825 0.171706 11.5706C0.2862 11.4587 0.428059 11.4027 0.597283 11.4027H5.93848V9.13666C5.93848 8.96741 5.99623 8.82555 6.11174 8.71108C6.22725 8.59661 6.37039 8.53938 6.54117 8.53938C6.71192 8.53938 6.85325 8.59661 6.96515 8.71108C7.07708 8.82555 7.13305 8.96741 7.13305 9.13666V14.8525C7.13305 15.0217 7.07528 15.1636 6.95975 15.278C6.84425 15.3925 6.70112 15.4498 6.53037 15.4498ZM11.7484 12.5973C11.5792 12.5973 11.4373 12.5395 11.3228 12.424C11.2084 12.3085 11.1511 12.1654 11.1511 11.9946C11.1511 11.8238 11.2084 11.6825 11.3228 11.5706C11.4373 11.4587 11.5792 11.4027 11.7484 11.4027H23.4027C23.5719 11.4027 23.7138 11.4605 23.8283 11.576C23.9428 11.6915 24 11.8346 24 12.0054C24 12.1762 23.9428 12.3175 23.8283 12.4294C23.7138 12.5413 23.5719 12.5973 23.4027 12.5973H11.7484ZM17.4588 6.88687C17.2881 6.88687 17.1468 6.82964 17.0348 6.71517C16.9229 6.60067 16.867 6.45881 16.867 6.28959V0.597281C16.867 0.428058 16.9247 0.2862 17.0402 0.171706C17.1558 0.057235 17.2989 0 17.4696 0C17.6404 0 17.7818 0.057235 17.8937 0.171706C18.0056 0.2862 18.0615 0.428058 18.0615 0.597281V2.85247H23.4027C23.5719 2.85247 23.7138 2.91023 23.8283 3.02576C23.9428 3.14127 24 3.2844 24 3.45515C24 3.62593 23.9428 3.76727 23.8283 3.87918C23.7138 3.99111 23.5719 4.04707 23.4027 4.04707H18.0615V6.28959C18.0615 6.45881 18.0038 6.60067 17.8883 6.71517C17.7728 6.82964 17.6296 6.88687 17.4588 6.88687ZM0.597283 4.04707C0.428059 4.04707 0.2862 3.98931 0.171706 3.87378C0.0572355 3.75827 0 3.61514 0 3.44439C0 3.27361 0.0572355 3.13227 0.171706 3.02037C0.2862 2.90844 0.428059 2.85247 0.597283 2.85247H12.2516C12.4208 2.85247 12.5627 2.91023 12.6772 3.02576C12.7916 3.14127 12.8489 3.2844 12.8489 3.45515C12.8489 3.62593 12.7916 3.76727 12.6772 3.87918C12.5627 3.99111 12.4208 4.04707 12.2516 4.04707H0.597283Z" fill="#1B1B1B"/>
</svg>
