<svg width="24" height="24" viewBox="0 0 24 24" fill="none" xmlns="http://www.w3.org/2000/svg">
<path d="M16.8684 22.3713L18.6642 20.5488L15.587 17.4716L13.7644 19.2674C13.3224 19.7046 13.1046 20.2232 13.1111 20.8232C13.1175 21.4232 13.3353 21.9393 13.7644 22.3713C14.1989 22.8005 14.7143 23.0182 15.3107 23.0247C15.9072 23.0311 16.4264 22.8133 16.8684 22.3713ZM19.3212 19.8769L21.1586 18.0811C21.5907 17.649 21.8023 17.1342 21.7934 16.5365C21.7844 15.9389 21.5639 15.4192 21.1318 14.9772C20.6918 14.5599 20.1784 14.3476 19.5915 14.3402C19.0047 14.3327 18.4924 14.5451 18.0547 14.9772L16.2589 16.8145L19.3212 19.8769ZM17.5321 23.0722C16.9063 23.6981 16.1615 24.0073 15.2978 23.9999C14.4341 23.9924 13.6893 23.6832 13.0635 23.0722C12.4525 22.4464 12.1433 21.7016 12.1359 20.8379C12.1285 19.9742 12.4377 19.2295 13.0635 18.6036L17.376 14.2911C17.987 13.6801 18.7318 13.3746 19.6103 13.3746C20.4889 13.3746 21.2337 13.6801 21.8446 14.2911C22.4705 14.917 22.7834 15.6617 22.7834 16.5254C22.7834 17.3891 22.4705 18.1339 21.8446 18.7597L17.5321 23.0723V23.0722ZM2.91098 20.8714C2.44891 20.8714 2.05094 20.7045 1.71708 20.3706C1.38323 20.0368 1.21631 19.6388 1.21631 19.1767V4.01371C1.21631 3.55164 1.38323 3.15368 1.71708 2.81981C2.05094 2.48597 2.44891 2.31904 2.91098 2.31904H8.68928C8.54013 1.74027 8.64976 1.20906 9.01818 0.725426C9.3866 0.241809 9.87803 0 10.4925 0C11.1218 0 11.6207 0.241809 11.9891 0.725426C12.3575 1.20906 12.4597 1.74027 12.2957 2.31904H18.074C18.5361 2.31904 18.934 2.48597 19.2679 2.81981C19.6017 3.15368 19.7687 3.55164 19.7687 4.01371V10.3755C19.6101 10.3562 19.4466 10.3525 19.2781 10.3644C19.1096 10.3762 18.9461 10.3899 18.7875 10.4052V4.01371C18.7875 3.8056 18.7206 3.63465 18.5868 3.50086C18.4531 3.36707 18.2821 3.30017 18.074 3.30017H2.91098C2.70286 3.30017 2.53191 3.36707 2.39812 3.50086C2.26433 3.63465 2.19744 3.8056 2.19744 4.01371V19.1767C2.19744 19.3848 2.26433 19.5558 2.39812 19.6896C2.53191 19.8234 2.70286 19.8903 2.91098 19.8903H9.19547C9.17812 20.0488 9.16424 20.2123 9.15384 20.3808C9.14343 20.5493 9.14788 20.7128 9.16721 20.8714H2.91098ZM10.4894 2.77097C10.7415 2.77097 10.9587 2.68338 11.1409 2.50822C11.3231 2.33303 11.4142 2.11587 11.4142 1.85671C11.4142 1.59756 11.3231 1.3804 11.1409 1.20524C10.9587 1.03007 10.7415 0.942488 10.4894 0.942488C10.2372 0.942488 10.0236 1.03007 9.84843 1.20524C9.67326 1.3804 9.58568 1.59756 9.58568 1.85671C9.58568 2.11587 9.67326 2.33303 9.84843 2.50822C10.0236 2.68338 10.2372 2.77097 10.4894 2.77097ZM5.27463 7.62609V6.64496H15.7103V7.62609H5.27463ZM5.27463 12.0858V11.1047H15.7103V11.7037C15.6337 11.7689 15.5602 11.8337 15.4897 11.8983C15.4193 11.9628 15.3414 12.0328 15.2562 12.1081L15.2785 12.0858H5.27463ZM5.27463 16.5455V15.5643H11.7999L11.5479 15.8312C11.427 15.9521 11.307 16.0712 11.1878 16.1883C11.0687 16.3055 10.9545 16.4246 10.8452 16.5455H5.27463Z" fill="#1B1B1B"/>
</svg>
