<svg width="24" height="24" viewBox="0 0 24 24" fill="none" xmlns="http://www.w3.org/2000/svg">
<path d="M8.64504 13.1581H10.742V9.82923H13.2582V13.1581H15.3552V7.67118L12.0001 5.4537L8.64504 7.67118V13.1581ZM12.0001 23.0118C14.6352 20.7157 16.7138 18.3938 18.2358 16.0461C19.7578 13.6985 20.5188 11.6646 20.5188 9.94458C20.5188 7.38461 19.7102 5.27503 18.0929 3.61584C16.4757 1.95667 14.4447 1.12709 12.0001 1.12709C9.55547 1.12709 7.52452 1.95667 5.90727 3.61584C4.29003 5.27503 3.48142 7.38461 3.48142 9.94458C3.48142 11.6646 4.24795 13.6985 5.78102 16.0461C7.31409 18.3938 9.38712 20.7157 12.0001 23.0118ZM12.0001 24C11.8091 24 11.6189 23.9706 11.4296 23.9117C11.2403 23.8529 11.0667 23.7542 10.9088 23.6156C10.1009 22.8711 9.20073 21.9797 8.2082 20.9411C7.21567 19.9026 6.28327 18.7826 5.411 17.5813C4.53876 16.3799 3.80688 15.1267 3.21536 13.8217C2.62387 12.5167 2.32812 11.2243 2.32812 9.94458C2.32812 7.06133 3.26693 4.68308 5.14454 2.80984C7.02213 0.936612 9.30731 0 12.0001 0C14.6929 0 16.9781 0.936612 18.8557 2.80984C20.7333 4.68308 21.6721 7.06133 21.6721 9.94458C21.6721 11.2243 21.3763 12.5152 20.7848 13.8173C20.1933 15.1194 19.4658 16.3697 18.6023 17.5682C17.7388 18.7666 16.8107 19.8837 15.8182 20.9193C14.8257 21.9549 13.9255 22.8449 13.1176 23.5893C12.9597 23.728 12.7818 23.8311 12.5837 23.8986C12.3857 23.9662 12.1912 24 12.0001 24Z" fill="#1B1B1B"/>
</svg>
