<svg width="24" height="24" viewBox="0 0 24 24" fill="none" xmlns="http://www.w3.org/2000/svg">
<path d="M13.6498 24L13.3498 20.7L12.1498 20.7C9.2898 20.7 6.8498 19.69 4.8298 17.67C2.8098 15.65 1.7998 13.21 1.7998 10.35C1.7998 7.49 2.8148 5.05 4.8448 3.03C6.8748 1.01 9.3298 0 12.2098 0C13.6298 0 14.9448 0.255 16.1548 0.765C17.3648 1.275 18.4198 1.99 19.3198 2.91C20.2198 3.83 20.9248 4.915 21.4348 6.165C21.9448 7.415 22.1998 8.78 22.1998 10.26C22.1998 11.58 22.0048 12.9 21.6148 14.22C21.2248 15.54 20.6598 16.8 19.9198 18C19.1798 19.2 18.2798 20.31 17.2198 21.33C16.1598 22.35 14.9698 23.24 13.6498 24ZM15.1498 20.76C16.7898 19.38 18.0748 17.755 19.0048 15.885C19.9348 14.015 20.3998 12.14 20.3998 10.26C20.3998 7.78 19.6248 5.75 18.0748 4.17C16.5248 2.59 14.5698 1.8 12.2098 1.8C9.8098 1.8 7.7748 2.635 6.1048 4.305C4.4348 5.975 3.5998 7.99 3.5998 10.35C3.5998 12.71 4.4348 14.725 6.1048 16.395C7.7748 18.065 9.7898 18.9 12.1498 18.9L15.1498 18.9V20.76ZM12.2098 17.31C12.5298 17.31 12.7998 17.2 13.0198 16.98C13.2398 16.76 13.3498 16.49 13.3498 16.17C13.3498 15.85 13.2398 15.58 13.0198 15.36C12.7998 15.14 12.5298 15.03 12.2098 15.03C11.8898 15.03 11.6198 15.14 11.3998 15.36C11.1798 15.58 11.0698 15.85 11.0698 16.17C11.0698 16.49 11.1798 16.76 11.3998 16.98C11.6198 17.2 11.8898 17.31 12.2098 17.31ZM11.3998 13.23H12.8998C12.8998 12.73 12.9848 12.315 13.1548 11.985C13.3248 11.655 13.6798 11.22 14.2198 10.68C14.7598 10.14 15.1398 9.645 15.3598 9.195C15.5798 8.745 15.6898 8.26 15.6898 7.74C15.6898 6.84 15.3848 6.1 14.7748 5.52C14.1648 4.94 13.3498 4.65 12.3298 4.65C11.4898 4.65 10.7398 4.87 10.0798 5.31C9.4198 5.75 8.9298 6.35 8.6098 7.11L9.9898 7.68C10.2098 7.16 10.5148 6.775 10.9048 6.525C11.2948 6.275 11.7398 6.15 12.2398 6.15C12.8398 6.15 13.3098 6.295 13.6498 6.585C13.9898 6.875 14.1598 7.26 14.1598 7.74C14.1598 8.12 14.0498 8.505 13.8298 8.895C13.6098 9.285 13.2198 9.77 12.6598 10.35C12.1198 10.91 11.7748 11.36 11.6248 11.7C11.4748 12.04 11.3998 12.55 11.3998 13.23Z" fill="#1B1B1B"/>
</svg>
