<svg width="24" height="24" viewBox="0 0 24 24" fill="none" xmlns="http://www.w3.org/2000/svg">
<path d="M12.0001 24C11.3926 24 10.8626 23.7976 10.4102 23.3929C9.95778 22.9882 9.6951 22.482 9.62216 21.8745H14.3781C14.3052 22.482 14.0425 22.9882 13.5901 23.3929C13.1376 23.7976 12.6077 24 12.0001 24ZM7.9342 19.3232C7.77602 19.3232 7.64392 19.2698 7.5379 19.163C7.43186 19.0561 7.37884 18.9231 7.37884 18.7637C7.37884 18.6043 7.43186 18.4726 7.5379 18.3685C7.64392 18.2645 7.77602 18.2125 7.9342 18.2125H16.0661C16.2242 18.2125 16.3563 18.2659 16.4624 18.3727C16.5684 18.4795 16.6214 18.6126 16.6214 18.772C16.6214 18.9313 16.5684 19.063 16.4624 19.1671C16.3563 19.2712 16.2242 19.3232 16.0661 19.3232H7.9342ZM7.41251 15.6831C6.19352 14.8522 5.23131 13.8285 4.52588 12.6117C3.82048 11.395 3.46777 10.0352 3.46777 8.53235C3.46777 6.17235 4.29983 4.16029 5.96395 2.49617C7.62806 0.832057 9.64012 0 12.0001 0C14.3601 0 16.3722 0.832057 18.0363 2.49617C19.7004 4.16029 20.5325 6.17235 20.5325 8.53235C20.5325 10.0352 20.1806 11.395 19.4769 12.6117C18.7732 13.8285 17.8101 14.8522 16.5877 15.6831H7.41251ZM7.76929 14.5723H16.2333C17.2409 13.8723 18.0242 12.994 18.5833 11.9376C19.1423 10.8812 19.4218 9.74611 19.4218 8.53235C19.4218 6.47361 18.6995 4.72198 17.255 3.27747C15.8105 1.83297 14.0589 1.11072 12.0001 1.11072C9.94136 1.11072 8.18973 1.83297 6.74525 3.27747C5.30074 4.72198 4.57849 6.47338 4.57849 8.53166C4.57849 9.74906 4.85799 10.8852 5.41699 11.94C5.97601 12.9948 6.76011 13.8723 7.76929 14.5723Z" fill="#1B1B1B"/>
</svg>
