<svg width="24" height="24" viewBox="0 0 24 24" fill="none" xmlns="http://www.w3.org/2000/svg">
<path d="M5.94431 18.7346C6.23976 18.7346 6.48636 18.6351 6.68411 18.436C6.88189 18.2369 6.98077 17.9896 6.98077 17.6942C6.98077 17.3987 6.88121 17.1521 6.68209 16.9544C6.48299 16.7566 6.23571 16.6577 5.94026 16.6577C5.64484 16.6577 5.39824 16.7572 5.20046 16.9563C5.00271 17.1555 4.90384 17.4028 4.90384 17.6982C4.90384 17.9936 5.00339 18.2402 5.20249 18.438C5.40159 18.6357 5.64886 18.7346 5.94431 18.7346ZM5.94431 13.0385C6.23976 13.0385 6.48636 12.9389 6.68411 12.7398C6.88189 12.5407 6.98077 12.2934 6.98077 11.998C6.98077 11.7025 6.88121 11.4559 6.68209 11.2582C6.48299 11.0604 6.23571 10.9616 5.94026 10.9616C5.64484 10.9616 5.39824 11.0611 5.20046 11.2602C5.00271 11.4593 4.90384 11.7066 4.90384 12.002C4.90384 12.2975 5.00339 12.5441 5.20249 12.7418C5.40159 12.9396 5.64886 13.0385 5.94431 13.0385ZM5.94431 7.34231C6.23976 7.34231 6.48636 7.24276 6.68411 7.04366C6.88189 6.84454 6.98077 6.59726 6.98077 6.30184C6.98077 6.00639 6.88121 5.75978 6.68209 5.562C6.48299 5.36425 6.23571 5.26537 5.94026 5.26537C5.64484 5.26537 5.39824 5.36493 5.20046 5.56403C5.00271 5.76315 4.90384 6.01043 4.90384 6.30585C4.90384 6.6013 5.00339 6.84791 5.20249 7.04569C5.40159 7.24344 5.64886 7.34231 5.94431 7.34231ZM11.3385 18.3308H18.1885C18.3683 18.3308 18.519 18.2694 18.6406 18.1467C18.7623 18.0239 18.8231 17.8719 18.8231 17.6904C18.8231 17.509 18.7623 17.3588 18.6406 17.2399C18.519 17.121 18.3683 17.0615 18.1885 17.0615H11.3385C11.1587 17.0615 11.0079 17.1229 10.8863 17.2457C10.7647 17.3684 10.7039 17.5205 10.7039 17.7019C10.7039 17.8833 10.7647 18.0335 10.8863 18.1524C11.0079 18.2713 11.1587 18.3308 11.3385 18.3308ZM11.3385 12.6346H18.1885C18.3683 12.6346 18.519 12.5733 18.6406 12.4505C18.7623 12.3278 18.8231 12.1757 18.8231 11.9943C18.8231 11.8128 18.7623 11.6627 18.6406 11.5437C18.519 11.4248 18.3683 11.3654 18.1885 11.3654H11.3385C11.1587 11.3654 11.0079 11.4268 10.8863 11.5495C10.7647 11.6722 10.7039 11.8243 10.7039 12.0057C10.7039 12.1872 10.7647 12.3373 10.8863 12.4563C11.0079 12.5752 11.1587 12.6346 11.3385 12.6346ZM11.3385 6.93848H18.1885C18.3683 6.93848 18.519 6.8771 18.6406 6.75435C18.7623 6.63163 18.8231 6.47955 18.8231 6.29813C18.8231 6.11668 18.7623 5.9665 18.6406 5.8476C18.519 5.72867 18.3683 5.66921 18.1885 5.66921H11.3385C11.1587 5.66921 11.0079 5.73059 10.8863 5.85334C10.7647 5.97606 10.7039 6.12814 10.7039 6.30956C10.7039 6.49101 10.7647 6.64119 10.8863 6.76009C11.0079 6.87901 11.1587 6.93848 11.3385 6.93848ZM2.19229 24C1.57786 24 1.05888 23.7882 0.635325 23.3647C0.211775 22.9411 0 22.4221 0 21.8077V2.19229C0 1.57786 0.211775 1.05888 0.635325 0.635326C1.05888 0.211776 1.57786 0 2.19229 0H21.8077C22.4221 0 22.9411 0.211776 23.3647 0.635326C23.7882 1.05888 24 1.57786 24 2.19229V21.8077C24 22.4221 23.7882 22.9411 23.3647 23.3647C22.9411 23.7882 22.4221 24 21.8077 24H2.19229ZM2.19229 22.7308H21.8077C22.0385 22.7308 22.25 22.6346 22.4423 22.4423C22.6346 22.25 22.7308 22.0385 22.7308 21.8077V2.19229C22.7308 1.96151 22.6346 1.74998 22.4423 1.55768C22.25 1.36538 22.0385 1.26923 21.8077 1.26923H2.19229C1.96151 1.26923 1.74997 1.36538 1.55767 1.55768C1.36537 1.74998 1.26922 1.96151 1.26922 2.19229V21.8077C1.26922 22.0385 1.36537 22.25 1.55767 22.4423C1.74997 22.6346 1.96151 22.7308 2.19229 22.7308Z" fill="#1B1B1B"/>
</svg>
