<svg width="24" height="24" viewBox="0 0 24 24" fill="none" xmlns="http://www.w3.org/2000/svg">
<path d="M4.6152 24C4.08387 24 3.62625 23.8081 3.24234 23.4242C2.85845 23.0403 2.6665 22.5826 2.6665 22.0513V10.0137C2.6665 9.47349 2.85845 9.01366 3.24234 8.63417C3.62625 8.2547 4.08387 8.06497 4.6152 8.06497H6.76907V5.23077C6.76907 3.77365 7.27693 2.53758 8.29264 1.52253C9.30837 0.507512 10.5453 0 12.0033 0C13.4614 0 14.6971 0.507512 15.7105 1.52253C16.7239 2.53758 17.2306 3.77365 17.2306 5.23077V8.06497H19.3845C19.9158 8.06497 20.3734 8.2547 20.7573 8.63417C21.1412 9.01366 21.3332 9.47349 21.3332 10.0137V22.0513C21.3332 22.5826 21.1412 23.0403 20.7573 23.4242C20.3734 23.8081 19.9158 24 19.3845 24H4.6152ZM4.6152 22.8718H19.3845C19.6238 22.8718 19.8204 22.7949 19.9742 22.641C20.128 22.4872 20.205 22.2906 20.205 22.0513V10.0137C20.205 9.77435 20.128 9.57778 19.9742 9.42393C19.8204 9.27009 19.6238 9.19317 19.3845 9.19317H4.6152C4.37589 9.19317 4.17931 9.27009 4.02547 9.42393C3.87163 9.57778 3.7947 9.77435 3.7947 10.0137V22.0513C3.7947 22.2906 3.87163 22.4872 4.02547 22.641C4.17931 22.7949 4.37589 22.8718 4.6152 22.8718ZM12.0036 18C12.5487 18 13.0122 17.8096 13.3943 17.4288C13.7763 17.048 13.9674 16.586 13.9674 16.0427C13.9674 15.5134 13.7751 15.0514 13.3905 14.6568C13.006 14.2623 12.5412 14.065 11.9961 14.065C11.451 14.065 10.9874 14.2623 10.6054 14.6568C10.2233 15.0514 10.0323 15.5171 10.0323 16.0538C10.0323 16.5906 10.2246 17.0491 10.6091 17.4295C10.9937 17.8098 11.4585 18 12.0036 18ZM7.89727 8.06497H16.1024V5.23077C16.1024 4.09117 15.7039 3.1225 14.9069 2.32477C14.1098 1.52706 13.142 1.1282 12.0035 1.1282C10.8649 1.1282 9.89585 1.52706 9.0964 2.32477C8.29698 3.1225 7.89727 4.09117 7.89727 5.23077V8.06497Z" fill="#1B1B1B"/>
</svg>
