<svg width="24" height="24" viewBox="0 0 24 24" fill="none" xmlns="http://www.w3.org/2000/svg">
<path d="M1.36977 13.3742C0.990721 13.3742 0.667663 13.2394 0.400598 12.9696C0.133533 12.6999 0 12.3757 0 11.997C0 11.6183 0.134848 11.2951 0.404544 11.0274C0.67424 10.7598 0.998459 10.626 1.3772 10.626C1.75591 10.626 2.08302 10.7608 2.35853 11.0306C2.63401 11.3003 2.77175 11.6245 2.77175 12.0032C2.77175 12.3819 2.63447 12.7051 2.35991 12.9728C2.08538 13.2404 1.75533 13.3742 1.36977 13.3742ZM11.9969 13.3742C11.6182 13.3742 11.295 13.2394 11.0273 12.9696C10.7597 12.6999 10.6259 12.3757 10.6259 11.997C10.6259 11.6183 10.7607 11.2951 11.0305 11.0274C11.3002 10.7598 11.6244 10.626 12.0031 10.626C12.3818 10.626 12.705 10.7608 12.9727 11.0306C13.2403 11.3003 13.3741 11.6245 13.3741 12.0032C13.3741 12.3819 13.2393 12.7051 12.9695 12.9728C12.6998 13.2404 12.3756 13.3742 11.9969 13.3742ZM22.6228 13.3742C22.2441 13.3742 21.917 13.2394 21.6415 12.9696C21.366 12.6999 21.2283 12.3757 21.2283 11.997C21.2283 11.6183 21.3655 11.2951 21.6401 11.0274C21.9146 10.7598 22.2447 10.626 22.6302 10.626C23.0093 10.626 23.3323 10.7608 23.5994 11.0306C23.8665 11.3003 24 11.6245 24 12.0032C24 12.3819 23.8652 12.7051 23.5955 12.9728C23.3258 13.2404 23.0015 13.3742 22.6228 13.3742Z" fill="#1B1B1B"/>
</svg>
