<svg width="24" height="24" viewBox="0 0 24 24" fill="none" xmlns="http://www.w3.org/2000/svg">
<path d="M16.6331 20.7273C15.7988 20.7273 15.0908 20.4356 14.509 19.8523C13.9272 19.2689 13.6363 18.5606 13.6363 17.7273C13.6363 16.9091 13.9283 16.2045 14.5122 15.6136C15.0962 15.0227 15.8053 14.7273 16.6395 14.7273C17.4737 14.7273 18.1817 15.0227 18.7635 15.6136C19.3454 16.2045 19.6363 16.9136 19.6363 17.7409C19.6363 18.5682 19.3443 19.2727 18.7603 19.8545C18.1764 20.4364 17.4673 20.7273 16.6331 20.7273ZM16.6363 13.3636C16.4908 13.3636 16.3635 13.3091 16.2545 13.2C16.1454 13.0909 16.0908 12.9636 16.0908 12.8182V12C16.0908 11.8545 16.1454 11.7273 16.2545 11.6182C16.3635 11.5091 16.4908 11.4545 16.6363 11.4545C16.7817 11.4545 16.909 11.5091 17.0181 11.6182C17.1272 11.7273 17.1817 11.8545 17.1817 12V12.8182C17.1817 12.9636 17.1272 13.0909 17.0181 13.2C16.909 13.3091 16.7817 13.3636 16.6363 13.3636ZM16.6363 22.0909C16.7817 22.0909 16.909 22.1455 17.0181 22.2545C17.1272 22.3636 17.1817 22.4909 17.1817 22.6364V23.4545C17.1817 23.6 17.1272 23.7273 17.0181 23.8364C16.909 23.9455 16.7817 24 16.6363 24C16.4908 24 16.3635 23.9455 16.2545 23.8364C16.1454 23.7273 16.0908 23.6 16.0908 23.4545V22.6364C16.0908 22.4909 16.1454 22.3636 16.2545 22.2545C16.3635 22.1455 16.4908 22.0909 16.6363 22.0909ZM19.6908 14.6493C19.5817 14.5427 19.5272 14.4154 19.5272 14.2675C19.5272 14.1195 19.5817 13.9909 19.6908 13.8818L20.2908 13.2818C20.3999 13.1727 20.5272 13.1182 20.6726 13.1182C20.8181 13.1182 20.9454 13.1747 21.0545 13.2877C21.1635 13.4007 21.2181 13.5325 21.2181 13.6831C21.2181 13.8338 21.1635 13.9636 21.0545 14.0727L20.4545 14.6727C20.3454 14.7818 20.2181 14.8318 20.0726 14.8227C19.9272 14.8136 19.7999 14.7558 19.6908 14.6493ZM13.5545 20.8227C13.6635 20.9227 13.7181 21.0455 13.7181 21.1909C13.7181 21.3364 13.6635 21.4636 13.5545 21.5727L12.9545 22.1727C12.8454 22.2818 12.7181 22.3364 12.5726 22.3364C12.4272 22.3364 12.2999 22.2818 12.1908 22.1727C12.0817 22.0636 12.0272 21.9364 12.0272 21.7909C12.0272 21.6455 12.0817 21.5182 12.1908 21.4091L12.8181 20.8091C12.909 20.7182 13.0272 20.6727 13.1726 20.6727C13.3181 20.6727 13.4454 20.7227 13.5545 20.8227ZM20.9999 17.7273C20.9999 17.5818 21.0545 17.4545 21.1635 17.3455C21.2726 17.2364 21.3999 17.1818 21.5454 17.1818H22.3635C22.509 17.1818 22.6363 17.2364 22.7454 17.3455C22.8545 17.4545 22.909 17.5818 22.909 17.7273C22.909 17.8727 22.8545 18 22.7454 18.1091C22.6363 18.2182 22.509 18.2727 22.3635 18.2727H21.5454C21.3999 18.2727 21.2726 18.2182 21.1635 18.1091C21.0545 18 20.9999 17.8727 20.9999 17.7273ZM12.2726 17.7273C12.2726 17.8727 12.2181 18 12.109 18.1091C11.9999 18.2182 11.8726 18.2727 11.7272 18.2727H10.909C10.7635 18.2727 10.6363 18.2182 10.5272 18.1091C10.4181 18 10.3635 17.8727 10.3635 17.7273C10.3635 17.5818 10.4181 17.4545 10.5272 17.3455C10.6363 17.2364 10.7635 17.1818 10.909 17.1818H11.7272C11.8726 17.1818 11.9999 17.2364 12.109 17.3455C12.2181 17.4545 12.2726 17.5818 12.2726 17.7273ZM19.7181 20.7818C19.8272 20.6727 19.9545 20.6182 20.0999 20.6182C20.2454 20.6182 20.3726 20.6727 20.4817 20.7818L21.0817 21.3818C21.1908 21.4909 21.2454 21.6182 21.2454 21.7636C21.2454 21.9091 21.1921 22.0364 21.0855 22.1455C20.979 22.2545 20.8517 22.3091 20.7037 22.3091C20.5557 22.3091 20.4272 22.2545 20.3181 22.1455L19.7181 21.5455C19.609 21.4364 19.5545 21.3091 19.5545 21.1636C19.5545 21.0182 19.609 20.8909 19.7181 20.7818ZM13.531 14.6455C13.4244 14.7545 13.2972 14.8091 13.1492 14.8091C13.0012 14.8091 12.8726 14.7545 12.7635 14.6455L12.1908 14.0727C12.0817 13.9636 12.0272 13.8364 12.0272 13.6909C12.0272 13.5455 12.0817 13.4182 12.1908 13.3091C12.2999 13.2 12.4272 13.1455 12.5726 13.1455C12.7181 13.1455 12.8454 13.2 12.9545 13.3091L13.5272 13.8818C13.6363 13.9909 13.6908 14.1182 13.6908 14.2636C13.6908 14.4091 13.6375 14.5364 13.531 14.6455ZM2.72718 21.8182C2.29082 21.8182 1.909 21.6545 1.58173 21.3273C1.25446 21 1.09082 20.6182 1.09082 20.1818V3.27273C1.09082 2.83636 1.25446 2.45455 1.58173 2.12727C1.909 1.8 2.29082 1.63636 2.72718 1.63636H4.49991V0.872727C4.49991 0.625455 4.58355 0.418182 4.75082 0.250909C4.91809 0.0836367 5.12537 0 5.37264 0C5.62764 0 5.84139 0.0836367 6.0139 0.250909C6.18639 0.418182 6.27264 0.625455 6.27264 0.872727V1.63636H15.5454V0.872727C15.5454 0.625455 15.629 0.418182 15.7963 0.250909C15.9635 0.0836367 16.1708 0 16.4181 0C16.6731 0 16.8868 0.0836367 17.0594 0.250909C17.2318 0.418182 17.3181 0.625455 17.3181 0.872727V1.63636H19.0908C19.5272 1.63636 19.909 1.8 20.2363 2.12727C20.5635 2.45455 20.7272 2.83636 20.7272 3.27273V8.45455H2.72718V20.1818H6.54537C6.77718 20.1818 6.9715 20.2607 7.12832 20.4184C7.28514 20.5762 7.36355 20.7716 7.36355 21.0048C7.36355 21.238 7.28514 21.4318 7.12832 21.5864C6.9715 21.7409 6.77718 21.8182 6.54537 21.8182H2.72718ZM2.72718 6.81818H19.0908V3.27273H2.72718V6.81818Z" fill="#1B1B1B"/>
</svg>
