<svg width="24" height="24" viewBox="0 0 24 24" fill="none" xmlns="http://www.w3.org/2000/svg">
<path d="M11.9936 24C9.48269 24 7.35482 23.1036 5.60996 21.3108C3.8651 19.518 2.99268 17.3419 2.99268 14.7826C2.99268 13.0983 3.2675 11.3842 3.81716 9.64028C4.36679 7.8964 5.0795 6.30935 5.95529 4.87914C6.83106 3.4489 7.80172 2.27815 8.86726 1.36689C9.93277 0.455629 10.977 0 11.9999 0C13.0301 0 14.0782 0.450167 15.1442 1.3505C16.2102 2.25087 17.1793 3.4157 18.0514 4.84502C18.9236 6.27436 19.6342 7.86687 20.1834 9.62255C20.7325 11.3783 21.0071 13.0983 21.0071 14.7826C21.0071 17.3419 20.1326 19.518 18.3835 21.3108C16.6345 23.1036 14.5045 24 11.9936 24ZM11.9999 22.964C14.2165 22.964 16.0992 22.1705 17.648 20.5833C19.1967 18.9962 19.9711 17.0698 19.9711 14.8041C19.9711 13.2756 19.7206 11.7001 19.2196 10.0777C18.7185 8.45531 18.0776 6.97514 17.2968 5.63718C16.5159 4.29919 15.6545 3.19783 14.7124 2.33308C13.7704 1.46833 12.8662 1.03596 11.9999 1.03596C11.1321 1.03596 10.2261 1.46921 9.28191 2.3357C8.33771 3.20222 7.47662 4.30422 6.69867 5.64171C5.92074 6.97919 5.28125 8.46009 4.78021 10.0844C4.27916 11.7087 4.02864 13.2777 4.02864 14.7914C4.02864 17.0655 4.80304 18.9962 6.35184 20.5833C7.90062 22.1705 9.78331 22.964 11.9999 22.964ZM13.362 19.5051C13.5088 19.5051 13.6318 19.4553 13.7311 19.3558C13.8303 19.2564 13.88 19.1331 13.88 18.9861C13.88 18.8256 13.8303 18.6993 13.7311 18.6072C13.6318 18.5151 13.5088 18.4691 13.362 18.4691C11.8326 18.4691 10.5389 17.9375 9.48108 16.8743C8.42328 15.8112 7.89437 14.5202 7.89437 13.0015C7.89437 12.8413 7.84463 12.7149 7.74514 12.6223C7.64568 12.5298 7.52243 12.4835 7.37538 12.4835C7.21489 12.4835 7.08861 12.5298 6.99653 12.6223C6.90445 12.7149 6.85841 12.8413 6.85841 13.0015C6.85841 14.8008 7.49251 16.3346 8.76071 17.6028C10.0289 18.871 11.5627 19.5051 13.362 19.5051Z" fill="#1B1B1B"/>
</svg>
