<svg width="24" height="24" viewBox="0 0 24 24" fill="none" xmlns="http://www.w3.org/2000/svg">
<path d="M1.29834 22.6987H2.79529L19.1451 6.36855L17.6284 4.85191L1.29834 21.2017V22.6987ZM21.9138 5.43221L18.5619 2.08611L20.2785 0.369435C20.5248 0.123145 20.8327 0.000984021 21.2022 0.00295311C21.5717 0.00492221 21.8847 0.134089 22.141 0.390455L23.6321 1.88155C23.8754 2.12482 23.998 2.42923 24 2.79479C24.0019 3.16036 23.8751 3.471 23.6193 3.72673L21.9138 5.43221ZM1.12963 23.997C0.804323 23.997 0.534724 23.8901 0.320834 23.6763C0.106945 23.4625 0 23.193 0 22.8678V21.102C0 20.9567 0.026557 20.8209 0.0796714 20.6947C0.132786 20.5685 0.217699 20.4404 0.334413 20.3106L17.6511 3.01363L20.9834 6.34595L3.68641 23.6626C3.55658 23.7793 3.4267 23.8642 3.29676 23.9173C3.16683 23.9704 3.03344 23.997 2.8966 23.997H1.12963ZM18.3818 5.58564L17.6284 4.85191L19.1451 6.36855L18.3818 5.58564Z" fill="#1B1B1B"/>
</svg>
