<svg width="24" height="24" viewBox="0 0 24 24" fill="none" xmlns="http://www.w3.org/2000/svg">
<path d="M12.0002 10.8427C10.6252 10.8427 9.46944 10.3745 8.533 9.43804C7.59658 8.50162 7.12837 7.34234 7.12837 5.96021C7.12837 4.57809 7.59658 3.42239 8.533 2.49308C9.46944 1.56377 10.6252 1.09912 12.0002 1.09912C13.3752 1.09912 14.5309 1.56377 15.4673 2.49308C16.4037 3.42239 16.872 4.57809 16.872 5.96021C16.872 7.34234 16.4037 8.50162 15.4673 9.43804C14.5309 10.3745 13.3752 10.8427 12.0002 10.8427ZM22.1925 22.9004H1.80783C1.40008 22.9004 1.05241 22.7566 0.76483 22.469C0.477274 22.1815 0.333496 21.8338 0.333496 21.426V20.379C0.333496 19.6596 0.54058 19.0071 0.954746 18.4212C1.36891 17.8354 1.91682 17.379 2.59845 17.0521C4.22095 16.3163 5.81048 15.761 7.36704 15.386C8.92357 15.011 10.4677 14.8235 11.9995 14.8235C13.5313 14.8235 15.0746 15.012 16.6295 15.3892C18.1843 15.7663 19.7691 16.3239 21.3837 17.0619C22.0808 17.3852 22.6356 17.839 23.0481 18.4234C23.4606 19.0078 23.6668 19.6596 23.6668 20.379V21.426C23.6668 21.8338 23.5231 22.1815 23.2355 22.469C22.9479 22.7566 22.6002 22.9004 22.1925 22.9004ZM1.74375 21.4902H22.2566V20.379C22.2566 19.9738 22.1218 19.5863 21.8522 19.2166C21.5826 18.847 21.2124 18.5386 20.7416 18.2914C19.2843 17.5813 17.8351 17.0608 16.3937 16.73C14.9524 16.3991 13.4879 16.2337 12.0002 16.2337C10.5124 16.2337 9.04219 16.3991 7.5895 16.73C6.13677 17.0608 4.69104 17.5813 3.25229 18.2914C2.78148 18.5386 2.41236 18.847 2.14491 19.2166C1.87747 19.5863 1.74375 19.9738 1.74375 20.379V21.4902ZM12.0002 9.43246C12.971 9.43246 13.7906 9.09823 14.459 8.42979C15.1275 7.76131 15.4617 6.94169 15.4617 5.97091C15.4617 5.00011 15.1275 4.18048 14.459 3.51204C13.7906 2.84359 12.971 2.50937 12.0002 2.50937C11.0294 2.50937 10.2097 2.84359 9.54129 3.51204C8.87284 4.18048 8.53862 5.00011 8.53862 5.97091C8.53862 6.94169 8.87284 7.76131 9.54129 8.42979C10.2097 9.09823 11.0294 9.43246 12.0002 9.43246Z" fill="#1B1B1B"/>
</svg>
