<svg width="24" height="24" viewBox="0 0 24 24" fill="none" xmlns="http://www.w3.org/2000/svg">
<path d="M12.1029 18.9043C12.3574 18.9043 12.5742 18.8111 12.7534 18.6249C12.9326 18.4386 13.0222 18.2182 13.0222 17.9637C13.0222 17.7207 12.9319 17.5067 12.7513 17.3218C12.5708 17.1369 12.3532 17.0444 12.0988 17.0444C11.8443 17.0444 11.6246 17.1376 11.4397 17.3239C11.2548 17.5102 11.1624 17.7248 11.1624 17.9679C11.1624 18.2223 11.2555 18.442 11.4418 18.6269C11.6281 18.8118 11.8485 18.9043 12.1029 18.9043ZM12.0104 24C10.3435 24 8.78428 23.6851 7.33263 23.0554C5.88097 22.4256 4.61112 21.5672 3.5231 20.4802C2.43508 19.3932 1.57589 18.124 0.945533 16.6726C0.315178 15.2212 0 13.6614 0 11.9933C0 10.3366 0.314878 8.77907 0.944634 7.3206C1.57441 5.86213 2.4328 4.59259 3.5198 3.51197C4.6068 2.43137 5.876 1.57589 7.3274 0.945534C8.7788 0.315179 10.3386 0 12.0067 0C13.6634 0 15.2209 0.314877 16.6794 0.944633C18.1379 1.57441 19.4074 2.4291 20.488 3.5087C21.5686 4.5883 22.4241 5.85782 23.0545 7.31727C23.6848 8.77673 24 10.3342 24 11.9896C24 13.6565 23.6851 15.2157 23.0554 16.6674C22.4256 18.119 21.5709 19.3875 20.4913 20.4728C19.4117 21.5581 18.1422 22.4173 16.6827 23.0504C15.2233 23.6835 13.6658 24 12.0104 24ZM12.0111 22.8718C15.0316 22.8718 17.5969 21.816 19.7068 19.7043C21.8168 17.5926 22.8718 15.0208 22.8718 11.9889C22.8718 8.96839 21.8182 6.40314 19.711 4.29317C17.6038 2.18319 15.0335 1.1282 12 1.1282C8.97549 1.1282 6.4074 2.1818 4.29573 4.289C2.18404 6.3962 1.1282 8.96653 1.1282 12C1.1282 15.0245 2.18404 17.5926 4.29573 19.7043C6.4074 21.816 8.97919 22.8718 12.0111 22.8718ZM12.0724 6.24273C12.7791 6.24273 13.3927 6.45938 13.9132 6.89267C14.4338 7.32596 14.694 7.87458 14.694 8.53853C14.694 9.057 14.5495 9.52027 14.2604 9.92833C13.9713 10.3364 13.6378 10.7173 13.2598 11.0709C12.8029 11.4818 12.4015 11.9312 12.0556 12.4193C11.7097 12.9073 11.5111 13.4504 11.4598 14.0487C11.4427 14.2014 11.49 14.3255 11.6016 14.4209C11.7133 14.5164 11.8435 14.5641 11.9923 14.5641C12.1501 14.5641 12.2821 14.5134 12.3882 14.412C12.4944 14.3105 12.5581 14.1838 12.5795 14.0316C12.665 13.5935 12.8373 13.1959 13.0966 12.8389C13.3558 12.4819 13.6548 12.1505 13.9936 11.8445C14.4691 11.3898 14.8822 10.8903 15.2329 10.3462C15.5836 9.80199 15.759 9.2 15.759 8.5402C15.759 7.5698 15.403 6.76167 14.691 6.1158C13.9791 5.46993 13.1323 5.147 12.1506 5.147C11.4337 5.147 10.7585 5.31594 10.1252 5.65383C9.49187 5.99172 8.97292 6.45498 8.56837 7.0436C8.48119 7.17236 8.44986 7.30904 8.47437 7.45367C8.49886 7.59827 8.56501 7.71131 8.67283 7.7928C8.84421 7.88591 9.01053 7.91053 9.1718 7.86667C9.33305 7.8228 9.46837 7.72736 9.57777 7.58033C9.88803 7.1926 10.2545 6.87273 10.6771 6.62073C11.0998 6.36873 11.5649 6.24273 12.0724 6.24273Z" fill="#1B1B1B"/>
</svg>
