<svg width="24" height="24" viewBox="0 0 24 24" fill="none" xmlns="http://www.w3.org/2000/svg">
<path d="M4.12067 12.0448C4.12067 12.4436 4.15129 12.8468 4.21254 13.2544C4.27376 13.6621 4.36384 14.0549 4.48277 14.433C4.52983 14.5762 4.52553 14.7119 4.46987 14.8402C4.41419 14.9685 4.32537 15.0607 4.20342 15.1169C4.07993 15.1645 3.95479 15.1631 3.82802 15.1127C3.70125 15.0624 3.61282 14.9671 3.56273 14.8269C3.40484 14.3821 3.29135 13.9259 3.22227 13.4583C3.15319 12.9906 3.11865 12.5195 3.11865 12.0448C3.11865 9.58629 3.98555 7.48558 5.71936 5.74266C7.45316 3.99973 9.54679 3.12827 12.0002 3.12827H13.9732L11.67 0.82513C11.5784 0.733531 11.5314 0.62397 11.5288 0.496451C11.5263 0.368911 11.5734 0.251754 11.67 0.144978C11.7768 0.0483267 11.8935 0 12.02 0C12.1465 0 12.2581 0.0483267 12.3547 0.144978L15.2363 3.02202C15.4084 3.19409 15.4944 3.39398 15.4944 3.6217C15.4944 3.84945 15.4084 4.04934 15.2363 4.22139L12.3745 7.09843C12.2829 7.19003 12.1693 7.23709 12.0336 7.23962C11.898 7.24214 11.7768 7.19508 11.67 7.09843C11.5734 6.99165 11.525 6.87425 11.525 6.74622C11.525 6.61816 11.5734 6.50075 11.67 6.39397L13.9489 4.13032H12.0002C9.81805 4.13032 7.95924 4.90221 6.42382 6.44599C4.88839 7.98977 4.12067 9.85603 4.12067 12.0448ZM19.8798 11.9552C19.8798 11.5564 19.8517 11.1532 19.7955 10.7456C19.7394 10.3379 19.6468 9.94357 19.5177 9.56251C19.4676 9.41928 19.4704 9.28352 19.5261 9.15523C19.5817 9.02694 19.6705 8.93471 19.7925 8.87854C19.916 8.82085 20.0366 8.81971 20.1542 8.87513C20.2719 8.93055 20.3507 9.02329 20.3907 9.15333C20.5516 9.59818 20.6737 10.0577 20.7569 10.5319C20.8402 11.0061 20.8818 11.4805 20.8818 11.9552C20.8818 14.4137 20.0149 16.5144 18.2811 18.2573C16.5473 20.0003 14.4537 20.8717 12.0002 20.8717H10.0182L12.3061 23.1749C12.3977 23.2665 12.4473 23.376 12.4549 23.5036C12.4625 23.6311 12.4129 23.7432 12.3061 23.8398C12.1994 23.9466 12.0853 24 11.9638 24C11.8423 24 11.7282 23.9466 11.6214 23.8398L8.75503 20.978C8.58298 20.8059 8.49696 20.606 8.49696 20.3783C8.49696 20.1506 8.58298 19.9456 8.75503 19.7634L11.6214 16.897C11.713 16.8054 11.8234 16.7558 11.9524 16.7482C12.0815 16.7406 12.1994 16.7902 12.3061 16.897C12.4129 17.0038 12.4663 17.1179 12.4663 17.2394C12.4663 17.3608 12.4129 17.475 12.3061 17.5818L10.0182 19.8697H12.0002C14.1824 19.8697 16.0412 19.0978 17.5767 17.554C19.1121 16.0103 19.8798 14.144 19.8798 11.9552Z" fill="#1B1B1B"/>
</svg>
