<svg width="24" height="24" viewBox="0 0 24 24" fill="none" xmlns="http://www.w3.org/2000/svg">
<path d="M4.10257 19.9606L1.6581 22.4051C1.34983 22.7133 0.996422 22.785 0.597867 22.6202C0.199289 22.4553 0 22.1549 0 21.7187V3.24265C0 2.69649 0.188245 2.23517 0.564733 1.85868C0.941222 1.48219 1.40254 1.29395 1.9487 1.29395H22.0513C22.5975 1.29395 23.0588 1.48219 23.4353 1.85868C23.8118 2.23517 24 2.69649 24 3.24265V18.0119C24 18.5581 23.8118 19.0194 23.4353 19.3959C23.0588 19.7724 22.5975 19.9606 22.0513 19.9606H4.10257ZM3.60853 18.8324H22.0513C22.2564 18.8324 22.4445 18.7469 22.6154 18.576C22.7863 18.4051 22.8718 18.217 22.8718 18.0119V3.24265C22.8718 3.03751 22.7863 2.84948 22.6154 2.67855C22.4445 2.50761 22.2564 2.42215 22.0513 2.42215H1.9487C1.74357 2.42215 1.55553 2.50761 1.3846 2.67855C1.21367 2.84948 1.1282 3.03751 1.1282 3.24265V21.3751L3.60853 18.8324Z" fill="#1B1B1B"/>
</svg>
