<svg width="24" height="24" viewBox="0 0 24 24" fill="none" xmlns="http://www.w3.org/2000/svg">
<path d="M14.7451 24C14.0776 24 13.3929 23.9487 12.6909 23.8462C11.9888 23.7437 11.3445 23.5765 10.7577 23.3447C10.9105 23.2756 11.0966 23.1429 11.3158 22.9465C11.5351 22.7502 11.6895 22.5884 11.779 22.4612C12.1879 22.5966 12.6438 22.6952 13.1466 22.757C13.6493 22.8189 14.213 22.8498 14.8374 22.8498C16.1265 22.8498 17.378 22.6175 18.5921 22.1527C19.8062 21.688 20.8556 21.0792 21.7403 20.3263C19.6874 19.681 17.8834 18.7305 16.3284 17.4748C14.7733 16.2192 13.5131 14.7516 12.548 13.0719C11.5828 11.3922 10.9419 9.559 10.6253 7.5723C10.3087 5.58561 10.3674 3.53938 10.8013 1.43359C8.59912 2.26314 6.83853 3.70596 5.51959 5.76206C4.20064 7.81818 3.58474 10.0902 3.67187 12.5782C3.51213 12.6003 3.33045 12.624 3.12685 12.6493C2.92322 12.6746 2.72325 12.7189 2.52692 12.7822C2.38111 11.4298 2.49424 10.0714 2.8663 8.70682C3.23837 7.34227 3.82901 6.07647 4.63821 4.90943C5.44741 3.74241 6.4486 2.72758 7.64178 1.86494C8.83497 1.00229 10.1606 0.393794 11.6187 0.0394428C11.8568 -0.0372453 12.0417 -0.00210525 12.1733 0.144859C12.3048 0.291847 12.3297 0.488481 12.2478 0.734767C11.6053 2.95324 11.4341 5.09039 11.7341 7.14622C12.0342 9.20205 12.692 11.0657 13.7077 12.7373C14.7234 14.4088 16.0376 15.831 17.6502 17.0039C19.2628 18.1767 21.0671 18.9978 23.063 19.4672C23.3181 19.5439 23.4719 19.6625 23.5244 19.8232C23.577 19.9838 23.5185 20.1509 23.3489 20.3246C22.1272 21.5875 20.775 22.5158 19.2923 23.1095C17.8095 23.7032 16.2938 24 14.7451 24ZM8.03738 22.0656H3.95943C2.98118 22.0656 2.15281 21.7343 1.47433 21.0718C0.795805 20.4093 0.456543 19.5729 0.456543 18.5627C0.456543 17.5845 0.795805 16.7561 1.47433 16.0776C2.15281 15.3991 2.98118 15.0599 3.95943 15.0599C4.70474 15.0599 5.38542 15.3148 6.00146 15.8245C6.61751 16.3342 7.07076 16.9856 7.36122 17.7785H8.03738C8.63978 17.7785 9.14764 17.9852 9.56097 18.3985C9.97427 18.8118 10.1809 19.3197 10.1809 19.9221C10.1809 20.5245 9.97427 21.0323 9.56097 21.4456C9.14764 21.8589 8.63978 22.0656 8.03738 22.0656Z" fill="#1B1B1B"/>
</svg>
