<svg width="24" height="24" viewBox="0 0 24 24" fill="none" xmlns="http://www.w3.org/2000/svg">
<path d="M3.55831 19.041L8.96633 13.633C9.07761 13.5353 9.21317 13.4834 9.37303 13.4774C9.53289 13.4714 9.67034 13.5258 9.78538 13.6408C9.88699 13.7583 9.9378 13.8954 9.9378 14.0522C9.9378 14.2089 9.88406 14.3418 9.7766 14.451L4.27633 19.9539C4.07887 20.1492 3.84849 20.2469 3.5852 20.2469C3.32191 20.2469 3.09258 20.1492 2.8972 19.9539L0.149213 17.2059C0.0417504 17.0984 -0.0076664 16.9677 0.000961947 16.8137C0.00956789 16.6597 0.0676017 16.529 0.175064 16.4215C0.282526 16.314 0.414697 16.2612 0.571576 16.2629C0.728455 16.2646 0.857746 16.3175 0.959448 16.4215L3.55831 19.041ZM3.55831 9.31796L8.96633 3.90994C9.07761 3.81225 9.21317 3.76039 9.37303 3.75436C9.53289 3.74833 9.67034 3.80277 9.78538 3.9177C9.88699 4.03525 9.9378 4.17238 9.9378 4.32911C9.9378 4.48583 9.88406 4.61878 9.7766 4.72797L4.27633 10.2308C4.07887 10.4262 3.84849 10.5239 3.5852 10.5239C3.32191 10.5239 3.09258 10.4262 2.8972 10.2308L0.149213 7.48281C0.0417504 7.37535 -0.0076664 7.24462 0.000961947 7.09064C0.00956789 6.93663 0.0676017 6.80589 0.175064 6.69843C0.282526 6.59097 0.414697 6.5381 0.571576 6.53982C0.728455 6.54155 0.857746 6.59442 0.959448 6.69843L3.55831 9.31796ZM13.8115 18.2765C13.6503 18.2765 13.5152 18.2215 13.4062 18.1114C13.2971 18.0014 13.2426 17.8651 13.2426 17.7024C13.2426 17.5398 13.2971 17.4051 13.4062 17.2986C13.5152 17.1919 13.6503 17.1386 13.8115 17.1386H23.4311C23.5923 17.1386 23.7274 17.1937 23.8365 17.3037C23.9455 17.4137 24 17.55 24 17.7127C24 17.8753 23.9455 18.01 23.8365 18.1166C23.7274 18.2232 23.5923 18.2765 23.4311 18.2765H13.8115ZM13.8115 8.55341C13.6503 8.55341 13.5152 8.49839 13.4062 8.38835C13.2971 8.27834 13.2426 8.14201 13.2426 7.97937C13.2426 7.81671 13.2971 7.68208 13.4062 7.57549C13.5152 7.46888 13.6503 7.41558 13.8115 7.41558H23.4311C23.5923 7.41558 23.7274 7.4706 23.8365 7.58064C23.9455 7.69065 24 7.82698 24 7.98962C24 8.15228 23.9455 8.28691 23.8365 8.3935C23.7274 8.50011 23.5923 8.55341 23.4311 8.55341H13.8115Z" fill="#1B1B1B"/>
</svg>
