<svg width="24" height="24" viewBox="0 0 24 24" fill="none" xmlns="http://www.w3.org/2000/svg">
<path d="M11.9996 16.1758C13.3185 16.1758 14.4394 15.7144 15.3625 14.7915C16.2856 13.8686 16.7471 12.7478 16.7471 11.4289C16.7471 10.11 16.2857 8.98901 15.3628 8.06594C14.4399 7.14286 13.319 6.68131 12.0001 6.68131C10.6813 6.68131 9.5603 7.14275 8.63723 8.06563C7.71415 8.9885 7.2526 10.1094 7.2526 11.4283C7.2526 12.7472 7.71404 13.8681 8.63692 14.7912C9.5598 15.7143 10.6807 16.1758 11.9996 16.1758ZM11.5163 21.7143H9.71415C9.57716 21.7143 9.46232 21.6675 9.36963 21.574C9.27697 21.4805 9.23063 21.3646 9.23063 21.2264C9.23063 21.0882 9.27697 20.9738 9.36963 20.8831C9.46232 20.7926 9.57716 20.7473 9.71415 20.7473H11.5163V17.1443C10.0345 16.9655 8.79229 16.3391 7.7896 15.2649C6.78692 14.1907 6.28558 12.9119 6.28558 11.4286C6.28558 10.7482 6.399 10.0937 6.62586 9.46523C6.85272 8.83671 7.17836 8.25307 7.60278 7.71429L5.74932 5.8608L4.47166 7.15311C4.38033 7.24445 4.27422 7.28437 4.15335 7.27289C4.03247 7.26142 3.9224 7.21365 3.82315 7.12957C3.73437 7.04216 3.68998 6.933 3.68998 6.80209C3.68998 6.67117 3.73564 6.55863 3.82698 6.46446L5.08263 5.2066L1.53832 1.66226V5.05494C1.53832 5.19193 1.49157 5.30677 1.39806 5.39946C1.30454 5.49212 1.18866 5.53846 1.05043 5.53846C0.912203 5.53846 0.797784 5.49212 0.707175 5.39946C0.616584 5.30677 0.571289 5.19193 0.571289 5.05494V0.835172C0.571289 0.598543 0.651327 0.40019 0.811403 0.240114C0.97148 0.0800379 1.16982 0 1.40643 0H5.6262C5.76319 0 5.87803 0.0467523 5.97072 0.140257C6.06339 0.233781 6.10972 0.349657 6.10972 0.487885C6.10972 0.626114 6.06339 0.740534 5.97072 0.831144C5.87803 0.921734 5.76319 0.967029 5.6262 0.967029H2.23355L5.77789 4.51134L7.05775 3.23149C7.1454 3.14017 7.25489 3.09451 7.3862 3.09451C7.5175 3.09451 7.63151 3.14143 7.72823 3.23526C7.81701 3.32267 7.8614 3.43183 7.8614 3.56274C7.8614 3.69366 7.81574 3.8062 7.7244 3.90037L6.44675 5.18023L8.3266 7.06006C8.84676 6.63417 9.41989 6.30341 10.046 6.06777C10.6721 5.83211 11.3245 5.71429 12.0031 5.71429C12.6817 5.71429 13.3338 5.83138 13.9592 6.06557C14.5846 6.29976 15.1623 6.62491 15.6922 7.04103L21.7662 0.967029H18.3735C18.2365 0.967029 18.1217 0.920277 18.029 0.826772C17.9363 0.733248 17.89 0.617372 17.89 0.479143C17.89 0.340915 17.9363 0.226495 18.029 0.135885C18.1217 0.0452947 18.2365 0 18.3735 0H22.5933C22.8299 0 23.0282 0.0800379 23.1883 0.240114C23.3484 0.40019 23.4284 0.598543 23.4284 0.835172V5.05494C23.4284 5.19193 23.3817 5.30677 23.2882 5.39946C23.1947 5.49212 23.0788 5.53846 22.9405 5.53846C22.8023 5.53846 22.6879 5.49212 22.5973 5.39946C22.5067 5.30677 22.4614 5.19193 22.4614 5.05494V1.66226L16.3874 7.74871C16.8021 8.27033 17.1268 8.84478 17.3618 9.47206C17.5967 10.0993 17.7141 10.7515 17.7141 11.4286C17.7141 12.9119 17.2128 14.1907 16.2101 15.2649C15.2074 16.3391 13.9652 16.9655 12.4834 17.1443V20.7473H14.2856C14.4226 20.7473 14.5374 20.794 14.6301 20.8875C14.7228 20.981 14.7691 21.0969 14.7691 21.2351C14.7691 21.3734 14.7228 21.4878 14.6301 21.5784C14.5374 21.669 14.4226 21.7143 14.2856 21.7143H12.4834V23.5165C12.4834 23.6535 12.4366 23.7683 12.3431 23.861C12.2496 23.9537 12.1337 24 11.9955 24C11.8573 24 11.7428 23.9537 11.6522 23.861C11.5616 23.7683 11.5163 23.6535 11.5163 23.5165V21.7143Z" fill="#1B1B1B"/>
</svg>
