<svg width="24" height="24" viewBox="0 0 24 24" fill="none" xmlns="http://www.w3.org/2000/svg">
<path d="M5.37982 6.16873L1.25108 10.2975C1.10165 10.4357 0.925776 10.5052 0.723458 10.5061C0.521141 10.5069 0.350015 10.4374 0.21008 10.2975C0.0752087 10.1626 0.006507 9.99034 0.00397503 9.78075C0.00146489 9.57114 0.0676564 9.39638 0.202549 9.25647L1.57345 7.87797L1.06639 7.37091C0.876097 7.18062 0.780951 6.95675 0.780951 6.6993C0.780951 6.44184 0.876097 6.21799 1.06639 6.02772L3.15006 3.92725L1.86311 2.63775C1.75844 2.53308 1.70191 2.40618 1.69351 2.25703C1.68511 2.10789 1.73688 1.97175 1.84883 1.84862C1.96692 1.74171 2.09998 1.687 2.24801 1.68449C2.39604 1.68196 2.52602 1.73415 2.63796 1.84106L3.94927 3.14481L6.02793 1.06618C6.21819 0.875888 6.44205 0.780742 6.69951 0.780742C6.95696 0.780742 7.18083 0.875888 7.37112 1.06618L7.87818 1.57324L9.25668 0.202339C9.39491 0.0674462 9.56799 0 9.77592 0C9.98385 0 10.1578 0.0699557 10.2977 0.209869C10.4359 0.348123 10.505 0.518826 10.505 0.721973C10.505 0.925141 10.4359 1.10144 10.2977 1.25087L6.16894 5.37961L18.6206 17.8313L22.7493 13.7025C22.8988 13.5643 23.0746 13.4948 23.277 13.4939C23.4793 13.4931 23.6504 13.5626 23.7903 13.7025C23.9252 13.8374 23.9939 14.0097 23.9964 14.2193C23.999 14.4289 23.9328 14.6036 23.7979 14.7435L22.427 16.122L22.934 16.6291C23.1243 16.8194 23.2195 17.0432 23.2195 17.3007C23.2195 17.5582 23.1243 17.782 22.934 17.9723L20.8285 20.0778L22.1323 21.3673C22.2369 21.472 22.2935 21.5989 22.3019 21.748C22.3103 21.8972 22.2529 22.0333 22.1298 22.1564C22.0083 22.2779 21.8772 22.3362 21.7365 22.3315C21.5957 22.3267 21.4694 22.2692 21.3574 22.1589L20.0512 20.8552L17.9725 22.9338C17.7822 23.1241 17.5584 23.2193 17.3009 23.2193C17.0435 23.2193 16.8196 23.1241 16.6293 22.9338L16.1222 22.4268L14.7437 23.7977C14.6055 23.9326 14.4324 24 14.2245 24C14.0166 24 13.8427 23.93 13.7027 23.7901C13.5645 23.6519 13.4954 23.4812 13.4954 23.278C13.4954 23.0749 13.5645 22.8986 13.7027 22.7491L17.8315 18.6204L5.37982 6.16873Z" fill="#1B1B1B"/>
</svg>
