<svg width="24" height="24" viewBox="0 0 24 24" fill="none" xmlns="http://www.w3.org/2000/svg">
<path d="M5.34272 24C5.164 24 5.01675 23.942 4.90097 23.8261C4.78521 23.7101 4.72733 23.5626 4.72733 23.3836C4.72733 23.2047 4.78521 23.0575 4.90097 22.9422C5.01675 22.8269 5.164 22.7692 5.34272 22.7692H11.3847V12.882L1.1469 1.52727C1.07977 1.45455 1.01636 1.34776 0.956679 1.20691C0.897018 1.06604 0.867188 0.938473 0.867188 0.824219C0.867188 0.594328 0.947079 0.399479 1.10686 0.239673C1.26667 0.079891 1.46151 0 1.69141 0H22.3087C22.5386 0 22.7335 0.0785943 22.8933 0.235782C23.053 0.39297 23.1329 0.593164 23.1329 0.836364C23.1329 0.950109 23.1031 1.07552 23.0434 1.21258C22.9838 1.34965 22.9203 1.45455 22.8532 1.52727L12.6154 12.882V22.7692H18.6574C18.8361 22.7692 18.9834 22.8272 19.0991 22.9432C19.2149 23.0591 19.2728 23.2066 19.2728 23.3856C19.2728 23.5646 19.2149 23.7117 19.0991 23.8271C18.9834 23.9424 18.8361 24 18.6574 24H5.34272ZM5.19352 4.18647H18.8066L21.5423 1.27178H2.45784L5.19352 4.18647ZM12.0001 11.7464L17.6942 5.41724H6.30588L12.0001 11.7464Z" fill="#1B1B1B"/>
</svg>
