<svg width="24" height="24" viewBox="0 0 24 24" fill="none" xmlns="http://www.w3.org/2000/svg">
<path d="M3.28203 24C2.7507 24 2.29308 23.8081 1.90917 23.4242C1.52528 23.0403 1.33333 22.5826 1.33333 22.0513V6.88803C0.953844 6.76894 0.636744 6.5391 0.382033 6.1985C0.127344 5.8579 0 5.46694 0 5.02563V1.9487C0 1.41737 0.191944 0.959745 0.575833 0.575834C0.959744 0.191945 1.41737 0 1.9487 0H22.0513C22.5826 0 23.0403 0.191945 23.4242 0.575834C23.8081 0.959745 24 1.41737 24 1.9487V5.02563C24 5.46694 23.8727 5.8579 23.618 6.1985C23.3633 6.5391 23.0462 6.76894 22.6667 6.88803V22.0513C22.6667 22.5826 22.4747 23.0403 22.0908 23.4242C21.7069 23.8081 21.2493 24 20.718 24H3.28203ZM2.46153 6.97437V21.9231C2.46153 22.1966 2.55982 22.4231 2.7564 22.6026C2.95298 22.7821 3.19657 22.8718 3.48717 22.8718H20.718C20.9573 22.8718 21.1539 22.7949 21.3077 22.641C21.4615 22.4872 21.5385 22.2906 21.5385 22.0513V6.97437H2.46153ZM1.9487 5.84617H22.0513C22.2906 5.84617 22.4872 5.76923 22.641 5.61537C22.7949 5.46152 22.8718 5.26494 22.8718 5.02563V1.9487C22.8718 1.70939 22.7949 1.51281 22.641 1.35897C22.4872 1.20512 22.2906 1.1282 22.0513 1.1282H1.9487C1.70939 1.1282 1.51281 1.20512 1.35897 1.35897C1.20512 1.51281 1.1282 1.70939 1.1282 1.9487V5.02563C1.1282 5.26494 1.20512 5.46152 1.35897 5.61537C1.51281 5.76923 1.70939 5.84617 1.9487 5.84617ZM9 12.9487H15.0256C15.1581 12.9487 15.2682 12.9003 15.3558 12.8034C15.4434 12.7065 15.4872 12.5912 15.4872 12.4576C15.4872 12.3241 15.4434 12.2144 15.3558 12.1286C15.2682 12.0429 15.1581 12 15.0256 12H8.97437C8.84188 12 8.73183 12.0442 8.64423 12.1325C8.55663 12.2209 8.51283 12.3319 8.51283 12.4654C8.51283 12.599 8.5609 12.713 8.65703 12.8073C8.75319 12.9016 8.86751 12.9487 9 12.9487Z" fill="#1B1B1B"/>
</svg>
