<svg width="26" height="24" viewBox="0 0 26 24" fill="none" xmlns="http://www.w3.org/2000/svg">
<path d="M24.5303 18.3977C24.6792 18.2491 24.7973 18.0727 24.8779 17.8785C24.9585 17.6843 25 17.476 25 17.2657C25 17.0555 24.9585 16.8472 24.8779 16.653C24.7973 16.4588 24.6792 16.2823 24.5303 16.1338L13.9019 5.50538C13.7835 5.38682 13.643 5.29275 13.4883 5.22857C13.3335 5.16438 13.1677 5.13135 13.0002 5.13135C12.8327 5.13135 12.6668 5.16438 12.5121 5.22857C12.3574 5.29275 12.2168 5.38682 12.0985 5.50538L1.47003 16.1338C0.843321 16.7605 0.843321 17.7709 1.47003 18.3977C2.09674 19.0244 3.10714 19.0244 3.73385 18.3977L13.0066 9.13773L22.2793 18.4104C22.8932 19.0244 23.9164 19.0244 24.5303 18.3977Z" fill="#1B1B1B" stroke="#1B1B1B" stroke-width="0.2"/>
</svg>
