<svg width="24" height="26" viewBox="0 0 24 26" fill="none" xmlns="http://www.w3.org/2000/svg">
<path d="M5.60235 24.5303C5.75085 24.6792 5.92728 24.7973 6.12151 24.8779C6.31574 24.9585 6.52397 25 6.73426 25C6.94455 25 7.15277 24.9585 7.347 24.8779C7.54124 24.7973 7.71766 24.6792 7.86617 24.5303L18.4946 13.9019C18.6132 13.7835 18.7073 13.643 18.7714 13.4883C18.8356 13.3335 18.8687 13.1677 18.8687 13.0002C18.8687 12.8327 18.8356 12.6668 18.7714 12.5121C18.7073 12.3574 18.6132 12.2168 18.4946 12.0985L7.86617 1.47003C7.23946 0.843321 6.22905 0.843321 5.60235 1.47003C4.97564 2.09674 4.97564 3.10714 5.60235 3.73385L14.8623 13.0066L5.58956 22.2793C4.97564 22.8932 4.97564 23.9164 5.60235 24.5303Z" fill="#1B1B1B" stroke="#1B1B1B" stroke-width="0.2"/>
</svg>
