<svg width="16" height="16" viewBox="0 0 16 16" fill="none" xmlns="http://www.w3.org/2000/svg">
<path d="M7.57895 14.542C7.1946 14.542 6.84183 14.446 6.52065 14.2538C6.19946 14.0616 5.94116 13.796 5.74575 13.457C5.66694 13.3275 5.66883 13.1952 5.75141 13.0603C5.83401 12.9253 5.95412 12.8578 6.11175 12.8578C6.19704 12.8578 6.27477 12.8816 6.34495 12.9291C6.41512 12.9766 6.47396 13.0381 6.52145 13.1137C6.63481 13.2875 6.78623 13.4287 6.97571 13.5372C7.16518 13.6457 7.36626 13.6999 7.57895 13.6999C7.9255 13.6999 8.22267 13.576 8.47044 13.3283C8.71822 13.0805 8.84211 12.7833 8.84211 12.4368C8.84211 12.0902 8.71822 11.7931 8.47044 11.5453C8.22267 11.2975 7.9255 11.1736 7.57895 11.1736H0.421053C0.301207 11.1736 0.201074 11.1334 0.120653 11.053C0.0402176 10.9726 0 10.8724 0 10.7526C0 10.6327 0.0402176 10.5326 0.120653 10.4522C0.201074 10.3717 0.301207 10.3315 0.421053 10.3315H7.57895C8.16195 10.3315 8.65858 10.5366 9.06882 10.9469C9.47908 11.3572 9.68421 11.8538 9.68421 12.4368C9.68421 13.0198 9.47908 13.5164 9.06882 13.9267C8.65858 14.3369 8.16195 14.542 7.57895 14.542ZM0.421053 6.50966C0.301207 6.50966 0.201074 6.46945 0.120653 6.38901C0.0402176 6.30858 0 6.20844 0 6.08861C0 5.96876 0.0402176 5.86862 0.120653 5.78819C0.201074 5.70777 0.301207 5.66756 0.421053 5.66756H10.9474C11.4062 5.66756 11.8016 5.50156 12.1336 5.16958C12.4656 4.83759 12.6316 4.44218 12.6316 3.98335C12.6316 3.5245 12.4656 3.12909 12.1336 2.79712C11.8016 2.46513 11.4062 2.29914 10.9474 2.29914C10.6149 2.29914 10.3099 2.38686 10.0324 2.56229C9.75493 2.73773 9.54926 2.97768 9.41539 3.28213C9.37112 3.36417 9.3166 3.43138 9.25183 3.48375C9.18705 3.53611 9.11039 3.56229 9.02185 3.56229C8.87071 3.56229 8.7479 3.50561 8.65343 3.39225C8.55898 3.27889 8.53766 3.15149 8.58947 3.01006C8.78596 2.52855 9.09717 2.14933 9.52307 1.8724C9.94898 1.59549 10.4237 1.45703 10.9474 1.45703C11.6534 1.45703 12.251 1.70156 12.7401 2.19063C13.2292 2.6797 13.4737 3.27727 13.4737 3.98335C13.4737 4.68941 13.2292 5.28698 12.7401 5.77606C12.251 6.26513 11.6534 6.50966 10.9474 6.50966H0.421053ZM14.5004 12.8643C14.3493 12.9259 14.2105 12.911 14.0842 12.8198C13.9579 12.7286 13.8947 12.6041 13.8947 12.4465C13.8947 12.358 13.9209 12.2821 13.9733 12.219C14.0256 12.1558 14.0928 12.1021 14.1749 12.0578C14.4794 11.924 14.7193 11.7183 14.8947 11.4408C15.0702 11.1634 15.1579 10.8584 15.1579 10.5259C15.1579 10.067 14.9919 9.67161 14.6599 9.33962C14.3279 9.00763 13.9325 8.84164 13.4737 8.84164H0.421053C0.301207 8.84164 0.201074 8.80142 0.120653 8.72099C0.0402176 8.64057 0 8.54043 0 8.42059C0 8.30074 0.0402176 8.20061 0.120653 8.12019C0.201074 8.03975 0.301207 7.99954 0.421053 7.99954H13.4737C14.1798 7.99954 14.7773 8.24407 15.2664 8.73314C15.7555 9.2222 16 9.81978 16 10.5259C16 11.0397 15.8672 11.5064 15.6016 11.9259C15.336 12.3453 14.969 12.6581 14.5004 12.8643Z" fill="#1B1B1B"/>
</svg>
