<svg width="24" height="24" viewBox="0 0 24 24" fill="none" xmlns="http://www.w3.org/2000/svg">
<path d="M9.73553 21.9271L18.4051 11.5431H12.1246L13.3003 2.27072L5.52432 13.5203H10.9432L9.73553 21.9271ZM9.47967 14.7996H4.74026C4.3935 14.7996 4.13703 14.6444 3.97087 14.3339C3.8047 14.0234 3.82758 13.7196 4.03951 13.4224L13.0095 0.407881C13.1439 0.228261 13.3112 0.105981 13.5116 0.0410426C13.7119 -0.0238959 13.9164 -0.0117737 14.1251 0.0774064C14.3338 0.153634 14.4934 0.288815 14.6038 0.48295C14.7143 0.67706 14.7541 0.877545 14.7231 1.08441L13.5794 10.2637H19.2405C19.6291 10.2637 19.8992 10.4321 20.0509 10.7687C20.2027 11.1053 20.158 11.4223 19.917 11.7195L9.97007 23.6523C9.82631 23.8181 9.65193 23.9256 9.44694 23.9748C9.24194 24.0241 9.04866 24.0011 8.8671 23.9058C8.67261 23.8234 8.52708 23.6962 8.43049 23.5241C8.3339 23.3521 8.29465 23.1554 8.31275 22.9341L9.47967 14.7996Z" fill="#1B1B1B"/>
</svg>
