<svg width="16" height="16" viewBox="0 0 16 16" fill="none" xmlns="http://www.w3.org/2000/svg">
<path d="M1.25488 11.3684C1.25488 10.7836 1.45956 10.2865 1.8689 9.8772C2.27827 9.46784 2.77535 9.26316 3.36015 9.26316H5.04436C5.86306 9.26316 6.55897 8.97661 7.13206 8.40352C7.70517 7.83041 7.99172 7.1345 7.99172 6.31579C7.99172 5.96924 7.86784 5.67207 7.62006 5.42429C7.37229 5.17652 7.07512 5.05263 6.72857 5.05263C6.37337 5.05263 6.07404 4.93091 5.83059 4.68745C5.58714 4.444 5.46541 4.14467 5.46541 3.78947V0.421053C5.46541 0.301754 5.50731 0.201754 5.59111 0.121053C5.67492 0.0403509 5.77876 0 5.90265 0C6.02195 0 6.12195 0.0403509 6.20265 0.121053C6.28335 0.201754 6.3237 0.301754 6.3237 0.421053V3.78947C6.3237 3.90822 6.36149 4.00809 6.43707 4.08907C6.51264 4.17004 6.6098 4.21053 6.72857 4.21053C7.31335 4.21053 7.81043 4.41521 8.21979 4.82457C8.62915 5.23392 8.83383 5.73099 8.83383 6.31579C8.83383 7.36421 8.46436 8.2579 7.72541 8.99684C6.98646 9.73579 6.09278 10.1053 5.04436 10.1053H3.36015C3.01358 10.1053 2.71641 10.2292 2.46865 10.4769C2.22088 10.7247 2.09699 11.0219 2.09699 11.3684V15.5789C2.09699 15.6982 2.05658 15.7982 1.97577 15.8789C1.89495 15.9597 1.79482 16 1.67537 16C1.5559 16 1.45595 15.9597 1.37551 15.8789C1.29509 15.7982 1.25488 15.6982 1.25488 15.5789V11.3684ZM3.79739 14.7368C3.79739 14.152 4.00207 13.655 4.41143 13.2456C4.82078 12.8363 5.31785 12.6316 5.90265 12.6316H9.27107C10.5525 12.6316 11.6448 12.18 12.5479 11.2768C13.4511 10.3737 13.9026 9.2814 13.9026 8V7.1579C13.9026 5.90661 13.4975 4.82186 12.6873 3.90364C11.877 2.98542 10.8624 2.52632 9.64353 2.52632C9.19374 2.52632 8.80869 2.36411 8.48838 2.03968C8.16807 1.71525 8.00791 1.33225 8.00791 0.890694V0.421053C8.00791 0.301754 8.04832 0.201754 8.12913 0.121053C8.20995 0.0403509 8.31008 0 8.42954 0C8.549 0 8.64894 0.0403509 8.72937 0.121053C8.8098 0.201754 8.85002 0.301754 8.85002 0.421053V0.890694C8.85002 1.10661 8.92829 1.29284 9.08484 1.44939C9.24139 1.60594 9.42762 1.68421 9.64353 1.68421C11.1021 1.68421 12.317 2.22375 13.2881 3.30284C14.2592 4.38192 14.7448 5.66693 14.7448 7.1579V8C14.7448 9.52481 14.2137 10.8183 13.1515 11.8805C12.0894 12.9426 10.7959 13.4737 9.27107 13.4737H5.90265C5.5561 13.4737 5.25893 13.5976 5.01116 13.8453C4.76338 14.0931 4.63949 14.3903 4.63949 14.7368V15.5789C4.63949 15.6982 4.59909 15.7982 4.51827 15.8789C4.43747 15.9597 4.33734 16 4.21787 16C4.09842 16 3.99848 15.9597 3.91804 15.8789C3.83761 15.7982 3.79739 15.6982 3.79739 15.5789V14.7368Z" fill="#1B1B1B"/>
</svg>
