<svg width="16" height="16" viewBox="0 0 16 16" fill="none" xmlns="http://www.w3.org/2000/svg">
<path d="M13.0222 13.4889C12.8762 13.4889 12.7539 13.4396 12.6552 13.3409C12.5565 13.2421 12.5071 13.1198 12.5071 12.9739C12.5071 12.8279 12.5565 12.7056 12.6552 12.6068C12.7539 12.5081 12.8762 12.4588 13.0222 12.4588C13.1681 12.4588 13.2905 12.5081 13.3892 12.6068C13.4879 12.7056 13.5373 12.8279 13.5373 12.9739C13.5373 13.1198 13.4879 13.2421 13.3892 13.3409C13.2905 13.4396 13.1681 13.4889 13.0222 13.4889ZM3.81494 16C3.66899 16 3.54665 15.9506 3.44793 15.8519C3.34921 15.7532 3.29986 15.6309 3.29986 15.4849C3.29986 15.339 3.34921 15.2166 3.44793 15.1179C3.54665 15.0192 3.66899 14.9698 3.81494 14.9698C3.96089 14.9698 4.08323 15.0192 4.18195 15.1179C4.28067 15.2166 4.33002 15.339 4.33002 15.4849C4.33002 15.6309 4.28067 15.7532 4.18195 15.8519C4.08323 15.9506 3.96089 16 3.81494 16ZM2.97792 13.3924C2.85934 13.3924 2.75994 13.3522 2.67973 13.2719C2.59951 13.1916 2.55941 13.092 2.55941 12.9733C2.55941 12.8545 2.59951 12.7552 2.67973 12.6753C2.75994 12.5953 2.85934 12.5553 2.97792 12.5553H10.5111C10.6297 12.5553 10.7291 12.5955 10.8093 12.6758C10.8895 12.7561 10.9296 12.8557 10.9296 12.9744C10.9296 13.0932 10.8895 13.1925 10.8093 13.2724C10.7291 13.3524 10.6297 13.3924 10.5111 13.3924H2.97792ZM6.32601 15.9034C6.20743 15.9034 6.10803 15.8633 6.02782 15.7829C5.9476 15.7026 5.9075 15.6031 5.9075 15.4844C5.9075 15.3656 5.9476 15.2663 6.02782 15.1863C6.10803 15.1064 6.20743 15.0664 6.32601 15.0664H12.1852C12.3037 15.0664 12.4031 15.1066 12.4834 15.1869C12.5636 15.2672 12.6037 15.3667 12.6037 15.4855C12.6037 15.6042 12.5636 15.7036 12.4834 15.7835C12.4031 15.8635 12.3037 15.9034 12.1852 15.9034H6.32601ZM4.23345 10.8813C3.07127 10.8813 2.08321 10.4743 1.26926 9.66037C0.455314 8.84642 0.0483398 7.85836 0.0483398 6.69618C0.0483398 5.61342 0.413198 4.67714 1.14291 3.88732C1.87262 3.09752 2.78637 2.64198 3.88416 2.52071C4.29935 1.73557 4.867 1.11917 5.58711 0.671502C6.30721 0.223834 7.10946 0 7.99386 0C9.19987 0 10.2345 0.398388 11.0979 1.19516C11.9612 1.99195 12.4636 2.98484 12.6053 4.17383C13.6322 4.23608 14.4467 4.59343 15.0487 5.24587C15.6508 5.89832 15.9518 6.66238 15.9518 7.53806C15.9518 8.46307 15.6263 9.25152 14.9752 9.90342C14.3242 10.5553 13.5337 10.8813 12.6037 10.8813H4.23345ZM4.23345 10.0443H12.6037C13.2969 10.0443 13.8887 9.79907 14.3791 9.30865C14.8695 8.81824 15.1147 8.22643 15.1147 7.5332C15.1147 6.83998 14.8695 6.24816 14.3791 5.75775C13.8887 5.26734 13.2969 5.02214 12.6037 5.02214H11.7667V4.60362C11.7667 3.56781 11.3976 2.68109 10.6595 1.94346C9.92137 1.20584 9.03407 0.837023 7.99758 0.837023C7.24376 0.837023 6.55708 1.04163 5.93755 1.45083C5.318 1.86005 4.85138 2.41092 4.53769 3.10343L4.43879 3.34809H4.1916C3.28119 3.37998 2.50255 3.71878 1.85568 4.36449C1.2088 5.01018 0.885362 5.78741 0.885362 6.69618C0.885362 7.6209 1.2122 8.41009 1.86587 9.06376C2.51954 9.71743 3.30874 10.0443 4.23345 10.0443Z" fill="#1B1B1B"/>
</svg>
