<svg width="16" height="16" viewBox="0 0 16 16" fill="none" xmlns="http://www.w3.org/2000/svg">
<path d="M8.02756 16C7.22948 16 6.52715 15.7089 5.92057 15.1267C5.31398 14.5446 5.02161 13.8949 5.04347 13.1778C4.37646 13.5518 3.64972 13.6347 2.86323 13.4265C2.07672 13.2183 1.47335 12.7602 1.0531 12.052C0.641848 11.3658 0.544815 10.6175 0.762004 9.80722C0.979192 8.99694 1.44249 8.39945 2.15189 8.01476C1.45021 7.63994 0.989801 7.05221 0.770675 6.25155C0.551565 5.45091 0.641848 4.70745 1.04153 4.02119C1.4412 3.33492 2.04169 2.87002 2.84298 2.62649C3.64426 2.38295 4.37389 2.44817 5.03189 2.82216C5.01004 2.07934 5.30241 1.42327 5.909 0.853952C6.51559 0.28465 7.21792 0 8.01599 0C8.81407 0 9.5164 0.28465 10.123 0.853952C10.7296 1.42327 11.0219 2.07934 11.0001 2.82216C11.6658 2.44817 12.389 2.38006 13.1697 2.61782C13.9504 2.85557 14.5445 3.32336 14.9519 4.02119C15.3516 4.71517 15.4438 5.4596 15.2285 6.25446C15.0133 7.04932 14.5509 7.63759 13.8415 8.01927C14.5509 8.40096 15.0152 8.99502 15.2343 9.80145C15.4534 10.6079 15.3632 11.3581 14.9635 12.052C14.5432 12.7756 13.9492 13.2376 13.1813 13.4381C12.4134 13.6385 11.6902 13.5518 11.0117 13.1778C11.0335 13.8949 10.7411 14.5446 10.1346 15.1267C9.52796 15.7089 8.82563 16 8.02756 16ZM8.02756 14.9976C8.81278 14.9976 9.4017 14.6593 9.79431 13.9827C10.1869 13.306 10.1827 12.6419 9.78178 11.9904L9.08009 10.8376C8.89632 10.907 8.7209 10.959 8.55383 10.9937C8.38676 11.0284 8.21134 11.0458 8.02756 11.0458C7.8605 11.0458 7.69246 11.03 7.52345 10.9986C7.35446 10.9671 7.17166 10.9198 6.97503 10.8569L6.27335 11.9904C5.87238 12.6419 5.86821 13.306 6.26082 13.9827C6.65343 14.6593 7.24234 14.9976 8.02756 14.9976ZM1.88801 11.5277C2.28241 12.187 2.87061 12.5166 3.65262 12.5166C4.43465 12.5166 5.01907 12.187 5.40586 11.5277L6.0767 10.3557C5.9302 10.222 5.79847 10.0862 5.68153 9.94823C5.56458 9.81025 5.46434 9.66462 5.3808 9.51133C5.29727 9.36097 5.2253 9.20322 5.16491 9.03807C5.1045 8.87292 5.05566 8.70039 5.01841 8.52048H3.65165C2.89214 8.52048 2.31382 8.85686 1.9167 9.52963C1.5196 10.2024 1.51003 10.8684 1.88801 11.5277ZM10.5876 11.5277C10.959 12.1741 11.5395 12.5005 12.3293 12.507C13.119 12.5134 13.711 12.187 14.1054 11.5277C14.4834 10.8684 14.4738 10.2024 14.0767 9.52963C13.6796 8.85686 13.1013 8.52048 12.3418 8.52048H10.9764C10.9421 8.70039 10.897 8.87292 10.841 9.03807C10.7851 9.20322 10.7154 9.35792 10.6319 9.50218C10.5484 9.66249 10.4449 9.81139 10.3215 9.94891C10.1982 10.0864 10.0632 10.222 9.91673 10.3557L10.5876 11.5277ZM5.01841 7.51807C5.05889 7.3387 5.10948 7.16342 5.1702 6.99223C5.23093 6.82102 5.30445 6.66023 5.39078 6.50987C5.4771 6.35951 5.57638 6.2175 5.68862 6.08384C5.80084 5.95019 5.9302 5.81654 6.0767 5.68288L5.40586 4.51084C5.02161 3.83871 4.43784 3.49943 3.65455 3.49302C2.87126 3.48659 2.28555 3.82586 1.89743 4.51084C1.52602 5.17011 1.53566 5.83613 1.92635 6.50892C2.31704 7.18168 2.89214 7.51807 3.65165 7.51807H5.01841ZM12.3418 7.51807C13.1013 7.51807 13.6764 7.18168 14.0671 6.50892C14.4578 5.83613 14.4674 5.17011 14.096 4.51084C13.7079 3.82586 13.1222 3.48659 12.3389 3.49302C11.5556 3.49943 10.9718 3.83871 10.5876 4.51084L9.91673 5.68288C10.0651 5.81654 10.1995 5.95019 10.32 6.08384C10.4405 6.2175 10.5426 6.35951 10.6261 6.50987C10.7096 6.66023 10.7794 6.82102 10.8353 6.99223C10.8912 7.16342 10.9378 7.3387 10.975 7.51807H12.3418ZM6.95767 5.18168C7.15431 5.10586 7.33563 5.05542 7.50162 5.03036C7.66764 5.0053 7.8376 4.99277 8.0115 4.99277C8.18542 4.99277 8.35798 5.00851 8.52919 5.03999C8.70039 5.07148 8.87567 5.11871 9.05503 5.18168L9.7702 4.00964C10.1673 3.35807 10.1705 2.69397 9.77985 2.01735C9.38916 1.34072 8.80121 1.00241 8.01599 1.00241C7.23077 1.00241 6.64603 1.33975 6.26177 2.01444C5.87751 2.68914 5.87751 3.35421 6.26177 4.00964L6.95767 5.18168ZM5.3808 9.51133C5.29727 9.36097 5.2253 9.20322 5.16491 9.03807C5.2253 9.20322 5.29727 9.35792 5.3808 9.50218C5.46434 9.66249 5.56458 9.81139 5.68153 9.94891C5.79847 10.0864 5.9302 10.222 6.0767 10.3557C5.9302 10.222 5.79847 10.0862 5.68153 9.94823C5.56458 9.81025 5.46434 9.66462 5.3808 9.51133ZM5.1702 6.99223C5.23093 6.82102 5.30445 6.66023 5.39078 6.50987C5.4771 6.35951 5.57638 6.2175 5.68862 6.08384C5.80084 5.95019 5.9302 5.81654 6.0767 5.68288C5.93514 5.81654 5.80685 5.95019 5.69183 6.08384C5.57682 6.2175 5.47507 6.35951 5.38659 6.50987C5.30306 6.66023 5.23093 6.82102 5.1702 6.99223ZM8.02756 11.0458C7.8605 11.0458 7.69246 11.03 7.52345 10.9986C7.35446 10.9671 7.17166 10.9198 6.97503 10.8569C7.17166 10.9198 7.35607 10.9671 7.52829 10.9986C7.70049 11.03 7.86859 11.0458 8.0326 11.0458C8.21302 11.0458 8.38676 11.0284 8.55383 10.9937C8.38676 11.0284 8.21134 11.0458 8.02756 11.0458ZM9.91673 10.3557C10.0632 10.222 10.1973 10.0862 10.319 9.94823C10.4407 9.81025 10.545 9.66462 10.6319 9.51133C10.7154 9.36097 10.7851 9.20322 10.841 9.03807C10.7851 9.20322 10.7154 9.35792 10.6319 9.50218C10.5484 9.66249 10.4449 9.81139 10.3215 9.94891C10.1982 10.0864 10.0632 10.222 9.91673 10.3557ZM7.99671 10.0241C8.54804 10.0241 9.02001 9.82778 9.41262 9.43517C9.80523 9.04256 10.0015 8.5706 10.0015 8.01927C10.0015 7.46795 9.80523 6.99598 9.41262 6.60337C9.02001 6.21076 8.54804 6.01445 7.99671 6.01445C7.44539 6.01445 6.97342 6.21076 6.58081 6.60337C6.1882 6.99598 5.9919 7.46795 5.9919 8.01927C5.9919 8.5706 6.1882 9.04256 6.58081 9.43517C6.97342 9.82778 7.44539 10.0241 7.99671 10.0241Z" fill="#1B1B1B"/>
</svg>
