<svg width="24" height="24" viewBox="0 0 24 24" fill="none" xmlns="http://www.w3.org/2000/svg">
<path d="M8.08946 20.5497C7.9361 20.5497 7.79553 20.5242 7.66773 20.473C7.53994 20.4219 7.41214 20.3325 7.28435 20.2047L0.345048 13.2654C0.115016 13.0353 0 12.7542 0 12.4219C0 12.0897 0.115016 11.8085 0.345048 11.5785C0.57508 11.3484 0.84345 11.2334 1.15016 11.2334C1.45687 11.2334 1.72524 11.3484 1.95527 11.5785L8.08946 17.7127L22.0064 3.79573C22.2364 3.5657 22.5112 3.45068 22.8307 3.45068C23.1502 3.45068 23.4249 3.5657 23.655 3.79573C23.885 4.02576 24 4.30052 24 4.62001C24 4.9395 23.885 5.21426 23.655 5.44429L8.89457 20.2047C8.76677 20.3325 8.63898 20.4219 8.51118 20.473C8.38339 20.5242 8.24281 20.5497 8.08946 20.5497Z" fill="#1B1B1B"/>
</svg>
