<svg width="24" height="24" viewBox="0 0 24 24" fill="none" xmlns="http://www.w3.org/2000/svg">
<path d="M10.0496 15.5231L6.60853 12.065C6.4906 11.9584 6.35357 11.9009 6.19743 11.8923C6.0413 11.8838 5.8997 11.943 5.77263 12.0701C5.64899 12.1937 5.58717 12.3322 5.58717 12.4855C5.58717 12.6388 5.64899 12.7772 5.77263 12.9009L9.3658 16.4992C9.55953 16.7043 9.78746 16.8068 10.0496 16.8068C10.3117 16.8068 10.5396 16.7043 10.7333 16.4992L18.1709 9.07863C18.2809 8.95726 18.3402 8.81851 18.3487 8.6624C18.3573 8.50627 18.298 8.36467 18.1709 8.2376C18.0439 8.11396 17.9028 8.05299 17.7479 8.0547C17.5929 8.05641 17.4536 8.11909 17.3299 8.24273L10.0496 15.5231ZM12.0045 24C10.3485 24 8.79294 23.6851 7.33783 23.0554C5.8827 22.4256 4.61112 21.5672 3.5231 20.4802C2.43508 19.3932 1.57589 18.1228 0.945533 16.669C0.315178 15.2153 0 13.6604 0 12.0045C0 10.3451 0.314878 8.78496 0.944634 7.32413C1.57441 5.86331 2.4328 4.59259 3.5198 3.51197C4.6068 2.43137 5.87719 1.57589 7.33097 0.945534C8.78472 0.315179 10.3396 0 11.9955 0C13.6549 0 15.215 0.314877 16.6759 0.944633C18.1367 1.57441 19.4074 2.4291 20.488 3.5087C21.5686 4.5883 22.4241 5.85782 23.0545 7.31727C23.6848 8.77673 24 10.3362 24 11.9955C24 13.6515 23.6851 15.2071 23.0554 16.6622C22.4256 18.1173 21.5709 19.3889 20.4913 20.4769C19.4117 21.5649 18.1422 22.4241 16.6827 23.0545C15.2233 23.6848 13.6638 24 12.0045 24ZM12 22.8718C15.0279 22.8718 17.5969 21.816 19.7068 19.7043C21.8168 17.5926 22.8718 15.0245 22.8718 12C22.8718 8.97209 21.8168 6.40314 19.7068 4.29317C17.5969 2.18319 15.0279 1.1282 12 1.1282C8.97549 1.1282 6.4074 2.18319 4.29573 4.29317C2.18404 6.40314 1.1282 8.97209 1.1282 12C1.1282 15.0245 2.18404 17.5926 4.29573 19.7043C6.4074 21.816 8.97549 22.8718 12 22.8718Z" fill="#1B1B1B"/>
</svg>
