<svg width="24" height="24" viewBox="0 0 24 24" fill="none" xmlns="http://www.w3.org/2000/svg">
<path d="M9.39615 19.8154C6.82755 19.8154 4.61938 18.957 2.77163 17.2402C0.923875 15.5235 0 13.4043 0 10.8827V1.26923C0 0.93075 0.126925 0.6346 0.380775 0.380775C0.6346 0.126925 0.93075 0 1.26922 0H19.9846C21.0936 0 22.0401 0.368587 22.8241 1.10576C23.608 1.84294 24 2.75255 24 3.8346C24 5.03425 23.617 6.07006 22.851 6.94204C22.0849 7.81401 21.1295 8.25 19.9846 8.25H18.5038V10.8827C18.5038 13.3807 17.6136 15.4939 15.8332 17.2225C14.0527 18.9511 11.9071 19.8154 9.39615 19.8154ZM1.26922 6.98077H17.2346V1.26923H1.26922V6.98077ZM9.39615 18.5462C11.5724 18.5462 13.4229 17.8066 14.9476 16.3274C16.4723 14.8483 17.2346 13.0333 17.2346 10.8827V8.25H1.26922V10.8827C1.26922 13.0526 2.07003 14.8723 3.67163 16.3418C5.27323 17.8114 7.1814 18.5462 9.39615 18.5462ZM18.5038 6.98077H19.9846C20.7814 6.98077 21.4383 6.66795 21.9553 6.0423C22.4723 5.41665 22.7308 4.68075 22.7308 3.8346C22.7308 3.1173 22.455 2.51041 21.9035 2.01394C21.352 1.51746 20.7139 1.26923 19.9894 1.26923H18.5038V6.98077ZM0.634613 24C0.454813 24 0.304088 23.9386 0.182438 23.8159C0.0608127 23.6932 0 23.5411 0 23.3597C0 23.1782 0.0608127 23.0281 0.182438 22.9091C0.304088 22.7902 0.454813 22.7308 0.634613 22.7308H20.3654C20.5452 22.7308 20.6959 22.7921 20.8176 22.9149C20.9392 23.0376 21 23.1897 21 23.3711C21 23.5525 20.9392 23.7027 20.8176 23.8217C20.6959 23.9406 20.5452 24 20.3654 24H0.634613Z" fill="#1B1B1B"/>
</svg>
