<svg width="24" height="24" viewBox="0 0 24 24" fill="none" xmlns="http://www.w3.org/2000/svg">
<path d="M12.3206 23.9804C8.90281 23.9804 5.99494 22.7814 3.59698 20.3835C1.19899 17.9855 0 15.0776 0 11.6599C0 9.14968 0.685137 6.8618 2.05541 4.79621C3.42569 2.73059 5.39552 1.19331 7.96492 0.18436C8.70931 -0.0834834 9.24835 -0.0248966 9.58203 0.36012C9.91571 0.745137 9.98678 1.25586 9.79525 1.89229C9.65374 2.35693 9.55157 2.82081 9.48874 3.28394C9.42588 3.74706 9.39445 4.22894 9.39445 4.72956C9.39445 7.46747 10.3527 9.79467 12.2693 11.7112C14.1858 13.6277 16.513 14.586 19.2509 14.586C19.9176 14.586 20.5216 14.5287 21.0629 14.4142C21.6042 14.2997 22.0737 14.224 22.4712 14.1872C23.0905 14.0831 23.5292 14.185 23.7871 14.4927C24.0452 14.8004 24.0686 15.2565 23.8575 15.8611C23.0202 18.2465 21.5684 20.196 19.5021 21.7098C17.4358 23.2235 15.042 23.9804 12.3206 23.9804ZM12.3206 22.6773C14.7413 22.6773 16.8947 21.9778 18.781 20.5789C20.6672 19.18 21.971 17.4341 22.6924 15.3412C22.1461 15.5196 21.5816 15.6555 20.9989 15.7489C20.4162 15.8424 19.8336 15.8891 19.2509 15.8891C16.1594 15.8891 13.5266 14.8021 11.3525 12.6279C9.17836 10.4539 8.09132 7.82107 8.09132 4.72956C8.09132 4.17408 8.13706 3.61169 8.22854 3.04238C8.32002 2.47309 8.46547 1.87583 8.66488 1.25059C6.50483 2.02588 4.73786 3.36429 3.36397 5.26581C1.9901 7.16736 1.30317 9.29871 1.30317 11.6599C1.30317 14.715 2.37562 17.315 4.52052 19.4599C6.66542 21.6048 9.26544 22.6773 12.3206 22.6773Z" fill="#1B1B1B"/>
</svg>
