<svg width="24" height="24" viewBox="0 0 24 24" fill="none" xmlns="http://www.w3.org/2000/svg">
<path d="M9.44487 12L0.501901 3.05703C0.167301 2.72243 -2.00774e-06 2.29658 -1.98513e-06 1.77947C-1.96253e-06 1.26236 0.167301 0.8365 0.501902 0.501899C0.836502 0.167299 1.26236 -9.93894e-07 1.77947 -9.7129e-07C2.29658 -9.48687e-07 2.72243 0.167299 3.05704 0.5019L12 9.44487L20.943 0.5019C21.2776 0.1673 21.7034 -1.00387e-07 22.2205 -7.7783e-08C22.7376 -5.51794e-08 23.1635 0.1673 23.4981 0.5019C23.8327 0.836501 24 1.26236 24 1.77947C24 2.29658 23.8327 2.72243 23.4981 3.05703L14.5551 12L23.4981 20.943C23.8327 21.2776 24 21.7034 24 22.2205C24 22.7376 23.8327 23.1635 23.4981 23.4981C23.1635 23.8327 22.7376 24 22.2205 24C21.7034 24 21.2776 23.8327 20.943 23.4981L12 14.5551L3.05703 23.4981C2.72243 23.8327 2.29658 24 1.77947 24C1.26235 24 0.836501 23.8327 0.501901 23.4981C0.1673 23.1635 -2.90124e-06 22.7376 -2.87864e-06 22.2205C-2.85604e-06 21.7034 0.1673 21.2776 0.501901 20.943L9.44487 12Z" fill="#1B1B1B"/>
</svg>
