<svg width="24" height="24" viewBox="0 0 24 24" fill="none" xmlns="http://www.w3.org/2000/svg">
<path d="M11.9951 24C9.22424 24 6.91516 23.047 5.06783 21.1409C3.22053 19.2348 2.29688 16.8623 2.29688 14.0235C2.29688 12.7592 2.5872 11.4851 3.16786 10.2013C3.74852 8.91746 4.47436 7.68477 5.34537 6.50321C6.21636 5.32168 7.1549 4.21049 8.161 3.16965C9.16709 2.12883 10.1002 1.21474 10.9603 0.427386C11.112 0.297064 11.2745 0.193253 11.4479 0.115952C11.6214 0.0386509 11.8054 0 11.9999 0C12.1945 0 12.3785 0.0386509 12.552 0.115952C12.7254 0.193253 12.8879 0.297064 13.0396 0.427386C13.8997 1.21474 14.8328 2.12883 15.8389 3.16965C16.845 4.21049 17.7835 5.32168 18.6545 6.50321C19.5255 7.68477 20.2514 8.91746 20.832 10.2013C21.4127 11.4851 21.703 12.7592 21.703 14.0235C21.703 16.8623 20.7777 19.2348 18.9271 21.1409C17.0766 23.047 14.7659 24 11.9951 24ZM12.0008 22.8271C14.455 22.8271 16.4901 21.9899 18.1061 20.3156C19.7221 18.6413 20.5301 16.5421 20.5301 14.018C20.5301 12.2876 19.8088 10.3298 18.366 8.14452C16.9233 5.95927 14.8013 3.59629 11.9999 1.05559C9.1986 3.59629 7.07658 5.95927 5.63387 8.14452C4.19114 10.3298 3.46977 12.2876 3.46977 14.018C3.46977 16.5421 4.27805 18.6413 5.8946 20.3156C7.51113 21.9899 9.54653 22.8271 12.0008 22.8271ZM12.1661 20.723C12.3983 20.7034 12.5756 20.6454 12.6979 20.5488C12.8202 20.4522 12.8814 20.3194 12.8814 20.1502C12.8814 19.9812 12.8158 19.8532 12.6846 19.7664C12.5535 19.6797 12.3732 19.6401 12.1439 19.6478C11.1931 19.6946 10.1405 19.3862 8.98597 18.7224C7.83142 18.0586 7.11553 16.9528 6.83829 15.4049C6.80394 15.1935 6.73617 15.0392 6.63498 14.942C6.53377 14.8449 6.41277 14.7963 6.27198 14.7963C6.10929 14.7963 5.97523 14.8578 5.86979 14.9807C5.76433 15.1036 5.72967 15.2794 5.76583 15.508C6.1159 17.3959 6.97661 18.7462 8.34795 19.559C9.7193 20.3717 10.992 20.7597 12.1661 20.723Z" fill="#1B1B1B"/>
</svg>
