<svg width="24" height="24" viewBox="0 0 24 24" fill="none" xmlns="http://www.w3.org/2000/svg">
<path d="M1.9487 21.3332C1.40254 21.3332 0.941222 21.1449 0.564733 20.7684C0.188245 20.3919 0 19.9306 0 19.3845V4.6152C0 4.06905 0.188245 3.60773 0.564733 3.23124C0.941222 2.85475 1.40254 2.6665 1.9487 2.6665H22.0513C22.5975 2.6665 23.0588 2.85475 23.4353 3.23124C23.8118 3.60773 24 4.06905 24 4.6152V19.3845C24 19.9306 23.8118 20.3919 23.4353 20.7684C23.0588 21.1449 22.5975 21.3332 22.0513 21.3332H1.9487ZM22.8718 4.70924L12.5547 11.5665C12.4641 11.6127 12.3739 11.6524 12.2842 11.6857C12.1944 11.7191 12.0997 11.7357 12 11.7357C11.9003 11.7357 11.8056 11.7191 11.7158 11.6857C11.6261 11.6524 11.5416 11.6127 11.4624 11.5665L1.1282 4.70924V19.3845C1.1282 19.6238 1.20512 19.8204 1.35897 19.9742C1.51281 20.128 1.70939 20.205 1.9487 20.205H22.0513C22.2906 20.205 22.4872 20.128 22.641 19.9742C22.7949 19.8204 22.8718 19.6238 22.8718 19.3845V4.70924ZM12 10.6391L22.4239 3.7947H1.59827L12 10.6391ZM1.1282 4.9759V4.09277V4.1363V3.7947V4.1229V4.06287V4.9759Z" fill="#1B1B1B"/>
</svg>
