<svg width="24" height="24" viewBox="0 0 24 24" fill="none" xmlns="http://www.w3.org/2000/svg">
<path d="M11.9733 5.08309C11.8265 5.08309 11.7053 5.03441 11.6097 4.93705C11.514 4.83969 11.4661 4.71815 11.4661 4.57245V1.60146C11.4661 1.45575 11.5152 1.33422 11.6132 1.23686C11.7112 1.1395 11.8336 1.09082 11.9803 1.09082C12.127 1.09082 12.2482 1.1395 12.3439 1.23686C12.4396 1.33422 12.4874 1.45575 12.4874 1.60146V4.57245C12.4874 4.71815 12.4384 4.83969 12.3404 4.93705C12.2423 5.03441 12.12 5.08309 11.9733 5.08309ZM17.6433 7.4475C17.5314 7.33557 17.4754 7.20972 17.4754 7.06993C17.4754 6.93015 17.5314 6.80429 17.6433 6.69236L19.7215 4.61192C19.8358 4.49845 19.9623 4.44171 20.1008 4.44171C20.2394 4.44171 20.3654 4.49845 20.4789 4.61192C20.5908 4.72385 20.6468 4.84506 20.6468 4.97555C20.6468 5.10604 20.5908 5.22725 20.4789 5.33918L18.3706 7.4475C18.2587 7.55943 18.1374 7.61539 18.0069 7.61539C17.8765 7.61539 17.7552 7.55943 17.6433 7.4475ZM20.5184 13.6247C20.3727 13.6247 20.2511 13.5757 20.1538 13.4776C20.0564 13.3796 20.0077 13.2572 20.0077 13.1105C20.0077 12.9638 20.0564 12.8426 20.1538 12.7469C20.2511 12.6512 20.3727 12.6034 20.5184 12.6034H23.4894C23.6351 12.6034 23.7566 12.6524 23.854 12.7504C23.9513 12.8485 24 12.9709 24 13.1176C24 13.2643 23.9513 13.3855 23.854 13.4812C23.7566 13.5768 23.6351 13.6247 23.4894 13.6247H20.5184ZM19.7416 21.6162L17.648 19.5357C17.5464 19.4238 17.4956 19.2979 17.4956 19.1581C17.4956 19.0184 17.5464 18.8925 17.648 18.7806C17.7599 18.6687 17.8883 18.6127 18.0333 18.6127C18.1782 18.6127 18.3066 18.6687 18.4186 18.7806L20.4835 20.8587C20.597 20.9731 20.6538 21.0995 20.6538 21.2381C20.6538 21.3767 20.5967 21.5027 20.4825 21.6162C20.3786 21.7296 20.255 21.7864 20.1115 21.7864C19.9681 21.7864 19.8447 21.7296 19.7416 21.6162ZM5.60619 7.4707L3.47466 5.33918C3.36272 5.22725 3.30675 5.10217 3.30675 4.96393C3.30675 4.82569 3.36272 4.70836 3.47466 4.61192C3.58544 4.49845 3.70637 4.44171 3.83745 4.44171C3.9685 4.44171 4.09077 4.49845 4.20424 4.61192L6.31024 6.72021C6.42217 6.83216 6.482 6.95724 6.48975 7.09546C6.49747 7.2337 6.44537 7.35878 6.33345 7.4707C6.22152 7.58263 6.10031 7.63859 5.96982 7.63859C5.83933 7.63859 5.71812 7.58263 5.60619 7.4707ZM5.43133 21.8877H10.3984C11.1163 21.8877 11.729 21.6344 12.2366 21.1277C12.7442 20.621 12.9981 20.0094 12.9981 19.2928C12.9981 18.5764 12.7536 17.9663 12.2647 17.4626C11.7758 16.9589 11.1715 16.7071 10.4518 16.7071H9.34778L8.93152 15.7167C8.60359 14.9748 8.10466 14.3864 7.43474 13.9518C6.76481 13.5171 6.01965 13.2997 5.19923 13.2997C4.03524 13.2997 3.04791 13.7046 2.23726 14.5143C1.4266 15.3241 1.02127 16.3103 1.02127 17.473C1.02127 18.7078 1.44723 19.7523 2.29914 20.6065C3.15108 21.4606 4.19514 21.8877 5.43133 21.8877ZM5.43133 22.909C3.9319 22.909 2.65182 22.3787 1.59108 21.3179C0.53036 20.2572 0 18.9771 0 17.4777C0 16.0247 0.503283 14.7949 1.50985 13.7883C2.51644 12.7817 3.74623 12.2785 5.19923 12.2785C6.27782 12.2785 7.2599 12.5899 8.14549 13.2127C9.03108 13.8355 9.65956 14.6599 10.0309 15.6858C11.061 15.6858 11.9778 15.992 12.7814 16.6044C13.585 17.2168 13.9894 18.1191 13.9946 19.3113C13.9657 20.3001 13.6092 21.1469 12.9251 21.8518C12.2409 22.5566 11.3987 22.909 10.3984 22.909H5.43133ZM13.9481 18.8471C13.9105 18.6769 13.8703 18.5113 13.8274 18.3504C13.7846 18.1895 13.7444 18.0239 13.7068 17.8537C14.6904 17.4529 15.4836 16.8273 16.0863 15.9767C16.689 15.1262 16.9903 14.1729 16.9903 13.1168C16.9903 11.7285 16.5014 10.5454 15.5234 9.56741C14.5454 8.58947 13.3632 8.1005 11.9768 8.1005C10.6782 8.1005 9.55034 8.53157 8.59318 9.39373C7.63602 10.2559 7.10664 11.331 7.00503 12.6189C6.83688 12.5709 6.66357 12.5296 6.4851 12.4951C6.30663 12.4605 6.13332 12.4193 5.96517 12.3713C6.15396 10.8487 6.82127 9.58599 7.9671 8.58328C9.11295 7.58058 10.4495 7.07923 11.9768 7.07923C13.648 7.07923 15.0716 7.66723 16.2476 8.84323C17.4236 10.0193 18.0116 11.4452 18.0116 13.1209C18.0116 14.4156 17.6392 15.5817 16.8944 16.6193C16.1496 17.6568 15.1675 18.3994 13.9481 18.8471Z" fill="#1B1B1B"/>
</svg>
