<svg width="16" height="16" viewBox="0 0 16 16" fill="none" xmlns="http://www.w3.org/2000/svg">
<path d="M5.23071 8H10.7692V2.18804H5.23071V8ZM5.0626 16C4.85443 16 4.68226 15.9312 4.54609 15.7936C4.40989 15.656 4.3418 15.4855 4.3418 15.2821V2.03418C4.3418 1.83077 4.4106 1.66026 4.54822 1.52264C4.68582 1.38504 4.85633 1.31624 5.05975 1.31624H6.49566V0.717933C6.49566 0.514526 6.56446 0.344015 6.70206 0.206401C6.83968 0.0688006 7.01019 0 7.2136 0H8.78626C8.98967 0 9.16018 0.0688006 9.2978 0.206401C9.4354 0.344015 9.5042 0.514526 9.5042 0.717933V1.31624H10.9436C11.1475 1.31624 11.3176 1.38504 11.4538 1.52264C11.59 1.66026 11.6581 1.83077 11.6581 2.03418V15.2821C11.6581 15.4855 11.5893 15.656 11.4516 15.7936C11.314 15.9312 11.1435 16 10.9401 16H5.0626Z" fill="#1B1B1B"/>
</svg>
