<svg width="24" height="24" viewBox="0 0 24 24" fill="none" xmlns="http://www.w3.org/2000/svg">
<path d="M11.9933 17.7352C11.8219 17.7352 11.6663 17.7024 11.5264 17.6368C11.3864 17.5713 11.2527 17.4747 11.1253 17.3472L6.54064 12.7626C6.40144 12.6196 6.328 12.4509 6.32031 12.2565C6.31263 12.062 6.38773 11.8842 6.54561 11.7231C6.70787 11.5619 6.88173 11.4844 7.06719 11.4906C7.25267 11.4969 7.42697 11.5732 7.59009 11.7198L11.2747 15.411V0.72527C11.2747 0.51867 11.3445 0.346143 11.484 0.207686C11.6235 0.0692289 11.7973 0 12.0054 0C12.2135 0 12.3855 0.0692289 12.5214 0.207686C12.6573 0.346143 12.7253 0.51867 12.7253 0.72527V15.411L16.4165 11.7198C16.5519 11.5806 16.7181 11.5108 16.9153 11.5104C17.1124 11.5101 17.2953 11.5831 17.4639 11.7297C17.6142 11.8935 17.6866 12.0711 17.681 12.2624C17.6753 12.4538 17.5993 12.6227 17.4528 12.7692L12.8756 17.3464C12.7476 17.4744 12.6113 17.5713 12.4669 17.6368C12.3225 17.7024 12.1646 17.7352 11.9933 17.7352ZM2.50547 24C1.80327 24 1.21014 23.758 0.726086 23.2739C0.242029 22.7899 0 22.1967 0 21.4945V17.7604C0 17.5538 0.069743 17.3813 0.209229 17.2428C0.348714 17.1044 0.522528 17.0352 0.730671 17.0352C0.938786 17.0352 1.1108 17.1044 1.24671 17.2428C1.3826 17.3813 1.45054 17.5538 1.45054 17.7604V21.4945C1.45054 21.7583 1.56043 22 1.7802 22.2198C1.99997 22.4396 2.24173 22.5495 2.50547 22.5495H21.4945C21.7583 22.5495 22 22.4396 22.2198 22.2198C22.4396 22 22.5495 21.7583 22.5495 21.4945V17.7604C22.5495 17.5538 22.6192 17.3813 22.7587 17.2428C22.8982 17.1044 23.072 17.0352 23.2801 17.0352C23.4882 17.0352 23.6603 17.1044 23.7962 17.2428C23.9321 17.3813 24 17.5538 24 17.7604V21.4945C24 22.1967 23.758 22.7899 23.2739 23.2739C22.7899 23.758 22.1967 24 21.4945 24H2.50547Z" fill="#1B1B1B"/>
</svg>
