<svg width="16" height="16" viewBox="0 0 16 16" fill="none" xmlns="http://www.w3.org/2000/svg">
<path d="M7.15705 10.0626L9.78453 7.10851C9.7878 7.10524 9.81788 7.02831 9.87477 6.87773V6.59976C9.87477 6.49071 9.83913 6.40054 9.76784 6.32926C9.69654 6.25795 9.60637 6.2223 9.49732 6.2223H6.51043C6.40138 6.2223 6.31121 6.25787 6.2399 6.32902C6.16862 6.40018 6.13297 6.49017 6.13297 6.59899C6.13297 6.70783 6.16862 6.79807 6.2399 6.86973C6.31121 6.9414 6.40138 6.97724 6.51043 6.97724H8.89337L6.22322 9.97396C6.21995 9.97725 6.18987 10.0529 6.13297 10.2009V10.44C6.13297 10.5491 6.16862 10.6393 6.2399 10.7106C6.31121 10.7819 6.40138 10.8175 6.51043 10.8175H9.49732C9.60637 10.8175 9.69654 10.7819 9.76784 10.7108C9.83913 10.6396 9.87477 10.5496 9.87477 10.4408C9.87477 10.332 9.83913 10.2417 9.76784 10.1701C9.69654 10.0984 9.60637 10.0626 9.49732 10.0626H7.15705ZM8.00481 15.416C7.05778 15.416 6.17043 15.2379 5.34275 14.8818C4.51507 14.5257 3.79187 14.0383 3.17316 13.4195C2.55445 12.8008 2.06702 12.078 1.71089 11.2509C1.35477 10.4238 1.17671 9.53679 1.17671 8.58977C1.17671 7.64275 1.35477 6.75539 1.71089 5.92771C2.06702 5.10003 2.55445 4.37683 3.17316 3.75812C3.79187 3.13941 4.51476 2.65199 5.34181 2.29585C6.16888 1.93973 7.05592 1.76167 8.00293 1.76167C8.94996 1.76167 9.83732 1.93973 10.665 2.29585C11.4927 2.65199 12.2159 3.13941 12.8346 3.75812C13.4533 4.37683 13.9407 5.09972 14.2969 5.92677C14.653 6.75384 14.831 7.64088 14.831 8.5879C14.831 9.53492 14.653 10.4223 14.2969 11.25C13.9407 12.0776 13.4533 12.8008 12.8346 13.4195C12.2159 14.0383 11.493 14.5257 10.6659 14.8818C9.83887 15.2379 8.95183 15.416 8.00481 15.416ZM0.136223 3.69166C0.0454078 3.60085 0 3.50019 0 3.38969C0 3.27917 0.0454078 3.17852 0.136223 3.08772L2.50275 0.721184C2.58262 0.641307 2.68054 0.598637 2.79651 0.593175C2.91249 0.587699 3.01589 0.630369 3.1067 0.721184C3.1975 0.811986 3.24291 0.912644 3.24291 1.02316C3.24291 1.13366 3.1975 1.23431 3.1067 1.32511L0.74015 3.69166C0.660287 3.77153 0.562367 3.8142 0.44639 3.81967C0.330414 3.82513 0.227025 3.78246 0.136223 3.69166ZM15.8715 3.69166C15.7807 3.78246 15.6801 3.82787 15.5695 3.82787C15.459 3.82787 15.3584 3.78246 15.2676 3.69166L12.901 1.32511C12.8212 1.24525 12.7785 1.14733 12.773 1.03135C12.7676 0.915374 12.8102 0.811986 12.901 0.721184C12.9919 0.630369 13.0925 0.584961 13.203 0.584961C13.3135 0.584961 13.4142 0.630369 13.505 0.721184L15.8715 3.08772C15.9514 3.16758 15.9941 3.2655 15.9995 3.38147C16.005 3.49745 15.9623 3.60085 15.8715 3.69166ZM8.00387 14.5626C9.65706 14.5626 11.066 13.9803 12.2306 12.8156C13.3953 11.6509 13.9776 10.242 13.9776 8.58883C13.9776 6.93565 13.3953 5.52673 12.2306 4.36207C11.066 3.1974 9.65706 2.61506 8.00387 2.61506C6.35069 2.61506 4.94177 3.1974 3.77711 4.36207C2.61244 5.52673 2.0301 6.93565 2.0301 8.58883C2.0301 10.242 2.61244 11.6509 3.77711 12.8156C4.94177 13.9803 6.35069 14.5626 8.00387 14.5626Z" fill="#1B1B1B"/>
</svg>
