<svg width="16" height="16" viewBox="0 0 16 16" fill="none" xmlns="http://www.w3.org/2000/svg">
<path d="M9.10019 16L8.9002 13.8H8.10019C6.19353 13.8 4.56686 13.1267 3.2202 11.78C1.87353 10.4333 1.2002 8.80667 1.2002 6.9C1.2002 4.99333 1.87686 3.36667 3.2302 2.02C4.58353 0.673333 6.2202 0 8.1402 0C9.08686 0 9.96353 0.17 10.7702 0.51C11.5769 0.85 12.2802 1.32667 12.8802 1.94C13.4802 2.55333 13.9502 3.27667 14.2902 4.11C14.6302 4.94333 14.8002 5.85333 14.8002 6.84C14.8002 7.72 14.6702 8.6 14.4102 9.48C14.1502 10.36 13.7735 11.2 13.2802 12C12.7869 12.8 12.1869 13.54 11.4802 14.22C10.7735 14.9 9.9802 15.4933 9.10019 16ZM8.1402 11.54C8.35353 11.54 8.53353 11.4667 8.6802 11.32C8.82686 11.1733 8.9002 10.9933 8.9002 10.78C8.9002 10.5667 8.82686 10.3867 8.6802 10.24C8.53353 10.0933 8.35353 10.02 8.1402 10.02C7.92686 10.02 7.74686 10.0933 7.60019 10.24C7.45353 10.3867 7.3802 10.5667 7.3802 10.78C7.3802 10.9933 7.45353 11.1733 7.60019 11.32C7.74686 11.4667 7.92686 11.54 8.1402 11.54ZM7.60019 8.82H8.60019C8.60019 8.48667 8.65686 8.21 8.7702 7.99C8.88353 7.77 9.12019 7.48 9.4802 7.12C9.84019 6.76 10.0935 6.43 10.2402 6.13C10.3869 5.83 10.4602 5.50667 10.4602 5.16C10.4602 4.56 10.2569 4.06667 9.85019 3.68C9.44353 3.29333 8.9002 3.1 8.2202 3.1C7.6602 3.1 7.1602 3.24667 6.7202 3.54C6.2802 3.83333 5.95353 4.23333 5.7402 4.74L6.6602 5.12C6.80686 4.77333 7.01019 4.51667 7.2702 4.35C7.5302 4.18333 7.82686 4.1 8.1602 4.1C8.5602 4.1 8.87353 4.19667 9.10019 4.39C9.32686 4.58333 9.4402 4.84 9.4402 5.16C9.4402 5.41333 9.36686 5.67 9.22019 5.93C9.07353 6.19 8.81353 6.51333 8.4402 6.9C8.08019 7.27333 7.85019 7.57333 7.7502 7.8C7.6502 8.02667 7.60019 8.36667 7.60019 8.82Z" fill="#1B1B1B"/>
</svg>
