<svg width="438" height="541" viewBox="0 0 438 541" fill="none" xmlns="http://www.w3.org/2000/svg">
<path d="M373.559 385.799C373.559 401.214 367.294 415.136 357.132 425.217C352.318 429.992 351.078 437.302 354.048 443.397L375.955 488.362L343.912 504.178L311.195 446.33C308.992 442.435 305.244 439.654 300.877 438.674C296.515 437.695 291.944 438.606 288.29 441.18C288.29 441.18 288.29 441.179 288.29 441.18C288.292 441.178 288.298 441.173 288.302 441.17C288.31 441.164 288.318 441.159 288.325 441.153C288.34 441.143 288.354 441.134 288.366 441.125C288.392 441.107 288.414 441.092 288.432 441.08C288.467 441.056 288.485 441.044 288.487 441.043C288.489 441.042 288.427 441.082 288.3 441.16C288.042 441.318 287.518 441.626 286.723 442.04C285.133 442.867 282.454 444.118 278.644 445.418C271.05 448.009 258.819 450.85 241.585 450.85C222.803 450.85 206.227 441.373 196.382 426.866C191.873 420.224 183.109 418.006 175.984 421.703C175.984 421.703 175.984 421.702 175.984 421.703C175.986 421.702 175.988 421.7 175.99 421.699C175.994 421.697 175.998 421.695 176.001 421.693L175.927 421.73C175.821 421.783 175.629 421.878 175.356 422.008C174.81 422.268 173.943 422.668 172.805 423.155C170.517 424.134 167.185 425.438 163.17 426.666C154.931 429.186 144.824 431.072 135.254 429.988C108.589 426.969 89.0167 412.118 83.7549 391.152C82.2891 385.312 77.638 380.809 71.7539 379.531C48.9249 374.574 31.8398 354.244 31.8398 329.957C31.8399 307.385 46.5962 288.223 67.0283 281.651L68.0059 281.348L68.5918 281.16C74.5892 279.109 78.8083 273.661 79.2607 267.299C81.266 239.105 104.774 216.852 133.472 216.852C142.064 216.852 150.152 218.842 157.352 222.37L157.706 222.538C165.16 225.968 174.036 223.131 178.102 215.954C186.284 201.51 201.737 191.823 219.433 191.823C234.729 191.823 248.331 199.051 257.044 210.349L257.295 210.666C259.928 213.906 263.74 215.979 267.902 216.424C272.199 216.883 276.497 215.566 279.8 212.779C288.278 205.624 299.185 201.325 311.133 201.325C337.992 201.325 359.766 223.099 359.766 249.96C359.766 250.551 359.746 251.21 359.71 252.045C359.402 259.268 364.025 265.783 370.944 267.878C390.88 273.913 405.362 292.431 405.362 314.291C405.362 332.602 395.216 348.565 380.16 356.832C374.022 360.203 370.826 367.204 372.301 374.05C373.12 377.852 373.559 381.778 373.559 385.799ZM405.233 385.799C405.233 383.324 405.126 380.875 404.921 378.457C424.396 363.851 437.038 340.56 437.038 314.291C437.038 282.214 418.205 254.579 391.027 241.76C386.92 201.258 352.718 169.65 311.133 169.649C296.84 169.649 283.409 173.401 271.781 179.953C257.845 167.648 239.519 160.148 219.433 160.148C194.865 160.149 172.945 171.353 158.448 188.871C150.537 186.471 142.149 185.176 133.472 185.176C91.6049 185.176 56.7606 215.07 49.04 254.67C20.2556 267.512 0.164075 296.363 0.164062 329.957C0.164062 366.151 23.4836 396.85 55.8965 407.939C68.0568 439.626 98.9485 457.755 131.688 461.463C147.258 463.227 162.054 460.131 172.434 456.956C174.574 456.301 176.569 455.628 178.394 454.973C194.128 471.9 216.612 482.524 241.585 482.524C262.378 482.524 278.061 479.085 288.872 475.396C289.551 475.165 290.21 474.933 290.85 474.7L323.713 532.803L323.91 533.143C328.133 540.202 337.092 542.868 344.508 539.208L404.104 509.792C411.919 505.935 415.149 496.488 411.332 488.653L387.133 438.985C398.471 424.274 405.233 405.819 405.233 385.799Z" fill="#792A85"/>
<path d="M172.048 446.963C178.251 453.129 188.28 453.099 194.446 446.895C221.11 420.068 247.996 403.026 276.724 403.026C285.471 403.026 292.562 395.935 292.562 387.188C292.562 378.441 285.471 371.351 276.724 371.351C235.041 371.351 200.379 395.991 171.979 424.565C165.813 430.769 165.844 440.797 172.048 446.963Z" fill="#792A85"/>
<path d="M53.1868 399.18C55.5862 407.591 64.3506 412.465 72.762 410.065C81.1732 407.666 86.0469 398.902 83.6477 390.49C83.0405 388.361 82.7891 384.841 83.3469 379.875C83.8858 375.078 85.0669 369.875 86.511 364.889C87.9422 359.947 89.5451 355.51 90.7961 352.302C91.4178 350.708 91.9433 349.441 92.303 348.596C92.4826 348.173 92.6204 347.857 92.7073 347.66C92.7507 347.562 92.7813 347.493 92.7981 347.455C92.8062 347.437 92.8112 347.426 92.8127 347.423C96.4209 339.463 92.8987 330.083 84.9407 326.466C76.9778 322.847 67.5883 326.368 63.969 334.331L78.3879 340.885C64.1876 334.43 63.9715 334.335 63.967 334.336C63.9665 334.337 63.9651 334.341 63.9641 334.343C63.9622 334.347 63.9597 334.352 63.9573 334.357C63.9524 334.368 63.9464 334.381 63.9397 334.396C63.9261 334.426 63.9088 334.464 63.8879 334.511C63.8462 334.604 63.7902 334.73 63.7209 334.888C63.5823 335.202 63.391 335.643 63.1555 336.196C62.6851 337.302 62.0367 338.867 61.2854 340.794C59.7903 344.628 57.8489 349.991 56.0862 356.078C54.3364 362.12 52.6739 369.177 51.8694 376.339C51.0838 383.332 50.9886 391.473 53.1868 399.18Z" fill="#792A85"/>
<path d="M173.578 264.157C176.041 272.55 184.842 277.358 193.235 274.894L189.274 261.397C193.168 274.665 193.239 274.888 193.246 274.891C193.248 274.89 193.254 274.889 193.259 274.888C193.267 274.885 193.276 274.882 193.286 274.879C193.306 274.873 193.328 274.867 193.353 274.859C193.404 274.844 193.466 274.825 193.539 274.803C193.685 274.758 193.875 274.699 194.106 274.625C194.57 274.477 195.202 274.27 195.989 273.998C197.562 273.454 199.757 272.65 202.46 271.548C207.86 269.345 215.324 265.935 223.929 261.001C241.108 251.149 263.083 235.074 282.158 210.165C287.476 203.22 286.157 193.28 279.213 187.962C272.268 182.644 262.327 183.963 257.009 190.907C241.072 211.719 222.643 225.225 208.172 233.523C200.951 237.664 194.776 240.472 190.496 242.218C188.359 243.089 186.703 243.693 185.635 244.062C185.101 244.247 184.715 244.374 184.49 244.445C184.378 244.481 184.306 244.503 184.276 244.512C184.27 244.513 184.266 244.515 184.264 244.516C184.266 244.515 184.27 244.515 184.274 244.514C175.907 246.993 171.119 255.778 173.578 264.157Z" fill="#792A85"/>
<path d="M243.054 287.591C250.014 292.89 259.951 291.543 265.25 284.584C270.545 277.628 269.203 267.698 262.254 262.397C262.255 262.398 262.262 262.403 262.265 262.406C262.273 262.412 262.28 262.417 262.287 262.422C262.301 262.433 262.313 262.444 262.325 262.453C262.348 262.471 262.367 262.486 262.382 262.498C262.412 262.521 262.426 262.532 262.426 262.532C262.424 262.53 262.363 262.481 262.253 262.384C262.03 262.19 261.619 261.815 261.092 261.272C260.023 260.168 258.582 258.476 257.258 256.278C254.701 252.03 252.598 246.02 254.31 237.963C256.128 229.408 250.667 220.998 242.111 219.179C233.555 217.361 225.145 222.823 223.327 231.378C219.59 248.963 224.402 263.114 230.122 272.615C232.937 277.29 235.975 280.869 238.349 283.319C239.545 284.552 240.597 285.526 241.408 286.234C241.814 286.589 242.162 286.88 242.44 287.106C242.579 287.219 242.701 287.315 242.803 287.396C242.855 287.436 242.901 287.473 242.943 287.505C242.964 287.522 242.984 287.537 243.003 287.551C243.012 287.558 243.02 287.565 243.029 287.572C243.033 287.575 243.04 287.58 243.043 287.582C243.053 287.581 243.243 287.342 251.666 276.28L243.054 287.591Z" fill="#792A85"/>
<path d="M200.051 344.89C208.658 343.384 214.421 335.191 212.926 326.58C211.43 317.962 203.232 312.188 194.614 313.684L197.322 329.288C194.614 313.684 194.606 313.685 194.598 313.686C194.595 313.687 194.588 313.688 194.583 313.689C194.572 313.691 194.561 313.693 194.549 313.695C194.526 313.699 194.501 313.704 194.475 313.709C194.423 313.718 194.364 313.729 194.299 313.741C194.17 313.766 194.018 313.796 193.842 313.832C193.492 313.905 193.05 314.003 192.528 314.131C191.487 314.386 190.112 314.765 188.5 315.311C185.304 316.391 181 318.182 176.463 321.08C167.166 327.021 156.905 337.698 153.777 355.353C152.251 363.965 157.996 372.184 166.609 373.71C175.222 375.236 183.44 369.491 184.966 360.878C186.221 353.796 189.937 350.06 193.518 347.771C195.421 346.556 197.282 345.778 198.642 345.318C199.307 345.094 199.808 344.96 200.074 344.895C200.196 344.865 200.264 344.85 200.27 344.849C200.267 344.849 200.247 344.853 200.21 344.86C200.19 344.864 200.165 344.869 200.135 344.874C200.12 344.877 200.104 344.88 200.086 344.883C200.078 344.884 200.068 344.886 200.059 344.888C200.057 344.888 200.054 344.889 200.051 344.89Z" fill="#792A85"/>
<path d="M372.107 372.997C373.484 381.635 381.602 387.521 390.24 386.145C398.878 384.769 404.764 376.65 403.387 368.012C399.941 346.384 387.16 329.978 376.509 319.569C371.066 314.251 365.84 310.163 361.954 307.387C360.001 305.993 358.361 304.911 357.169 304.155C356.572 303.776 356.084 303.478 355.723 303.261C355.543 303.153 355.395 303.064 355.279 302.997C355.221 302.963 355.171 302.933 355.131 302.91C355.11 302.898 355.092 302.888 355.076 302.878C355.068 302.874 355.06 302.869 355.053 302.865C355.05 302.863 355.044 302.861 355.043 302.86C355.038 302.857 355.034 302.854 347.164 316.598L355.034 302.854C347.443 298.508 337.766 301.138 333.42 308.728C329.078 316.31 331.697 325.974 339.268 330.328C339.267 330.327 339.266 330.326 339.265 330.326C339.258 330.322 339.252 330.318 339.249 330.316C339.25 330.316 339.251 330.317 339.252 330.318C339.27 330.329 339.319 330.358 339.397 330.405C339.555 330.5 339.829 330.667 340.205 330.905C340.958 331.383 342.112 332.141 343.544 333.164C346.427 335.223 350.338 338.284 354.37 342.223C362.666 350.33 370.176 360.878 372.107 372.997Z" fill="#792A85"/>
<path d="M132.646 57.0837C132.629 57.0753 132.629 57.0749 132.644 57.0828C132.677 57.1006 132.783 57.1569 132.946 57.2507C133.278 57.4411 133.82 57.7682 134.474 58.2195C135.856 59.1736 137.351 60.4162 138.489 61.7898C139.621 63.1544 139.966 64.1133 140.053 64.6501C140.095 64.9119 140.287 66.0301 138.925 68.4646C134.262 76.8015 132.959 85.3386 134.352 93.3601C135.687 101.049 139.309 107.233 142.84 111.723C146.388 116.235 150.309 119.632 153.201 121.847C154.68 122.98 155.975 123.867 156.943 124.496C157.428 124.812 157.837 125.067 158.153 125.259C158.31 125.354 158.446 125.434 158.556 125.499C158.611 125.531 158.659 125.56 158.701 125.585C158.722 125.597 158.742 125.608 158.76 125.618C158.769 125.623 158.778 125.628 158.786 125.633C158.79 125.635 158.796 125.638 158.798 125.639C158.804 125.643 158.826 125.617 166.658 111.89L158.809 125.646C166.406 129.981 176.079 127.337 180.414 119.74C184.747 112.146 182.107 102.479 174.518 98.1413C174.519 98.1423 174.525 98.1444 174.529 98.1462C174.535 98.15 174.541 98.1536 174.547 98.157C174.559 98.1637 174.569 98.1694 174.578 98.1746L174.593 98.1833C174.538 98.15 174.406 98.0689 174.213 97.9431C173.822 97.6889 173.203 97.267 172.458 96.697C170.904 95.507 169.141 93.9261 167.739 92.1443C166.322 90.3416 165.73 88.9169 165.561 87.9402C165.449 87.2962 165.349 86.1105 166.57 83.9265C171.093 75.84 172.606 67.541 171.322 59.5964C170.083 51.927 166.453 45.8896 162.874 41.573C159.303 37.2655 155.352 34.1419 152.466 32.1501C150.986 31.1286 149.688 30.3374 148.713 29.7781C148.223 29.4971 147.808 29.2706 147.486 29.0994C147.324 29.0137 147.185 28.9412 147.07 28.8826C147.013 28.8532 146.961 28.8271 146.916 28.8044C146.894 28.7932 146.873 28.7828 146.854 28.7732C146.844 28.7684 146.834 28.7639 146.825 28.7595C146.821 28.7573 146.815 28.7538 146.813 28.7527C146.806 28.7499 146.77 28.8091 139.79 42.949L146.8 28.7468C138.957 24.8755 129.46 28.0958 125.588 35.9392C121.777 43.6602 124.838 52.9834 132.416 56.9656L132.646 57.0837ZM132.655 57.0886C132.654 57.0879 132.653 57.0864 132.652 57.0857C132.65 57.0847 132.647 57.0846 132.646 57.0837L132.655 57.0886Z" fill="#792A85"/>
<path d="M295.321 115.045C297.514 123.513 306.157 128.599 314.624 126.407C323.088 124.215 328.174 115.58 325.988 107.116C325.989 107.117 325.99 107.124 325.991 107.127C325.993 107.134 325.995 107.141 325.997 107.148C326 107.161 326.003 107.173 326.006 107.183C326.011 107.203 326.014 107.216 326.016 107.224C326.019 107.239 326.018 107.23 326.011 107.2C325.996 107.137 325.962 106.986 325.917 106.76C325.827 106.303 325.697 105.564 325.586 104.633C325.355 102.689 325.258 100.322 325.558 98.0755C325.861 95.802 326.468 94.3842 327.05 93.5814C327.433 93.0521 328.213 92.1533 330.63 91.5052C339.579 89.1055 346.582 84.4021 351.379 77.9407C356.01 71.7032 357.804 64.8911 358.401 59.3157C358.997 53.752 358.48 48.7417 357.895 45.2845C357.594 43.5112 357.255 42.0292 356.976 40.9407C356.835 40.3939 356.709 39.9389 356.606 39.5882C356.555 39.4126 356.51 39.2622 356.472 39.139C356.453 39.0775 356.435 39.0229 356.42 38.9749C356.412 38.9509 356.406 38.9281 356.399 38.9075C356.396 38.8973 356.393 38.8876 356.39 38.8782C356.388 38.8737 356.386 38.8671 356.385 38.8646C356.384 38.8612 356.383 38.8574 354.499 39.4651L341.314 43.7337L356.381 38.8509C353.684 30.53 344.752 25.9707 336.432 28.6673C328.115 31.3626 323.556 40.2865 326.244 48.6038C326.244 48.6019 326.241 48.596 326.24 48.5921C326.238 48.5844 326.236 48.5766 326.233 48.5696C326.229 48.5554 326.224 48.542 326.221 48.5306C326.214 48.5094 326.208 48.4934 326.204 48.4817C326.217 48.5268 326.249 48.6371 326.292 48.805C326.387 49.1753 326.53 49.7913 326.663 50.5745C326.944 52.2307 327.096 54.1693 326.906 55.9437C326.718 57.706 326.27 58.6222 325.946 59.0589C325.788 59.2726 325.119 60.1894 322.427 60.9114C313.2 63.3855 306.174 68.4058 301.397 74.9993C296.819 81.3193 294.914 88.2285 294.159 93.8909C293.401 99.5798 293.702 104.759 294.133 108.377C294.353 110.227 294.62 111.773 294.844 112.906C294.956 113.474 295.059 113.944 295.142 114.304C295.183 114.484 295.22 114.637 295.25 114.761C295.265 114.823 295.279 114.878 295.291 114.925C295.297 114.949 295.303 114.971 295.308 114.991C295.31 115 295.313 115.01 295.315 115.019C295.317 115.023 295.318 115.03 295.318 115.033C295.32 115.039 295.401 115.024 310.653 111.075L295.321 115.045ZM326.202 48.471C326.203 48.4732 326.203 48.4759 326.204 48.4788V48.4817C326.203 48.4778 326.203 48.4739 326.202 48.471Z" fill="#792A85"/>
<path d="M230.478 100.686C236.428 107.097 246.45 107.47 252.861 101.52C259.269 95.5722 259.645 85.558 253.704 79.1466C253.705 79.1482 253.709 79.1518 253.711 79.1544C253.716 79.1599 253.721 79.166 253.726 79.171C253.735 79.1806 253.743 79.189 253.749 79.1964C253.763 79.2114 253.773 79.2218 253.779 79.2276C253.775 79.2236 253.769 79.2174 253.762 79.2091C253.72 79.1607 253.618 79.0442 253.471 78.8663C253.174 78.5067 252.709 77.9183 252.169 77.1514C251.043 75.5507 249.834 73.5142 249.031 71.3946C248.218 69.25 248.08 67.7134 248.21 66.7305C248.296 66.0825 248.556 64.921 250.375 63.2032C257.112 56.8422 261.041 49.3784 262.195 41.4141C263.309 33.7254 261.654 26.8769 259.532 21.6866C257.414 16.5075 254.579 12.3446 252.422 9.58016C251.316 8.16217 250.315 7.01794 249.552 6.19246C249.169 5.77775 248.841 5.43784 248.584 5.17781C248.456 5.04764 248.344 4.93713 248.252 4.84676C248.207 4.80172 248.165 4.76164 248.129 4.72664C248.111 4.70916 248.094 4.69277 248.079 4.67781C248.071 4.67038 248.063 4.66314 248.056 4.65633C248.052 4.6529 248.047 4.6473 248.045 4.64559C248.038 4.64354 247.866 4.81322 237.094 16.087L248.036 4.6368C241.711 -1.40577 231.686 -1.17768 225.643 5.14656C219.604 11.4678 219.83 21.486 226.145 27.5294C226.143 27.528 226.138 27.5234 226.135 27.5206C226.129 27.5149 226.123 27.5092 226.118 27.504C226.107 27.4937 226.097 27.4849 226.088 27.4766L226.044 27.4327C226.071 27.4599 226.154 27.5455 226.282 27.6837C226.541 27.9645 226.96 28.4383 227.449 29.0645C228.482 30.3889 229.537 32.023 230.212 33.6749C230.883 35.3155 230.925 36.334 230.847 36.8722C230.809 37.1353 230.655 38.2588 228.628 40.1729C221.683 46.7313 217.883 54.4872 216.811 62.5577C215.783 70.2932 217.387 77.2776 219.412 82.6192C221.445 87.986 224.169 92.4014 226.266 95.3809C227.338 96.9041 228.307 98.1392 229.041 99.0294C229.41 99.4762 229.725 99.8411 229.968 100.118C230.09 100.257 230.195 100.374 230.281 100.469C230.323 100.516 230.361 100.558 230.394 100.594C230.41 100.612 230.426 100.629 230.44 100.644C230.447 100.651 230.454 100.659 230.46 100.666C230.463 100.669 230.468 100.674 230.469 100.676C230.474 100.681 230.478 100.685 241.451 90.5011L230.478 100.686Z" fill="#792A85"/>
</svg>
