<svg width="24" height="24" viewBox="0 0 24 24" fill="none" xmlns="http://www.w3.org/2000/svg">
<path d="M12 22.71C11.786 22.71 11.5682 22.6713 11.3466 22.594C11.125 22.5166 10.9301 22.3928 10.762 22.2225L9.18 20.76C6.7 18.46 4.55 16.265 2.73 14.175C0.91 12.085 0 9.90004 0 7.62004C0 5.81694 0.605 4.31117 1.815 3.10273C3.025 1.89427 4.52 1.29004 6.3 1.29004C7.32 1.29004 8.33 1.53504 9.33 2.02504C10.33 2.51504 11.22 3.32004 12 4.44004C12.88 3.32004 13.79 2.51504 14.73 2.02504C15.67 1.53504 16.66 1.29004 17.7 1.29004C19.48 1.29004 20.975 1.89427 22.185 3.10273C23.395 4.31117 24 5.81694 24 7.62004C24 9.90004 23.09 12.085 21.27 14.175C19.45 16.265 17.3 18.46 14.82 20.76L13.23 22.23C13.065 22.3977 12.8737 22.5196 12.6562 22.5957C12.4387 22.6719 12.22 22.71 12 22.71ZM11.22 6.42004C10.68 5.44004 9.97 4.64004 9.09 4.02004C8.21 3.40004 7.28 3.09004 6.3 3.09004C4.98 3.09004 3.9 3.51504 3.06 4.36504C2.22 5.21504 1.8 6.30433 1.8 7.63291C1.8 8.78433 2.18881 9.99658 2.96643 11.2697C3.74407 12.5427 4.67407 13.7777 5.75643 14.9747C6.83881 16.1716 7.96 17.285 9.12 18.315C10.28 19.345 11.24 20.21 12 20.91C12.76 20.23 13.72 19.37 14.88 18.33C16.04 17.29 17.16 16.165 18.24 14.955C19.32 13.745 20.25 12.5031 21.03 11.2293C21.81 9.95542 22.2 8.75234 22.2 7.62004C22.2 6.30004 21.775 5.21504 20.925 4.36504C20.075 3.51504 19 3.09004 17.7 3.09004C16.7 3.09004 15.765 3.39504 14.895 4.00504C14.025 4.61504 13.3 5.42004 12.72 6.42004C12.62 6.58004 12.51 6.69504 12.39 6.76504C12.27 6.83504 12.13 6.87004 11.97 6.87004C11.81 6.87004 11.665 6.83504 11.535 6.76504C11.405 6.69504 11.3 6.58004 11.22 6.42004Z" fill="#1B1B1B"/>
</svg>
