<svg width="24" height="24" viewBox="0 0 24 24" fill="none" xmlns="http://www.w3.org/2000/svg">
<path d="M2.42764 24C1.81321 24 1.29423 23.7882 0.870677 23.3647C0.447127 22.9411 0.235352 22.4221 0.235352 21.8077V2.19229C0.235352 1.57786 0.447127 1.05888 0.870677 0.635326C1.29423 0.211776 1.81321 0 2.42764 0H11.6238C11.8046 0 11.9555 0.0610257 12.0767 0.183076C12.1978 0.305151 12.2584 0.457238 12.2584 0.639338C12.2584 0.821438 12.1978 0.971951 12.0767 1.09088C11.9555 1.20978 11.8046 1.26923 11.6238 1.26923H2.42764C2.19686 1.26923 1.98533 1.36538 1.79303 1.55768C1.60073 1.74998 1.50458 1.96151 1.50458 2.19229V21.8077C1.50458 22.0385 1.60073 22.25 1.79303 22.4423C1.98533 22.6346 2.19686 22.7308 2.42764 22.7308H11.6238C11.8046 22.7308 11.9555 22.7918 12.0767 22.9139C12.1978 23.0359 12.2584 23.188 12.2584 23.3701C12.2584 23.5522 12.1978 23.7027 12.0767 23.8217C11.9555 23.9406 11.8046 24 11.6238 24H2.42764ZM21.7556 12.6346H8.65841C8.47766 12.6346 8.3267 12.5736 8.20553 12.4515C8.08438 12.3295 8.0238 12.1774 8.0238 11.9953C8.0238 11.8132 8.08438 11.6627 8.20553 11.5437C8.3267 11.4248 8.47766 11.3654 8.65841 11.3654H21.744L18.7142 8.33558C18.5943 8.2157 18.5305 8.07083 18.5229 7.90095C18.5152 7.73108 18.5809 7.57562 18.72 7.4346C18.8591 7.29357 19.0096 7.22579 19.1714 7.23124C19.3333 7.23669 19.487 7.30351 19.6325 7.43171L23.4373 11.2365C23.6552 11.4673 23.7642 11.7272 23.7642 12.0163C23.7642 12.3053 23.6552 12.5582 23.4373 12.775L19.6382 16.574C19.5326 16.6958 19.3948 16.7596 19.2249 16.7654C19.0549 16.7711 18.8936 16.7045 18.741 16.5654C18.6084 16.4244 18.5426 16.2723 18.5435 16.1091C18.5445 15.946 18.6145 15.7949 18.7536 15.6558L21.7556 12.6346Z" fill="#1B1B1B"/>
</svg>
