<svg width="24" height="24" viewBox="0 0 24 24" fill="none" xmlns="http://www.w3.org/2000/svg">
<path d="M15.2383 21.3106L13.9108 20.6374C13.6693 20.519 13.5187 20.3281 13.459 20.0647C13.3993 19.8013 13.462 19.5668 13.6471 19.3612L15.4405 17.3128C15.4869 17.2513 15.5379 17.2076 15.5934 17.1817C15.649 17.1558 15.714 17.1429 15.7885 17.1429C15.9988 17.1429 16.1446 17.2366 16.226 17.4242C16.3075 17.6117 16.2776 17.7822 16.1365 17.9355L14.4764 19.8322L15.8185 20.5055C16.0503 20.6238 16.196 20.8147 16.2557 21.0781C16.3154 21.3416 16.2527 21.5761 16.0676 21.7817L14.2742 23.83C14.2278 23.8915 14.1768 23.9353 14.1213 23.9611C14.0657 23.987 14.0007 24 13.9262 24C13.7159 24 13.5701 23.9062 13.4887 23.7187C13.4072 23.5311 13.4371 23.3607 13.5782 23.2073L15.2383 21.3106V21.3106ZM8.38115 21.3106L7.0537 20.6374C6.81217 20.519 6.66155 20.3281 6.60184 20.0647C6.54214 19.8013 6.60485 19.5668 6.78995 19.3612L8.58335 17.3128C8.62975 17.2611 8.68073 17.2198 8.7363 17.189C8.79186 17.1582 8.85688 17.1429 8.93135 17.1429C9.14162 17.1429 9.28747 17.2366 9.3689 17.4242C9.45034 17.6117 9.42049 17.7822 9.27932 17.9355L7.61927 19.8322L8.96138 20.5055C9.19313 20.6238 9.33887 20.8147 9.39858 21.0781C9.45828 21.3416 9.39557 21.5761 9.21047 21.7817L7.41707 23.83C7.37067 23.8818 7.31969 23.923 7.26412 23.9538C7.20856 23.9846 7.14354 24 7.06907 24C6.8588 24 6.71295 23.9062 6.63152 23.7187C6.55008 23.5311 6.57993 23.3607 6.7211 23.2073L8.38115 21.3106ZM6.76944 14.6813C5.21561 14.6813 3.88943 14.1324 2.79089 13.0344C1.69234 11.9365 1.14307 10.611 1.14307 9.05809C1.14307 7.5991 1.64343 6.33285 2.64415 5.25934C3.6449 4.18584 4.90888 3.57851 6.4361 3.43737C7.00301 2.36827 7.76879 1.5281 8.73344 0.916858C9.6981 0.30562 10.7869 0 11.9998 0C13.644 0 15.0409 0.543952 16.1903 1.63186C17.3398 2.71978 18.0112 4.074 18.2046 5.69451C19.6752 5.76387 20.8183 6.23932 21.6339 7.12089C22.4495 8.00245 22.8574 9.0279 22.8574 10.1973C22.8574 11.4406 22.4217 12.4988 21.5503 13.3718C20.6789 14.2448 19.6201 14.6813 18.3738 14.6813H6.76944ZM6.76944 13.7143H18.3738C19.3444 13.7143 20.1731 13.3695 20.86 12.6799C21.5469 11.9902 21.8903 11.1597 21.8903 10.1883C21.8903 9.22661 21.5469 8.4017 20.86 7.71354C20.1731 7.02539 19.3444 6.68131 18.3738 6.68131H17.231V6.1978C17.231 4.75909 16.7185 3.52763 15.6936 2.5034C14.6687 1.47915 13.4378 0.967029 12.0009 0.967029C10.9469 0.967029 9.9886 1.25104 9.12584 1.81906C8.26308 2.38706 7.61753 3.1531 7.18921 4.1172L7.07767 4.3956H6.7123C5.44481 4.43914 4.3609 4.91032 3.46058 5.80914C2.56026 6.70798 2.11009 7.78901 2.11009 9.05223C2.11009 10.3381 2.56518 11.4366 3.47535 12.3477C4.38552 13.2587 5.48355 13.7143 6.76944 13.7143Z" fill="#1B1B1B"/>
</svg>
