<svg width="24" height="24" viewBox="0 0 24 24" fill="none" xmlns="http://www.w3.org/2000/svg">
<path d="M11.4359 14.5639V17.9998C11.4359 18.1605 11.4901 18.2947 11.5986 18.4024C11.7071 18.5101 11.8423 18.5639 12.0042 18.5639C12.1661 18.5639 12.2999 18.5101 12.4056 18.4024C12.5113 18.2947 12.5641 18.1605 12.5641 17.9998V14.5639H16C16.1607 14.5639 16.2949 14.5097 16.4026 14.4012C16.5103 14.2927 16.5641 14.1575 16.5641 13.9956C16.5641 13.8338 16.5103 13.7 16.4026 13.5943C16.2949 13.4886 16.1607 13.4357 16 13.4357H12.5641V9.99984C12.5641 9.83915 12.5099 9.70496 12.4014 9.59727C12.2929 9.48958 12.1577 9.43574 11.9958 9.43574C11.8339 9.43574 11.7001 9.48958 11.5944 9.59727C11.4887 9.70496 11.4359 9.83915 11.4359 9.99984V13.4357H8C7.83931 13.4357 7.70512 13.49 7.59743 13.5985C7.48975 13.707 7.4359 13.8422 7.4359 14.004C7.4359 14.1659 7.48975 14.2997 7.59743 14.4054C7.70512 14.5111 7.83931 14.5639 8 14.5639H11.4359ZM1.9487 23.3332C1.40254 23.3332 0.941222 23.1449 0.564733 22.7684C0.188245 22.3919 0 21.9306 0 21.3845V6.6152C0 6.06905 0.188245 5.60773 0.564733 5.23124C0.941222 4.85475 1.40254 4.6665 1.9487 4.6665H8V2.6152C8 2.06905 8.18824 1.60773 8.56473 1.23124C8.94122 0.854749 9.40254 0.666504 9.9487 0.666504H14.0513C14.5975 0.666504 15.0588 0.854749 15.4353 1.23124C15.8118 1.60773 16 2.06905 16 2.6152V4.6665H22.0513C22.5975 4.6665 23.0588 4.85475 23.4353 5.23124C23.8118 5.60773 24 6.06905 24 6.6152V21.3845C24 21.9306 23.8118 22.3919 23.4353 22.7684C23.0588 23.1449 22.5975 23.3332 22.0513 23.3332H1.9487ZM1.9487 22.205H22.0513C22.2564 22.205 22.4445 22.1195 22.6154 21.9486C22.7863 21.7776 22.8718 21.5896 22.8718 21.3845V6.6152C22.8718 6.41007 22.7863 6.22204 22.6154 6.05111C22.4445 5.88017 22.2564 5.7947 22.0513 5.7947H1.9487C1.74357 5.7947 1.55553 5.88017 1.3846 6.05111C1.21367 6.22204 1.1282 6.41007 1.1282 6.6152V21.3845C1.1282 21.5896 1.21367 21.7776 1.3846 21.9486C1.55553 22.1195 1.74357 22.205 1.9487 22.205ZM9.1282 4.6665H14.8718V2.6152C14.8718 2.41007 14.7863 2.22204 14.6154 2.0511C14.4445 1.88017 14.2564 1.7947 14.0513 1.7947H9.9487C9.74357 1.7947 9.55553 1.88017 9.3846 2.0511C9.21367 2.22204 9.1282 2.41007 9.1282 2.6152V4.6665Z" fill="#1B1B1B"/>
</svg>
