<svg width="24" height="24" viewBox="0 0 24 24" fill="none" xmlns="http://www.w3.org/2000/svg">
<path d="M1.33333 20C0.955556 20 0.639111 19.872 0.384 19.616C0.128 19.3609 0 19.0444 0 18.6667C0 18.2889 0.128 17.9724 0.384 17.7173C0.639111 17.4613 0.955556 17.3333 1.33333 17.3333H22.6667C23.0444 17.3333 23.3609 17.4613 23.616 17.7173C23.872 17.9724 24 18.2889 24 18.6667C24 19.0444 23.872 19.3609 23.616 19.616C23.3609 19.872 23.0444 20 22.6667 20H1.33333ZM1.33333 13.3333C0.955556 13.3333 0.639111 13.2053 0.384 12.9493C0.128 12.6942 0 12.3778 0 12C0 11.6222 0.128 11.3053 0.384 11.0493C0.639111 10.7942 0.955556 10.6667 1.33333 10.6667H22.6667C23.0444 10.6667 23.3609 10.7942 23.616 11.0493C23.872 11.3053 24 11.6222 24 12C24 12.3778 23.872 12.6942 23.616 12.9493C23.3609 13.2053 23.0444 13.3333 22.6667 13.3333H1.33333ZM1.33333 6.66667C0.955556 6.66667 0.639111 6.53911 0.384 6.284C0.128 6.028 0 5.71111 0 5.33333C0 4.95556 0.128 4.63867 0.384 4.38267C0.639111 4.12756 0.955556 4 1.33333 4H22.6667C23.0444 4 23.3609 4.12756 23.616 4.38267C23.872 4.63867 24 4.95556 24 5.33333C24 5.71111 23.872 6.028 23.616 6.284C23.3609 6.53911 23.0444 6.66667 22.6667 6.66667H1.33333Z" fill="#1B1B1B"/>
</svg>
