<svg width="16" height="16" viewBox="0 0 16 16" fill="none" xmlns="http://www.w3.org/2000/svg">
<path d="M8.00484 14.0875C7.58379 14.3682 7.13389 14.5817 6.65516 14.7281C6.17628 14.8743 5.69123 14.9475 5.2 14.9475C4.69797 14.9475 4.21109 14.87 3.73937 14.7151C3.26751 14.5601 2.81404 14.3563 2.37895 14.1037C2.07018 14.2861 1.75354 14.4424 1.42905 14.5725C1.1047 14.7026 0.767088 14.8012 0.41621 14.8681C0.310386 14.8854 0.214597 14.8546 0.128842 14.7759C0.0429474 14.697 0 14.6031 0 14.494C0 14.3741 0.0394387 14.2732 0.118316 14.1913C0.197053 14.1092 0.296351 14.0508 0.41621 14.0163C0.693684 13.9569 0.956281 13.8684 1.204 13.7506C1.45186 13.633 1.69347 13.497 1.92884 13.3426C2.06161 13.252 2.21081 13.2066 2.37642 13.2066C2.54218 13.2066 2.69144 13.252 2.82421 13.3426C3.18267 13.5704 3.56379 13.751 3.96758 13.8843C4.37137 14.0176 4.78218 14.0843 5.2 14.0843C5.60702 14.0843 6.00786 14.0292 6.40253 13.9191C6.79705 13.809 7.16814 13.6455 7.51579 13.4285C7.67018 13.3271 7.84295 13.2771 8.03411 13.2786C8.22512 13.2803 8.39783 13.3319 8.55221 13.4334C8.89986 13.6503 9.26667 13.8131 9.65263 13.9216C10.0386 14.0301 10.4351 14.0843 10.8421 14.0843C11.2848 14.0843 11.7134 14.0106 12.128 13.8633C12.5426 13.7159 12.9307 13.5229 13.2922 13.2843C13.4143 13.2077 13.538 13.1713 13.6632 13.1751C13.7884 13.1788 13.912 13.2207 14.0341 13.3005C14.2693 13.4549 14.5154 13.5925 14.7724 13.7134C15.0294 13.8343 15.2966 13.9299 15.5741 14.0001C15.694 14.0379 15.7949 14.0997 15.8768 14.1856C15.9589 14.2713 16 14.3741 16 14.494C16 14.6139 15.9563 14.714 15.8688 14.7944C15.7814 14.8748 15.6778 14.8994 15.5579 14.8681C15.2211 14.8012 14.8947 14.6991 14.5789 14.562C14.2632 14.4249 13.9579 14.2721 13.6632 14.1037C13.2313 14.3563 12.7787 14.5601 12.3053 14.7151C11.8319 14.87 11.3441 14.9475 10.8421 14.9475C10.3401 14.9475 9.84968 14.87 9.37095 14.7151C8.89207 14.5601 8.4367 14.3509 8.00484 14.0875ZM0 11.9677V9.89484C0 8.63056 0.244281 7.45758 0.732842 6.37589C1.2214 5.29407 1.89747 4.35856 2.76105 3.56937C3.62477 2.78017 4.64912 2.1634 5.83411 1.71905C7.01895 1.27484 8.30232 1.05273 9.68421 1.05273C9.85797 1.05273 10.0369 1.05624 10.2211 1.06326C10.4052 1.07028 10.5841 1.08403 10.7579 1.10452C10.9738 1.13582 11.1403 1.24544 11.2575 1.43337C11.3747 1.62116 11.3917 1.81975 11.3084 2.02916C11.1897 2.32389 11.0999 2.59975 11.0389 2.85673C10.9779 3.11372 10.9474 3.40361 10.9474 3.72642C10.9474 4.61709 11.2615 5.37659 11.8899 6.00494C12.5182 6.6333 13.2778 6.94747 14.1684 6.94747H15.5789C15.6988 6.94747 15.7989 6.98768 15.8794 7.0681C15.9598 7.14852 16 7.24866 16 7.36852C16 7.48838 15.9598 7.58852 15.8794 7.66894C15.7989 7.74937 15.6988 7.78958 15.5789 7.78958H14.1684C13.038 7.78958 12.0782 7.39498 11.2891 6.60579C10.4999 5.81659 10.1053 4.8568 10.1053 3.72642C10.1053 3.4328 10.1382 3.11786 10.204 2.78158C10.2698 2.44516 10.3524 2.14473 10.4518 1.88031C9.12169 2.11133 8.02969 2.69947 7.17579 3.64473C6.32175 4.58986 5.89474 5.69617 5.89474 6.96368C5.89474 7.65252 5.98625 8.28979 6.16926 8.87547C6.35228 9.46116 6.65053 10.06 7.064 10.6721L7.64526 10.3207C7.76737 10.2409 7.89102 10.2009 8.01621 10.2009C8.1414 10.2009 8.26498 10.2409 8.38695 10.3207C8.74218 10.5561 9.13116 10.751 9.55389 10.9054C9.97649 11.0598 10.4059 11.1369 10.8421 11.1369C11.2783 11.1369 11.7077 11.0543 12.1303 10.8892C12.5531 10.724 12.9474 10.5291 13.3133 10.3045C13.4354 10.2279 13.5528 10.1887 13.6657 10.1871C13.7784 10.1855 13.8958 10.2231 14.0179 10.2997L14.6429 10.6803C14.7973 10.7645 14.9498 10.8371 15.1004 10.898C15.251 10.9591 15.4051 11.0106 15.5627 11.0527C15.6826 11.0905 15.7854 11.1523 15.8712 11.2382C15.9571 11.324 16 11.4268 16 11.5466C16 11.6557 15.9563 11.7504 15.8688 11.8308C15.7814 11.9113 15.6832 11.9358 15.5741 11.9045C15.2945 11.8376 14.9995 11.7418 14.6891 11.6172C14.3787 11.4924 14.0368 11.3226 13.6632 11.1079C13.1708 11.4101 12.6904 11.6343 12.2219 11.7807C11.7533 11.927 11.2933 12.0001 10.8421 12.0001C10.4124 12.0001 9.94218 11.9191 9.43158 11.7572C8.92098 11.5952 8.45081 11.3788 8.02105 11.1079C7.48884 11.4393 7.00842 11.67 6.57979 11.8001C6.15116 11.9302 5.69123 11.9969 5.2 12.0001C4.70877 12.0033 4.24344 11.9402 3.804 11.8106C3.36456 11.6811 2.88954 11.463 2.37895 11.1563C1.99789 11.3767 1.60463 11.5562 1.19916 11.6948C0.793825 11.8335 0.394105 11.9245 0 11.9677ZM5.1579 11.1369C5.35761 11.1369 5.55733 11.1235 5.75705 11.0965C5.95677 11.0694 6.12414 11.0327 6.25916 10.9864C5.83165 10.3008 5.52365 9.64488 5.33516 9.01863C5.14681 8.39252 5.05263 7.70754 5.05263 6.96368C5.05263 5.68649 5.40407 4.56396 6.10695 3.5961C6.80968 2.62824 7.79158 1.90354 9.05263 1.422V1.94347C7.86933 2.01687 6.77705 2.26544 5.77579 2.68916C4.77439 3.11287 3.91284 3.66916 3.19116 4.358C2.46933 5.04684 1.90225 5.85519 1.48989 6.78305C1.0774 7.71105 0.863088 8.71589 0.846947 9.79758V10.8664C1.05635 10.8179 1.25607 10.7493 1.44611 10.6607C1.63614 10.5723 1.82344 10.4714 2.008 10.358C2.13011 10.2781 2.25375 10.2401 2.37895 10.2439C2.50414 10.2477 2.62239 10.2895 2.73368 10.3694C2.88147 10.4644 3.02667 10.5496 3.16926 10.6252C3.31172 10.7008 3.46393 10.7737 3.6259 10.8439C3.86449 10.9454 4.11011 11.0195 4.36274 11.0664C4.61537 11.1134 4.88042 11.1369 5.1579 11.1369Z" fill="#1B1B1B"/>
</svg>
