<svg width="24" height="24" viewBox="0 0 24 24" fill="none" xmlns="http://www.w3.org/2000/svg">
<path d="M1.84614 22.5063C1.34277 22.5063 0.909232 22.3245 0.545526 21.9608C0.181842 21.5971 0 21.1635 0 20.6602V2.48199C0 2.36999 0.0458842 2.29611 0.137653 2.26034C0.229421 2.22457 0.318221 2.2496 0.404053 2.33544L1.14575 3.07713C1.23674 3.17321 1.34828 3.22126 1.48039 3.22126C1.61249 3.22126 1.72659 3.17321 1.82267 3.07713L3.22996 1.63827C3.32095 1.54218 3.43249 1.49414 3.5646 1.49414C3.69671 1.49414 3.8108 1.54218 3.90688 1.63827L5.34575 3.07713C5.43674 3.17321 5.54828 3.22126 5.68039 3.22126C5.81249 3.22126 5.92659 3.17321 6.02267 3.07713L7.46154 1.63827C7.55253 1.54218 7.66407 1.49414 7.79618 1.49414C7.92828 1.49414 8.04238 1.54218 8.13846 1.63827L9.54575 3.07713C9.63674 3.17321 9.74828 3.22126 9.88039 3.22126C10.0125 3.22126 10.1266 3.17321 10.2227 3.07713L11.6615 1.63827C11.7525 1.54218 11.8641 1.49414 11.9962 1.49414C12.1283 1.49414 12.2424 1.54218 12.3385 1.63827L13.7773 3.07713C13.8683 3.17321 13.9799 3.22126 14.112 3.22126C14.2441 3.22126 14.3582 3.17321 14.4543 3.07713L15.8615 1.63827C15.9525 1.54218 16.0641 1.49414 16.1962 1.49414C16.3283 1.49414 16.4424 1.54218 16.5385 1.63827L17.9773 3.07713C18.0683 3.17321 18.1799 3.22126 18.312 3.22126C18.4441 3.22126 18.5582 3.17321 18.6543 3.07713L20.0931 1.63827C20.1841 1.54218 20.2957 1.49414 20.4278 1.49414C20.5599 1.49414 20.674 1.54218 20.77 1.63827L22.1773 3.07713C22.2683 3.17321 22.3799 3.22126 22.512 3.22126C22.6441 3.22126 22.7582 3.17321 22.8543 3.07713L23.5959 2.33544C23.6818 2.2496 23.7706 2.22457 23.8623 2.26034C23.9541 2.29611 24 2.36999 24 2.48199V20.6602C24 21.1635 23.8181 21.5971 23.4544 21.9608C23.0908 22.3245 22.6572 22.5063 22.1539 22.5063H1.84614ZM1.84614 21.4375H11.4656V12.2067H1.06882V20.6602C1.06882 20.8869 1.14169 21.0731 1.28744 21.2189C1.43319 21.3646 1.61942 21.4375 1.84614 21.4375ZM12.5344 21.4375H22.1539C22.3806 21.4375 22.5668 21.3646 22.7126 21.2189C22.8583 21.0731 22.9312 20.8869 22.9312 20.6602V17.3565H12.5344V21.4375ZM12.5344 16.2877H22.9312V12.2067H12.5344V16.2877ZM1.06882 11.1379H22.9312V5.84234H1.06882V11.1379Z" fill="#1B1B1B"/>
</svg>
