<svg width="16" height="16" viewBox="0 0 16 16" fill="none" xmlns="http://www.w3.org/2000/svg">
<path d="M0.799986 14.609C0.58549 14.609 0.398539 14.532 0.239132 14.3781C0.0797108 14.2241 0 14.0371 0 13.8172C0 13.5972 0.0797108 13.4075 0.239132 13.2481C0.398539 13.0887 0.58549 13.009 0.799986 13.009H12.1913C12.3069 13.009 12.4024 13.0468 12.478 13.1222C12.5535 13.1977 12.5913 13.2932 12.5913 13.4087V14.208C12.5913 14.3235 12.5535 14.4192 12.478 14.4951C12.4024 14.571 12.3069 14.609 12.1913 14.609H0.799986ZM13.8965 14.609C13.7811 14.609 13.6855 14.5713 13.6096 14.4958C13.5336 14.4203 13.4957 14.3248 13.4957 14.2094V13.41C13.4957 13.2946 13.5334 13.1989 13.6088 13.1229C13.6842 13.047 13.7795 13.009 13.8949 13.009C14.0102 13.009 14.1058 13.0468 14.1817 13.1222C14.2577 13.1977 14.2957 13.2932 14.2957 13.4087V14.208C14.2957 14.3235 14.258 14.4192 14.1826 14.4951C14.1071 14.571 14.0118 14.609 13.8965 14.609ZM15.6008 14.609C15.4855 14.609 15.3899 14.5713 15.3139 14.4958C15.238 14.4203 15.2 14.3248 15.2 14.2094V13.41C15.2 13.2946 15.2377 13.1989 15.3131 13.1229C15.3885 13.047 15.4839 13.009 15.5992 13.009C15.7145 13.009 15.8101 13.0468 15.8861 13.1222C15.962 13.1977 16 13.2932 16 13.4087V14.208C16 14.3235 15.9623 14.4192 15.8869 14.4951C15.8115 14.571 15.7161 14.609 15.6008 14.609ZM13.8965 11.7568C13.7811 11.7568 13.6855 11.7191 13.6096 11.6435C13.5336 11.5679 13.4957 11.4724 13.4957 11.3568V10.5812C13.4957 10.0397 13.3223 9.59712 12.9757 9.25335C12.629 8.90959 12.2145 8.73771 11.7322 8.73771H10.3304C9.64869 8.73771 9.06608 8.49104 8.5826 7.99768C8.09912 7.50435 7.85738 6.90348 7.85738 6.19509C7.85738 5.52547 8.09912 4.95748 8.5826 4.49112C9.06608 4.02478 9.64869 3.79161 10.3304 3.79161C10.446 3.79161 10.5415 3.82931 10.6171 3.90472C10.6927 3.98011 10.7304 4.07547 10.7304 4.19081C10.7304 4.30613 10.6927 4.40175 10.6171 4.47769C10.5415 4.55364 10.446 4.59161 10.3304 4.59161C9.87826 4.59161 9.48638 4.74298 9.15479 5.04571C8.82319 5.34846 8.65739 5.73049 8.65739 6.19181C8.65739 6.65312 8.82319 7.05943 9.15479 7.41074C9.48638 7.76205 9.87826 7.9377 10.3304 7.9377H11.7322C12.4371 7.9377 13.0406 8.18871 13.5426 8.69073C14.0446 9.19276 14.2957 9.79856 14.2957 10.5081V11.3568C14.2957 11.4724 14.258 11.5679 14.1826 11.6435C14.1071 11.7191 14.0118 11.7568 13.8965 11.7568ZM15.6008 11.7568C15.4855 11.7568 15.3899 11.7191 15.3139 11.6435C15.238 11.5679 15.2 11.4724 15.2 11.3568V9.72205C15.2 8.72727 14.8533 7.91451 14.16 7.28379C13.4667 6.65307 12.6075 6.33771 11.5826 6.33771C11.4671 6.33771 11.3715 6.3 11.2959 6.2246C11.2204 6.14919 11.1826 6.05382 11.1826 5.93851C11.1826 5.82319 11.2204 5.72755 11.2959 5.6516C11.3715 5.57567 11.4671 5.5377 11.5826 5.5377C12.0348 5.5377 12.4209 5.3777 12.7409 5.05769C13.0609 4.73769 13.2209 4.3516 13.2209 3.89943C13.2209 3.42407 13.0609 3.0206 12.7409 2.689C12.4209 2.35741 12.0348 2.19161 11.5826 2.19161C11.4671 2.19161 11.3715 2.15391 11.2959 2.0785C11.2204 2.00309 11.1826 1.90773 11.1826 1.79241C11.1826 1.67709 11.2204 1.58146 11.2959 1.50553C11.3715 1.42958 11.4671 1.3916 11.5826 1.3916C12.2619 1.3916 12.8381 1.63914 13.3112 2.13421C13.7843 2.62928 14.0209 3.21768 14.0209 3.89943C14.0209 4.33653 13.9322 4.71189 13.7548 5.02552C13.5774 5.33915 13.3531 5.59375 13.0818 5.78933C13.8678 6.04361 14.5507 6.50813 15.1304 7.18291C15.7101 7.85771 16 8.70409 16 9.72205V11.3568C16 11.4724 15.9623 11.5679 15.8869 11.6435C15.8115 11.7191 15.7161 11.7568 15.6008 11.7568Z" fill="#1B1B1B"/>
</svg>
