<svg width="24" height="24" viewBox="0 0 24 24" fill="none" xmlns="http://www.w3.org/2000/svg">
<path d="M3.41411 20.5858C3.25764 20.5858 3.12646 20.5324 3.02059 20.4255C2.91474 20.3187 2.86182 20.1864 2.86182 20.0285C2.86182 19.8706 2.91474 19.7399 3.02059 19.6364C3.12646 19.5329 3.25764 19.4812 3.41411 19.4812H4.97059V8.90042C4.97059 7.19358 5.50671 5.68347 6.57895 4.37009C7.6512 3.05668 9.02303 2.2488 10.6944 1.94644V1.30544C10.6944 0.94281 10.8211 0.634574 11.0743 0.380732C11.3276 0.126911 11.6351 0 11.9969 0C12.3588 0 12.6673 0.126911 12.9225 0.380732C13.1777 0.634574 13.3053 0.94281 13.3053 1.30544V1.9548C14.9767 2.25159 16.3486 3.05668 17.4208 4.37009C18.4931 5.68347 19.0292 7.19358 19.0292 8.90042V19.4812H20.5857C20.7421 19.4812 20.8733 19.5346 20.9792 19.6414C21.085 19.7482 21.138 19.8806 21.138 20.0385C21.138 20.1963 21.085 20.327 20.9792 20.4305C20.8733 20.534 20.7421 20.5858 20.5857 20.5858H3.41411ZM11.9954 24C11.4143 24 10.9183 23.7935 10.5074 23.3805C10.0965 22.9676 9.89111 22.4711 9.89111 21.8912H14.1087C14.1087 22.4753 13.9017 22.9728 13.4879 23.3837C13.0741 23.7946 12.5766 24 11.9954 24ZM6.07519 19.4812H17.9246V8.90042C17.9246 7.26137 17.3469 5.86416 16.1915 4.70878C15.0361 3.5534 13.6389 2.97572 11.9999 2.97572C10.3608 2.97572 8.96363 3.5534 7.80825 4.70878C6.65288 5.86416 6.07519 7.26137 6.07519 8.90042V19.4812Z" fill="#1B1B1B"/>
</svg>
