<svg width="16" height="16" viewBox="0 0 16 16" fill="none" xmlns="http://www.w3.org/2000/svg">
<path d="M11.1621 1.43079L10.0873 5.12668H11.5095C11.9387 5.12668 12.2541 5.31459 12.4556 5.6904C12.6572 6.06622 12.6371 6.43584 12.3951 6.79926L11.6372 7.9028C11.5543 8.02207 11.4453 8.09366 11.3102 8.11757C11.1751 8.14134 11.0497 8.10665 10.9338 8.01351C10.843 7.93409 10.7922 7.83364 10.7815 7.71216C10.7707 7.59067 10.8073 7.47539 10.8913 7.36631L11.5759 6.43813C11.6327 6.34735 11.6384 6.25369 11.5929 6.15715C11.5475 6.06061 11.468 6.01234 11.3545 6.01234H9.86767C9.62913 6.01234 9.43554 5.9178 9.28689 5.72871C9.1381 5.53962 9.10061 5.33156 9.17441 5.10454L10.2441 1.44762C10.2894 1.31138 10.2667 1.18369 10.1759 1.06457C10.0851 0.945301 9.97159 0.885666 9.83534 0.885666H5.55669C5.43078 0.885666 5.32553 0.843376 5.24095 0.758795C5.15622 0.674214 5.11386 0.568893 5.11386 0.442833C5.11386 0.316773 5.15622 0.211452 5.24095 0.126871C5.32553 0.0422901 5.43078 0 5.55669 0H9.93741C10.3417 0 10.6736 0.147611 10.9329 0.442833C11.1924 0.738055 11.2688 1.06738 11.1621 1.43079ZM14.9397 15.8534L9.74678 10.6654L8.40964 12.6088C8.33244 12.7189 8.24077 12.7904 8.13464 12.8233C8.02851 12.8564 7.92031 12.8564 7.81005 12.8233C7.69993 12.7904 7.60915 12.7272 7.5377 12.6336C7.46611 12.5399 7.43032 12.4288 7.43032 12.3006V8.85666H6.54465C6.14831 8.85666 5.8108 8.71732 5.53211 8.43863C5.25327 8.15979 5.11386 7.8222 5.11386 7.42587V6.03271L0.428462 1.34732C0.342109 1.26097 0.296129 1.15845 0.290519 1.03977C0.284763 0.921093 0.330743 0.812968 0.428462 0.715397C0.526033 0.617678 0.631353 0.568819 0.744423 0.568819C0.857346 0.568819 0.962666 0.617678 1.06038 0.715397L15.5716 15.2266C15.6579 15.3129 15.7039 15.4146 15.7095 15.5315C15.7153 15.6484 15.6693 15.7557 15.5716 15.8534C15.474 15.9511 15.3687 16 15.2556 16C15.1427 16 15.0374 15.9511 14.9397 15.8534Z" fill="#1B1B1B"/>
</svg>
