<svg width="24" height="24" viewBox="0 0 24 24" fill="none" xmlns="http://www.w3.org/2000/svg">
<path d="M6.9375 24C5.01058 24 3.37259 23.3255 2.02354 21.9765C0.674513 20.6274 0 18.9894 0 17.0625C0 16.1298 0.178838 15.2375 0.536513 14.3856C0.894213 13.5336 1.39614 12.7846 2.04229 12.1384L12.1384 2.04229C12.7846 1.39614 13.5336 0.894213 14.3856 0.536513C15.2375 0.178838 16.1298 0 17.0625 0C18.9894 0 20.6274 0.674513 21.9765 2.02354C23.3255 3.37259 24 5.01058 24 6.9375C24 7.8702 23.8212 8.76251 23.4635 9.61444C23.1058 10.4664 22.6039 11.2154 21.9577 11.8616L11.8616 21.9577C11.2154 22.6039 10.4664 23.1058 9.61444 23.4635C8.76251 23.8212 7.8702 24 6.9375 24ZM16.4721 15.5308L21.0827 10.9577C21.6083 10.4329 22.0144 9.82077 22.3009 9.12142C22.5875 8.42207 22.7308 7.69481 22.7308 6.93964C22.7308 5.36514 22.1803 4.02644 21.0794 2.92354C19.9784 1.82066 18.6405 1.26923 17.0657 1.26923C16.3104 1.26923 15.5824 1.41251 14.8818 1.69909C14.1812 1.98564 13.5681 2.39171 13.0423 2.91731L8.46923 7.52786L16.4721 15.5308ZM6.9375 22.7308C7.68685 22.7308 8.41365 22.5875 9.1179 22.3009C9.82215 22.0144 10.4354 21.6083 10.9577 21.0827L15.5308 16.4721L7.52786 8.46923L2.91731 13.0423C2.39171 13.5671 1.98564 14.1792 1.69909 14.8786C1.41251 15.5779 1.26922 16.3052 1.26922 17.0604C1.26922 18.6349 1.82 19.9736 2.92155 21.0765C4.02313 22.1793 5.36178 22.7308 6.9375 22.7308Z" fill="#1B1B1B"/>
</svg>
