<svg width="24" height="24" viewBox="0 0 24 24" fill="none" xmlns="http://www.w3.org/2000/svg">
<path d="M10.6708 13.3292L1.36609 13.3292C1.01795 13.3292 0.70938 13.1947 0.440367 12.9257C0.171355 12.6567 0.0368487 12.3481 0.0368489 12C0.0368491 11.6519 0.171355 11.3433 0.440368 11.0743C0.70938 10.8053 1.01795 10.6708 1.36609 10.6708L10.6708 10.6708L10.6708 1.36609C10.6708 1.01795 10.8053 0.709381 11.0743 0.440368C11.3433 0.171356 11.6519 0.0368487 12 0.0368487C12.3481 0.0368487 12.6567 0.171356 12.9257 0.440368C13.1947 0.709381 13.3292 1.01795 13.3292 1.36609L13.3292 10.6708L22.6339 10.6708C22.982 10.6708 23.2906 10.8053 23.5596 11.0743C23.8286 11.3433 23.9631 11.6519 23.9631 12C23.9631 12.3481 23.8286 12.6567 23.5596 12.9257C23.2906 13.1947 22.982 13.3292 22.6339 13.3292L13.3292 13.3292L13.3292 22.6339C13.3292 22.982 13.1947 23.2906 12.9257 23.5596C12.6567 23.8286 12.3481 23.9631 12 23.9631C11.6519 23.9631 11.3433 23.8286 11.0743 23.5596C10.8053 23.2906 10.6708 22.982 10.6708 22.6339L10.6708 13.3292Z" fill="#1B1B1B"/>
</svg>
