<svg width="16" height="16" viewBox="0 0 16 16" fill="none" xmlns="http://www.w3.org/2000/svg">
<path d="M7.07514 16C6.86892 16 6.68974 15.9322 6.53759 15.7967C6.38544 15.661 6.29114 15.4917 6.2547 15.2889L6.02048 13.4291C5.73677 13.3436 5.42996 13.2091 5.10003 13.0256C4.77011 12.8421 4.48951 12.6456 4.25825 12.436L2.55559 13.1676C2.36759 13.2507 2.1767 13.2598 1.98292 13.1949C1.78914 13.1299 1.63988 13.0067 1.53514 12.8256L0.576032 11.1744C0.471292 10.9933 0.440551 10.8041 0.48381 10.6069C0.52707 10.4097 0.630181 10.2479 0.793144 10.1213L2.2787 9.01022C2.25248 8.84963 2.23085 8.68415 2.21381 8.51378C2.19662 8.34341 2.18803 8.17785 2.18803 8.01711C2.18803 7.86778 2.19662 7.71081 2.21381 7.54622C2.23085 7.38148 2.25248 7.196 2.2787 6.98978L0.793144 5.87867C0.630181 5.75215 0.529884 5.58748 0.492255 5.38467C0.454773 5.18185 0.488403 4.98978 0.593144 4.80844L1.53514 3.20844C1.63988 3.03867 1.78914 2.91845 1.98292 2.84778C2.1767 2.77711 2.36759 2.78341 2.55559 2.86667L4.24114 3.58111C4.50663 3.36007 4.79381 3.16067 5.1027 2.98289C5.41144 2.80511 5.71166 2.66778 6.00337 2.57089L6.2547 0.711111C6.29114 0.508296 6.38544 0.339038 6.53759 0.203334C6.68974 0.0677783 6.86892 0 7.07514 0H8.92492C9.13114 0 9.31033 0.0677783 9.46248 0.203334C9.61462 0.339038 9.70892 0.508296 9.74537 0.711111L9.97959 2.588C10.3203 2.7077 10.6214 2.84504 10.8829 3C11.1444 3.15496 11.4137 3.34867 11.6907 3.58111L13.4616 2.86667C13.6496 2.78341 13.8405 2.77711 14.0343 2.84778C14.228 2.91845 14.3773 3.03867 14.482 3.20844L15.424 4.82556C15.5288 5.00674 15.5595 5.19593 15.5163 5.39311C15.473 5.5903 15.3699 5.75215 15.2069 5.87867L13.6529 7.04111C13.702 7.22452 13.7294 7.39289 13.7351 7.54622C13.7408 7.69941 13.7436 7.85067 13.7436 8C13.7436 8.13793 13.7379 8.28348 13.7265 8.43667C13.7151 8.59 13.6888 8.77548 13.6478 8.99311L15.1505 10.1213C15.3134 10.2479 15.4194 10.4097 15.4685 10.6069C15.5174 10.8041 15.4894 10.9933 15.3847 11.1744L14.4376 12.8084C14.3328 12.9898 14.1807 13.1129 13.9811 13.1778C13.7817 13.2427 13.588 13.2336 13.4 13.1504L11.6907 12.4189C11.4137 12.6513 11.135 12.8507 10.8547 13.0171C10.5744 13.1835 10.2827 13.3151 9.97959 13.412L9.74537 15.2889C9.70892 15.4917 9.61462 15.661 9.46248 15.7967C9.31033 15.9322 9.13114 16 8.92492 16H7.07514ZM7.11114 15.1111H8.84959L9.17781 12.7042C9.62566 12.5857 10.0288 12.423 10.3871 12.2162C10.7457 12.0094 11.1106 11.7259 11.482 11.3658L13.6991 12.3111L14.5829 10.8L12.6376 9.33844C12.7117 9.08541 12.7607 8.85267 12.7847 8.64022C12.8086 8.42763 12.8205 8.21422 12.8205 8C12.8205 7.77437 12.8086 7.56096 12.7847 7.35978C12.7607 7.15874 12.7117 6.93741 12.6376 6.69578L14.6171 5.2L13.7334 3.68889L11.4649 4.63933C11.196 4.34422 10.8425 4.06756 10.4043 3.80933C9.96618 3.55126 9.55166 3.38007 9.1607 3.29578L8.88892 0.888889H7.11626L6.83937 3.27867C6.39151 3.37437 5.97981 3.52852 5.60425 3.74111C5.22885 3.95356 4.85537 4.24556 4.48381 4.61711L2.2667 3.68889L1.38292 5.2L3.31114 6.63933C3.23707 6.83874 3.18522 7.05526 3.15559 7.28889C3.12596 7.52252 3.11114 7.76526 3.11114 8.01711C3.11114 8.24274 3.12596 8.46667 3.15559 8.68889C3.18522 8.91111 3.23137 9.12763 3.29403 9.33844L1.38292 10.8L2.2667 12.3111L4.4667 11.3778C4.81544 11.7299 5.17751 12.0123 5.55292 12.2249C5.92848 12.4373 6.35159 12.6028 6.82226 12.7213L7.11114 15.1111ZM7.97603 10.2222C8.59603 10.2222 9.12144 10.0068 9.55225 9.576C9.98292 9.14533 10.1983 8.62 10.1983 8C10.1983 7.38 9.98292 6.85467 9.55225 6.424C9.12144 5.99319 8.59603 5.77778 7.97603 5.77778C7.35277 5.77778 6.82655 5.99319 6.39737 6.424C5.96833 6.85467 5.75381 7.38 5.75381 8C5.75381 8.62 5.96833 9.14533 6.39737 9.576C6.82655 10.0068 7.35277 10.2222 7.97603 10.2222Z" fill="#1B1B1B"/>
</svg>
