<svg width="24" height="24" viewBox="0 0 24 24" fill="none" xmlns="http://www.w3.org/2000/svg">
<path d="M6.13677 21.1996L11.9977 17.6563L17.8586 21.2429L16.3257 14.5383L21.4884 10.0671L14.6839 9.46216L11.9977 3.16165L9.31146 9.41887L2.507 10.0238L7.66969 14.5317L6.13677 21.1996ZM11.9977 19.3791L5.44411 23.3441C5.28798 23.4115 5.14145 23.4411 5.00454 23.4329C4.86765 23.4248 4.73667 23.3796 4.61159 23.2975C4.48653 23.2154 4.39219 23.1023 4.32855 22.9584C4.26491 22.8145 4.26306 22.6578 4.32301 22.4883L6.05018 15.0634L0.294705 10.0472C0.162986 9.94429 0.0743688 9.81866 0.0288557 9.67026C-0.0166574 9.52189 -0.00833068 9.37334 0.053835 9.22462C0.101195 9.09068 0.178902 8.97967 0.286956 8.89159C0.394981 8.80353 0.53484 8.75137 0.706531 8.73509L8.31464 8.06352L11.2884 1.02152C11.3617 0.873526 11.4592 0.760681 11.5809 0.682988C11.7026 0.605267 11.8416 0.566406 11.9977 0.566406C12.1538 0.566406 12.2928 0.605267 12.4145 0.682988C12.5362 0.760681 12.6337 0.873526 12.707 1.02152L15.6808 8.06352L23.2889 8.73509C23.4606 8.75137 23.6004 8.80353 23.7084 8.89159C23.8165 8.97967 23.9016 9.09068 23.9638 9.22462C24.0111 9.37334 24.0121 9.52189 23.9665 9.67026C23.921 9.81866 23.8324 9.94429 23.7007 10.0472L17.9452 15.0634L19.6946 22.4883C19.7397 22.6578 19.7305 22.8145 19.6669 22.9584C19.6032 23.1023 19.5089 23.2154 19.3838 23.2975C19.2587 23.3796 19.1278 23.4248 18.9909 23.4329C18.854 23.4411 18.7074 23.4115 18.5513 23.3441L11.9977 19.3791Z" fill="#1B1B1B"/>
</svg>
