<svg width="16" height="16" viewBox="0 0 16 16" fill="none" xmlns="http://www.w3.org/2000/svg">
<path d="M7.9768 15.1769C7.83335 15.1769 7.69046 15.1486 7.54814 15.0921C7.4058 15.0355 7.28375 14.9506 7.18199 14.8374L2.2431 9.87618C2.15963 9.78586 2.12048 9.67897 2.12563 9.55549C2.13078 9.43203 2.17851 9.32856 2.26883 9.24509C2.35914 9.16164 2.4669 9.12163 2.59208 9.12507C2.71727 9.12848 2.82159 9.17535 2.90504 9.26567L7.81089 14.2012C7.84132 14.2309 7.86794 14.2495 7.89075 14.2569C7.91356 14.2643 7.94018 14.268 7.97061 14.268C8.00103 14.268 8.02766 14.2643 8.05048 14.2569C8.0733 14.2495 8.09992 14.2309 8.13034 14.2012L13.7398 8.58658C14.1845 8.14186 14.5275 7.64254 14.7687 7.08863C15.0099 6.53471 15.1248 5.9725 15.1134 5.40202C15.0951 4.37652 14.7704 3.50735 14.1393 2.79451C13.5083 2.0817 12.7366 1.72529 11.8242 1.72529C11.3406 1.72529 10.8703 1.82322 10.4133 2.01907C9.95633 2.21493 9.55947 2.50057 9.22273 2.87598L8.41501 3.74543C8.35214 3.82317 8.28411 3.87662 8.21093 3.90576C8.13776 3.93492 8.05978 3.9495 7.97698 3.9495C7.8942 3.9495 7.81141 3.93119 7.72861 3.89455C7.64581 3.85793 7.57336 3.80822 7.51127 3.74543L6.70355 2.87598C6.36858 2.49984 5.97301 2.21231 5.51683 2.01339C5.06067 1.81446 4.58908 1.71499 4.10206 1.71499C3.32234 1.71499 2.64181 1.98566 2.06047 2.52699C1.47911 3.06833 1.10154 3.74657 0.927773 4.56171C0.899192 4.67376 0.832311 4.76437 0.72713 4.83354C0.621948 4.90271 0.513341 4.923 0.401308 4.89442C0.28926 4.86583 0.198651 4.79894 0.129482 4.69376C0.0603119 4.58857 0.0400172 4.47997 0.0685977 4.36793C0.281249 3.39844 0.748561 2.56528 1.47053 1.86846C2.19251 1.17165 3.06928 0.823242 4.10085 0.823242C4.71216 0.823242 5.29934 0.947284 5.86238 1.19537C6.42545 1.44345 6.92934 1.80301 7.37407 2.27405L7.97428 2.90855L8.54019 2.30834C8.99293 1.82589 9.50368 1.45776 10.0725 1.20395C10.6412 0.950146 11.2252 0.823242 11.8242 0.823242C12.9904 0.823242 13.9779 1.27026 14.7867 2.1643C15.5956 3.05833 16 4.13757 16 5.40202C16 6.09598 15.8622 6.76879 15.5867 7.42045C15.3112 8.07211 14.915 8.65803 14.3983 9.17821L8.74428 14.8374C8.63109 14.9506 8.51074 15.0355 8.38324 15.0921C8.25573 15.1486 8.12026 15.1769 7.9768 15.1769ZM7.87996 7.57994H0.445895C0.319565 7.57994 0.213663 7.53715 0.128189 7.45157C0.0427297 7.36601 0 7.25997 0 7.13346C0 7.00695 0.0427297 6.90112 0.128189 6.81596C0.213663 6.73078 0.319565 6.68819 0.445895 6.68819H11.4298C11.7968 6.68819 12.1115 6.557 12.3738 6.29462C12.6362 6.03224 12.7674 5.71755 12.7674 5.35057C12.7674 4.98359 12.6362 4.66891 12.3738 4.40652C12.1115 4.14414 11.7968 4.01295 11.4298 4.01295C11.3178 4.01295 11.2097 4.02781 11.1057 4.05754C11.0017 4.08726 10.901 4.12614 10.8039 4.17416C10.7021 4.25419 10.5911 4.28436 10.4709 4.26467C10.3507 4.24498 10.2531 4.18394 10.1779 4.08155C10.0979 3.9798 10.067 3.86919 10.0853 3.74971C10.1036 3.63024 10.1636 3.53049 10.2654 3.45046C10.446 3.34072 10.633 3.2584 10.8263 3.20351C11.0196 3.14864 11.2208 3.12121 11.4298 3.12121C12.0491 3.12121 12.5754 3.33775 13.0089 3.77084C13.4424 4.20395 13.6592 4.72985 13.6592 5.34854C13.6592 5.96727 13.4424 6.49384 13.0089 6.92827C12.5754 7.36271 12.0491 7.57994 11.4298 7.57994H9.59316C9.75207 7.76286 9.87497 7.96493 9.96185 8.18615C10.0487 8.40737 10.0922 8.65118 10.0922 8.91756C10.0922 9.53683 9.87543 10.0632 9.44194 10.4967C9.00846 10.9302 8.48209 11.1469 7.86282 11.1469C7.65382 11.1469 7.45266 11.1178 7.25933 11.0595C7.06601 11.0012 6.87903 10.9188 6.6984 10.8125C6.59665 10.7325 6.53663 10.6336 6.51833 10.5158C6.50003 10.3981 6.5309 10.2883 6.61094 10.1866C6.69097 10.0848 6.78987 10.024 6.90762 10.0039C7.02538 9.98393 7.13513 10.0139 7.23688 10.094C7.33406 10.142 7.43467 10.1809 7.53871 10.2106C7.64275 10.2403 7.75078 10.2552 7.86282 10.2552C8.2298 10.2552 8.54448 10.124 8.80686 9.8616C9.06924 9.59922 9.20044 9.28454 9.20044 8.91756C9.20044 8.55057 9.07211 8.23589 8.81545 7.97351C8.55877 7.71113 8.24694 7.57994 7.87996 7.57994Z" fill="#1B1B1B"/>
</svg>
