<svg width="24" height="24" viewBox="0 0 24 24" fill="none" xmlns="http://www.w3.org/2000/svg">
<path d="M10.8 22.8002V21.0002L21 21.0002L21 11.8802C21 10.7202 20.75 9.6052 20.25 8.5352C19.75 7.4652 19.08 6.5202 18.24 5.7002C17.4 4.8802 16.44 4.2252 15.36 3.7352C14.28 3.2452 13.16 3.0002 12 3.0002C10.84 3.0002 9.72 3.2452 8.64 3.7352C7.56 4.2252 6.6 4.8802 5.76 5.7002C4.92 6.5202 4.25 7.4652 3.75 8.5352C3.25 9.6052 3 10.7202 3 11.8802L3 19.2002H2.4C1.74 19.2002 1.175 18.9652 0.705 18.4952C0.235 18.0252 0 17.4602 0 16.8002L0 14.4002C0 13.9402 0.11 13.5352 0.33 13.1852C0.55 12.8352 0.84 12.5502 1.2 12.3302L1.29 10.7402C1.47 9.2802 1.885 7.9602 2.535 6.7802C3.185 5.6002 3.995 4.6002 4.965 3.7802C5.935 2.9602 7.025 2.3252 8.235 1.8752C9.445 1.4252 10.7 1.2002 12 1.2002C13.32 1.2002 14.585 1.4252 15.795 1.8752C17.005 2.3252 18.09 2.9652 19.05 3.7952C20.01 4.6252 20.815 5.6252 21.465 6.7952C22.115 7.9652 22.53 9.2702 22.71 10.7102L22.8 12.2702C23.16 12.4502 23.45 12.7152 23.67 13.0652C23.89 13.4152 24 13.8002 24 14.2202V16.9802C24 17.4202 23.89 17.8102 23.67 18.1502C23.45 18.4902 23.16 18.7502 22.8 18.9302V21.0002C22.8 21.4952 22.6237 21.9189 22.2712 22.2714C21.9187 22.6239 21.495 22.8002 21 22.8002L10.8 22.8002ZM8.4 14.1002C8.16 14.1002 7.95 14.0102 7.77 13.8302C7.59 13.6502 7.5 13.4352 7.5 13.1852C7.5 12.9352 7.59 12.7252 7.77 12.5552C7.95 12.3852 8.165 12.3002 8.415 12.3002C8.665 12.3002 8.875 12.3864 9.045 12.5589C9.215 12.7314 9.3 12.9452 9.3 13.2002C9.3 13.4402 9.21375 13.6502 9.04125 13.8302C8.86875 14.0102 8.655 14.1002 8.4 14.1002ZM15.6 14.1002C15.36 14.1002 15.15 14.0102 14.97 13.8302C14.79 13.6502 14.7 13.4352 14.7 13.1852C14.7 12.9352 14.79 12.7252 14.97 12.5552C15.15 12.3852 15.365 12.3002 15.615 12.3002C15.865 12.3002 16.075 12.3864 16.245 12.5589C16.415 12.7314 16.5 12.9452 16.5 13.2002C16.5 13.4402 16.4137 13.6502 16.2412 13.8302C16.0688 14.0102 15.855 14.1002 15.6 14.1002ZM4.83 12.5402C4.75 11.3602 4.915 10.2902 5.325 9.3302C5.735 8.3702 6.285 7.5552 6.975 6.8852C7.665 6.2152 8.46 5.7002 9.36 5.3402C10.26 4.9802 11.16 4.8002 12.06 4.8002C13.88 4.8002 15.41 5.3752 16.65 6.5252C17.89 7.6752 18.65 9.1102 18.93 10.8302C17.05 10.8102 15.395 10.3052 13.965 9.3152C12.535 8.3252 11.43 7.0402 10.65 5.4602C10.33 7.0802 9.655 8.5152 8.625 9.7652C7.595 11.0152 6.33 11.9402 4.83 12.5402Z" fill="#1B1B1B"/>
</svg>
