<svg width="16" height="16" viewBox="0 0 16 16" fill="none" xmlns="http://www.w3.org/2000/svg">
<path d="M11.5556 16C10.3248 16 9.27635 15.567 8.41024 14.7009C7.54416 13.8348 7.11111 12.7863 7.11111 11.5556C7.11111 10.3248 7.54416 9.27635 8.41024 8.41024C9.27635 7.54416 10.3248 7.11111 11.5556 7.11111C12.7863 7.11111 13.8348 7.54416 14.7009 8.41024C15.567 9.27635 16 10.3248 16 11.5556C16 12.7863 15.567 13.8348 14.7009 14.7009C13.8348 15.567 12.7863 16 11.5556 16ZM11.5556 15.1111C12.5333 15.1111 13.3704 14.763 14.0667 14.0667C14.763 13.3704 15.1111 12.5333 15.1111 11.5556C15.1111 10.5778 14.763 9.74074 14.0667 9.04445C13.3704 8.34815 12.5333 8 11.5556 8C10.5778 8 9.74074 8.34815 9.04445 9.04445C8.34815 9.74074 8 10.5778 8 11.5556C8 12.5333 8.34815 13.3704 9.04445 14.0667C9.74074 14.763 10.5778 15.1111 11.5556 15.1111ZM1.43589 14.2222C1.02678 14.2222 0.685185 14.0852 0.411111 13.8111C0.137037 13.537 0 13.1954 0 12.7863V6.68033C0 6.56181 0.0225037 6.42621 0.0675112 6.27351C0.112533 6.1208 0.157267 5.98519 0.201711 5.86667L2.1846 1.43589H1.47009C1.27522 1.43589 1.12393 1.38204 1.01624 1.27436C0.908541 1.16667 0.854689 1.01538 0.854689 0.820511V0.615378C0.854689 0.420504 0.908541 0.269222 1.01624 0.161533C1.12393 0.053844 1.27522 0 1.47009 0H6.52991C6.72479 0 6.87607 0.053844 6.98376 0.161533C7.09146 0.269222 7.14531 0.420504 7.14531 0.615378V0.820511C7.14531 1.01538 7.09146 1.16667 6.98376 1.27436C6.87607 1.38204 6.72479 1.43589 6.52991 1.43589H5.8154L8.0342 6.45469C7.91226 6.52307 7.79089 6.60456 7.67009 6.69913C7.54929 6.79373 7.42906 6.89914 7.3094 7.01538L4.86153 1.43589H3.13847L0.888889 6.52649V12.7863C0.888889 12.9459 0.94017 13.0769 1.04273 13.1795C1.1453 13.2821 1.27635 13.3333 1.43589 13.3333H5.58973C5.62963 13.4963 5.6812 13.6527 5.74444 13.8026C5.80769 13.9524 5.87692 14.0923 5.95213 14.2222H1.43589ZM11.5556 5.88033C11.1727 5.77777 10.8547 5.5715 10.6017 5.26153C10.3487 4.95156 10.2222 4.58803 10.2222 4.17093C10.2222 3.75384 10.3487 3.3903 10.6017 3.08033C10.8547 2.77036 11.1727 2.5641 11.5556 2.46153V5.88033C11.6581 5.49743 11.8644 5.17948 12.1744 4.92649C12.4843 4.6735 12.8479 4.547 13.265 4.547C13.6821 4.547 14.0456 4.6735 14.3556 4.92649C14.6655 5.17948 14.8718 5.49743 14.9744 5.88033H11.5556Z" fill="#1B1B1B"/>
</svg>
