<svg width="16" height="16" viewBox="0 0 16 16" fill="none" xmlns="http://www.w3.org/2000/svg">
<path d="M0.5 16C0.358333 16 0.239583 15.952 0.14375 15.8561C0.0479167 15.7601 0 15.6412 0 15.4993C0 15.3575 0.0479167 15.2388 0.14375 15.1433C0.239583 15.0478 0.358333 15 0.5 15H13.5C13.6417 15 13.7604 15.048 13.8562 15.144C13.9521 15.2399 14 15.3588 14 15.5007C14 15.6425 13.9521 15.7612 13.8562 15.8567C13.7604 15.9522 13.6417 16 13.5 16H0.5ZM3.13463 12.2308C2.26539 12.2308 1.52564 11.9353 0.915375 11.3442C0.305125 10.7532 0 10.0359 0 9.1923V1.1673C0 0.843784 0.113667 0.56835 0.341 0.341C0.56835 0.113667 0.843783 0 1.1673 0H14.3077C14.7731 0 15.1715 0.157366 15.5029 0.472099C15.8343 0.786849 16 1.17435 16 1.6346V3.86537C16 4.32564 15.8343 4.71314 15.5029 5.02787C15.1715 5.34262 14.7731 5.5 14.3077 5.5H12.3077V9.1923C12.3077 10.0359 12.0026 10.7532 11.3923 11.3442C10.7821 11.9353 10.0423 12.2308 9.17307 12.2308H3.13463ZM3.13463 1H11.3077H1H3.13463ZM12.3077 4.5H14.3077C14.5 4.5 14.6635 4.4391 14.7981 4.3173C14.9327 4.19552 15 4.04487 15 3.86537V1.6346C15 1.45512 14.9327 1.30448 14.7981 1.1827C14.6635 1.0609 14.5 1 14.3077 1H12.3077V4.5ZM9.17307 11.2308C9.76009 11.2308 10.2626 11.0304 10.6807 10.6297C11.0987 10.229 11.3077 9.74731 11.3077 9.18463V1H4.88463V2.16922L6.41537 3.42693C6.44871 3.46026 6.51537 3.59359 6.61538 3.82693V6.84615C6.61538 6.97948 6.56537 7.09615 6.46537 7.19615C6.36538 7.29615 6.24871 7.34615 6.11538 7.34615H2.88463C2.75129 7.34615 2.63463 7.29615 2.53463 7.19615C2.43463 7.09615 2.38463 6.97948 2.38463 6.84615V3.82693C2.38463 3.79359 2.45129 3.66026 2.58463 3.42693L4.11538 2.16922V1H1V9.18463C1 9.74731 1.20902 10.229 1.62705 10.6297C2.04507 11.0304 2.54759 11.2308 3.13463 11.2308H9.17307Z" fill="#1B1B1B"/>
</svg>
