<svg width="24" height="24" viewBox="0 0 24 24" fill="none" xmlns="http://www.w3.org/2000/svg">
<path d="M12.5966 11.7607V5.7624C12.5966 5.59858 12.5434 5.4636 12.4371 5.35747C12.3308 5.25136 12.1957 5.1983 12.0316 5.1983C11.8675 5.1983 11.7326 5.25136 11.6269 5.35747C11.5212 5.4636 11.4684 5.59858 11.4684 5.7624V11.8436C11.4684 11.9729 11.4914 12.0943 11.5376 12.2077C11.5838 12.3211 11.6558 12.4285 11.7538 12.5299L16.6 17.4359C16.7066 17.5459 16.8416 17.6043 17.0051 17.6111C17.1687 17.6179 17.3123 17.5595 17.4359 17.4359C17.5595 17.3123 17.6214 17.1738 17.6214 17.0205C17.6214 16.8672 17.5595 16.7345 17.4359 16.6222L12.5966 11.7607ZM12.0045 24C10.3485 24 8.79294 23.6851 7.33783 23.0554C5.8827 22.4256 4.61112 21.5672 3.5231 20.4802C2.43508 19.3932 1.57589 18.1228 0.945533 16.669C0.315178 15.2153 0 13.6604 0 12.0045C0 10.3485 0.314878 8.79294 0.944634 7.33783C1.57441 5.8827 2.4328 4.61112 3.5198 3.5231C4.6068 2.43508 5.87719 1.57589 7.33097 0.945534C8.78472 0.315179 10.3396 0 11.9955 0C13.6515 0 15.2071 0.314877 16.6622 0.944633C18.1173 1.57441 19.3889 2.4328 20.4769 3.5198C21.5649 4.6068 22.4241 5.87719 23.0545 7.33097C23.6848 8.78472 24 10.3396 24 11.9955C24 13.6515 23.6851 15.2071 23.0554 16.6622C22.4256 18.1173 21.5672 19.3889 20.4802 20.4769C19.3932 21.5649 18.1228 22.4241 16.669 23.0545C15.2153 23.6848 13.6604 24 12.0045 24ZM12 22.8718C15.0023 22.8718 17.5648 21.8104 19.6876 19.6876C21.8104 17.5648 22.8718 15.0023 22.8718 12C22.8718 8.99771 21.8104 6.43518 19.6876 4.3124C17.5648 2.1896 15.0023 1.1282 12 1.1282C8.99771 1.1282 6.43518 2.1896 4.3124 4.3124C2.1896 6.43518 1.1282 8.99771 1.1282 12C1.1282 15.0023 2.1896 17.5648 4.3124 19.6876C6.43518 21.8104 8.99771 22.8718 12 22.8718Z" fill="#1B1B1B"/>
</svg>
