<svg width="24" height="24" viewBox="0 0 24 24" fill="none" xmlns="http://www.w3.org/2000/svg">
<path d="M5.9487 22.6667C5.42163 22.6667 4.96509 22.4736 4.57907 22.0876C4.19302 21.7016 4 21.245 4 20.718V6.46153C4 5.92607 4.18237 5.47596 4.5471 5.1112C4.91186 4.74647 5.36197 4.5641 5.89743 4.5641H8.66667V1.02563C8.66667 0.750233 8.76876 0.510444 8.97293 0.306266C9.17711 0.102089 9.4169 0 9.6923 0H14.3077C14.5831 0 14.8229 0.102089 15.0271 0.306266C15.2312 0.510444 15.3333 0.750233 15.3333 1.02563V4.5641H18.0513C18.5784 4.5641 19.0349 4.75712 19.4209 5.14317C19.807 5.52921 20 5.98575 20 6.5128V20.718C20 21.245 19.807 21.7016 19.4209 22.0876C19.0349 22.4736 18.5784 22.6667 18.0513 22.6667V22.9744C18.0513 23.2496 17.9492 23.4893 17.7449 23.6936C17.5406 23.8979 17.3009 24 17.0257 24C16.7504 24 16.5107 23.8979 16.3064 23.6936C16.1021 23.4893 16 23.2496 16 22.9744V22.6667H8V22.9744C8 23.2496 7.89786 23.4893 7.69357 23.6936C7.4893 23.8979 7.24956 24 6.97433 24C6.69913 24 6.45939 23.8979 6.2551 23.6936C6.05083 23.4893 5.9487 23.2496 5.9487 22.9744V22.6667ZM5.9487 21.5385H18.0513C18.2906 21.5385 18.4872 21.4615 18.641 21.3077C18.7949 21.1539 18.8718 20.9573 18.8718 20.718V6.5128C18.8718 6.27349 18.7949 6.07691 18.641 5.92307C18.4872 5.76922 18.2906 5.6923 18.0513 5.6923H5.9487C5.70939 5.6923 5.51281 5.76922 5.35897 5.92307C5.20512 6.07691 5.1282 6.27349 5.1282 6.5128V20.718C5.1282 20.9573 5.20512 21.1539 5.35897 21.3077C5.51281 21.4615 5.70939 21.5385 5.9487 21.5385ZM7.71677 18.9744C7.8583 18.9744 7.97508 18.9286 8.0671 18.8372C8.15912 18.7457 8.20513 18.6291 8.20513 18.4872V8.7436C8.20513 8.60171 8.15952 8.48504 8.0683 8.3936C7.97706 8.30213 7.86067 8.2564 7.71913 8.2564C7.5776 8.2564 7.46082 8.30213 7.3688 8.3936C7.27678 8.48504 7.23077 8.60171 7.23077 8.7436V18.4872C7.23077 18.6291 7.27638 18.7457 7.3676 18.8372C7.45885 18.9286 7.57523 18.9744 7.71677 18.9744ZM11.9988 18.9744C12.1403 18.9744 12.2571 18.9286 12.3491 18.8372C12.4412 18.7457 12.4872 18.6291 12.4872 18.4872V8.7436C12.4872 8.60171 12.4416 8.48504 12.3503 8.3936C12.2591 8.30213 12.1427 8.2564 12.0012 8.2564C11.8597 8.2564 11.7429 8.30213 11.6509 8.3936C11.5588 8.48504 11.5128 8.60171 11.5128 8.7436V18.4872C11.5128 18.6291 11.5584 18.7457 11.6497 18.8372C11.7409 18.9286 11.8573 18.9744 11.9988 18.9744ZM16.2809 18.9744C16.4224 18.9744 16.5392 18.9286 16.6312 18.8372C16.7232 18.7457 16.7692 18.6291 16.7692 18.4872V8.7436C16.7692 8.60171 16.7236 8.48504 16.6324 8.3936C16.5412 8.30213 16.4248 8.2564 16.2832 8.2564C16.1417 8.2564 16.0249 8.30213 15.9329 8.3936C15.8409 8.48504 15.7949 8.60171 15.7949 8.7436V18.4872C15.7949 18.6291 15.8405 18.7457 15.9317 18.8372C16.0229 18.9286 16.1393 18.9744 16.2809 18.9744ZM9.64103 4.5641H14.359V0.974333H9.64103V4.5641Z" fill="#1B1B1B"/>
</svg>
