<svg width="16" height="16" viewBox="0 0 16 16" fill="none" xmlns="http://www.w3.org/2000/svg">
<path d="M3.459 11.3847C2.81456 11.3847 2.32222 11.515 1.982 11.7757C1.64178 12.0363 1.28456 12.2393 0.910333 12.3847C0.672778 12.4616 0.461667 12.4458 0.277 12.3373C0.0923333 12.2287 0 12.0572 0 11.823C0 11.6608 0.0546666 11.5096 0.164 11.3693C0.273556 11.2291 0.442778 11.0974 0.671667 10.9743C0.885444 10.8392 1.244 10.6517 1.74733 10.4117C2.25089 10.1714 2.84022 10.0513 3.51533 10.0513C4.58378 10.0513 5.34189 10.2736 5.78967 10.718C6.23767 11.1624 6.89833 11.3847 7.77167 11.3847C8.64522 11.3847 9.30044 11.1624 9.73733 10.718C10.174 10.2736 10.9342 10.0513 12.018 10.0513C13.1018 10.0513 13.8671 10.2736 14.314 10.718C14.7611 11.1624 15.4214 11.3847 16.295 11.3847C17.1683 11.3847 17.8196 11.1624 18.2487 10.718C18.6778 10.2736 19.4317 10.0513 20.5103 10.0513C21.1239 10.0513 21.6867 10.168 22.1987 10.4013C22.7107 10.6347 23.1171 10.8393 23.418 11.0153C23.6144 11.1162 23.7606 11.2368 23.8563 11.377C23.9521 11.5172 24 11.6659 24 11.823C24 12.0401 23.912 12.2072 23.736 12.3243C23.5598 12.4414 23.3529 12.4616 23.1153 12.3847C22.758 12.2564 22.3909 12.0577 22.014 11.7883C21.6371 11.5192 21.1376 11.3847 20.5153 11.3847C19.6589 11.3847 19.0038 11.6069 18.55 12.0513C18.0962 12.4958 17.336 12.718 16.2693 12.718C15.2027 12.718 14.4458 12.4958 13.9987 12.0513C13.5518 11.6069 12.8916 11.3847 12.018 11.3847C11.1444 11.3847 10.485 11.6069 10.0397 12.0513C9.59433 12.4958 8.83578 12.718 7.764 12.718C6.69222 12.718 5.92644 12.4958 5.46667 12.0513C5.00689 11.6069 4.33767 11.3847 3.459 11.3847ZM3.459 6.359C2.81967 6.359 2.32867 6.48933 1.986 6.75C1.64311 7.01067 1.28456 7.21367 0.910333 7.359C0.672778 7.43589 0.461667 7.42011 0.277 7.31167C0.0923333 7.203 0 7.03156 0 6.79733C0 6.63511 0.0546666 6.48389 0.164 6.34367C0.273556 6.20345 0.442778 6.07178 0.671667 5.94867C0.885444 5.81378 1.244 5.62622 1.74733 5.386C2.25089 5.14578 2.84022 5.02567 3.51533 5.02567C4.58378 5.02567 5.34189 5.24789 5.78967 5.69233C6.23767 6.13678 6.89833 6.359 7.77167 6.359C8.64522 6.359 9.30044 6.13678 9.73733 5.69233C10.174 5.24789 10.9342 5.02567 12.018 5.02567C13.1018 5.02567 13.8671 5.24789 14.314 5.69233C14.7611 6.13678 15.4189 6.359 16.2873 6.359C17.1556 6.359 17.8068 6.13678 18.241 5.69233C18.6752 5.24789 19.4291 5.02567 20.5027 5.02567C21.1778 5.02567 21.7713 5.15 22.2833 5.39867C22.7953 5.64733 23.1581 5.83922 23.3717 5.97433C23.5888 6.08544 23.7478 6.20978 23.8487 6.34733C23.9496 6.48511 24 6.63511 24 6.79733C24 7.01445 23.9107 7.18156 23.732 7.29867C23.5533 7.41578 23.3452 7.43589 23.1077 7.359C22.7503 7.23078 22.3846 7.03211 22.0103 6.763C21.6359 6.49367 21.1376 6.359 20.5153 6.359C19.6589 6.359 19.0038 6.58122 18.55 7.02567C18.0962 7.47011 17.336 7.69233 16.2693 7.69233C15.2027 7.69233 14.4458 7.47011 13.9987 7.02567C13.5518 6.58122 12.8916 6.359 12.018 6.359C11.1444 6.359 10.4876 6.58122 10.0473 7.02567C9.60733 7.47011 8.85133 7.69233 7.77933 7.69233C6.70756 7.69233 5.938 7.47011 5.47067 7.02567C5.00311 6.58122 4.33256 6.359 3.459 6.359ZM3.48467 1.33333C2.86244 1.33333 2.36711 1.45945 1.99867 1.71167C1.63022 1.96367 1.26744 2.15378 0.910333 2.282C0.672778 2.35889 0.461667 2.34311 0.277 2.23467C0.0923333 2.126 0 1.96322 0 1.74633C0 1.58389 0.0546666 1.43678 0.164 1.305C0.273556 1.17345 0.442778 1.04611 0.671667 0.923C0.885444 0.788111 1.244 0.600555 1.74733 0.360333C2.25089 0.120111 2.84022 0 3.51533 0C4.58378 0 5.34189 0.222222 5.78967 0.666667C6.23767 1.11111 6.89833 1.33333 7.77167 1.33333C8.64522 1.33333 9.30044 1.11111 9.73733 0.666667C10.174 0.222222 10.9342 0 12.018 0C13.1018 0 13.8671 0.222222 14.314 0.666667C14.7611 1.11111 15.4189 1.33333 16.2873 1.33333C17.1556 1.33333 17.8068 1.11111 18.241 0.666667C18.6752 0.222222 19.4291 0 20.5027 0C21.1778 0 21.7713 0.124333 22.2833 0.373C22.7953 0.621889 23.1581 0.813779 23.3717 0.948667C23.5888 1.05978 23.7478 1.18411 23.8487 1.32167C23.9496 1.45945 24 1.60945 24 1.77167C24 1.98878 23.9107 2.15589 23.732 2.273C23.5533 2.39011 23.3452 2.41022 23.1077 2.33333C22.7503 2.20511 22.3846 2.00644 22.0103 1.73733C21.6359 1.468 21.1376 1.33333 20.5153 1.33333C19.6589 1.33333 19.0038 1.55556 18.55 2C18.0962 2.44444 17.336 2.66667 16.2693 2.66667C15.2027 2.66667 14.4458 2.44444 13.9987 2C13.5518 1.55556 12.8916 1.33333 12.018 1.33333C11.1444 1.33333 10.4876 1.55556 10.0473 2C9.60733 2.44444 8.85133 2.66667 7.77933 2.66667C6.70756 2.66667 5.94222 2.44444 5.48333 2C5.02444 1.55556 4.35822 1.33333 3.48467 1.33333Z" fill="#792A85"/>
</svg>
