<svg width="16" height="16" viewBox="0 0 16 16" fill="none" xmlns="http://www.w3.org/2000/svg">
<path d="M10.86 13.7059C10.3005 13.7059 9.82617 13.5113 9.43691 13.122C9.04766 12.7327 8.85304 12.2584 8.85304 11.699C8.85304 11.148 9.04766 10.6781 9.43691 10.2892C9.82617 9.90034 10.3005 9.7059 10.86 9.7059C11.4194 9.7059 11.8914 9.90034 12.2761 10.2892C12.6607 10.6781 12.853 11.148 12.853 11.699C12.853 12.2584 12.6607 12.7327 12.2761 13.122C11.8914 13.5113 11.4194 13.7059 10.86 13.7059ZM10.8537 8.70589C10.7725 8.70589 10.7056 8.67967 10.6528 8.62722C10.6 8.57476 10.5736 8.50785 10.5736 8.42649V7.69118C10.5736 7.60981 10.5998 7.54289 10.6521 7.49045C10.7044 7.438 10.7712 7.41178 10.8523 7.41178C10.9335 7.41178 11.0005 7.438 11.0533 7.49045C11.106 7.54289 11.1324 7.60981 11.1324 7.69118V8.42649C11.1324 8.50785 11.1063 8.57476 11.054 8.62722C11.0016 8.67967 10.9349 8.70589 10.8537 8.70589ZM10.8523 14.7059C10.9335 14.7059 11.0005 14.7321 11.0533 14.7846C11.106 14.837 11.1324 14.9039 11.1324 14.9853V15.7206C11.1324 15.802 11.1063 15.8689 11.054 15.9213C11.0016 15.9738 10.9349 16 10.8537 16C10.7725 16 10.7056 15.9738 10.6528 15.9213C10.6 15.8689 10.5736 15.802 10.5736 15.7206V14.9853C10.5736 14.9039 10.5998 14.837 10.6521 14.7846C10.7044 14.7321 10.7712 14.7059 10.8523 14.7059ZM12.9726 9.57356C12.9161 9.51703 12.8878 9.45191 12.8878 9.37822C12.8878 9.30453 12.9161 9.23941 12.9726 9.18288L13.4991 8.65639C13.5524 8.60967 13.6164 8.58247 13.6913 8.57478C13.7661 8.5671 13.8351 8.59479 13.8981 8.65787C13.9547 8.72094 13.9829 8.78957 13.9829 8.86374C13.9829 8.93793 13.9547 9.0033 13.8981 9.05983L13.3717 9.5863C13.3184 9.63303 13.2543 9.65836 13.1795 9.66229C13.1047 9.6662 13.0357 9.63663 12.9726 9.57356ZM8.73686 13.8221C8.79992 13.8852 8.83145 13.9517 8.83145 14.0216C8.83145 14.0915 8.79992 14.158 8.73686 14.2211L8.20401 14.7539C8.15252 14.8072 8.09136 14.8339 8.02054 14.8339C7.94972 14.8339 7.88276 14.8072 7.81969 14.7539C7.75663 14.7007 7.72754 14.6366 7.73244 14.5618C7.73734 14.487 7.76643 14.418 7.81969 14.3549L8.35059 13.8221C8.39624 13.7675 8.45626 13.7402 8.53066 13.7402C8.60505 13.7402 8.67378 13.7675 8.73686 13.8221ZM13.853 11.7066C13.853 11.6254 13.8793 11.5584 13.9317 11.5057C13.9842 11.4529 14.0511 11.4265 14.1324 11.4265H14.8677C14.9491 11.4265 15.016 11.4526 15.0685 11.505C15.1209 11.5573 15.1471 11.624 15.1471 11.7052C15.1471 11.7864 15.1209 11.8533 15.0685 11.9061C15.016 11.9589 14.9491 11.9853 14.8677 11.9853H14.1324C14.0511 11.9853 13.9842 11.9591 13.9317 11.9068C13.8793 11.8545 13.853 11.7878 13.853 11.7066ZM7.85303 11.7052C7.85303 11.7864 7.82681 11.8533 7.77436 11.9061C7.7219 11.9589 7.65499 11.9853 7.57363 11.9853H6.83832C6.75695 11.9853 6.69003 11.9591 6.63759 11.9068C6.58514 11.8545 6.55892 11.7878 6.55892 11.7066C6.55892 11.6254 6.58514 11.5584 6.63759 11.5057C6.69003 11.4529 6.75695 11.4265 6.83832 11.4265H7.57363C7.65499 11.4265 7.7219 11.4526 7.77436 11.505C7.82681 11.5573 7.85303 11.624 7.85303 11.7052ZM12.9854 13.8191C13.0419 13.7561 13.1068 13.7248 13.18 13.7252C13.2532 13.7257 13.3213 13.757 13.3844 13.8191L13.9025 14.3358C13.9493 14.3891 13.9751 14.4531 13.98 14.5279C13.9849 14.6028 13.9591 14.6717 13.9025 14.7348C13.8395 14.7979 13.7727 14.8294 13.7023 14.8294C13.6319 14.8294 13.5651 14.7979 13.502 14.7348L12.9854 14.2083C12.9287 14.1607 12.8988 14.0981 12.8956 14.0204C12.8924 13.9428 12.9223 13.8757 12.9854 13.8191ZM8.73391 9.57354C8.67084 9.63661 8.60409 9.66814 8.53368 9.66814C8.46325 9.66814 8.39649 9.63661 8.33342 9.57354L7.81969 9.05982C7.76305 9.00565 7.73312 8.94137 7.72991 8.86699C7.7267 8.7926 7.75663 8.72387 7.81969 8.66079C7.88276 8.60425 7.94927 8.57623 8.0192 8.57673C8.08913 8.57722 8.15564 8.60524 8.21871 8.66079L8.73391 9.17452C8.78718 9.22778 8.81463 9.29346 8.81627 9.37157C8.8179 9.44968 8.79045 9.51701 8.73391 9.57354ZM1.97066 13.9412C1.65596 13.9412 1.39101 13.8336 1.17581 13.6184C0.960622 13.4032 0.853027 13.1382 0.853027 12.8235V2.70587C0.853027 2.39117 0.960622 2.12622 1.17581 1.91102C1.39101 1.69583 1.65596 1.58824 1.97066 1.58824H3.47557V0.368627C3.47557 0.264385 3.50951 0.176883 3.57739 0.106123C3.64527 0.0353745 3.73162 0 3.83645 0C3.94129 0 4.02909 0.0353745 4.09983 0.106123C4.17058 0.176883 4.20596 0.264385 4.20596 0.368627V1.58824H9.79422V0.339224C9.79422 0.236766 9.82519 0.154618 9.88713 0.0927785C9.94907 0.0309265 10.0313 0 10.1339 0C10.23 0 10.311 0.0309265 10.3768 0.0927785C10.4427 0.154618 10.4756 0.236766 10.4756 0.339224V1.58824H11.9707C12.2854 1.58824 12.5503 1.69583 12.7655 1.91102C12.9807 2.12622 13.0883 2.39117 13.0883 2.70587V5.94117H1.50008V12.8235C1.50008 12.9412 1.5491 13.049 1.64714 13.1471C1.74517 13.2451 1.85301 13.2941 1.97066 13.2941H4.76478C4.85874 13.2941 4.93616 13.3246 4.99703 13.3856C5.05788 13.4465 5.08831 13.5241 5.08831 13.6182C5.08831 13.7123 5.05788 13.7896 4.99703 13.8503C4.93616 13.9109 4.85874 13.9412 4.76478 13.9412H1.97066Z" fill="#1B1B1B"/>
</svg>
