<svg width="24" height="24" viewBox="0 0 24 24" fill="none" xmlns="http://www.w3.org/2000/svg">
<path d="M12.0079 16.3858C13.2189 16.3858 14.2513 15.9563 15.1051 15.0971C15.959 14.2379 16.3859 13.2029 16.3859 11.992C16.3859 10.781 15.9564 9.74865 15.0972 8.89478C14.238 8.04091 13.203 7.61398 11.9921 7.61398C10.7811 7.61398 9.74874 8.04356 8.89487 8.90272C8.04101 9.7619 7.61407 10.7969 7.61407 12.0078C7.61407 13.2188 8.04365 14.2512 8.90281 15.105C9.76199 15.9589 10.797 16.3858 12.0079 16.3858ZM11.9924 15.3452C11.0611 15.3452 10.272 15.0192 9.62509 14.3672C8.9782 13.7153 8.65476 12.9237 8.65476 11.9923C8.65476 11.061 8.98072 10.2719 9.63266 9.625C10.2846 8.97811 11.0762 8.65466 12.0076 8.65466C12.9389 8.65466 13.728 8.98063 14.3749 9.63257C15.0218 10.2845 15.3452 11.0761 15.3452 12.0075C15.3452 12.9388 15.0193 13.728 14.3673 14.3748C13.7154 15.0217 12.9238 15.3452 11.9924 15.3452ZM12.0015 19.97C9.4774 19.97 7.15922 19.3044 5.04696 17.9732C2.93469 16.6419 1.29766 14.8565 0.13586 12.6167C0.0893062 12.5309 0.0550244 12.435 0.0330146 12.3289C0.0110048 12.2227 0 12.1131 0 11.9999C0 11.8867 0.0110048 11.7771 0.0330146 11.671C0.0550244 11.5649 0.0893062 11.4689 0.13586 11.3831C1.29766 9.14335 2.9342 7.35787 5.04549 6.02664C7.15675 4.6954 9.47443 4.02979 11.9985 4.02979C14.5226 4.02979 16.8408 4.6954 18.953 6.02664C21.0653 7.35787 22.7023 9.14335 23.8641 11.3831C23.9107 11.4689 23.945 11.5649 23.967 11.671C23.989 11.7771 24 11.8867 24 11.9999C24 12.1131 23.989 12.2227 23.967 12.3289C23.945 12.435 23.9107 12.5309 23.8641 12.6167C22.7023 14.8565 21.0658 16.6419 18.9545 17.9732C16.8433 19.3044 14.5256 19.97 12.0015 19.97ZM11.9966 18.9325C14.3647 18.9325 16.5359 18.3072 18.5101 17.0567C20.4843 15.8062 21.9923 14.1206 23.034 11.9999C21.9923 9.87926 20.4855 8.19366 18.5136 6.94311C16.5417 5.69258 14.3716 5.06731 12.0034 5.06731C9.63527 5.06731 7.46408 5.69258 5.48988 6.94311C3.51568 8.19366 2.00615 9.87926 0.961289 11.9999C2.00615 14.1206 3.51454 15.8062 5.48645 17.0567C7.45834 18.3072 9.62838 18.9325 11.9966 18.9325Z" fill="#1B1B1B"/>
</svg>
