<svg width="24" height="24" viewBox="0 0 24 24" fill="none" xmlns="http://www.w3.org/2000/svg">
<path d="M16.0919 12.5698L15.2446 11.7224C15.5344 10.4926 15.2284 9.46894 14.3266 8.65149C13.4247 7.83404 12.4333 7.56024 11.3523 7.8301L10.505 6.98279C10.7109 6.88845 10.9366 6.81587 11.1821 6.76505C11.4276 6.71422 11.7002 6.68881 12 6.68881C13.2267 6.68881 14.2644 7.11313 15.113 7.96176C15.9616 8.81038 16.3859 9.84804 16.3859 11.0747C16.3859 11.3745 16.3597 11.6557 16.3073 11.9185C16.2549 12.1813 16.1831 12.3984 16.0919 12.5698ZM19.9733 16.3677L19.2077 15.6855C20.0503 15.0499 20.7971 14.3481 21.4482 13.5802C22.0993 12.8122 22.6279 11.9771 23.034 11.0747C22.0122 8.9478 20.5226 7.26063 18.5651 6.01322C16.6077 4.76583 14.4508 4.14214 12.0943 4.14214C11.4189 4.14214 10.7463 4.19717 10.0766 4.30722C9.40693 4.41724 8.79934 4.55872 8.25384 4.73166L7.45054 3.92364C8.12285 3.65797 8.86406 3.45504 9.67418 3.31487C10.4843 3.1747 11.2779 3.10461 12.055 3.10461C14.5383 3.10461 16.8478 3.77285 18.9837 5.10932C21.1195 6.4458 22.7484 8.22835 23.8703 10.4569C23.9159 10.5434 23.9489 10.6389 23.9693 10.7434C23.9898 10.848 24 10.9584 24 11.0747C24 11.1911 23.9894 11.3023 23.9681 11.4084C23.9469 11.5145 23.9143 11.6108 23.8703 11.6973C23.4118 12.5896 22.8586 13.4262 22.2106 14.207C21.5627 14.9878 20.8169 15.708 19.9733 16.3677ZM21.3189 22.4341L16.9204 18.0702C16.3781 18.3307 15.6784 18.5582 14.8214 18.7529C13.9644 18.9475 13.0239 19.0449 12 19.0449C9.46536 19.0449 7.13772 18.3766 5.01708 17.0402C2.89643 15.7037 1.26729 13.9211 0.129668 11.6926C0.084095 11.6029 0.0510906 11.5067 0.0306544 11.4037C0.0102181 11.3007 0 11.1911 0 11.0747C0 10.9584 0.0109946 10.845 0.032984 10.7344C0.0549938 10.6238 0.0872217 10.5306 0.129668 10.4546C0.621711 9.48778 1.23768 8.57758 1.97757 7.72398C2.71747 6.87038 3.51421 6.12813 4.36782 5.49722L1.16171 2.30444C1.06372 2.20645 1.01079 2.08763 1.00292 1.94799C0.99505 1.80835 1.04876 1.68088 1.16404 1.56558C1.27777 1.45187 1.4017 1.39502 1.53584 1.39502C1.66999 1.39502 1.79391 1.45187 1.90762 1.56558L22.0578 21.7157C22.1526 21.8106 22.2017 21.9244 22.2052 22.0573C22.2085 22.1901 22.1594 22.3141 22.0578 22.4294C21.9472 22.5463 21.8249 22.6047 21.6907 22.6047C21.5566 22.6047 21.4326 22.5479 21.3189 22.4341ZM5.08623 6.23608C4.33743 6.7496 3.56373 7.45229 2.76515 8.34415C1.96656 9.236 1.36526 10.1462 0.961259 11.0747C1.98622 13.2017 3.48396 14.8889 5.45448 16.1363C7.42501 17.3837 9.6299 18.0074 12.0692 18.0074C12.8698 18.0074 13.6682 17.9336 14.4641 17.7861C15.2601 17.6386 15.8273 17.4818 16.1659 17.3157L13.9084 15.0535C13.7046 15.1683 13.4124 15.2648 13.032 15.3432C12.6516 15.4215 12.3076 15.4607 12 15.4607C10.7764 15.4607 9.73955 15.0371 8.88936 14.1901C8.03916 13.343 7.61405 12.3046 7.61405 11.0747C7.61405 10.7797 7.65322 10.4475 7.73155 10.0781C7.8099 9.70866 7.90645 9.40474 8.0212 9.16633L5.08623 6.23608Z" fill="#1B1B1B"/>
</svg>
