<svg width="127" height="127" viewBox="0 0 127 127" fill="none" xmlns="http://www.w3.org/2000/svg">
<circle cx="63.4999" cy="63.5004" r="63.1098" fill="#FEF5FF"/>
<path d="M37.0876 88.1791L61.2484 79.6115L45.6553 64.0183L37.0876 88.1791ZM93.3506 49.8817C93.0564 50.2198 92.7094 50.3889 92.3096 50.3889C91.9098 50.3889 91.5628 50.2418 91.2686 49.9477L91.0775 49.7566C90.014 48.6931 88.7509 48.1613 87.2881 48.1613C85.8247 48.1613 84.5613 48.6931 83.4977 49.7566L66.1714 67.083C65.8772 67.3771 65.5302 67.5353 65.1304 67.5576C64.7306 67.5793 64.3616 67.4211 64.0235 67.083C63.6848 66.7448 63.5154 66.3867 63.5154 66.0086C63.5154 65.631 63.6848 65.2729 64.0235 64.9342L81.3498 47.6078C82.9577 46 84.9151 45.196 87.2221 45.196C89.5285 45.196 91.4857 46 93.0935 47.6078L93.3506 47.8649C93.6453 48.1596 93.7926 48.4957 93.7926 48.8733C93.7926 49.2514 93.6453 49.5875 93.3506 49.8817ZM52.6482 40.4573C52.9863 40.1191 53.3445 39.9501 53.7226 39.9501C54.1001 39.9501 54.458 40.1191 54.7961 40.4573L55.8182 41.4785C57.646 43.3063 58.5599 45.5208 58.5599 48.1219C58.5599 50.723 57.646 52.9375 55.8182 54.7653L54.8364 55.7471C54.5416 56.0418 54.1944 56.2 53.7945 56.2218C53.3947 56.2435 53.0257 56.0852 52.6876 55.7471C52.3495 55.409 52.1804 55.0508 52.1804 54.6727C52.1804 54.2952 52.3495 53.937 52.6876 53.5983L53.6695 52.6165C54.9083 51.3776 55.5278 49.8794 55.5278 48.1219C55.5278 46.3644 54.9083 44.8662 53.6695 43.6273L52.6482 42.606C52.3535 42.3113 52.1952 41.964 52.1735 41.5642C52.1513 41.1644 52.3095 40.7954 52.6482 40.4573ZM65.2092 35.4486C65.5479 35.1105 65.9061 34.9414 66.2836 34.9414C66.6617 34.9414 67.0199 35.1105 67.358 35.4486L70.9761 39.0667C72.628 40.7186 73.4539 42.698 73.4539 45.005C73.4539 47.3114 72.628 49.2905 70.9761 50.9424L60.5039 61.4155C60.2097 61.7096 59.8627 61.8676 59.4629 61.8893C59.0631 61.9115 58.6938 61.7536 58.3551 61.4155C58.017 61.0768 57.8479 60.7186 57.8479 60.3411C57.8479 59.963 58.017 59.6048 58.3551 59.2667L68.8274 48.7945C69.8909 47.7309 70.4226 46.4678 70.4226 45.005C70.4226 43.5416 69.8909 42.2785 68.8274 41.2155L65.2092 37.5974C64.9151 37.3027 64.7569 36.9554 64.7346 36.5556C64.7129 36.1557 64.8711 35.7867 65.2092 35.4486ZM86.5624 72.7505C86.2243 73.0892 85.8664 73.2585 85.4889 73.2585C85.1107 73.2585 84.7526 73.0892 84.4145 72.7505L82.7729 71.1098C81.4901 69.8269 79.9413 69.1855 78.1267 69.1855C76.3121 69.1855 74.7633 69.8269 73.4804 71.1098L71.8397 72.7505C71.545 73.0452 71.1977 73.2034 70.7979 73.2251C70.3981 73.2474 70.0291 73.0892 69.691 72.7505C69.3528 72.4123 69.1838 72.0542 69.1838 71.6761C69.1838 71.2985 69.3528 70.9407 69.691 70.6026L71.3325 68.961C73.2037 67.0893 75.4684 66.1534 78.1267 66.1534C80.7849 66.1534 83.0499 67.0893 84.9217 68.961L86.5624 70.6026C86.8571 70.8967 87.0153 71.2437 87.037 71.6435C87.0593 72.0434 86.9011 72.4123 86.5624 72.7505ZM33.3838 88.2845L42.8939 61.8567C43.1355 61.2461 43.4902 60.7846 43.958 60.4722C44.4264 60.1603 44.9373 60.0044 45.4908 60.0044C45.8597 60.0044 46.2002 60.0572 46.512 60.1629C46.8239 60.2685 47.1292 60.4707 47.4279 60.7695L64.4981 77.8388C64.7968 78.1375 64.9988 78.4428 65.1038 78.7547C65.2095 79.0666 65.2623 79.407 65.2623 79.776C65.2623 80.33 65.1064 80.8409 64.7946 81.3087C64.4827 81.7765 64.0212 82.1312 63.41 82.3728L36.9822 91.8829C36.4288 92.0805 35.8927 92.1125 35.3741 91.9789C34.856 91.8446 34.4122 91.593 34.0427 91.2241C33.6737 90.8551 33.4224 90.4113 33.2887 89.8926C33.1545 89.374 33.1862 88.838 33.3838 88.2845Z" fill="#792A85"/>
</svg>
