<svg width="25" height="20" viewBox="0 0 25 20" fill="none" xmlns="http://www.w3.org/2000/svg">
<path d="M12.6205 19.8251C12.4775 19.8251 12.3317 19.8067 12.1831 19.7699C12.0347 19.7329 11.9013 19.6798 11.7829 19.6106C10.9013 19.0952 9.98365 18.7114 9.02985 18.4592C8.07605 18.2068 7.08835 18.0806 6.06675 18.0806C5.44215 18.0806 4.82865 18.1329 4.22625 18.2375C3.62405 18.3421 3.03755 18.5098 2.46675 18.7406C2.03135 18.9144 1.62255 18.8659 1.24035 18.5951C0.857948 18.3245 0.666748 17.9515 0.666748 17.4761V5.92372C0.666748 5.62672 0.748648 5.35902 0.912448 5.12062C1.07625 4.88222 1.29125 4.71302 1.55745 4.61302C2.26205 4.30222 2.99515 4.06912 3.75675 3.91372C4.51835 3.75832 5.28835 3.68062 6.06675 3.68062C7.24215 3.68062 8.38095 3.86142 9.48315 4.22302C10.5855 4.58442 11.6467 5.06512 12.6667 5.66512V18.7082C13.6713 18.0682 14.7375 17.6036 15.8653 17.3144C16.9929 17.0252 18.1267 16.8806 19.2667 16.8806C19.9251 16.8806 20.5224 16.9175 21.0586 16.9913C21.5948 17.0651 22.1667 17.1913 22.7743 17.3699C22.9435 17.4161 23.1012 17.4199 23.2474 17.3813C23.3936 17.3429 23.4667 17.216 23.4667 17.0006V4.44682C23.5821 4.46982 23.6925 4.50172 23.7979 4.54252C23.9033 4.58332 24.0037 4.63752 24.0991 4.70512C24.2883 4.80512 24.4302 4.94742 24.5248 5.13202C24.6194 5.31682 24.6667 5.51922 24.6667 5.73922V17.4299C24.6667 17.9053 24.464 18.2745 24.0586 18.5375C23.6532 18.8007 23.2097 18.853 22.7281 18.6944C22.1729 18.479 21.6056 18.3229 21.0262 18.2261C20.447 18.1291 19.8605 18.0806 19.2667 18.0806C18.2297 18.0806 17.2189 18.2068 16.2343 18.4592C15.2497 18.7114 14.3167 19.0952 13.4353 19.6106C13.3167 19.6798 13.187 19.7329 13.0462 19.7699C12.9056 19.8067 12.7637 19.8251 12.6205 19.8251ZM15.9181 14.9192C15.7489 15.0684 15.5647 15.0995 15.3655 15.0125C15.1663 14.9255 15.0667 14.7674 15.0667 14.5382V5.69752C15.0667 5.63292 15.0817 5.56562 15.1117 5.49562C15.1417 5.42562 15.179 5.36832 15.2236 5.32372L20.2081 0.339222C20.3775 0.169822 20.5629 0.131323 20.7643 0.223723C20.9659 0.315923 21.0667 0.479022 21.0667 0.713022V10.0568C21.0667 10.1414 21.0505 10.2148 21.0181 10.277C20.9859 10.3394 20.9475 10.3929 20.9029 10.4375L15.9181 14.9192ZM11.4667 18.1382V6.37372C10.6221 5.90912 9.74865 5.54412 8.84625 5.27872C7.94405 5.01332 7.01755 4.88062 6.06675 4.88062C5.32675 4.88062 4.64135 4.94682 4.01055 5.07922C3.37975 5.21142 2.81135 5.37902 2.30535 5.58202C2.18215 5.62822 2.07825 5.69362 1.99365 5.77822C1.90905 5.86282 1.86675 5.96672 1.86675 6.08992V17.0537C1.86675 17.2691 1.93985 17.396 2.08605 17.4344C2.23225 17.4728 2.38995 17.4613 2.55915 17.3999C3.04375 17.2321 3.56945 17.1036 4.13625 17.0144C4.70325 16.9252 5.34675 16.8806 6.06675 16.8806C7.14055 16.8806 8.14935 17.006 9.09315 17.2568C10.0371 17.5076 10.8283 17.8014 11.4667 18.1382Z" fill="#792A85"/>
</svg>
