<svg width="16" height="17" viewBox="0 0 16 17" fill="none" xmlns="http://www.w3.org/2000/svg">
<path d="M12.2651 0.813127C12.1661 0.71387 12.0485 0.635121 11.919 0.581389C11.7895 0.527658 11.6507 0.5 11.5105 0.5C11.3703 0.5 11.2315 0.527658 11.102 0.581389C10.9725 0.635121 10.8549 0.71387 10.7559 0.813127L3.67025 7.89876C3.59121 7.97764 3.5285 8.07134 3.48571 8.17449C3.44292 8.27764 3.4209 8.38822 3.4209 8.49989C3.4209 8.61156 3.44292 8.72213 3.48571 8.82528C3.5285 8.92843 3.59121 9.02213 3.67025 9.10101L10.7559 16.1866C11.1737 16.6045 11.8473 16.6045 12.2651 16.1866C12.6829 15.7688 12.6829 15.0952 12.2651 14.6774L6.09182 8.49562L12.2736 2.31381C12.6829 1.90454 12.6829 1.22241 12.2651 0.813127Z" fill="#792A85" stroke="#792A85" stroke-width="0.2"/>
</svg>
