<svg width="15" height="18" viewBox="0 0 15 18" fill="none" xmlns="http://www.w3.org/2000/svg">
<path d="M7.5002 0.5C2.9697 4.3675 0.700195 7.708 0.700195 10.53C0.700195 14.763 3.9302 17.5 7.5002 17.5C11.0702 17.5 14.3002 14.763 14.3002 10.53C14.3002 7.708 12.0307 4.3675 7.5002 0.5ZM3.9557 10.7C4.2702 10.7 4.5252 10.921 4.5847 11.227C4.9332 13.114 6.5227 13.76 7.6787 13.6665C8.0442 13.6495 8.3502 13.9385 8.3502 14.304C8.3502 14.644 8.0782 14.9245 7.7382 14.9415C5.9277 15.052 3.8112 14.015 3.3267 11.4395C3.2587 11.057 3.5647 10.7 3.9557 10.7Z" fill="#DC2626"/>
</svg>
