<svg width="12" height="12" viewBox="0 0 12 12" fill="none" xmlns="http://www.w3.org/2000/svg">
<path d="M5.99774 11.5C4.72777 11.5 3.66945 11.0632 2.82276 10.1896C1.97607 9.31595 1.55273 8.22858 1.55273 6.92744C1.55273 6.34798 1.6858 5.76403 1.95194 5.17559C2.21807 4.58717 2.55075 4.02218 2.94996 3.48064C3.34917 2.9391 3.77933 2.42981 4.24046 1.95276C4.70158 1.47571 5.12926 1.05676 5.52349 0.695885C5.59299 0.636155 5.66749 0.588574 5.74698 0.553145C5.82646 0.517715 5.91079 0.5 5.99998 0.5C6.08917 0.5 6.1735 0.517715 6.25298 0.553145C6.33247 0.588574 6.40696 0.636155 6.47647 0.695885C6.87069 1.05676 7.29837 1.47571 7.7595 1.95276C8.22062 2.42981 8.65079 2.9391 9.04999 3.48064C9.44921 4.02218 9.78188 4.58717 10.048 5.17559C10.3142 5.76403 10.4472 6.34798 10.4472 6.92744C10.4472 8.22858 10.0231 9.31595 9.17494 10.1896C8.32676 11.0632 7.26769 11.5 5.99774 11.5ZM6.00036 10.9624C7.12521 10.9624 8.05798 10.5787 8.79864 9.81133C9.53931 9.04395 9.90964 8.08182 9.90964 6.92493C9.90964 6.13183 9.57902 5.23449 8.91776 4.2329C8.25651 3.23133 7.28392 2.1483 5.99998 0.983812C4.71603 2.1483 3.74343 3.23133 3.08219 4.2329C2.42094 5.23449 2.09031 6.13183 2.09031 6.92493C2.09031 8.08182 2.46077 9.04395 3.20169 9.81133C3.9426 10.5787 4.87549 10.9624 6.00036 10.9624ZM6.07614 9.99804C6.18256 9.98908 6.26381 9.96247 6.31988 9.9182C6.37594 9.87393 6.40398 9.81304 6.40398 9.73553C6.40398 9.65804 6.37392 9.5994 6.31379 9.55962C6.25367 9.51985 6.17106 9.50173 6.06595 9.50525C5.63019 9.5267 5.14773 9.38532 4.61857 9.0811C4.0894 8.77687 3.76128 8.27004 3.63422 7.5606C3.61847 7.46367 3.58741 7.39295 3.54103 7.34842C3.49464 7.30389 3.43919 7.28163 3.37466 7.28163C3.30009 7.28163 3.23865 7.3098 3.19032 7.36615C3.14198 7.42248 3.1261 7.50305 3.14267 7.60785C3.30312 8.47314 3.69761 9.09203 4.32615 9.46453C4.95468 9.83704 5.53801 10.0149 6.07614 9.99804Z" fill="#F89D87"/>
</svg>
