<svg width="32" height="32" viewBox="0 0 32 32" fill="none" xmlns="http://www.w3.org/2000/svg">
<rect width="32" height="32" rx="16" fill="#F89D87"/>
<path d="M9.02476 22.5173L15.4054 20.2547L11.2874 16.1367L9.02476 22.5173ZM23.8832 12.4033C23.8056 12.4926 23.7139 12.5373 23.6083 12.5373C23.5027 12.5373 23.4111 12.4985 23.3334 12.4208L23.283 12.3703C23.0021 12.0894 22.6685 11.949 22.2822 11.949C21.8958 11.949 21.5621 12.0894 21.2812 12.3703L16.7055 16.946C16.6278 17.0237 16.5362 17.0655 16.4306 17.0714C16.325 17.0771 16.2276 17.0353 16.1383 16.946C16.0488 16.8567 16.0041 16.7622 16.0041 16.6623C16.0041 16.5626 16.0488 16.468 16.1383 16.3786L20.714 11.8028C21.1386 11.3782 21.6555 11.1659 22.2648 11.1659C22.8739 11.1659 23.3907 11.3782 23.8154 11.8028L23.8832 11.8707C23.9611 11.9486 24 12.0373 24 12.137C24 12.2369 23.9611 12.3257 23.8832 12.4033ZM13.1342 9.91445C13.2235 9.82515 13.318 9.7805 13.4179 9.7805C13.5176 9.7805 13.6121 9.82515 13.7014 9.91445L13.9713 10.1842C14.454 10.6668 14.6954 11.2517 14.6954 11.9386C14.6954 12.6255 14.454 13.2104 13.9713 13.693L13.712 13.9523C13.6342 14.0302 13.5425 14.072 13.4369 14.0777C13.3313 14.0834 13.2339 14.0416 13.1446 13.9523C13.0553 13.863 13.0106 13.7685 13.0106 13.6686C13.0106 13.5689 13.0553 13.4743 13.1446 13.3849L13.4039 13.1256C13.731 12.7984 13.8946 12.4027 13.8946 11.9386C13.8946 11.4745 13.731 11.0788 13.4039 10.7516L13.1342 10.4819C13.0563 10.4041 13.0145 10.3124 13.0088 10.2068C13.0029 10.1012 13.0447 10.0037 13.1342 9.91445ZM16.4514 8.59171C16.5409 8.50241 16.6354 8.45776 16.7351 8.45776C16.835 8.45776 16.9296 8.50241 17.0189 8.59171L17.9744 9.54722C18.4106 9.98346 18.6287 10.5062 18.6287 11.1155C18.6287 11.7246 18.4106 12.2472 17.9744 12.6835L15.2088 15.4493C15.1311 15.527 15.0394 15.5687 14.9339 15.5744C14.8283 15.5803 14.7307 15.5386 14.6413 15.4493C14.552 15.3599 14.5073 15.2653 14.5073 15.1656C14.5073 15.0657 14.552 14.9711 14.6413 14.8818L17.4069 12.1162C17.6878 11.8353 17.8282 11.5018 17.8282 11.1155C17.8282 10.729 17.6878 10.3954 17.4069 10.1147L16.4514 9.15918C16.3737 9.08135 16.3319 8.98963 16.3261 8.88404C16.3203 8.77845 16.3621 8.68101 16.4514 8.59171ZM22.0906 18.4428C22.0013 18.5322 21.9068 18.5769 21.8071 18.5769C21.7072 18.5769 21.6126 18.5322 21.5233 18.4428L21.0898 18.0095C20.751 17.6707 20.342 17.5013 19.8628 17.5013C19.3835 17.5013 18.9745 17.6707 18.6357 18.0095L18.2025 18.4428C18.1246 18.5206 18.0329 18.5624 17.9273 18.5681C17.8217 18.574 17.7243 18.5322 17.635 18.4428C17.5457 18.3535 17.501 18.2589 17.501 18.159C17.501 18.0593 17.5457 17.9648 17.635 17.8755L18.0685 17.442C18.5627 16.9477 19.1608 16.7005 19.8628 16.7005C20.5648 16.7005 21.163 16.9477 21.6573 17.442L22.0906 17.8755C22.1684 17.9532 22.2102 18.0448 22.2159 18.1504C22.2218 18.256 22.18 18.3535 22.0906 18.4428ZM8.04662 22.5451L10.5581 15.5658C10.622 15.4046 10.7156 15.2827 10.8392 15.2002C10.9629 15.1178 11.0978 15.0766 11.2439 15.0766C11.3414 15.0766 11.4313 15.0906 11.5137 15.1185C11.596 15.1464 11.6766 15.1998 11.7555 15.2787L16.2636 19.7865C16.3425 19.8654 16.3958 19.9461 16.4236 20.0284C16.4515 20.1108 16.4654 20.2007 16.4654 20.2981C16.4654 20.4444 16.4243 20.5794 16.3419 20.7029C16.2595 20.8265 16.1376 20.9201 15.9762 20.9839L8.99693 23.4955C8.85076 23.5476 8.7092 23.5561 8.57223 23.5208C8.43542 23.4853 8.31821 23.4189 8.22062 23.3215C8.12317 23.224 8.0568 23.1068 8.02151 22.9698C7.98606 22.8329 7.99443 22.6913 8.04662 22.5451Z" fill="white"/>
</svg>
