<svg width="16" height="16" viewBox="0 0 16 16" fill="none" xmlns="http://www.w3.org/2000/svg">
<path d="M8.39771 7.84044V3.8416C8.39771 3.73239 8.36228 3.6424 8.29142 3.57164C8.22056 3.5009 8.13044 3.46553 8.02104 3.46553C7.91167 3.46553 7.82175 3.5009 7.75129 3.57164C7.68082 3.6424 7.64558 3.73239 7.64558 3.8416V7.89573C7.64558 7.98194 7.66096 8.06285 7.69173 8.13844C7.7225 8.21404 7.77056 8.28565 7.83589 8.35327L11.0667 11.6239C11.1377 11.6973 11.2277 11.7362 11.3368 11.7407C11.4458 11.7453 11.5415 11.7064 11.6239 11.6239C11.7064 11.5415 11.7476 11.4492 11.7476 11.347C11.7476 11.2448 11.7064 11.1563 11.6239 11.0815L8.39771 7.84044ZM8.00298 16C6.89899 16 5.86196 15.7901 4.89189 15.3702C3.9218 14.9504 3.07408 14.3781 2.34873 13.6535C1.62339 12.9288 1.05059 12.0819 0.630356 11.1127C0.210118 10.1435 0 9.10695 0 8.00298C0 6.89899 0.209919 5.86196 0.629756 4.89189C1.04961 3.9218 1.62187 3.07408 2.34653 2.34873C3.0712 1.62339 3.91813 1.05059 4.88731 0.630356C5.85648 0.210119 6.89305 0 7.99702 0C9.10101 0 10.138 0.209918 11.1081 0.629755C12.0782 1.04961 12.9259 1.62187 13.6513 2.34653C14.3766 3.0712 14.9494 3.91813 15.3696 4.88731C15.7899 5.85648 16 6.89305 16 7.99702C16 9.10101 15.7901 10.138 15.3702 11.1081C14.9504 12.0782 14.3781 12.9259 13.6535 13.6513C12.9288 14.3766 12.0819 14.9494 11.1127 15.3696C10.1435 15.7899 9.10695 16 8.00298 16ZM8 15.2479C10.0015 15.2479 11.7099 14.5403 13.1251 13.1251C14.5403 11.7099 15.2479 10.0015 15.2479 8C15.2479 5.99847 14.5403 4.29012 13.1251 2.87493C11.7099 1.45973 10.0015 0.752134 8 0.752134C5.99847 0.752134 4.29012 1.45973 2.87493 2.87493C1.45973 4.29012 0.752133 5.99847 0.752133 8C0.752133 10.0015 1.45973 11.7099 2.87493 13.1251C4.29012 14.5403 5.99847 15.2479 8 15.2479Z" fill="#792A85"/>
</svg>
