<svg width="55" height="54" viewBox="0 0 55 54" fill="none" xmlns="http://www.w3.org/2000/svg">
<path d="M3.95856 48.9959L25.4932 41.3595L11.5949 27.4613L3.95856 48.9959ZM54.106 14.8613C53.8438 15.1626 53.5345 15.3133 53.1781 15.3133C52.8218 15.3133 52.5125 15.1822 52.2503 14.9201L52.08 14.7498C51.1321 13.8018 50.0062 13.3279 48.7025 13.3279C47.3982 13.3279 46.272 13.8018 45.3241 14.7498L29.881 30.1928C29.6189 30.455 29.3096 30.596 28.9532 30.6159C28.5969 30.6352 28.268 30.4942 27.9666 30.1928C27.6647 29.8915 27.5138 29.5723 27.5138 29.2352C27.5138 28.8987 27.6647 28.5795 27.9666 28.2776L43.4097 12.8346C44.8428 11.4015 46.5874 10.6849 48.6437 10.6849C50.6994 10.6849 52.4438 11.4015 53.8769 12.8346L54.106 13.0637C54.3687 13.3263 54.5 13.6259 54.5 13.9625C54.5 14.2995 54.3687 14.5991 54.106 14.8613ZM17.8278 6.46123C18.1292 6.15985 18.4484 6.00916 18.7854 6.00916C19.1219 6.00916 19.4408 6.15985 19.7422 6.46123L20.6532 7.37149C22.2823 9.00058 23.0969 10.9743 23.0969 13.2927C23.0969 15.6112 22.2823 17.5849 20.6532 19.214L19.7781 20.0891C19.5154 20.3518 19.2059 20.4928 18.8495 20.5122C18.4932 20.5315 18.1643 20.3905 17.8629 20.0891C17.5615 19.7877 17.4108 19.4685 17.4108 19.1315C17.4108 18.795 17.5615 18.4758 17.8629 18.1739L18.738 17.2988C19.8422 16.1946 20.3944 14.8592 20.3944 13.2927C20.3944 11.7263 19.8422 10.3909 18.738 9.28669L17.8278 8.37644C17.5651 8.11375 17.4241 7.80421 17.4047 7.44785C17.3849 7.09149 17.5259 6.76261 17.8278 6.46123ZM29.0235 1.99699C29.3254 1.69561 29.6446 1.54492 29.9811 1.54492C30.3181 1.54492 30.6373 1.69561 30.9387 1.99699L34.1635 5.22185C35.6358 6.69414 36.372 8.4584 36.372 10.5146C36.372 12.5703 35.6358 14.3343 34.1635 15.8066L24.8296 25.1414C24.5674 25.4035 24.2581 25.5443 23.9018 25.5637C23.5454 25.5835 23.2163 25.4427 22.9144 25.1414C22.613 24.8395 22.4623 24.5203 22.4623 24.1838C22.4623 23.8467 22.613 23.5275 22.9144 23.2262L32.2483 13.8922C33.1963 12.9443 33.6702 11.8184 33.6702 10.5146C33.6702 9.21033 33.1963 8.08447 32.2483 7.13705L29.0235 3.9122C28.7613 3.64951 28.6203 3.33998 28.6004 2.98362C28.5811 2.62725 28.7221 2.29838 29.0235 1.99699ZM48.0557 35.2443C47.7543 35.5462 47.4353 35.6971 47.0988 35.6971C46.7618 35.6971 46.4426 35.5462 46.1412 35.2443L44.6781 33.7819C43.5347 32.6385 42.1543 32.0668 40.5369 32.0668C38.9195 32.0668 37.5391 32.6385 36.3957 33.7819L34.9333 35.2443C34.6706 35.507 34.3611 35.648 34.0047 35.6674C33.6483 35.6872 33.3195 35.5462 33.0181 35.2443C32.7167 34.9429 32.566 34.6237 32.566 34.2867C32.566 33.9502 32.7167 33.6312 33.0181 33.3299L34.4812 31.8667C36.149 30.1984 38.1675 29.3643 40.5369 29.3643C42.9062 29.3643 44.925 30.1984 46.5933 31.8667L48.0557 33.3299C48.3183 33.592 48.4594 33.9013 48.4787 34.2577C48.4986 34.6141 48.3575 34.9429 48.0557 35.2443ZM0.657349 49.0898L9.13374 25.5346C9.34909 24.9904 9.66523 24.5791 10.0822 24.3006C10.4996 24.0226 10.955 23.8837 11.4483 23.8837C11.7772 23.8837 12.0806 23.9307 12.3586 24.0249C12.6366 24.1191 12.9087 24.2993 13.1749 24.5656L28.3897 39.7796C28.6559 40.0458 28.8359 40.3179 28.9296 40.5959C29.0237 40.8739 29.0708 41.1773 29.0708 41.5061C29.0708 42 28.9318 42.4553 28.6539 42.8723C28.3759 43.2892 27.9646 43.6054 27.4198 43.8207L3.86463 52.2971C3.37132 52.4733 2.89354 52.5018 2.43128 52.3827C1.96953 52.263 1.57397 52.0388 1.24459 51.7099C0.915713 51.381 0.691713 50.9855 0.572585 50.5232C0.452948 50.0609 0.481203 49.5832 0.657349 49.0898Z" fill="#792A85"/>
</svg>
