<svg width="16" height="17" viewBox="0 0 16 17" fill="none" xmlns="http://www.w3.org/2000/svg">
<path d="M6.29658 8.5L0.334602 2.53802C0.111535 2.31495 -6.69244e-08 2.03105 -5.18553e-08 1.68631C-3.67863e-08 1.34157 0.111535 1.05767 0.334602 0.8346C0.557669 0.611532 0.841572 0.499999 1.18631 0.499999C1.53105 0.499999 1.81496 0.611532 2.03802 0.8346L8 6.79658L13.962 0.8346C14.185 0.611533 14.4689 0.5 14.8137 0.5C15.1584 0.5 15.4423 0.611533 15.6654 0.8346C15.8885 1.05767 16 1.34157 16 1.68631C16 2.03105 15.8885 2.31496 15.6654 2.53802L9.70342 8.5L15.6654 14.462C15.8885 14.685 16 14.9689 16 15.3137C16 15.6584 15.8885 15.9423 15.6654 16.1654C15.4423 16.3885 15.1584 16.5 14.8137 16.5C14.4689 16.5 14.185 16.3885 13.962 16.1654L8 10.2034L2.03802 16.1654C1.81496 16.3885 1.53105 16.5 1.18631 16.5C0.841571 16.5 0.557668 16.3885 0.334602 16.1654C0.111534 15.9423 -6.62596e-07 15.6584 -6.47527e-07 15.3137C-6.32458e-07 14.9689 0.111534 14.685 0.334602 14.462L6.29658 8.5Z" fill="#792A85"/>
</svg>
