<svg width="32" height="32" viewBox="0 0 32 32" fill="none" xmlns="http://www.w3.org/2000/svg">
<circle cx="16" cy="16" r="15.36" stroke="#FFF0E1" stroke-width="1.28"/>
<path d="M13.4976 21.4707C13.3994 21.4707 13.3094 21.4544 13.2277 21.4217C13.1459 21.3889 13.0641 21.3317 12.9823 21.2499L8.54114 16.8087C8.39392 16.6615 8.32031 16.4816 8.32031 16.2689C8.32031 16.0563 8.39392 15.8764 8.54114 15.7291C8.68836 15.5819 8.86012 15.5083 9.05641 15.5083C9.25271 15.5083 9.42447 15.5819 9.57169 15.7291L13.4976 19.655L22.4044 10.7482C22.5516 10.601 22.7275 10.5273 22.9319 10.5273C23.1364 10.5273 23.3123 10.601 23.4595 10.7482C23.6067 10.8954 23.6803 11.0712 23.6803 11.2757C23.6803 11.4802 23.6067 11.656 23.4595 11.8033L14.0128 21.2499C13.931 21.3317 13.8493 21.3889 13.7675 21.4217C13.6857 21.4544 13.5957 21.4707 13.4976 21.4707Z" fill="#F3AE6C"/>
</svg>
