<svg width="36" height="36" viewBox="0 0 36 36" fill="none" xmlns="http://www.w3.org/2000/svg">
<circle cx="18" cy="18" r="18" fill="#FEF5FF"/>
<path d="M10.8656 25.1325H11.8635L22.7634 14.2457L21.7523 13.2346L10.8656 24.1345V25.1325ZM24.6092 13.6215L22.3746 11.3907L23.519 10.2463C23.6832 10.0821 23.8885 10.0007 24.1348 10.002C24.3812 10.0033 24.5898 10.0894 24.7607 10.2603L25.7547 11.2544C25.9169 11.4165 25.9987 11.6195 26 11.8632C26.0013 12.1069 25.9167 12.314 25.7462 12.4845L24.6092 13.6215ZM10.7531 25.998C10.5362 25.998 10.3565 25.9267 10.2139 25.7842C10.0713 25.6417 10 25.462 10 25.2452V24.068C10 23.9711 10.0177 23.8806 10.0531 23.7965C10.0885 23.7123 10.1451 23.627 10.2229 23.5404L21.7674 12.0091L23.9889 14.2306L12.4576 25.775C12.3711 25.8529 12.2845 25.9095 12.1978 25.9449C12.1112 25.9803 12.0223 25.998 11.9311 25.998H10.7531ZM22.2546 13.7238L21.7523 13.2346L22.7634 14.2457L22.2546 13.7238Z" fill="#792A85"/>
</svg>
