<svg width="18" height="16" viewBox="0 0 18 16" fill="none" xmlns="http://www.w3.org/2000/svg">
<path d="M2.75 3.5L6.25 3L9.75 4V12.5L6.25 11.5L2.75 12V3.5Z" fill="#792A85"/>
<path d="M5.78182 11.3726C6.4311 11.3726 7.06312 11.4484 7.67787 11.5999C8.29262 11.7514 8.89697 11.9787 9.49091 12.2817V4.5181C8.94546 4.15447 8.35383 3.87265 7.71602 3.67265C7.07823 3.47265 6.43349 3.37265 5.78182 3.37265C5.32121 3.37265 4.8697 3.43022 4.42727 3.54537C3.98485 3.66053 3.53939 3.80295 3.09091 3.97265V11.8636C3.46667 11.6939 3.89394 11.5696 4.37273 11.4908C4.85152 11.412 5.32121 11.3726 5.78182 11.3726ZM10.5818 12.2817C11.1879 11.9787 11.7818 11.7514 12.3636 11.5999C12.9455 11.4484 13.5636 11.3726 14.2182 11.3726C14.6788 11.3726 15.1545 11.409 15.6455 11.4817C16.1364 11.5545 16.5576 11.6514 16.9091 11.7726V3.97265C16.497 3.76659 16.0617 3.61507 15.6032 3.5181C15.1448 3.42113 14.6831 3.37265 14.2182 3.37265C13.5636 3.37265 12.9303 3.47265 12.3182 3.67265C11.7061 3.87265 11.1273 4.15447 10.5818 4.5181V12.2817ZM10.0364 13.7181C9.94499 13.7181 9.85852 13.709 9.77693 13.6908C9.69534 13.6726 9.62424 13.6393 9.56364 13.5908C8.99394 13.2393 8.38881 12.9666 7.74824 12.7726C7.10766 12.5787 6.45218 12.4817 5.78182 12.4817C5.33895 12.4817 4.90399 12.5363 4.47695 12.6454C4.04989 12.7545 3.62424 12.8878 3.2 13.0454C2.92 13.1787 2.65 13.1605 2.39 12.9908C2.13 12.8211 2 12.5787 2 12.2636V3.84537C2 3.66356 2.04242 3.49689 2.12727 3.34537C2.21212 3.19386 2.33939 3.07568 2.50909 2.99083C3.01818 2.7484 3.54785 2.56962 4.09809 2.45447C4.64832 2.33931 5.20956 2.28174 5.78182 2.28174C6.54545 2.28174 7.28788 2.38477 8.00909 2.59083C8.7303 2.79689 9.40606 3.11204 10.0364 3.53628C10.6545 3.11204 11.3182 2.79689 12.0273 2.59083C12.7364 2.38477 13.4667 2.28174 14.2182 2.28174C14.7863 2.28174 15.3435 2.33931 15.8897 2.45447C16.436 2.56962 16.9636 2.7484 17.4727 2.99083C17.6424 3.07568 17.7727 3.19386 17.8636 3.34537C17.9545 3.49689 18 3.66356 18 3.84537V12.2636C18 12.6017 17.8636 12.8589 17.5909 13.0353C17.3182 13.2117 17.0485 13.2151 16.7818 13.0454C16.3697 12.8757 15.9501 12.7393 15.5231 12.6363C15.096 12.5333 14.6611 12.4817 14.2182 12.4817C13.5603 12.4817 12.917 12.5787 12.2884 12.7726C11.6598 12.9666 11.0667 13.2393 10.5091 13.5908C10.4485 13.6393 10.3774 13.6726 10.2958 13.6908C10.2142 13.709 10.1277 13.7181 10.0364 13.7181ZM11.4545 5.77265C11.4545 5.70579 11.4789 5.63707 11.5277 5.56648C11.5765 5.49591 11.6309 5.44948 11.6909 5.42719C12.0545 5.29386 12.4263 5.19083 12.8061 5.1181C13.1859 5.04537 13.5854 5.00901 14.0045 5.00901C14.2665 5.00901 14.5251 5.02416 14.7805 5.05447C15.0359 5.08477 15.2848 5.13022 15.5273 5.19083C15.6 5.21507 15.6667 5.25989 15.7273 5.32528C15.7879 5.39069 15.8182 5.46427 15.8182 5.54601C15.8182 5.68498 15.7727 5.79083 15.6818 5.86356C15.5909 5.93628 15.4788 5.95447 15.3455 5.9181C15.1418 5.8575 14.9273 5.81204 14.7018 5.78174C14.4764 5.75144 14.2424 5.73628 14 5.73628C13.6485 5.73628 13.3091 5.76962 12.9818 5.83628C12.6545 5.90295 12.3333 6.00295 12.0182 6.13628C11.8485 6.19689 11.7121 6.19386 11.6091 6.12719C11.5061 6.06053 11.4545 5.94234 11.4545 5.77265ZM11.4545 9.77265C11.4545 9.70227 11.4789 9.62994 11.5277 9.55565C11.5765 9.48134 11.6309 9.43247 11.6909 9.40901C12.0545 9.27568 12.4263 9.17568 12.8061 9.10901C13.1859 9.04235 13.5854 9.00901 14.0045 9.00901C14.2665 9.00901 14.5251 9.02416 14.7805 9.05447C15.0359 9.08477 15.2848 9.13022 15.5273 9.19083C15.6 9.21507 15.6667 9.25989 15.7273 9.32528C15.7879 9.39069 15.8182 9.46427 15.8182 9.54601C15.8182 9.68498 15.7727 9.79083 15.6818 9.86356C15.5909 9.93628 15.4788 9.95447 15.3455 9.9181C15.1418 9.8575 14.9273 9.81204 14.7018 9.78174C14.4764 9.75144 14.2424 9.73628 14 9.73628C13.6485 9.73628 13.3091 9.76659 12.9818 9.82719C12.6545 9.8878 12.3333 9.98477 12.0182 10.1181C11.8485 10.1787 11.7121 10.1787 11.6091 10.1181C11.5061 10.0575 11.4545 9.94234 11.4545 9.77265ZM11.4545 7.77265C11.4545 7.70579 11.4789 7.63707 11.5277 7.56648C11.5765 7.49591 11.6309 7.44948 11.6909 7.42719C12.0545 7.29386 12.4263 7.19083 12.8061 7.1181C13.1859 7.04537 13.5854 7.00901 14.0045 7.00901C14.2665 7.00901 14.5251 7.02416 14.7805 7.05447C15.0359 7.08477 15.2848 7.13022 15.5273 7.19083C15.6 7.21507 15.6667 7.25989 15.7273 7.32528C15.7879 7.39069 15.8182 7.46427 15.8182 7.54601C15.8182 7.68498 15.7727 7.79083 15.6818 7.86356C15.5909 7.93628 15.4788 7.95447 15.3455 7.9181C15.1418 7.8575 14.9273 7.81204 14.7018 7.78174C14.4764 7.75144 14.2424 7.73628 14 7.73628C13.6485 7.73628 13.3091 7.76962 12.9818 7.83628C12.6545 7.90295 12.3333 8.00295 12.0182 8.13628C11.8485 8.19689 11.7121 8.19386 11.6091 8.12719C11.5061 8.06053 11.4545 7.94234 11.4545 7.77265Z" fill="#792A85"/>
</svg>
