<svg width="16" height="16" viewBox="0 0 16 16" fill="none" xmlns="http://www.w3.org/2000/svg">
<path d="M0.80775 16C0.578917 16 0.387083 15.9226 0.23225 15.7678C0.0774165 15.6129 0 15.4211 0 15.1923V9.5C0 9.35833 0.0479999 9.23958 0.144 9.14375C0.24 9.04792 0.358917 9 0.50075 9C0.642583 9 0.76125 9.04792 0.85675 9.14375C0.95225 9.23958 1 9.35833 1 9.5V14.3115L14.3115 1H9.5C9.35833 1 9.23958 0.952 9.14375 0.856C9.04792 0.76 9 0.641083 9 0.499249C9 0.357416 9.04792 0.23875 9.14375 0.14325C9.23958 0.0477495 9.35833 0 9.5 0H15.1923C15.4211 0 15.6129 0.0774161 15.7678 0.232249C15.9226 0.387083 16 0.578917 16 0.80775V6.5C16 6.64167 15.952 6.76042 15.856 6.85625C15.76 6.95208 15.6411 7 15.4992 7C15.3574 7 15.2387 6.95208 15.1432 6.85625C15.0477 6.76042 15 6.64167 15 6.5V1.6885L1.6885 15H6.5C6.64167 15 6.76042 15.048 6.85625 15.144C6.95208 15.24 7 15.3589 7 15.5008C7 15.6426 6.95208 15.7613 6.85625 15.8568C6.76042 15.9523 6.64167 16 6.5 16H0.80775Z" fill="#792A85"/>
</svg>
