<svg width="40" height="39" viewBox="0 0 40 39" fill="none" xmlns="http://www.w3.org/2000/svg">
<ellipse cx="20" cy="19.5025" rx="20" ry="19.5025" fill="#792A85"/>
<path fill-rule="evenodd" clip-rule="evenodd" d="M0 19.5025C0 8.73157 8.95431 0 20 0C31.0457 0 40 8.73157 40 19.5025C40 30.2735 31.0457 39.005 20 39.005C8.95431 39.005 0 30.2735 0 19.5025ZM20 9.75126C25.5 9.75126 30 14.1393 30 19.5025C30 24.3781 26.375 28.5224 21.375 29.2538V22.306H23.75L24.25 19.5025H21.5V17.6742C21.5 16.9428 21.875 16.2115 23.125 16.2115H24.375V13.7737C24.375 13.7737 23.25 13.5299 22.125 13.5299C19.875 13.5299 18.375 14.8707 18.375 17.3085V19.5025H15.875V22.306H18.375V29.1319C13.625 28.4005 10 24.3781 10 19.5025C10 14.1393 14.5 9.75126 20 9.75126Z" fill="#FEF5FF"/>
</svg>
