<svg width="36" height="36" viewBox="0 0 36 36" fill="none" xmlns="http://www.w3.org/2000/svg">
<circle cx="18" cy="18" r="18" fill="#FEF5FF"/>
<path d="M13.7351 25.6869C13.8341 25.7861 13.9518 25.8649 14.0813 25.9186C14.2107 25.9723 14.3496 26 14.4897 26C14.6299 26 14.7688 25.9723 14.8982 25.9186C15.0277 25.8649 15.1453 25.7861 15.2444 25.6869L22.33 18.6012C22.409 18.5224 22.4717 18.4287 22.5145 18.3255C22.5573 18.2224 22.5793 18.1118 22.5793 18.0001C22.5793 17.8884 22.5573 17.7779 22.5145 17.6747C22.4717 17.5716 22.409 17.4779 22.33 17.399L15.2444 10.3134C14.8266 9.89555 14.1529 9.89555 13.7351 10.3134C13.3173 10.7312 13.3173 11.4048 13.7351 11.8226L19.9084 18.0044L13.7266 24.1862C13.3173 24.5955 13.3173 25.2776 13.7351 25.6869Z" fill="#792A85" stroke="#1B1B1B" stroke-width="0.2"/>
</svg>
