<svg xmlns="http://www.w3.org/2000/svg" xmlns:xlink="http://www.w3.org/1999/xlink" width="56" height="56" viewBox="0 0 56 56">
  <defs>
    <clipPath id="clip-path">
      <rect id="Icon_Google_Background_Mask_" data-name="Icon / Google (Background/Mask)" width="34" height="34" transform="translate(-0.079 -0.079)"/>
    </clipPath>
  </defs>
  <g id="Group_3711" data-name="Group 3711" transform="translate(-20 -807)">
    <rect id="Rectangle_174" data-name="Rectangle 174" width="56" height="56" rx="28" transform="translate(20 807)" fill="#e2eefb"/>
    <g id="Icon_Google" data-name="Icon / Google" transform="translate(-137.921 174.079)">
      <rect id="Icon_Google_Background_Mask_2" data-name="Icon / Google (Background/Mask)" width="34" height="34" transform="translate(168.921 643.921)" fill="none"/>
      <g id="Icon_Google_Background_Mask_3" data-name="Icon / Google (Background/Mask)" transform="translate(169 644)" clip-path="url(#clip-path)">
        <path id="Vector" d="M27.927,11.339A14.1,14.1,0,1,1,14.1,0a14.035,14.035,0,0,1,9.6,3.794L19.713,7.783a8.457,8.457,0,1,0,2.356,9.138H14.1V11.28h12.69v.059Z" transform="translate(2.82 2.82)" fill="#ffc107"/>
        <path id="Vector-2" data-name="Vector" d="M0,7.537A14.073,14.073,0,0,1,22.076,3.794L18.087,7.783A8.443,8.443,0,0,0,4.633,10.935Z" transform="translate(4.446 2.82)" fill="#ff3d00"/>
        <path id="Vector-3" data-name="Vector" d="M12.553,11.242A14.089,14.089,0,0,1,0,3.543L4.6,0a8.456,8.456,0,0,0,7.955,5.6,8.4,8.4,0,0,0,5.09-1.713l4.364,3.693a14.035,14.035,0,0,1-9.454,3.661Z" transform="translate(4.368 19.779)" fill="#4caf50"/>
        <path id="Vector-4" data-name="Vector" d="M13.826.059A14.2,14.2,0,0,1,14.1,2.82,13.64,13.64,0,0,1,9.454,13.259L5.09,9.567h0A8.489,8.489,0,0,0,7.969,5.64H0V0H12.69V.059Z" transform="translate(16.921 14.1)" fill="#1976d2"/>
      </g>
    </g>
  </g>
</svg>
