<svg width="57" height="22" viewBox="0 0 57 22" fill="none" xmlns="http://www.w3.org/2000/svg">
<circle cx="28.7058" cy="10.9811" r="10.7116" fill="#F89D87"/>
<path d="M45.316 2.99333C32.9686 5.53912 24.449 5.43066 11.7903 2.74271C9.37474 2.2298 6.72737 2.1132 4.73637 3.57397C-0.151485 7.16011 -0.243682 14.101 4.45977 18.0183C6.56121 19.7685 9.5203 19.6695 12.1869 19.0623C24.7849 16.1935 33.2301 15.951 45.0839 18.1759C48.3502 18.789 52.0534 18.6084 54.067 15.9646C56.6635 12.5554 56.6442 8.14858 54.0089 4.89301C52.002 2.41371 48.4401 2.34922 45.316 2.99333Z" fill="#FFECEC"/>
<mask id="mask0_13796_18383" style="mask-type:alpha" maskUnits="userSpaceOnUse" x="0" y="1" width="57" height="19">
<path d="M45.3212 2.19308C32.972 4.86387 24.4521 5.32154 11.7933 2.73012C9.37406 2.23488 6.72737 2.11393 4.73637 3.5747C-0.151485 7.16084 -0.243682 14.1017 4.45977 18.019C6.56121 19.7692 9.5194 19.6652 12.1906 19.0786C24.7885 16.3125 33.2339 16.6187 45.0894 18.9741C48.3491 19.6218 52.056 19.4098 53.9894 16.7067C56.6887 12.9328 56.6701 7.76538 53.9336 4.15465C52.007 1.61248 48.4389 1.51882 45.3212 2.19308Z" fill="#F4BECD" stroke="#EC4976"/>
</mask>
<g mask="url(#mask0_13796_18383)">
<path d="M45.3212 2.19308C32.972 4.86387 24.4521 5.32154 11.7933 2.73012C9.37406 2.23488 6.72737 2.11393 4.73637 3.5747C-0.151485 7.16084 -0.243682 14.1017 4.45977 18.019C6.56121 19.7692 9.5194 19.6652 12.1906 19.0786C24.7885 16.3125 33.2339 16.6187 45.0894 18.9741C48.3491 19.6218 52.056 19.4098 53.9894 16.7067C56.6887 12.9328 56.6701 7.76538 53.9336 4.15465C52.007 1.61248 48.4389 1.51882 45.3212 2.19308Z" fill="#FFECEC" stroke="#F89D87"/>
<circle cx="14.4195" cy="14.4195" r="14.4195" transform="matrix(-1 0 0 1 43.0225 -3.84961)" fill="#FC5683"/>
</g>
</svg>
