<svg width="16" height="16" viewBox="0 0 16 16" fill="none" xmlns="http://www.w3.org/2000/svg">
<path d="M8.06862 12.6028C8.23825 12.6028 8.38281 12.5408 8.50229 12.4166C8.62176 12.2924 8.68149 12.1455 8.68149 11.9758C8.68149 11.8138 8.62129 11.6711 8.50089 11.5479C8.3805 11.4246 8.2355 11.363 8.06587 11.363C7.89622 11.363 7.74976 11.4251 7.62649 11.5492C7.50323 11.6734 7.4416 11.8166 7.4416 11.9786C7.4416 12.1482 7.50369 12.2947 7.62787 12.418C7.75206 12.5412 7.89898 12.6028 8.06862 12.6028ZM8.00691 16C6.89568 16 5.85619 15.7901 4.88842 15.3702C3.92064 14.9504 3.07408 14.3781 2.34873 13.6535C1.62339 12.9288 1.05059 12.0827 0.630356 11.1151C0.210118 10.1475 0 9.10763 0 7.99556C0 6.8911 0.209919 5.85271 0.629756 4.8804C1.04961 3.90809 1.62187 3.06173 2.34653 2.34131C3.0712 1.62091 3.91733 1.05059 4.88493 0.630356C5.85253 0.210119 6.89237 0 8.00445 0C9.1089 0 10.1473 0.209918 11.1196 0.629755C12.0919 1.04961 12.9383 1.6194 13.6587 2.33913C14.3791 3.05887 14.9494 3.90522 15.3696 4.87818C15.7899 5.85116 16 6.88946 16 7.99309C16 9.10432 15.7901 10.1438 15.3702 11.1116C14.9504 12.0794 14.3806 12.925 13.6609 13.6485C12.9411 14.3721 12.0948 14.9449 11.1218 15.3669C10.1488 15.789 9.11054 16 8.00691 16ZM8.0074 15.2479C10.0211 15.2479 11.7312 14.544 13.1379 13.1362C14.5445 11.7284 15.2479 10.0139 15.2479 7.9926C15.2479 5.97893 14.5455 4.26876 13.1407 2.86211C11.7359 1.45546 10.0223 0.752134 8 0.752134C5.98366 0.752134 4.2716 1.45453 2.86382 2.85933C1.45603 4.26413 0.752133 5.97769 0.752133 8C0.752133 10.0163 1.45603 11.7284 2.86382 13.1362C4.2716 14.544 5.98613 15.2479 8.0074 15.2479ZM8.04824 4.16182C8.5194 4.16182 8.92848 4.30625 9.27549 4.59511C9.62251 4.88397 9.79602 5.24972 9.79602 5.69236C9.79602 6.038 9.69966 6.34684 9.50693 6.61889C9.31421 6.89093 9.09186 7.14484 8.83989 7.38062C8.5353 7.65453 8.2677 7.95416 8.03709 8.27951C7.80648 8.60486 7.67408 8.96696 7.63989 9.36582C7.6285 9.46762 7.66001 9.55033 7.73442 9.61396C7.80884 9.67759 7.89565 9.7094 7.99487 9.7094C8.1001 9.7094 8.18808 9.67559 8.25882 9.60798C8.32958 9.54036 8.37208 9.45584 8.38633 9.35442C8.44331 9.0623 8.55821 8.79725 8.73104 8.55927C8.90389 8.32128 9.10322 8.10031 9.32905 7.89636C9.64605 7.59319 9.92146 7.26022 10.1553 6.89744C10.3891 6.53466 10.506 6.13333 10.506 5.69347C10.506 5.04653 10.2687 4.50778 9.79402 4.0772C9.31937 3.64662 8.75484 3.43133 8.10042 3.43133C7.62245 3.43133 7.17236 3.54396 6.75013 3.76922C6.32791 3.99448 5.98195 4.30332 5.71224 4.69573C5.65413 4.78157 5.63324 4.8727 5.64958 4.96911C5.6659 5.06551 5.71001 5.14087 5.78189 5.1952C5.89614 5.25727 6.00702 5.27369 6.11453 5.24444C6.22203 5.2152 6.31224 5.15157 6.38518 5.05356C6.59202 4.79507 6.83633 4.58182 7.11809 4.41382C7.39985 4.24582 7.7099 4.16182 8.04824 4.16182Z" fill="#792A85"/>
</svg>
