<svg width="40" height="39" viewBox="0 0 40 39" fill="none" xmlns="http://www.w3.org/2000/svg">
<g id="Instagram">
<ellipse id="Ellipse 26" cx="20" cy="19.5025" rx="20" ry="19.5025" fill="#792A85"/>
<g id="instagram">
<path d="M20 22.9155C18.125 22.9155 16.5 21.4528 16.5 19.5025C16.5 17.6742 18 16.0896 20 16.0896C21.875 16.0896 23.5 17.5523 23.5 19.5025C23.5 21.3309 21.875 22.9155 20 22.9155Z" fill="#FEF5FF"/>
<path fill-rule="evenodd" clip-rule="evenodd" d="M24.25 11.2139H15.75C14.75 11.3358 14.25 11.4577 13.875 11.5796C13.375 11.7015 13 11.9453 12.625 12.311C12.3283 12.6003 12.1881 12.8897 12.0186 13.2394C11.9739 13.3316 11.9271 13.4282 11.875 13.5299C11.8557 13.5864 11.8333 13.6459 11.8094 13.7097C11.6786 14.0581 11.5 14.534 11.5 15.3582V23.6468C11.625 24.6219 11.75 25.1095 11.875 25.4752C12 25.9627 12.25 26.3284 12.625 26.6941C12.9217 26.9834 13.2185 27.1201 13.5771 27.2854C13.6717 27.329 13.7706 27.3745 13.875 27.4254C13.933 27.4443 13.994 27.466 14.0594 27.4894C14.4167 27.6169 14.9047 27.7911 15.75 27.7911H24.25C25.25 27.6692 25.75 27.5473 26.125 27.4254C26.625 27.3035 27 27.0597 27.375 26.6941C27.6717 26.4047 27.8119 26.1154 27.9814 25.7656C28.0261 25.6734 28.0728 25.5769 28.125 25.4752C28.1443 25.4186 28.1667 25.3591 28.1906 25.2953C28.3214 24.947 28.5 24.4711 28.5 23.6468V15.3582C28.375 14.3831 28.25 13.8955 28.125 13.5299C28 13.0423 27.75 12.6766 27.375 12.311C27.0783 12.0216 26.7815 11.8849 26.4229 11.7197C26.3284 11.6761 26.2292 11.6304 26.125 11.5796C26.067 11.5608 26.006 11.539 25.9406 11.5156C25.5833 11.3881 25.0953 11.2139 24.25 11.2139ZM20 14.2612C17 14.2612 14.625 16.5771 14.625 19.5025C14.625 22.4279 17 24.7438 20 24.7438C23 24.7438 25.375 22.4279 25.375 19.5025C25.375 16.5771 23 14.2612 20 14.2612ZM26.75 14.1393C26.75 14.8125 26.1904 15.3582 25.5 15.3582C24.8096 15.3582 24.25 14.8125 24.25 14.1393C24.25 13.4661 24.8096 12.9204 25.5 12.9204C26.1904 12.9204 26.75 13.4661 26.75 14.1393Z" fill="#FEF5FF"/>
<path fill-rule="evenodd" clip-rule="evenodd" d="M0 19.5025C0 8.73157 8.95431 0 20 0C31.0457 0 40 8.73157 40 19.5025C40 30.2735 31.0457 39.005 20 39.005C8.95431 39.005 0 30.2735 0 19.5025ZM15.75 9.38558H24.25C25.375 9.50747 26.125 9.62936 26.75 9.87315C27.5 10.2388 28 10.4826 28.625 11.0921C29.25 11.7015 29.625 12.311 29.875 12.9204C30.125 13.5299 30.375 14.2612 30.375 15.3582V23.6468C30.25 24.7438 30.125 25.4752 29.875 26.0846C29.5 26.816 29.25 27.3035 28.625 27.913C28 28.5224 27.375 28.8881 26.75 29.1319C26.125 29.3757 25.375 29.6194 24.25 29.6194H15.75C14.625 29.4975 13.875 29.3757 13.25 29.1319C12.5 28.7662 12 28.5224 11.375 27.913C10.75 27.3035 10.375 26.6941 10.125 26.0846C9.875 25.4752 9.625 24.7438 9.625 23.6468V15.3582C9.75 14.2612 9.875 13.5299 10.125 12.9204C10.5 12.1891 10.75 11.7015 11.375 11.0921C12 10.4826 12.625 10.1169 13.25 9.87315C13.875 9.62936 14.625 9.38558 15.75 9.38558Z" fill="#FEF5FF"/>
</g>
</g>
</svg>
