<svg width="56" height="22" viewBox="0 0 56 22" fill="none" xmlns="http://www.w3.org/2000/svg">
<circle cx="28.2058" cy="11.1345" r="10.7116" fill="#F89D87"/>
<path d="M44.816 3.14665C32.4686 5.69244 23.949 5.58398 11.2903 2.89603C8.87474 2.38312 6.22737 2.26652 4.23637 3.72729C-0.651485 7.31343 -0.743682 14.2543 3.95977 18.1716C6.06121 19.9218 9.0203 19.8228 11.6869 19.2156C24.2849 16.3468 32.7301 16.1043 44.5839 18.3292C47.8502 18.9423 51.5534 18.7617 53.567 16.1179C56.1635 12.7087 56.1442 8.3019 53.5089 5.04633C51.502 2.56703 47.9401 2.50254 44.816 3.14665Z" fill="#FFECEC"/>
<mask id="mask0_13796_18363" style="mask-type:alpha" maskUnits="userSpaceOnUse" x="0" y="1" width="56" height="20">
<path d="M44.8212 2.3464C32.472 5.01719 23.9521 5.47486 11.2933 2.88344C8.87406 2.3882 6.22737 2.26725 4.23637 3.72802C-0.651485 7.31416 -0.743682 14.255 3.95977 18.1723C6.06121 19.9225 9.0194 19.8185 11.6906 19.232C24.2885 16.4658 32.7339 16.772 44.5894 19.1274C47.8491 19.7751 51.556 19.5631 53.4894 16.8601C56.1887 13.0861 56.1701 7.9187 53.4336 4.30797C51.507 1.7658 47.9389 1.67214 44.8212 2.3464Z" fill="#F4BECD" stroke="#EC4976"/>
</mask>
<g mask="url(#mask0_13796_18363)">
<path d="M44.8212 2.3464C32.472 5.01719 23.9521 5.47486 11.2933 2.88344C8.87406 2.3882 6.22737 2.26725 4.23637 3.72802C-0.651485 7.31416 -0.743682 14.255 3.95977 18.1723C6.06121 19.9225 9.0194 19.8185 11.6906 19.232C24.2885 16.4658 32.7339 16.772 44.5894 19.1274C47.8491 19.7751 51.556 19.5631 53.4894 16.8601C56.1887 13.0861 56.1701 7.9187 53.4336 4.30797C51.507 1.7658 47.9389 1.67214 44.8212 2.3464Z" fill="#FFECEC" stroke="#F89D87"/>
<circle cx="4.94382" cy="4.94382" r="4.94382" transform="matrix(-1 0 0 1 32.6348 6.19141)" fill="#FC5683"/>
</g>
</svg>
