<svg width="20" height="24" viewBox="0 0 20 24" fill="none" xmlns="http://www.w3.org/2000/svg">
<path id="Vector" d="M9.99992 22.7987C12.5693 20.5622 14.6007 18.2876 16.094 15.9749C17.5873 13.6623 18.3339 11.6622 18.3339 9.97451C18.3339 7.47345 17.5422 5.40917 15.9587 3.78167C14.3751 2.15439 12.3889 1.34076 9.99992 1.34076C7.61096 1.34076 5.62472 2.15439 4.04119 3.78167C2.45766 5.40917 1.6659 7.47345 1.6659 9.97451C1.6659 11.6622 2.41255 13.6623 3.90585 15.9749C5.39915 18.2876 7.43051 20.5622 9.99992 22.7987ZM9.99992 24C9.7862 24 9.57237 23.9649 9.35843 23.8947C9.14471 23.8248 8.9475 23.7109 8.76682 23.553C7.79415 22.6591 6.80826 21.6637 5.80916 20.5666C4.81029 19.4695 3.90289 18.3334 3.08698 17.1581C2.27106 15.9829 1.60245 14.7832 1.08114 13.559C0.559597 12.3348 0.298828 11.1399 0.298828 9.97451C0.298828 7.08247 1.24051 4.69704 3.12389 2.81822C5.00703 0.939408 7.29904 0 9.99992 0C12.7008 0 14.9928 0.939408 16.876 2.81822C18.7593 4.69704 19.701 7.08247 19.701 9.97451C19.701 11.1399 19.4403 12.3304 18.9187 13.546C18.3974 14.7613 17.7331 15.9609 16.9259 17.1448C16.1188 18.3289 15.2158 19.4651 14.2167 20.5533C13.2178 21.6417 12.232 22.6328 11.2593 23.5267C11.085 23.6845 10.887 23.8029 10.6653 23.8818C10.4434 23.9606 10.2216 24 9.99992 24ZM10.0047 11.9356C10.6133 11.9356 11.1327 11.7189 11.5628 11.2855C11.9932 10.8522 12.2084 10.3312 12.2084 9.72263C12.2084 9.11405 11.9916 8.59456 11.558 8.16416C11.1247 7.73399 10.6037 7.5189 9.99514 7.5189C9.38656 7.5189 8.86719 7.73559 8.43702 8.16895C8.00662 8.60231 7.79142 9.12328 7.79142 9.73185C7.79142 10.3404 8.00821 10.8599 8.4418 11.2903C8.87516 11.7205 9.39613 11.9356 10.0047 11.9356Z" fill="#5F5F5F"/>
</svg>
