<svg width="24" height="22" viewBox="0 0 24 22" fill="none" xmlns="http://www.w3.org/2000/svg">
<path id="Vector" d="M4.10257 18.9604L1.6581 21.4048C1.34983 21.7131 0.996422 21.7848 0.597867 21.6199C0.199289 21.4551 0 21.1546 0 20.7185L0 2.2424C0 1.69625 0.188245 1.23492 0.564733 0.858435C0.941222 0.481946 1.40254 0.293701 1.9487 0.293701L22.0513 0.293701C22.5975 0.293701 23.0588 0.481946 23.4353 0.858435C23.8118 1.23492 24 1.69625 24 2.2424L24 17.0117C24 17.5578 23.8118 18.0191 23.4353 18.3956C23.0588 18.7721 22.5975 18.9604 22.0513 18.9604L4.10257 18.9604ZM3.60853 17.8322L22.0513 17.8322C22.2564 17.8322 22.4445 17.7467 22.6154 17.5758C22.7863 17.4048 22.8718 17.2168 22.8718 17.0117L22.8718 2.2424C22.8718 2.03727 22.7863 1.84924 22.6154 1.6783C22.4445 1.50737 22.2564 1.4219 22.0513 1.4219L1.9487 1.4219C1.74357 1.4219 1.55553 1.50737 1.3846 1.6783C1.21367 1.84924 1.1282 2.03727 1.1282 2.2424L1.1282 20.3749L3.60853 17.8322Z" fill="#5F5F5F"/>
</svg>
