<svg width="57" height="23" viewBox="0 0 57 23" fill="none" xmlns="http://www.w3.org/2000/svg">
<circle cx="28.9558" cy="11.5583" r="10.7116" fill="#F89D87"/>
<path d="M45.566 3.57048C33.2186 6.11627 24.699 6.00781 12.0403 3.31986C9.62474 2.80695 6.97737 2.69035 4.98637 4.15112C0.0985154 7.73726 0.00631821 14.6781 4.70977 18.5954C6.81121 20.3456 9.7703 20.2467 12.4369 19.6394C25.0349 16.7706 33.4801 16.5281 45.3339 18.753C48.6002 19.3661 52.3034 19.1856 54.317 16.5417C56.9135 13.1326 56.8942 8.72573 54.2589 5.47016C52.252 2.99085 48.6901 2.92637 45.566 3.57048Z" fill="#FFECEC"/>
<mask id="mask0_13796_18373" style="mask-type:alpha" maskUnits="userSpaceOnUse" x="0" y="1" width="57" height="20">
<path d="M45.5712 2.77023C33.222 5.44102 24.7021 5.89869 12.0433 3.30727C9.62406 2.81203 6.97737 2.69108 4.98637 4.15185C0.0985154 7.73799 0.00631821 14.6789 4.70977 18.5962C6.81121 20.3463 9.7694 20.2423 12.4406 19.6558C25.0385 16.8897 33.4839 17.1958 45.3394 19.5513C48.5991 20.1989 52.306 19.987 54.2394 17.2839C56.9387 13.5099 56.9201 8.34253 54.1836 4.7318C52.257 2.18963 48.6889 2.09597 45.5712 2.77023Z" fill="#F4BECD" stroke="#EC4976"/>
</mask>
<g mask="url(#mask0_13796_18373)">
<path d="M45.5712 2.77023C33.222 5.44102 24.7021 5.89869 12.0433 3.30727C9.62406 2.81203 6.97737 2.69108 4.98637 4.15185C0.0985154 7.73799 0.00631821 14.6789 4.70977 18.5962C6.81121 20.3463 9.7694 20.2423 12.4406 19.6558C25.0385 16.8897 33.4839 17.1958 45.3394 19.5513C48.5991 20.1989 52.306 19.987 54.2394 17.2839C56.9387 13.5099 56.9201 8.34253 54.1836 4.7318C52.257 2.18963 48.6889 2.09597 45.5712 2.77023Z" fill="#FFECEC" stroke="#F89D87"/>
<circle cx="7.82772" cy="7.82772" r="7.82772" transform="matrix(-1 0 0 1 36.6807 3.31934)" fill="#FC5683"/>
</g>
</svg>
