<svg width="16" height="16" viewBox="0 0 16 16" fill="none" xmlns="http://www.w3.org/2000/svg">
<path d="M2.70039 12.2185C2.45818 12.0816 2.2657 11.8956 2.12296 11.6605C1.98006 11.4253 1.90861 11.1616 1.90861 10.8691L1.90861 7.2082L0.405093 6.37488C0.268174 6.29257 0.166428 6.19555 0.0998571 6.08381C0.0332859 5.97207 0 5.84798 0 5.71153C0 5.57508 0.0332859 5.45115 0.0998571 5.33972C0.166428 5.2283 0.268174 5.13143 0.405093 5.04912L6.84527 1.53643C6.95953 1.47285 7.07756 1.42744 7.19937 1.40021C7.32119 1.37299 7.44614 1.35938 7.57425 1.35938C7.70236 1.35938 7.82732 1.37299 7.94913 1.40021C8.07094 1.42744 8.18921 1.47269 8.30394 1.53595L15.5951 5.48868C15.7283 5.56737 15.8291 5.66613 15.8975 5.78495C15.9658 5.90377 16 6.03195 16 6.1695L16 11.2686C16 11.4023 15.9548 11.5145 15.8643 11.605C15.7736 11.6956 15.6613 11.7409 15.5274 11.7409C15.3933 11.7409 15.2812 11.6956 15.191 11.605C15.1008 11.5145 15.0557 11.4023 15.0557 11.2686L15.0557 6.24221L13.2399 7.2082V10.8691C13.2399 11.1616 13.1684 11.4253 13.0255 11.6605C12.8828 11.8956 12.6903 12.0816 12.4481 12.2185L8.30795 14.4593C8.19055 14.5258 8.07094 14.5727 7.94913 14.6C7.82732 14.6272 7.70236 14.6408 7.57425 14.6408C7.44614 14.6408 7.32119 14.6272 7.19937 14.6C7.07756 14.5727 6.95796 14.5258 6.84055 14.4593L2.70039 12.2185ZM7.35636 9.09675C7.44103 9.14522 7.51665 9.16946 7.58322 9.16946C7.64995 9.16946 7.72565 9.14522 7.81032 9.09675L14.0243 5.712L7.81032 2.3452C7.72565 2.29688 7.64995 2.27272 7.58322 2.27272C7.51665 2.27272 7.44103 2.29688 7.35636 2.3452L1.12416 5.712L7.35636 9.09675ZM7.33818 13.6602C7.42285 13.7087 7.50154 13.7329 7.57425 13.7329C7.64696 13.7329 7.72565 13.7087 7.81032 13.6602L12.0232 11.3831C12.1201 11.3225 12.1898 11.2528 12.2321 11.1741C12.2744 11.0955 12.2956 10.9956 12.2956 10.8746V7.72755L8.31338 9.90127C8.19598 9.96784 8.07668 10.0147 7.9555 10.042C7.83448 10.0692 7.70739 10.0828 7.57425 10.0828C7.44111 10.0828 7.31402 10.0692 7.193 10.042C7.07182 10.0147 6.95253 9.96784 6.83512 9.90127L2.85289 7.72755L2.85289 10.8746C2.85289 10.9715 2.87405 11.0654 2.91639 11.1562C2.95872 11.2469 3.02836 11.3225 3.12531 11.3831L7.33818 13.6602Z" fill="#5F5F5F"/>
</svg>
