<svg width="12" height="12" viewBox="0 0 12 12" fill="none" xmlns="http://www.w3.org/2000/svg">
<path d="M5.98774 2.82979C5.9205 2.82979 5.86495 2.80748 5.82109 2.76285C5.77724 2.71823 5.75532 2.66253 5.75532 2.59575V1.23404C5.75532 1.16726 5.77778 1.11156 5.82271 1.06694C5.86765 1.02231 5.92374 1 5.99098 1C6.05822 1 6.11377 1.02231 6.15763 1.06694C6.20148 1.11156 6.2234 1.16726 6.2234 1.23404V2.59575C6.2234 2.66253 6.20094 2.71823 6.15601 2.76285C6.11107 2.80748 6.05498 2.82979 5.98774 2.82979ZM8.58652 3.91348C8.53522 3.86218 8.50957 3.8045 8.50957 3.74043C8.50957 3.67636 8.53522 3.61867 8.58652 3.56737L9.53901 2.61384C9.59142 2.56183 9.64938 2.53582 9.71289 2.53582C9.77639 2.53582 9.83415 2.56183 9.88616 2.61384C9.93746 2.66514 9.96311 2.72069 9.96311 2.7805C9.96311 2.84031 9.93746 2.89586 9.88616 2.94716L8.91986 3.91348C8.86855 3.96478 8.81299 3.99043 8.75318 3.99043C8.69338 3.99043 8.63782 3.96478 8.58652 3.91348ZM9.90425 6.74468C9.83747 6.74468 9.78177 6.72222 9.73715 6.67729C9.69252 6.63235 9.67021 6.57626 9.67021 6.50902C9.67021 6.44178 9.69252 6.38623 9.73715 6.34237C9.78177 6.29853 9.83747 6.2766 9.90425 6.2766H11.266C11.3327 6.2766 11.3884 6.29906 11.4331 6.34399C11.4777 6.38893 11.5 6.44502 11.5 6.51226C11.5 6.5795 11.4777 6.63505 11.4331 6.67891C11.3884 6.72276 11.3327 6.74468 11.266 6.74468H9.90425ZM9.54822 10.4074L8.58865 9.45391C8.54208 9.40261 8.5188 9.34493 8.5188 9.28086C8.5188 9.21679 8.54208 9.1591 8.58865 9.10781C8.63995 9.05651 8.69882 9.03086 8.76524 9.03086C8.83167 9.03086 8.89054 9.05651 8.94184 9.10781L9.88829 10.0603C9.9403 10.1127 9.96631 10.1707 9.96631 10.2342C9.96631 10.2977 9.94014 10.3554 9.88781 10.4074C9.84021 10.4595 9.78353 10.4855 9.71777 10.4855C9.65202 10.4855 9.59551 10.4595 9.54822 10.4074ZM3.0695 3.92411L2.09255 2.94716C2.04125 2.89586 2.01559 2.83853 2.01559 2.77518C2.01559 2.71182 2.04125 2.65804 2.09255 2.61384C2.14333 2.56183 2.19875 2.53582 2.25883 2.53582C2.3189 2.53582 2.37494 2.56183 2.42695 2.61384L3.39219 3.58014C3.44349 3.63145 3.47092 3.68878 3.47447 3.75213C3.47801 3.81549 3.45413 3.87281 3.40283 3.92411C3.35153 3.97541 3.29598 4.00106 3.23617 4.00106C3.17636 4.00106 3.1208 3.97541 3.0695 3.92411ZM2.98936 10.5319H5.26595C5.59495 10.5319 5.87578 10.4158 6.10845 10.1836C6.34111 9.95132 6.45744 9.671 6.45744 9.34259C6.45744 9.0142 6.34541 8.73458 6.12134 8.50372C5.89726 8.27287 5.62028 8.15745 5.29042 8.15745H4.7844L4.59362 7.70354C4.44331 7.36348 4.21464 7.09383 3.90759 6.8946C3.60054 6.69537 3.259 6.59575 2.88298 6.59575C2.34948 6.59575 1.89696 6.78131 1.52541 7.15244C1.15386 7.52358 0.968083 7.97559 0.968083 8.50848C0.968083 9.07446 1.16331 9.55319 1.55377 9.94469C1.94424 10.3362 2.42277 10.5319 2.98936 10.5319ZM2.98936 11C2.30212 11 1.71542 10.7569 1.22924 10.2708C0.743082 9.78458 0.5 9.19787 0.5 8.51064C0.5 7.84469 0.730672 7.28103 1.19201 6.81968C1.65337 6.35834 2.21702 6.12767 2.88298 6.12767C3.37733 6.12767 3.82745 6.2704 4.23335 6.55585C4.63924 6.84132 4.9273 7.21916 5.09752 7.68937C5.56963 7.68937 5.98984 7.82971 6.35816 8.1104C6.72647 8.39109 6.91181 8.80465 6.91418 9.35107C6.90094 9.80426 6.73755 10.1924 6.42399 10.5154C6.11043 10.8385 5.72442 11 5.26595 11H2.98936ZM6.8929 9.1383C6.87565 9.06029 6.85721 8.98441 6.83758 8.91065C6.81796 8.83689 6.79952 8.761 6.78226 8.68298C7.23309 8.49929 7.59663 8.21253 7.87288 7.8227C8.14911 7.43287 8.28723 6.99594 8.28723 6.51191C8.28723 5.87561 8.06312 5.33334 7.6149 4.8851C7.16666 4.43688 6.62482 4.21277 5.98936 4.21277C5.39418 4.21277 4.87724 4.41035 4.43854 4.8055C3.99984 5.20066 3.75721 5.69339 3.71064 6.2837C3.63357 6.26171 3.55414 6.24279 3.47234 6.22695C3.39054 6.21111 3.31111 6.1922 3.23404 6.17022C3.32057 5.47234 3.62642 4.89362 4.15159 4.43405C4.67677 3.97447 5.28936 3.74469 5.98936 3.74469C6.75532 3.74469 7.4078 4.01419 7.94681 4.55319C8.48581 5.0922 8.75531 5.74574 8.75531 6.51379C8.75531 7.1072 8.58463 7.64167 8.24327 8.11721C7.90189 8.59274 7.45177 8.9331 6.8929 9.1383Z" fill="#F89D87"/>
</svg>
