<svg width="57" height="22" viewBox="0 0 57 22" fill="none" xmlns="http://www.w3.org/2000/svg">
<circle cx="28.7058" cy="10.7116" r="10.7116" fill="#F89D87"/>
<path d="M45.316 2.72429C32.9686 5.27008 24.449 5.16161 11.7903 2.47367C9.37474 1.96075 6.72737 1.84416 4.73637 3.30493C-0.151485 6.89107 -0.243682 13.832 4.45977 17.7492C6.56121 19.4994 9.5203 19.4005 12.1869 18.7932C24.7849 15.9244 33.2301 15.6819 45.0839 17.9069C48.3502 18.5199 52.0534 18.3394 54.067 15.6955C56.6635 12.2864 56.6442 7.87954 54.0089 4.62397C52.002 2.14466 48.4401 2.08017 45.316 2.72429Z" fill="#FFECEC"/>
<mask id="mask0_1828_2844" style="mask-type:alpha" maskUnits="userSpaceOnUse" x="0" y="1" width="57" height="19">
<path d="M45.3212 1.92306C32.972 4.59385 24.4521 5.05152 11.7933 2.4601C9.37406 1.96486 6.72737 1.84391 4.73637 3.30468C-0.151485 6.89082 -0.243682 13.8317 4.45977 17.749C6.56121 19.4992 9.5194 19.3951 12.1906 18.8086C24.7885 16.0425 33.2339 16.3486 45.0894 18.7041C48.3491 19.3517 52.056 19.1398 53.9894 16.4367C56.6887 12.6628 56.6701 7.49536 53.9336 3.88463C52.007 1.34246 48.4389 1.2488 45.3212 1.92306Z" fill="#F4BECD" stroke="#EC4976"/>
</mask>
<g mask="url(#mask0_1828_2844)">
<path d="M45.3212 1.92306C32.972 4.59385 24.4521 5.05152 11.7933 2.4601C9.37406 1.96486 6.72737 1.84391 4.73637 3.30468C-0.151485 6.89082 -0.243682 13.8317 4.45977 17.749C6.56121 19.4992 9.5194 19.3951 12.1906 18.8086C24.7885 16.0425 33.2339 16.3486 45.0894 18.7041C48.3491 19.3517 52.056 19.1398 53.9894 16.4367C56.6887 12.6628 56.6701 7.49536 53.9336 3.88463C52.007 1.34246 48.4389 1.2488 45.3212 1.92306Z" fill="#FFECEC" stroke="#F89D87"/>
</g>
</svg>
