<svg width="12" height="12" viewBox="0 0 12 12" fill="none" xmlns="http://www.w3.org/2000/svg">
<path d="M4.93068 10.0535L8.49991 5.76785H6.19718L6.65773 2.10907L3.42111 6.79128H5.39122L4.93068 10.0535ZM4.50851 7.55886H2.67912C2.5267 7.55886 2.41397 7.49063 2.34093 7.35417C2.26789 7.21771 2.27828 7.08552 2.37209 6.95759L6.6961 0.714637C6.76433 0.620822 6.84962 0.556858 6.95196 0.522743C7.05431 0.488628 7.15665 0.492893 7.25899 0.535536C7.36134 0.578179 7.44236 0.647133 7.50206 0.742398C7.56176 0.837662 7.58308 0.939281 7.56602 1.04725L7.0671 5.00027H9.31866C9.48379 5.00027 9.5997 5.07276 9.66638 5.21775C9.73307 5.36274 9.71524 5.4992 9.61289 5.62713L4.86671 11.32C4.79471 11.4045 4.70635 11.4597 4.60163 11.4857C4.49691 11.5117 4.39764 11.5023 4.30382 11.4575C4.21001 11.4127 4.13538 11.344 4.07995 11.2512C4.02451 11.1585 4.00532 11.0577 4.02238 10.949L4.50851 7.55886Z" fill="#F89D87"/>
</svg>
