<svg width="24" height="24" viewBox="0 0 24 24" fill="none" xmlns="http://www.w3.org/2000/svg">
<path d="M12 18.0882L7.92439 19.8409C7.33733 20.0938 6.77972 20.0452 6.25153 19.6951C5.72317 19.3451 5.45898 18.8564 5.45898 18.2288V5.76116C5.45898 5.25932 5.62705 4.84033 5.96318 4.5042C6.29932 4.16807 6.7183 4 7.22014 4H16.7798C17.2816 4 17.7006 4.16807 18.0367 4.5042C18.3729 4.84033 18.5409 5.25932 18.5409 5.76116V18.2288C18.5409 18.8564 18.2768 19.3451 17.7484 19.6951C17.2202 20.0452 16.6626 20.0938 16.0755 19.8409L12 18.0882ZM12 16.8639L16.5072 18.8093C16.7309 18.9073 16.9441 18.8864 17.1469 18.7466C17.3495 18.6067 17.4508 18.418 17.4508 18.1806V5.76116C17.4508 5.59327 17.3809 5.43947 17.2412 5.29975C17.1015 5.16002 16.9477 5.09016 16.7798 5.09016H7.22014C7.05226 5.09016 6.89845 5.16002 6.75873 5.29975C6.61901 5.43947 6.54915 5.59327 6.54915 5.76116V18.1806C6.54915 18.418 6.65044 18.6067 6.85303 18.7466C7.0558 18.8864 7.26902 18.9073 7.49268 18.8093L12 16.8639ZM12 5.09016H6.54915H17.4508H12Z" fill="#792A85"/>
</svg>
