<svg width="33" height="33" viewBox="0 0 33 33" fill="none" xmlns="http://www.w3.org/2000/svg">
<path d="M32.1094 11.457C34.8902 19.7465 30.4087 28.7524 22.1192 31.5332C13.8297 34.314 4.82377 29.8325 2.04299 21.543C1.84873 20.9639 2.16089 20.3366 2.73998 20.1423C3.31908 19.9481 3.94639 20.2602 4.14065 20.8393C6.53342 27.9722 14.2827 31.8283 21.4155 29.4356C28.5484 27.0428 32.4045 19.2936 30.0118 12.1607C27.619 5.0278 19.8698 1.17166 12.7369 3.56443C9.35966 4.69735 6.598 7.12683 4.9879 10.2403L8.26025 9.14252C8.83935 8.94826 9.46666 9.26042 9.66092 9.83951C9.85518 10.4186 9.54302 11.0459 8.96393 11.2402L3.37017 13.1166C2.79107 13.3109 2.16376 12.9987 1.9695 12.4196L0.0930407 6.82589C-0.10122 6.2468 0.21094 5.61949 0.790034 5.42523C1.36913 5.23097 1.99644 5.54313 2.1907 6.12222L3.15726 9.00356C5.04045 5.49188 8.19059 2.75581 12.0332 1.46677C20.3227 -1.314 29.3287 3.16748 32.1094 11.457Z" fill="#792A85"/>
</svg>
