<svg width="33" height="33" viewBox="0 0 33 33" fill="none" xmlns="http://www.w3.org/2000/svg">
<path d="M0.890566 11.457C-1.89021 19.7465 2.59127 28.7524 10.8808 31.5332C19.1703 34.314 28.1762 29.8325 30.957 21.543C31.1513 20.9639 30.8391 20.3366 30.26 20.1423C29.6809 19.9481 29.0536 20.2602 28.8594 20.8393C26.4666 27.9722 18.7173 31.8283 11.5845 29.4356C4.45159 27.0428 0.595454 19.2936 2.98822 12.1607C5.38099 5.0278 13.1302 1.17166 20.2631 3.56443C23.6403 4.69735 26.402 7.12683 28.0121 10.2403L24.7397 9.14252C24.1607 8.94826 23.5333 9.26042 23.3391 9.83951C23.1448 10.4186 23.457 11.0459 24.0361 11.2402L29.6298 13.1166C30.2089 13.3109 30.8362 12.9987 31.0305 12.4196L32.907 6.82589C33.1012 6.2468 32.7891 5.61949 32.21 5.42523C31.6309 5.23097 31.0036 5.54313 30.8093 6.12222L29.8427 9.00356C27.9595 5.49188 24.8094 2.75581 20.9668 1.46677C12.6773 -1.314 3.67134 3.16748 0.890566 11.457Z" fill="#792A85"/>
</svg>
