<svg width="16" height="16" viewBox="0 0 16 16" fill="none" xmlns="http://www.w3.org/2000/svg">
<path d="M7.07511 16C6.86889 16 6.68971 15.9322 6.53756 15.7967C6.38541 15.661 6.29111 15.4917 6.25467 15.2889L6.02045 13.4291C5.73674 13.3436 5.42993 13.2091 5.1 13.0256C4.77008 12.8421 4.48948 12.6456 4.25822 12.436L2.55556 13.1676C2.36756 13.2507 2.17667 13.2598 1.98289 13.1949C1.78911 13.1299 1.63985 13.0067 1.53511 12.8256L0.576002 11.1744C0.471261 10.9933 0.440521 10.8041 0.48378 10.6069C0.527039 10.4097 0.63015 10.2479 0.793113 10.1213L2.27867 9.01022C2.25245 8.84963 2.23082 8.68415 2.21378 8.51378C2.19659 8.34341 2.188 8.17785 2.188 8.01711C2.188 7.86778 2.19659 7.71081 2.21378 7.54622C2.23082 7.38148 2.25245 7.196 2.27867 6.98978L0.793113 5.87867C0.63015 5.75215 0.529854 5.58748 0.492224 5.38467C0.454743 5.18185 0.488372 4.98978 0.593113 4.80844L1.53511 3.20844C1.63985 3.03867 1.78911 2.91845 1.98289 2.84778C2.17667 2.77711 2.36756 2.78341 2.55556 2.86667L4.24111 3.58111C4.50659 3.36007 4.79378 3.16067 5.10267 2.98289C5.41141 2.80511 5.71163 2.66778 6.00334 2.57089L6.25467 0.711111C6.29111 0.508296 6.38541 0.339038 6.53756 0.203334C6.68971 0.0677783 6.86889 0 7.07511 0H8.92489C9.13111 0 9.3103 0.0677783 9.46245 0.203334C9.61459 0.339038 9.70889 0.508296 9.74534 0.711111L9.97956 2.588C10.3203 2.7077 10.6214 2.84504 10.8829 3C11.1444 3.15496 11.4136 3.34867 11.6907 3.58111L13.4616 2.86667C13.6496 2.78341 13.8404 2.77711 14.0342 2.84778C14.228 2.91845 14.3773 3.03867 14.482 3.20844L15.424 4.82556C15.5287 5.00674 15.5595 5.19593 15.5162 5.39311C15.473 5.5903 15.3699 5.75215 15.2069 5.87867L13.6529 7.04111C13.7019 7.22452 13.7293 7.39289 13.7351 7.54622C13.7407 7.69941 13.7436 7.85067 13.7436 8C13.7436 8.13793 13.7379 8.28348 13.7264 8.43667C13.715 8.59 13.6888 8.77548 13.6478 8.99311L15.1504 10.1213C15.3134 10.2479 15.4194 10.4097 15.4684 10.6069C15.5173 10.8041 15.4894 10.9933 15.3847 11.1744L14.4376 12.8084C14.3328 12.9898 14.1807 13.1129 13.9811 13.1778C13.7817 13.2427 13.588 13.2336 13.4 13.1504L11.6907 12.4189C11.4136 12.6513 11.135 12.8507 10.8547 13.0171C10.5744 13.1835 10.2827 13.3151 9.97956 13.412L9.74534 15.2889C9.70889 15.4917 9.61459 15.661 9.46245 15.7967C9.3103 15.9322 9.13111 16 8.92489 16H7.07511ZM7.11111 15.1111H8.84956L9.17778 12.7042C9.62563 12.5857 10.0287 12.423 10.3871 12.2162C10.7456 12.0094 11.1106 11.7259 11.482 11.3658L13.6991 12.3111L14.5829 10.8L12.6376 9.33844C12.7116 9.08541 12.7607 8.85267 12.7847 8.64022C12.8085 8.42763 12.8204 8.21422 12.8204 8C12.8204 7.77437 12.8085 7.56096 12.7847 7.35978C12.7607 7.15874 12.7116 6.93741 12.6376 6.69578L14.6171 5.2L13.7333 3.68889L11.4649 4.63933C11.196 4.34422 10.8424 4.06756 10.4042 3.80933C9.96615 3.55126 9.55163 3.38007 9.16067 3.29578L8.88889 0.888889H7.11622L6.83934 3.27867C6.39148 3.37437 5.97978 3.52852 5.60422 3.74111C5.22882 3.95356 4.85534 4.24556 4.48378 4.61711L2.26667 3.68889L1.38289 5.2L3.31111 6.63933C3.23704 6.83874 3.18519 7.05526 3.15556 7.28889C3.12593 7.52252 3.11111 7.76526 3.11111 8.01711C3.11111 8.24274 3.12593 8.46667 3.15556 8.68889C3.18519 8.91111 3.23134 9.12763 3.294 9.33844L1.38289 10.8L2.26667 12.3111L4.46667 11.3778C4.81541 11.7299 5.17748 12.0123 5.55289 12.2249C5.92845 12.4373 6.35156 12.6028 6.82222 12.7213L7.11111 15.1111ZM7.976 10.2222C8.596 10.2222 9.12141 10.0068 9.55222 9.576C9.98289 9.14533 10.1982 8.62 10.1982 8C10.1982 7.38 9.98289 6.85467 9.55222 6.424C9.12141 5.99319 8.596 5.77778 7.976 5.77778C7.35274 5.77778 6.82652 5.99319 6.39734 6.424C5.9683 6.85467 5.75378 7.38 5.75378 8C5.75378 8.62 5.9683 9.14533 6.39734 9.576C6.82652 10.0068 7.35274 10.2222 7.976 10.2222Z" fill="#792A85"/>
</svg>
