<svg width="57" height="22" viewBox="0 0 57 22" fill="none" xmlns="http://www.w3.org/2000/svg">
<circle cx="28.7058" cy="10.7116" r="10.7116" fill="#F89D87"/>
<path d="M45.316 2.7238C32.9686 5.26959 24.449 5.16113 11.7903 2.47318C9.37474 1.96027 6.72737 1.84367 4.73637 3.30444C-0.151485 6.89058 -0.243682 13.8315 4.45977 17.7487C6.56121 19.4989 9.5203 19.4 12.1869 18.7928C24.7849 15.9239 33.2301 15.6814 45.0839 17.9064C48.3502 18.5194 52.0534 18.3389 54.067 15.695C56.6635 12.2859 56.6442 7.87905 54.0089 4.62348C52.002 2.14417 48.4401 2.07969 45.316 2.7238Z" fill="#FFECEC"/>
<mask id="mask0_13796_18353" style="mask-type:alpha" maskUnits="userSpaceOnUse" x="0" y="1" width="57" height="19">
<path d="M45.3212 1.92355C32.972 4.59434 24.4521 5.05201 11.7933 2.46059C9.37406 1.96535 6.72737 1.8444 4.73637 3.30517C-0.151485 6.89131 -0.243682 13.8322 4.45977 17.7495C6.56121 19.4997 9.5194 19.3956 12.1906 18.8091C24.7885 16.043 33.2339 16.3491 45.0894 18.7046C48.3491 19.3522 52.056 19.1403 53.9894 16.4372C56.6887 12.6633 56.6701 7.49585 53.9336 3.88512C52.007 1.34295 48.4389 1.24929 45.3212 1.92355Z" fill="#F4BECD" stroke="#EC4976"/>
</mask>
<g mask="url(#mask0_13796_18353)">
<path d="M45.3212 1.92355C32.972 4.59434 24.4521 5.05201 11.7933 2.46059C9.37406 1.96535 6.72737 1.8444 4.73637 3.30517C-0.151485 6.89131 -0.243682 13.8322 4.45977 17.7495C6.56121 19.4997 9.5194 19.3956 12.1906 18.8091C24.7885 16.043 33.2339 16.3491 45.0894 18.7046C48.3491 19.3522 52.056 19.1403 53.9894 16.4372C56.6887 12.6633 56.6701 7.49585 53.9336 3.88512C52.007 1.34295 48.4389 1.24929 45.3212 1.92355Z" fill="#FFECEC" stroke="#F89D87"/>
<circle cx="3.29588" cy="3.29588" r="3.29588" transform="matrix(-1 0 0 1 31.4873 7.41602)" fill="#FC5683"/>
</g>
</svg>
