<svg width="57" height="23" viewBox="0 0 57 23" fill="none" xmlns="http://www.w3.org/2000/svg">
<circle cx="28.4558" cy="11.405" r="10.7116" fill="#F89D87"/>
<path d="M45.066 3.41716C32.7186 5.96295 24.199 5.85449 11.5403 3.16654C9.12474 2.65363 6.47737 2.53703 4.48637 3.9978C-0.401485 7.58394 -0.493682 14.5248 4.20977 18.4421C6.31121 20.1923 9.2703 20.0933 11.9369 19.4861C24.5349 16.6173 32.9801 16.3748 44.8339 18.5997C48.1002 19.2128 51.8034 19.0323 53.817 16.3884C56.4135 12.9792 56.3942 8.57241 53.7589 5.31684C51.752 2.83753 48.1901 2.77304 45.066 3.41716Z" fill="#FFECEC"/>
<mask id="mask0_13796_18393" style="mask-type:alpha" maskUnits="userSpaceOnUse" x="0" y="1" width="57" height="20">
<path d="M45.0712 2.61691C32.722 5.2877 24.2021 5.74537 11.5433 3.15395C9.12406 2.6587 6.47737 2.53776 4.48637 3.99853C-0.401485 7.58467 -0.493682 14.5256 4.20977 18.4428C6.31121 20.193 9.2694 20.089 11.9406 19.5025C24.5385 16.7363 32.9839 17.0425 44.8394 19.398C48.0991 20.0456 51.806 19.8337 53.7394 17.1306C56.4387 13.3566 56.4201 8.18921 53.6836 4.57848C51.757 2.03631 48.1889 1.94265 45.0712 2.61691Z" fill="#F4BECD" stroke="#F81352"/>
</mask>
<g mask="url(#mask0_13796_18393)">
<path d="M45.0712 2.61691C32.722 5.2877 24.2021 5.74537 11.5433 3.15395C9.12406 2.6587 6.47737 2.53776 4.48637 3.99853C-0.401485 7.58467 -0.493682 14.5256 4.20977 18.4428C6.31121 20.193 9.2694 20.089 11.9406 19.5025C24.5385 16.7363 32.9839 17.0425 44.8394 19.398C48.0991 20.0456 51.806 19.8337 53.7394 17.1306C56.4387 13.3566 56.4201 8.18921 53.6836 4.57848C51.757 2.03631 48.1889 1.94265 45.0712 2.61691Z" fill="#FC5683" stroke="#FC5683"/>
</g>
</svg>
