<svg width="32" height="27" viewBox="0 0 32 27" fill="none" xmlns="http://www.w3.org/2000/svg">
<path d="M9.44955 27.0016C9.44955 21.783 5.2186 17.552 0 17.552C5.2186 17.552 9.44955 13.3211 9.44955 8.10156C9.44955 13.3211 13.6805 17.552 18.9 17.552C13.6805 17.552 9.44955 21.783 9.44955 27.0016Z" fill="#FFDBCE"/>
<path d="M16.6506 9C16.6506 6.51544 14.434 4.50037 11.7002 4.50037C14.434 4.50037 16.6506 2.4853 16.6506 0C16.6506 2.4853 18.8672 4.50037 21.6002 4.50037C18.8672 4.50037 16.6506 6.51544 16.6506 9Z" fill="#FFDBCE"/>
<path d="M25.2009 20.7016C25.2009 17.2232 22.3798 14.4021 18.9004 14.4021C22.3798 14.4021 25.2009 11.581 25.2009 8.10156C25.2009 11.581 28.022 14.4021 31.5004 14.4021C28.022 14.4021 25.2009 17.2232 25.2009 20.7016Z" fill="#FFDBCE"/>
</svg>
