<svg width="40" height="40" viewBox="0 0 40 40" fill="none" xmlns="http://www.w3.org/2000/svg">
<rect width="40" height="40" rx="20" fill="#FEF5FF"/>
<g clip-path="url(#clip0_502_40983)">
<path d="M27.0105 16.0127C26.0973 16.0127 25.2548 15.7102 24.5783 15.1999C23.8023 14.6149 23.2448 13.7568 23.048 12.7677C22.9992 12.5233 22.973 12.2711 22.9705 12.0127H20.362V19.1402L20.3589 23.0443C20.3589 24.088 19.6792 24.973 18.737 25.2843C18.4636 25.3746 18.1683 25.4174 17.8608 25.4005C17.4683 25.3789 17.1005 25.2605 16.7808 25.0693C16.1005 24.6624 15.6392 23.9243 15.6267 23.0799C15.607 21.7602 16.6739 20.6843 17.9926 20.6843C18.253 20.6843 18.503 20.7268 18.737 20.8039V18.8558V18.1555C18.4901 18.1189 18.2389 18.0999 17.9848 18.0999C16.5414 18.0999 15.1914 18.6999 14.2264 19.7808C13.497 20.5977 13.0595 21.6399 12.992 22.7327C12.9036 24.1683 13.4289 25.533 14.4476 26.5399C14.5973 26.6877 14.7545 26.8249 14.9189 26.9514C15.7923 27.6236 16.8601 27.988 17.9848 27.988C18.2389 27.988 18.4901 27.9693 18.737 27.9327C19.7876 27.7771 20.757 27.2961 21.522 26.5399C22.462 25.6108 22.9814 24.3774 22.987 23.0646L22.9736 17.2346C23.422 17.5805 23.9123 17.8668 24.4386 18.0889C25.257 18.4343 26.1248 18.6093 27.018 18.6089V16.7149V16.0121C27.0186 16.0127 27.0111 16.0127 27.0105 16.0127Z" fill="#792A85"/>
</g>
<defs>
<clipPath id="clip0_502_40983">
<rect width="16" height="16" fill="white" transform="translate(12 12)"/>
</clipPath>
</defs>
</svg>
