<svg width="18" height="21" viewBox="0 0 18 21" fill="none" xmlns="http://www.w3.org/2000/svg">
<path d="M9.00013 0.544922C3.49632 5.09492 0.739258 9.02492 0.739258 12.3449C0.739258 17.3249 4.66317 20.5449 9.00013 20.5449C13.3371 20.5449 17.261 17.3249 17.261 12.3449C17.261 9.02492 14.5039 5.09492 9.00013 0.544922ZM4.69415 12.5449C5.07621 12.5449 5.386 12.8049 5.45828 13.1649C5.88165 15.3849 7.81263 16.1449 9.21698 16.0349C9.661 16.0149 10.0327 16.3549 10.0327 16.7849C10.0327 17.1849 9.7023 17.5149 9.28926 17.5349C7.0898 17.6649 4.51861 16.4449 3.93002 13.4149C3.84741 12.9649 4.21915 12.5449 4.69415 12.5449Z" fill="#DC2626"/>
</svg>
