<svg width="26" height="24" viewBox="0 0 26 24" fill="none" xmlns="http://www.w3.org/2000/svg">
<path d="M24.5303 18.3972C24.6792 18.2487 24.7973 18.0722 24.8779 17.878C24.9585 17.6838 25 17.4755 25 17.2653C25 17.055 24.9585 16.8467 24.8779 16.6525C24.7973 16.4583 24.6792 16.2819 24.5303 16.1333L13.9019 5.50489C13.7835 5.38633 13.643 5.29226 13.4883 5.22808C13.3335 5.1639 13.1677 5.13086 13.0002 5.13086C12.8327 5.13086 12.6668 5.1639 12.5121 5.22808C12.3574 5.29226 12.2168 5.38633 12.0985 5.50489L1.47003 16.1333C0.843321 16.7601 0.843321 17.7705 1.47003 18.3972C2.09674 19.0239 3.10714 19.0239 3.73385 18.3972L13.0066 9.13724L22.2793 18.41C22.8932 19.0239 23.9164 19.0239 24.5303 18.3972Z" fill="#792A85" stroke="#792A85" stroke-width="0.2"/>
</svg>
