<svg width="16" height="16" viewBox="0 0 16 16" fill="none" xmlns="http://www.w3.org/2000/svg">
<path id="Vector" d="M6.69971 10.3487L4.40569 8.04331C4.32707 7.97227 4.23571 7.9339 4.13162 7.9282C4.02753 7.92251 3.93313 7.96202 3.84842 8.04673C3.76599 8.12916 3.72478 8.22147 3.72478 8.32364C3.72478 8.42584 3.76599 8.51815 3.84842 8.60058L6.24387 10.9994C6.37302 11.1362 6.52497 11.2046 6.69971 11.2046C6.87445 11.2046 7.0264 11.1362 7.15556 10.9994L12.114 6.05242C12.1873 5.9715 12.2268 5.87901 12.2325 5.77493C12.2382 5.67084 12.1987 5.57644 12.114 5.49173C12.0292 5.4093 11.9352 5.36866 11.8319 5.3698C11.7286 5.37094 11.6357 5.41273 11.5533 5.49516L6.69971 10.3487ZM8.00298 16C6.89899 16 5.86196 15.7901 4.89189 15.3702C3.9218 14.9504 3.07408 14.3781 2.34873 13.6535C1.62339 12.9288 1.05059 12.0819 0.630356 11.1127C0.210118 10.1435 0 9.10695 0 8.00298C0 6.89671 0.209919 5.85664 0.629756 4.88276C1.04961 3.90887 1.62187 3.06173 2.34653 2.34131C3.0712 1.62091 3.91813 1.05059 4.88731 0.630356C5.85648 0.210119 6.89305 0 7.99702 0C9.10329 0 10.1434 0.209918 11.1172 0.629755C12.0911 1.04961 12.9383 1.6194 13.6587 2.33913C14.3791 3.05887 14.9494 3.90522 15.3696 4.87818C15.7899 5.85116 16 6.89077 16 7.99702C16 9.10101 15.7901 10.138 15.3702 11.1081C14.9504 12.0782 14.3806 12.9259 13.6609 13.6513C12.9411 14.3766 12.0948 14.9494 11.1218 15.3696C10.1488 15.7899 9.10923 16 8.00298 16ZM8 15.2479C10.0186 15.2479 11.7312 14.544 13.1379 13.1362C14.5445 11.7284 15.2479 10.0163 15.2479 8C15.2479 5.98139 14.5445 4.26876 13.1379 2.86211C11.7312 1.45546 10.0186 0.752134 8 0.752134C5.98366 0.752134 4.2716 1.45546 2.86382 2.86211C1.45603 4.26876 0.752133 5.98139 0.752133 8C0.752133 10.0163 1.45603 11.7284 2.86382 13.1362C4.2716 14.544 5.98366 15.2479 8 15.2479Z" fill="#792A85"/>
</svg>
