<svg width="16" height="16" viewBox="0 0 16 16" fill="none" xmlns="http://www.w3.org/2000/svg">
<path fill-rule="evenodd" clip-rule="evenodd" d="M7.50621 2.46121C7.65236 2.5218 7.77725 2.62437 7.86511 2.75594C7.95297 2.88752 7.9998 3.04219 7.9998 3.20041V12.8004C7.99977 12.9586 7.95284 13.1133 7.86492 13.2448C7.77702 13.3763 7.65209 13.4788 7.50593 13.5393C7.35977 13.5999 7.19894 13.6157 7.04378 13.5849C6.88862 13.554 6.74609 13.4778 6.6342 13.366L3.6686 10.4004H1.5998C1.38763 10.4004 1.18415 10.3161 1.03412 10.1661C0.884093 10.0161 0.799805 9.81255 0.799805 9.60039V6.40041C0.799805 6.18823 0.884093 5.98475 1.03412 5.83472C1.18415 5.68469 1.38763 5.60041 1.5998 5.60041H3.6686L6.6342 2.63481C6.74609 2.52285 6.88865 2.44661 7.04387 2.41571C7.19909 2.38481 7.35999 2.40064 7.50621 2.46121ZM11.7254 2.34361C11.8754 2.19363 12.0788 2.10938 12.291 2.10938C12.5032 2.10938 12.7066 2.19363 12.8566 2.34361C13.6004 3.08573 14.1904 3.96749 14.5925 4.93825C14.9946 5.90901 15.201 6.94965 15.1998 8.00039C15.201 9.05119 14.9946 10.0918 14.5925 11.0625C14.1904 12.0333 13.6004 12.9151 12.8566 13.6572C12.7057 13.8029 12.5036 13.8836 12.2939 13.8817C12.0841 13.8799 11.8835 13.7957 11.7352 13.6474C11.5868 13.4991 11.5027 13.2985 11.5008 13.0887C11.499 12.8789 11.5796 12.6769 11.7254 12.526C12.3207 11.9325 12.7928 11.227 13.1144 10.4504C13.4362 9.67367 13.6011 8.84103 13.5998 8.00039C13.5998 6.23241 12.8846 4.63401 11.7254 3.47481C11.5754 3.32478 11.4912 3.12133 11.4912 2.90921C11.4912 2.69707 11.5754 2.49362 11.7254 2.34361ZM9.4622 4.60601C9.53652 4.53162 9.62477 4.47261 9.72188 4.43236C9.81901 4.39209 9.92308 4.37137 10.0282 4.37137C10.1333 4.37137 10.2374 4.39209 10.3345 4.43236C10.4316 4.47261 10.5199 4.53162 10.5942 4.60601C11.0405 5.05133 11.3944 5.58045 11.6356 6.16297C11.8768 6.74549 12.0006 7.36992 11.9998 8.00039C12.0006 8.63087 11.8768 9.25527 11.6356 9.83783C11.3944 10.4203 11.0404 10.9494 10.5942 11.3948C10.4441 11.5449 10.2405 11.6293 10.0282 11.6293C9.81588 11.6293 9.61228 11.5449 9.4622 11.3948C9.31213 11.2447 9.22773 11.0411 9.22773 10.8288C9.22773 10.6165 9.31213 10.413 9.4622 10.2628C9.75996 9.96615 9.99605 9.61351 10.157 9.22527C10.3179 8.83695 10.4004 8.42071 10.3998 8.00039C10.4004 7.58009 10.318 7.16381 10.157 6.77553C9.99612 6.38725 9.75996 6.03464 9.4622 5.73801C9.3878 5.6637 9.32885 5.57548 9.28852 5.47836C9.24828 5.38124 9.22756 5.27713 9.22756 5.17201C9.22756 5.06687 9.24828 4.96277 9.28852 4.86565C9.32885 4.76853 9.3878 4.6803 9.4622 4.60601Z" fill="#5F5F5F"/>
</svg>
