<svg width="12" height="16" viewBox="0 0 12 16" fill="none" xmlns="http://www.w3.org/2000/svg">
<path fill-rule="evenodd" clip-rule="evenodd" d="M8.7064 2.0609C8.85255 2.12149 8.97745 2.22406 9.0653 2.35563C9.15317 2.48721 9.2 2.64188 9.2 2.8001V12.4001C9.19997 12.5583 9.15303 12.713 9.06512 12.8445C8.97722 12.976 8.85228 13.0785 8.70612 13.139C8.55996 13.1996 8.39914 13.2154 8.24398 13.1846C8.08882 13.1537 7.94628 13.0775 7.8344 12.9657L4.8688 10.0001H2.8C2.58782 10.0001 2.38434 9.91584 2.23431 9.76576C2.08429 9.61576 2 9.41224 2 9.20008V6.0001C2 5.78792 2.08429 5.58444 2.23431 5.43441C2.38434 5.28438 2.58782 5.2001 2.8 5.2001H4.8688L7.8344 2.2345C7.94628 2.12254 8.08884 2.0463 8.24406 2.0154C8.39928 1.9845 8.56018 2.00033 8.7064 2.0609Z" fill="#5F5F5F"/>
</svg>
