<svg width="40" height="40" viewBox="0 0 40 40" fill="none" xmlns="http://www.w3.org/2000/svg">
<rect width="40" height="40" rx="20" fill="#FEF5FF"/>
<path d="M20 28C18.8991 28 17.8621 27.7895 16.8889 27.3684C15.9157 26.9473 15.0681 26.3757 14.3462 25.6538C13.6243 24.9319 13.0527 24.0843 12.6316 23.1111C12.2105 22.1379 12 21.1009 12 20C12 18.8957 12.2105 17.8578 12.6316 16.8862C13.0527 15.9148 13.6243 15.0681 14.3462 14.3462C15.0681 13.6243 15.9157 13.0527 16.8889 12.6316C17.8621 12.2105 18.8991 12 20 12C21.1043 12 22.1422 12.2105 23.1138 12.6316C24.0852 13.0527 24.9319 13.6243 25.6538 14.3462C26.3757 15.0681 26.9473 15.9148 27.3684 16.8862C27.7895 17.8578 28 18.8957 28 20C28 21.1009 27.7895 22.1379 27.3684 23.1111C26.9473 24.0843 26.3757 24.9319 25.6538 25.6538C24.9319 26.3757 24.0852 26.9473 23.1138 27.3684C22.1422 27.7895 21.1043 28 20 28ZM20 27.118C20.5219 26.4479 20.9521 25.7898 21.2907 25.1436C21.629 24.4975 21.9042 23.7744 22.1162 22.9744H17.8838C18.1186 23.8199 18.3995 24.5658 18.7264 25.212C19.0536 25.8581 19.4781 26.4934 20 27.118ZM18.8684 26.9847C18.4536 26.4958 18.075 25.8915 17.7324 25.1718C17.3901 24.4521 17.1351 23.7196 16.9676 22.9744H13.5589C14.0684 24.0798 14.7906 24.9863 15.7256 25.694C16.6607 26.4017 17.7083 26.8319 18.8684 26.9847ZM21.1316 26.9847C22.2917 26.8319 23.3393 26.4017 24.2744 25.694C25.2094 24.9863 25.9316 24.0798 26.4411 22.9744H23.0324C22.808 23.731 22.5245 24.4692 22.182 25.1889C21.8396 25.9086 21.4895 26.5072 21.1316 26.9847ZM13.1967 22.0856H16.7829C16.7156 21.7208 16.6681 21.3655 16.6402 21.0196C16.6122 20.6738 16.5982 20.3339 16.5982 20C16.5982 19.6661 16.6122 19.3262 16.6402 18.9804C16.6681 18.6345 16.7156 18.2792 16.7829 17.9144H13.1967C13.0998 18.2221 13.0242 18.5575 12.97 18.9204C12.9159 19.2834 12.8889 19.6433 12.8889 20C12.8889 20.3567 12.9159 20.7166 12.97 21.0796C13.0242 21.4425 13.0998 21.7779 13.1967 22.0856ZM17.6718 22.0856H22.3282C22.3955 21.7208 22.443 21.3712 22.4709 21.0367C22.4989 20.7023 22.5129 20.3567 22.5129 20C22.5129 19.6433 22.4989 19.2977 22.4709 18.9633C22.443 18.6288 22.3955 18.2792 22.3282 17.9144H17.6718C17.6045 18.2792 17.557 18.6288 17.5291 18.9633C17.5011 19.2977 17.4871 19.6433 17.4871 20C17.4871 20.3567 17.5011 20.7023 17.5291 21.0367C17.557 21.3712 17.6045 21.7208 17.6718 22.0856ZM23.2171 22.0856H26.8033C26.9002 21.7779 26.9758 21.4425 27.03 21.0796C27.0841 20.7166 27.1111 20.3567 27.1111 20C27.1111 19.6433 27.0841 19.2834 27.03 18.9204C26.9758 18.5575 26.9002 18.2221 26.8033 17.9144H23.2171C23.2844 18.2792 23.3319 18.6345 23.3598 18.9804C23.3878 19.3262 23.4018 19.6661 23.4018 20C23.4018 20.3339 23.3878 20.6738 23.3598 21.0196C23.3319 21.3655 23.2844 21.7208 23.2171 22.0856ZM23.0324 17.0256H26.4411C25.9202 15.8974 25.2065 14.9909 24.3 14.306C23.3935 13.6211 22.3373 13.1852 21.1316 12.9982C21.5464 13.5441 21.9193 14.1684 22.2504 14.8709C22.5816 15.5736 22.8422 16.2918 23.0324 17.0256ZM17.8838 17.0256H22.1162C21.8814 16.1915 21.5919 15.4371 21.2478 14.7624C20.9036 14.0878 20.4877 13.461 20 12.882C19.5123 13.461 19.0964 14.0878 18.7522 14.7624C18.4081 15.4371 18.1186 16.1915 17.8838 17.0256ZM13.5589 17.0256H16.9676C17.1578 16.2918 17.4184 15.5736 17.7496 14.8709C18.0807 14.1684 18.4536 13.5441 18.8684 12.9982C17.6513 13.1852 16.5923 13.6239 15.6916 14.3144C14.7907 15.0051 14.0798 15.9088 13.5589 17.0256Z" fill="#792A85" stroke="#792A85" stroke-width="0.7"/>
</svg>
