<svg width="40" height="39" viewBox="0 0 40 39" fill="none" xmlns="http://www.w3.org/2000/svg">
<ellipse cx="20" cy="19.5025" rx="20" ry="19.5025" fill="#792A85"/>
<path d="M23.25 19.5025L18 16.5771V22.4279L23.25 19.5025Z" fill="#FEF5FF"/>
<path fill-rule="evenodd" clip-rule="evenodd" d="M0 19.5025C0 8.73157 8.95431 0 20 0C31.0457 0 40 8.73157 40 19.5025C40 30.2735 31.0457 39.005 20 39.005C8.95431 39.005 0 30.2735 0 19.5025ZM27.75 13.0423C28.625 13.2861 29.25 13.8955 29.5 14.7488C30 16.3334 30 19.5025 30 19.5025C30 19.5025 30 22.6717 29.625 24.2563C29.375 25.1095 28.75 25.7189 27.875 25.9627C26.25 26.3284 20 26.3284 20 26.3284C20 26.3284 13.625 26.3284 12.125 25.9627C11.25 25.7189 10.625 25.1095 10.375 24.2563C10 22.6717 10 19.5025 10 19.5025C10 19.5025 10 16.3334 10.25 14.7488C10.5 13.8955 11.125 13.2861 12 13.0423C13.625 12.6766 19.875 12.6766 19.875 12.6766C19.875 12.6766 26.25 12.6766 27.75 13.0423Z" fill="#FEF5FF"/>
</svg>
